{
	"header": {
		"format": 1,
		"numTracks": 3,
		"ticksPerBeat": 240
	},
	"tracks": [
		[
			{
				"deltaTime": 0,
				"meta": true,
				"type": "timeSignature",
				"numerator": 4,
				"denominator": 4,
				"metronome": 24,
				"thirtyseconds": 8
			},
			{
				"deltaTime": 0,
				"meta": true,
				"type": "setTempo",
				"microsecondsPerBeat": 652174
			},
			{
				"deltaTime": 0,
				"meta": true,
				"type": "endOfTrack"
			}
		],
		[
			{
				"deltaTime": 0,
				"meta": true,
				"type": "text",
				"text": "RH"
			},
			{
				"deltaTime": 120,
				"channel": 0,
				"type": "noteOn",
				"noteNumber": 72,
				"velocity": 64
			},
			{
				"deltaTime": 60,
				"channel": 0,
				"type": "noteOff",
				"noteNumber": 72,
				"velocity": 64
			},
			{
				"deltaTime": 0,
				"channel": 0,
				"type": "noteOn",
				"noteNumber": 71,
				"velocity": 64
			},
			{
				"deltaTime": 60,
				"channel": 0,
				"type": "noteOff",
				"noteNumber": 71,
				"velocity": 64
			},
			{
				"deltaTime": 0,
				"channel": 0,
				"type": "noteOn",
				"noteNumber": 72,
				"velocity": 64
			},
			{
				"deltaTime": 60,
				"channel": 0,
				"type": "noteOff",
				"noteNumber": 72,
				"velocity": 64
			},
			{
				"deltaTime": 0,
				"channel": 0,
				"type": "noteOn",
				"noteNumber": 74,
				"velocity": 64
			},
			{
				"deltaTime": 60,
				"channel": 0,
				"type": "noteOff",
				"noteNumber": 74,
				"velocity": 64
			},
			{
				"deltaTime": 0,
				"channel": 0,
				"type": "noteOn",
				"noteNumber": 75,
				"velocity": 64
			},
			{
				"deltaTime": 60,
				"channel": 0,
				"type": "noteOff",
				"noteNumber": 75,
				"velocity": 64
			},
			{
				"deltaTime": 0,
				"channel": 0,
				"type": "noteOn",
				"noteNumber": 67,
				"velocity": 64
			},
			{
				"deltaTime": 60,
				"channel": 0,
				"type": "noteOff",
				"noteNumber": 67,
				"velocity": 64
			},
			{
				"deltaTime": 0,
				"channel": 0,
				"type": "noteOn",
				"noteNumber": 68,
				"velocity": 64
			},
			{
				"deltaTime": 60,
				"channel": 0,
				"type": "noteOff",
				"noteNumber": 68,
				"velocity": 64
			},
			{
				"deltaTime": 0,
				"channel": 0,
				"type": "noteOn",
				"noteNumber": 70,
				"velocity": 64
			},
			{
				"deltaTime": 60,
				"channel": 0,
				"type": "noteOff",
				"noteNumber": 70,
				"velocity": 64
			},
			{
				"deltaTime": 0,
				"channel": 0,
				"type": "noteOn",
				"noteNumber": 68,
				"velocity": 64
			},
			{
				"deltaTime": 60,
				"channel": 0,
				"type": "noteOff",
				"noteNumber": 68,
				"velocity": 64
			},
			{
				"deltaTime": 0,
				"channel": 0,
				"type": "noteOn",
				"noteNumber": 65,
				"velocity": 64
			},
			{
				"deltaTime": 60,
				"channel": 0,
				"type": "noteOff",
				"noteNumber": 65,
				"velocity": 64
			},
			{
				"deltaTime": 0,
				"channel": 0,
				"type": "noteOn",
				"noteNumber": 77,
				"velocity": 64
			},
			{
				"deltaTime": 60,
				"channel": 0,
				"type": "noteOff",
				"noteNumber": 77,
				"velocity": 64
			},
			{
				"deltaTime": 0,
				"channel": 0,
				"type": "noteOn",
				"noteNumber": 75,
				"velocity": 64
			},
			{
				"deltaTime": 60,
				"channel": 0,
				"type": "noteOff",
				"noteNumber": 75,
				"velocity": 64
			},
			{
				"deltaTime": 0,
				"channel": 0,
				"type": "noteOn",
				"noteNumber": 74,
				"velocity": 64
			},
			{
				"deltaTime": 60,
				"channel": 0,
				"type": "noteOff",
				"noteNumber": 74,
				"velocity": 64
			},
			{
				"deltaTime": 0,
				"channel": 0,
				"type": "noteOn",
				"noteNumber": 72,
				"velocity": 64
			},
			{
				"deltaTime": 60,
				"channel": 0,
				"type": "noteOff",
				"noteNumber": 72,
				"velocity": 64
			},
			{
				"deltaTime": 0,
				"channel": 0,
				"type": "noteOn",
				"noteNumber": 71,
				"velocity": 64
			},
			{
				"deltaTime": 60,
				"channel": 0,
				"type": "noteOff",
				"noteNumber": 71,
				"velocity": 64
			},
			{
				"deltaTime": 0,
				"channel": 0,
				"type": "noteOn",
				"noteNumber": 80,
				"velocity": 64
			},
			{
				"deltaTime": 60,
				"channel": 0,
				"type": "noteOff",
				"noteNumber": 80,
				"velocity": 64
			},
			{
				"deltaTime": 0,
				"channel": 0,
				"type": "noteOn",
				"noteNumber": 79,
				"velocity": 64
			},
			{
				"deltaTime": 60,
				"channel": 0,
				"type": "noteOff",
				"noteNumber": 79,
				"velocity": 64
			},
			{
				"deltaTime": 0,
				"channel": 0,
				"type": "noteOn",
				"noteNumber": 77,
				"velocity": 64
			},
			{
				"deltaTime": 60,
				"channel": 0,
				"type": "noteOff",
				"noteNumber": 77,
				"velocity": 64
			},
			{
				"deltaTime": 0,
				"channel": 0,
				"type": "noteOn",
				"noteNumber": 75,
				"velocity": 64
			},
			{
				"deltaTime": 60,
				"channel": 0,
				"type": "noteOff",
				"noteNumber": 75,
				"velocity": 64
			},
			{
				"deltaTime": 0,
				"channel": 0,
				"type": "noteOn",
				"noteNumber": 74,
				"velocity": 64
			},
			{
				"deltaTime": 60,
				"channel": 0,
				"type": "noteOff",
				"noteNumber": 74,
				"velocity": 64
			},
			{
				"deltaTime": 0,
				"channel": 0,
				"type": "noteOn",
				"noteNumber": 72,
				"velocity": 64
			},
			{
				"deltaTime": 60,
				"channel": 0,
				"type": "noteOff",
				"noteNumber": 72,
				"velocity": 64
			},
			{
				"deltaTime": 0,
				"channel": 0,
				"type": "noteOn",
				"noteNumber": 71,
				"velocity": 64
			},
			{
				"deltaTime": 60,
				"channel": 0,
				"type": "noteOff",
				"noteNumber": 71,
				"velocity": 64
			},
			{
				"deltaTime": 0,
				"channel": 0,
				"type": "noteOn",
				"noteNumber": 72,
				"velocity": 64
			},
			{
				"deltaTime": 60,
				"channel": 0,
				"type": "noteOff",
				"noteNumber": 72,
				"velocity": 64
			},
			{
				"deltaTime": 0,
				"channel": 0,
				"type": "noteOn",
				"noteNumber": 74,
				"velocity": 64
			},
			{
				"deltaTime": 60,
				"channel": 0,
				"type": "noteOff",
				"noteNumber": 74,
				"velocity": 64
			},
			{
				"deltaTime": 0,
				"channel": 0,
				"type": "noteOn",
				"noteNumber": 72,
				"velocity": 64
			},
			{
				"deltaTime": 60,
				"channel": 0,
				"type": "noteOff",
				"noteNumber": 72,
				"velocity": 64
			},
			{
				"deltaTime": 0,
				"channel": 0,
				"type": "noteOn",
				"noteNumber": 74,
				"velocity": 64
			},
			{
				"deltaTime": 60,
				"channel": 0,
				"type": "noteOff",
				"noteNumber": 74,
				"velocity": 64
			},
			{
				"deltaTime": 0,
				"channel": 0,
				"type": "noteOn",
				"noteNumber": 75,
				"velocity": 48
			},
			{
				"deltaTime": 30,
				"channel": 0,
				"type": "noteOn",
				"noteNumber": 74,
				"velocity": 49
			},
			{
				"deltaTime": 3,
				"channel": 0,
				"type": "noteOff",
				"noteNumber": 75,
				"velocity": 64
			},
			{
				"deltaTime": 27,
				"channel": 0,
				"type": "noteOn",
				"noteNumber": 75,
				"velocity": 51
			},
			{
				"deltaTime": 3,
				"channel": 0,
				"type": "noteOff",
				"noteNumber": 74,
				"velocity": 64
			},
			{
				"deltaTime": 27,
				"channel": 0,
				"type": "noteOn",
				"noteNumber": 74,
				"velocity": 53
			},
			{
				"deltaTime": 3,
				"channel": 0,
				"type": "noteOff",
				"noteNumber": 75,
				"velocity": 64
			},
			{
				"deltaTime": 27,
				"channel": 0,
				"type": "noteOn",
				"noteNumber": 75,
				"velocity": 54
			},
			{
				"deltaTime": 3,
				"channel": 0,
				"type": "noteOff",
				"noteNumber": 74,
				"velocity": 64
			},
			{
				"deltaTime": 27,
				"channel": 0,
				"type": "noteOn",
				"noteNumber": 74,
				"velocity": 56
			},
			{
				"deltaTime": 3,
				"channel": 0,
				"type": "noteOff",
				"noteNumber": 75,
				"velocity": 64
			},
			{
				"deltaTime": 27,
				"channel": 0,
				"type": "noteOn",
				"noteNumber": 72,
				"velocity": 57
			},
			{
				"deltaTime": 3,
				"channel": 0,
				"type": "noteOff",
				"noteNumber": 74,
				"velocity": 64
			},
			{
				"deltaTime": 27,
				"channel": 0,
				"type": "noteOn",
				"noteNumber": 74,
				"velocity": 59
			},
			{
				"deltaTime": 3,
				"channel": 0,
				"type": "noteOff",
				"noteNumber": 72,
				"velocity": 64
			},
			{
				"deltaTime": 27,
				"channel": 0,
				"type": "noteOn",
				"noteNumber": 75,
				"velocity": 64
			},
			{
				"deltaTime": 3,
				"channel": 0,
				"type": "noteOff",
				"noteNumber": 74,
				"velocity": 64
			},
			{
				"deltaTime": 57,
				"channel": 0,
				"type": "noteOff",
				"noteNumber": 75,
				"velocity": 64
			},
			{
				"deltaTime": 0,
				"channel": 0,
				"type": "noteOn",
				"noteNumber": 74,
				"velocity": 64
			},
			{
				"deltaTime": 60,
				"channel": 0,
				"type": "noteOff",
				"noteNumber": 74,
				"velocity": 64
			},
			{
				"deltaTime": 0,
				"channel": 0,
				"type": "noteOn",
				"noteNumber": 72,
				"velocity": 64
			},
			{
				"deltaTime": 60,
				"channel": 0,
				"type": "noteOff",
				"noteNumber": 72,
				"velocity": 64
			},
			{
				"deltaTime": 0,
				"channel": 0,
				"type": "noteOn",
				"noteNumber": 74,
				"velocity": 64
			},
			{
				"deltaTime": 60,
				"channel": 0,
				"type": "noteOff",
				"noteNumber": 74,
				"velocity": 64
			},
			{
				"deltaTime": 0,
				"channel": 0,
				"type": "noteOn",
				"noteNumber": 75,
				"velocity": 64
			},
			{
				"deltaTime": 60,
				"channel": 0,
				"type": "noteOff",
				"noteNumber": 75,
				"velocity": 64
			},
			{
				"deltaTime": 0,
				"channel": 0,
				"type": "noteOn",
				"noteNumber": 77,
				"velocity": 64
			},
			{
				"deltaTime": 60,
				"channel": 0,
				"type": "noteOff",
				"noteNumber": 77,
				"velocity": 64
			},
			{
				"deltaTime": 0,
				"channel": 0,
				"type": "noteOn",
				"noteNumber": 79,
				"velocity": 64
			},
			{
				"deltaTime": 100,
				"channel": 0,
				"type": "noteOff",
				"noteNumber": 79,
				"velocity": 64
			},
			{
				"deltaTime": 20,
				"channel": 0,
				"type": "noteOn",
				"noteNumber": 79,
				"velocity": 64
			},
			{
				"deltaTime": 20,
				"channel": 0,
				"type": "noteOff",
				"noteNumber": 79,
				"velocity": 64
			},
			{
				"deltaTime": 0,
				"channel": 0,
				"type": "noteOn",
				"noteNumber": 80,
				"velocity": 56
			},
			{
				"deltaTime": 20,
				"channel": 0,
				"type": "noteOff",
				"noteNumber": 80,
				"velocity": 64
			},
			{
				"deltaTime": 0,
				"channel": 0,
				"type": "noteOn",
				"noteNumber": 79,
				"velocity": 64
			},
			{
				"deltaTime": 90,
				"channel": 0,
				"type": "noteOff",
				"noteNumber": 79,
				"velocity": 64
			},
			{
				"deltaTime": 0,
				"channel": 0,
				"type": "noteOn",
				"noteNumber": 77,
				"velocity": 64
			},
			{
				"deltaTime": 120,
				"channel": 0,
				"type": "noteOff",
				"noteNumber": 77,
				"velocity": 64
			},
			{
				"deltaTime": 110,
				"channel": 0,
				"type": "noteOn",
				"noteNumber": 77,
				"velocity": 64
			},
			{
				"deltaTime": 100,
				"channel": 0,
				"type": "noteOff",
				"noteNumber": 77,
				"velocity": 64
			},
			{
				"deltaTime": 20,
				"channel": 0,
				"type": "noteOn",
				"noteNumber": 77,
				"velocity": 64
			},
			{
				"deltaTime": 20,
				"channel": 0,
				"type": "noteOff",
				"noteNumber": 77,
				"velocity": 64
			},
			{
				"deltaTime": 0,
				"channel": 0,
				"type": "noteOn",
				"noteNumber": 78,
				"velocity": 56
			},
			{
				"deltaTime": 20,
				"channel": 0,
				"type": "noteOff",
				"noteNumber": 78,
				"velocity": 64
			},
			{
				"deltaTime": 0,
				"channel": 0,
				"type": "noteOn",
				"noteNumber": 77,
				"velocity": 64
			},
			{
				"deltaTime": 90,
				"channel": 0,
				"type": "noteOff",
				"noteNumber": 77,
				"velocity": 64
			},
			{
				"deltaTime": 0,
				"channel": 0,
				"type": "noteOn",
				"noteNumber": 75,
				"velocity": 64
			},
			{
				"deltaTime": 120,
				"channel": 0,
				"type": "noteOff",
				"noteNumber": 75,
				"velocity": 64
			},
			{
				"deltaTime": 110,
				"channel": 0,
				"type": "noteOn",
				"noteNumber": 74,
				"velocity": 64
			},
			{
				"deltaTime": 120,
				"channel": 0,
				"type": "noteOff",
				"noteNumber": 74,
				"velocity": 64
			},
			{
				"deltaTime": 0,
				"channel": 0,
				"type": "noteOn",
				"noteNumber": 75,
				"velocity": 64
			},
			{
				"deltaTime": 120,
				"channel": 0,
				"type": "noteOff",
				"noteNumber": 75,
				"velocity": 64
			},
			{
				"deltaTime": 0,
				"channel": 0,
				"type": "noteOn",
				"noteNumber": 68,
				"velocity": 64
			},
			{
				"deltaTime": 180,
				"channel": 0,
				"type": "noteOff",
				"noteNumber": 68,
				"velocity": 64
			},
			{
				"deltaTime": 0,
				"channel": 0,
				"type": "noteOn",
				"noteNumber": 65,
				"velocity": 64
			},
			{
				"deltaTime": 60,
				"channel": 0,
				"type": "noteOff",
				"noteNumber": 65,
				"velocity": 64
			},
			{
				"deltaTime": 0,
				"channel": 0,
				"type": "noteOn",
				"noteNumber": 70,
				"velocity": 64
			},
			{
				"deltaTime": 60,
				"channel": 0,
				"type": "noteOff",
				"noteNumber": 70,
				"velocity": 64
			},
			{
				"deltaTime": 0,
				"channel": 0,
				"type": "noteOn",
				"noteNumber": 65,
				"velocity": 64
			},
			{
				"deltaTime": 60,
				"channel": 0,
				"type": "noteOff",
				"noteNumber": 65,
				"velocity": 64
			},
			{
				"deltaTime": 0,
				"channel": 0,
				"type": "noteOn",
				"noteNumber": 67,
				"velocity": 64
			},
			{
				"deltaTime": 120,
				"channel": 0,
				"type": "noteOff",
				"noteNumber": 67,
				"velocity": 64
			},
			{
				"deltaTime": 0,
				"channel": 0,
				"type": "noteOn",
				"noteNumber": 75,
				"velocity": 64
			},
			{
				"deltaTime": 180,
				"channel": 0,
				"type": "noteOff",
				"noteNumber": 75,
				"velocity": 64
			},
			{
				"deltaTime": 0,
				"channel": 0,
				"type": "noteOn",
				"noteNumber": 74,
				"velocity": 64
			},
			{
				"deltaTime": 60,
				"channel": 0,
				"type": "noteOff",
				"noteNumber": 74,
				"velocity": 64
			},
			{
				"deltaTime": 0,
				"channel": 0,
				"type": "noteOn",
				"noteNumber": 75,
				"velocity": 64
			},
			{
				"deltaTime": 60,
				"channel": 0,
				"type": "noteOff",
				"noteNumber": 75,
				"velocity": 64
			},
			{
				"deltaTime": 0,
				"channel": 0,
				"type": "noteOn",
				"noteNumber": 70,
				"velocity": 64
			},
			{
				"deltaTime": 60,
				"channel": 0,
				"type": "noteOff",
				"noteNumber": 70,
				"velocity": 64
			},
			{
				"deltaTime": 0,
				"channel": 0,
				"type": "noteOn",
				"noteNumber": 72,
				"velocity": 64
			},
			{
				"deltaTime": 60,
				"channel": 0,
				"type": "noteOff",
				"noteNumber": 72,
				"velocity": 64
			},
			{
				"deltaTime": 0,
				"channel": 0,
				"type": "noteOn",
				"noteNumber": 75,
				"velocity": 64
			},
			{
				"deltaTime": 60,
				"channel": 0,
				"type": "noteOff",
				"noteNumber": 75,
				"velocity": 64
			},
			{
				"deltaTime": 0,
				"channel": 0,
				"type": "noteOn",
				"noteNumber": 80,
				"velocity": 64
			},
			{
				"deltaTime": 60,
				"channel": 0,
				"type": "noteOff",
				"noteNumber": 80,
				"velocity": 64
			},
			{
				"deltaTime": 0,
				"channel": 0,
				"type": "noteOn",
				"noteNumber": 79,
				"velocity": 64
			},
			{
				"deltaTime": 60,
				"channel": 0,
				"type": "noteOff",
				"noteNumber": 79,
				"velocity": 64
			},
			{
				"deltaTime": 0,
				"channel": 0,
				"type": "noteOn",
				"noteNumber": 77,
				"velocity": 64
			},
			{
				"deltaTime": 60,
				"channel": 0,
				"type": "noteOff",
				"noteNumber": 77,
				"velocity": 64
			},
			{
				"deltaTime": 0,
				"channel": 0,
				"type": "noteOn",
				"noteNumber": 75,
				"velocity": 64
			},
			{
				"deltaTime": 60,
				"channel": 0,
				"type": "noteOff",
				"noteNumber": 75,
				"velocity": 64
			},
			{
				"deltaTime": 0,
				"channel": 0,
				"type": "noteOn",
				"noteNumber": 74,
				"velocity": 64
			},
			{
				"deltaTime": 60,
				"channel": 0,
				"type": "noteOff",
				"noteNumber": 74,
				"velocity": 64
			},
			{
				"deltaTime": 0,
				"channel": 0,
				"type": "noteOn",
				"noteNumber": 72,
				"velocity": 64
			},
			{
				"deltaTime": 60,
				"channel": 0,
				"type": "noteOff",
				"noteNumber": 72,
				"velocity": 64
			},
			{
				"deltaTime": 0,
				"channel": 0,
				"type": "noteOn",
				"noteNumber": 70,
				"velocity": 64
			},
			{
				"deltaTime": 60,
				"channel": 0,
				"type": "noteOff",
				"noteNumber": 70,
				"velocity": 64
			},
			{
				"deltaTime": 0,
				"channel": 0,
				"type": "noteOn",
				"noteNumber": 74,
				"velocity": 64
			},
			{
				"deltaTime": 60,
				"channel": 0,
				"type": "noteOff",
				"noteNumber": 74,
				"velocity": 64
			},
			{
				"deltaTime": 0,
				"channel": 0,
				"type": "noteOn",
				"noteNumber": 79,
				"velocity": 64
			},
			{
				"deltaTime": 60,
				"channel": 0,
				"type": "noteOff",
				"noteNumber": 79,
				"velocity": 64
			},
			{
				"deltaTime": 0,
				"channel": 0,
				"type": "noteOn",
				"noteNumber": 77,
				"velocity": 64
			},
			{
				"deltaTime": 60,
				"channel": 0,
				"type": "noteOff",
				"noteNumber": 77,
				"velocity": 64
			},
			{
				"deltaTime": 0,
				"channel": 0,
				"type": "noteOn",
				"noteNumber": 75,
				"velocity": 64
			},
			{
				"deltaTime": 60,
				"channel": 0,
				"type": "noteOff",
				"noteNumber": 75,
				"velocity": 64
			},
			{
				"deltaTime": 0,
				"channel": 0,
				"type": "noteOn",
				"noteNumber": 74,
				"velocity": 64
			},
			{
				"deltaTime": 60,
				"channel": 0,
				"type": "noteOff",
				"noteNumber": 74,
				"velocity": 64
			},
			{
				"deltaTime": 0,
				"channel": 0,
				"type": "noteOn",
				"noteNumber": 72,
				"velocity": 64
			},
			{
				"deltaTime": 60,
				"channel": 0,
				"type": "noteOff",
				"noteNumber": 72,
				"velocity": 64
			},
			{
				"deltaTime": 0,
				"channel": 0,
				"type": "noteOn",
				"noteNumber": 70,
				"velocity": 64
			},
			{
				"deltaTime": 60,
				"channel": 0,
				"type": "noteOff",
				"noteNumber": 70,
				"velocity": 64
			},
			{
				"deltaTime": 0,
				"channel": 0,
				"type": "noteOn",
				"noteNumber": 68,
				"velocity": 64
			},
			{
				"deltaTime": 60,
				"channel": 0,
				"type": "noteOff",
				"noteNumber": 68,
				"velocity": 64
			},
			{
				"deltaTime": 0,
				"channel": 0,
				"type": "noteOn",
				"noteNumber": 72,
				"velocity": 64
			},
			{
				"deltaTime": 60,
				"channel": 0,
				"type": "noteOff",
				"noteNumber": 72,
				"velocity": 64
			},
			{
				"deltaTime": 0,
				"channel": 0,
				"type": "noteOn",
				"noteNumber": 77,
				"velocity": 64
			},
			{
				"deltaTime": 60,
				"channel": 0,
				"type": "noteOff",
				"noteNumber": 77,
				"velocity": 64
			},
			{
				"deltaTime": 0,
				"channel": 0,
				"type": "noteOn",
				"noteNumber": 72,
				"velocity": 64
			},
			{
				"deltaTime": 60,
				"channel": 0,
				"type": "noteOff",
				"noteNumber": 72,
				"velocity": 64
			},
			{
				"deltaTime": 0,
				"channel": 0,
				"type": "noteOn",
				"noteNumber": 74,
				"velocity": 64
			},
			{
				"deltaTime": 180,
				"channel": 0,
				"type": "noteOff",
				"noteNumber": 74,
				"velocity": 64
			},
			{
				"deltaTime": 0,
				"channel": 0,
				"type": "noteOn",
				"noteNumber": 74,
				"velocity": 64
			},
			{
				"deltaTime": 60,
				"channel": 0,
				"type": "noteOff",
				"noteNumber": 74,
				"velocity": 64
			},
			{
				"deltaTime": 0,
				"channel": 0,
				"type": "noteOn",
				"noteNumber": 75,
				"velocity": 64
			},
			{
				"deltaTime": 60,
				"channel": 0,
				"type": "noteOff",
				"noteNumber": 75,
				"velocity": 64
			},
			{
				"deltaTime": 0,
				"channel": 0,
				"type": "noteOn",
				"noteNumber": 70,
				"velocity": 64
			},
			{
				"deltaTime": 60,
				"channel": 0,
				"type": "noteOff",
				"noteNumber": 70,
				"velocity": 64
			},
			{
				"deltaTime": 0,
				"channel": 0,
				"type": "noteOn",
				"noteNumber": 72,
				"velocity": 64
			},
			{
				"deltaTime": 60,
				"channel": 0,
				"type": "noteOff",
				"noteNumber": 72,
				"velocity": 64
			},
			{
				"deltaTime": 0,
				"channel": 0,
				"type": "noteOn",
				"noteNumber": 70,
				"velocity": 64
			},
			{
				"deltaTime": 60,
				"channel": 0,
				"type": "noteOff",
				"noteNumber": 70,
				"velocity": 64
			},
			{
				"deltaTime": 0,
				"channel": 0,
				"type": "noteOn",
				"noteNumber": 79,
				"velocity": 64
			},
			{
				"deltaTime": 290,
				"channel": 0,
				"type": "noteOff",
				"noteNumber": 79,
				"velocity": 64
			},
			{
				"deltaTime": 10,
				"channel": 0,
				"type": "noteOn",
				"noteNumber": 70,
				"velocity": 64
			},
			{
				"deltaTime": 60,
				"channel": 0,
				"type": "noteOff",
				"noteNumber": 70,
				"velocity": 64
			},
			{
				"deltaTime": 0,
				"channel": 0,
				"type": "noteOn",
				"noteNumber": 72,
				"velocity": 64
			},
			{
				"deltaTime": 60,
				"channel": 0,
				"type": "noteOff",
				"noteNumber": 72,
				"velocity": 64
			},
			{
				"deltaTime": 0,
				"channel": 0,
				"type": "noteOn",
				"noteNumber": 70,
				"velocity": 64
			},
			{
				"deltaTime": 60,
				"channel": 0,
				"type": "noteOff",
				"noteNumber": 70,
				"velocity": 64
			},
			{
				"deltaTime": 0,
				"channel": 0,
				"type": "noteOn",
				"noteNumber": 80,
				"velocity": 64
			},
			{
				"deltaTime": 290,
				"channel": 0,
				"type": "noteOff",
				"noteNumber": 80,
				"velocity": 64
			},
			{
				"deltaTime": 10,
				"channel": 0,
				"type": "noteOn",
				"noteNumber": 70,
				"velocity": 64
			},
			{
				"deltaTime": 60,
				"channel": 0,
				"type": "noteOff",
				"noteNumber": 70,
				"velocity": 64
			},
			{
				"deltaTime": 0,
				"channel": 0,
				"type": "noteOn",
				"noteNumber": 75,
				"velocity": 64
			},
			{
				"deltaTime": 60,
				"channel": 0,
				"type": "noteOff",
				"noteNumber": 75,
				"velocity": 64
			},
			{
				"deltaTime": 0,
				"channel": 0,
				"type": "noteOn",
				"noteNumber": 74,
				"velocity": 64
			},
			{
				"deltaTime": 60,
				"channel": 0,
				"type": "noteOff",
				"noteNumber": 74,
				"velocity": 64
			},
			{
				"deltaTime": 0,
				"channel": 0,
				"type": "noteOn",
				"noteNumber": 79,
				"velocity": 64
			},
			{
				"deltaTime": 60,
				"channel": 0,
				"type": "noteOff",
				"noteNumber": 79,
				"velocity": 64
			},
			{
				"deltaTime": 0,
				"channel": 0,
				"type": "noteOn",
				"noteNumber": 77,
				"velocity": 64
			},
			{
				"deltaTime": 60,
				"channel": 0,
				"type": "noteOff",
				"noteNumber": 77,
				"velocity": 64
			},
			{
				"deltaTime": 0,
				"channel": 0,
				"type": "noteOn",
				"noteNumber": 80,
				"velocity": 64
			},
			{
				"deltaTime": 60,
				"channel": 0,
				"type": "noteOff",
				"noteNumber": 80,
				"velocity": 64
			},
			{
				"deltaTime": 0,
				"channel": 0,
				"type": "noteOn",
				"noteNumber": 79,
				"velocity": 64
			},
			{
				"deltaTime": 60,
				"channel": 0,
				"type": "noteOff",
				"noteNumber": 79,
				"velocity": 64
			},
			{
				"deltaTime": 0,
				"channel": 0,
				"type": "noteOn",
				"noteNumber": 84,
				"velocity": 64
			},
			{
				"deltaTime": 60,
				"channel": 0,
				"type": "noteOff",
				"noteNumber": 84,
				"velocity": 64
			},
			{
				"deltaTime": 0,
				"channel": 0,
				"type": "noteOn",
				"noteNumber": 82,
				"velocity": 64
			},
			{
				"deltaTime": 60,
				"channel": 0,
				"type": "noteOff",
				"noteNumber": 82,
				"velocity": 64
			},
			{
				"deltaTime": 0,
				"channel": 0,
				"type": "noteOn",
				"noteNumber": 80,
				"velocity": 64
			},
			{
				"deltaTime": 60,
				"channel": 0,
				"type": "noteOff",
				"noteNumber": 80,
				"velocity": 64
			},
			{
				"deltaTime": 0,
				"channel": 0,
				"type": "noteOn",
				"noteNumber": 79,
				"velocity": 64
			},
			{
				"deltaTime": 60,
				"channel": 0,
				"type": "noteOff",
				"noteNumber": 79,
				"velocity": 64
			},
			{
				"deltaTime": 0,
				"channel": 0,
				"type": "noteOn",
				"noteNumber": 77,
				"velocity": 64
			},
			{
				"deltaTime": 60,
				"channel": 0,
				"type": "noteOff",
				"noteNumber": 77,
				"velocity": 64
			},
			{
				"deltaTime": 0,
				"channel": 0,
				"type": "noteOn",
				"noteNumber": 82,
				"velocity": 64
			},
			{
				"deltaTime": 60,
				"channel": 0,
				"type": "noteOff",
				"noteNumber": 82,
				"velocity": 64
			},
			{
				"deltaTime": 0,
				"channel": 0,
				"type": "noteOn",
				"noteNumber": 80,
				"velocity": 64
			},
			{
				"deltaTime": 60,
				"channel": 0,
				"type": "noteOff",
				"noteNumber": 80,
				"velocity": 64
			},
			{
				"deltaTime": 0,
				"channel": 0,
				"type": "noteOn",
				"noteNumber": 82,
				"velocity": 64
			},
			{
				"deltaTime": 60,
				"channel": 0,
				"type": "noteOff",
				"noteNumber": 82,
				"velocity": 64
			},
			{
				"deltaTime": 0,
				"channel": 0,
				"type": "noteOn",
				"noteNumber": 79,
				"velocity": 64
			},
			{
				"deltaTime": 60,
				"channel": 0,
				"type": "noteOff",
				"noteNumber": 79,
				"velocity": 64
			},
			{
				"deltaTime": 0,
				"channel": 0,
				"type": "noteOn",
				"noteNumber": 82,
				"velocity": 64
			},
			{
				"deltaTime": 60,
				"channel": 0,
				"type": "noteOff",
				"noteNumber": 82,
				"velocity": 64
			},
			{
				"deltaTime": 0,
				"channel": 0,
				"type": "noteOn",
				"noteNumber": 80,
				"velocity": 64
			},
			{
				"deltaTime": 60,
				"channel": 0,
				"type": "noteOff",
				"noteNumber": 80,
				"velocity": 64
			},
			{
				"deltaTime": 0,
				"channel": 0,
				"type": "noteOn",
				"noteNumber": 82,
				"velocity": 64
			},
			{
				"deltaTime": 60,
				"channel": 0,
				"type": "noteOff",
				"noteNumber": 82,
				"velocity": 64
			},
			{
				"deltaTime": 0,
				"channel": 0,
				"type": "noteOn",
				"noteNumber": 75,
				"velocity": 64
			},
			{
				"deltaTime": 60,
				"channel": 0,
				"type": "noteOff",
				"noteNumber": 75,
				"velocity": 64
			},
			{
				"deltaTime": 0,
				"channel": 0,
				"type": "noteOn",
				"noteNumber": 79,
				"velocity": 64
			},
			{
				"deltaTime": 60,
				"channel": 0,
				"type": "noteOff",
				"noteNumber": 79,
				"velocity": 64
			},
			{
				"deltaTime": 0,
				"channel": 0,
				"type": "noteOn",
				"noteNumber": 77,
				"velocity": 64
			},
			{
				"deltaTime": 60,
				"channel": 0,
				"type": "noteOff",
				"noteNumber": 77,
				"velocity": 64
			},
			{
				"deltaTime": 0,
				"channel": 0,
				"type": "noteOn",
				"noteNumber": 79,
				"velocity": 64
			},
			{
				"deltaTime": 60,
				"channel": 0,
				"type": "noteOff",
				"noteNumber": 79,
				"velocity": 64
			},
			{
				"deltaTime": 0,
				"channel": 0,
				"type": "noteOn",
				"noteNumber": 72,
				"velocity": 64
			},
			{
				"deltaTime": 60,
				"channel": 0,
				"type": "noteOff",
				"noteNumber": 72,
				"velocity": 64
			},
			{
				"deltaTime": 0,
				"channel": 0,
				"type": "noteOn",
				"noteNumber": 74,
				"velocity": 64
			},
			{
				"deltaTime": 60,
				"channel": 0,
				"type": "noteOff",
				"noteNumber": 74,
				"velocity": 64
			},
			{
				"deltaTime": 0,
				"channel": 0,
				"type": "noteOn",
				"noteNumber": 75,
				"velocity": 64
			},
			{
				"deltaTime": 60,
				"channel": 0,
				"type": "noteOff",
				"noteNumber": 75,
				"velocity": 64
			},
			{
				"deltaTime": 0,
				"channel": 0,
				"type": "noteOn",
				"noteNumber": 77,
				"velocity": 64
			},
			{
				"deltaTime": 60,
				"channel": 0,
				"type": "noteOff",
				"noteNumber": 77,
				"velocity": 64
			},
			{
				"deltaTime": 0,
				"channel": 0,
				"type": "noteOn",
				"noteNumber": 74,
				"velocity": 64
			},
			{
				"deltaTime": 60,
				"channel": 0,
				"type": "noteOff",
				"noteNumber": 74,
				"velocity": 64
			},
			{
				"deltaTime": 0,
				"channel": 0,
				"type": "noteOn",
				"noteNumber": 75,
				"velocity": 64
			},
			{
				"deltaTime": 60,
				"channel": 0,
				"type": "noteOff",
				"noteNumber": 75,
				"velocity": 64
			},
			{
				"deltaTime": 0,
				"channel": 0,
				"type": "noteOn",
				"noteNumber": 77,
				"velocity": 64
			},
			{
				"deltaTime": 60,
				"channel": 0,
				"type": "noteOff",
				"noteNumber": 77,
				"velocity": 64
			},
			{
				"deltaTime": 0,
				"channel": 0,
				"type": "noteOn",
				"noteNumber": 79,
				"velocity": 64
			},
			{
				"deltaTime": 60,
				"channel": 0,
				"type": "noteOff",
				"noteNumber": 79,
				"velocity": 64
			},
			{
				"deltaTime": 0,
				"channel": 0,
				"type": "noteOn",
				"noteNumber": 75,
				"velocity": 64
			},
			{
				"deltaTime": 60,
				"channel": 0,
				"type": "noteOff",
				"noteNumber": 75,
				"velocity": 64
			},
			{
				"deltaTime": 0,
				"channel": 0,
				"type": "noteOn",
				"noteNumber": 77,
				"velocity": 64
			},
			{
				"deltaTime": 60,
				"channel": 0,
				"type": "noteOff",
				"noteNumber": 77,
				"velocity": 64
			},
			{
				"deltaTime": 0,
				"channel": 0,
				"type": "noteOn",
				"noteNumber": 79,
				"velocity": 64
			},
			{
				"deltaTime": 60,
				"channel": 0,
				"type": "noteOff",
				"noteNumber": 79,
				"velocity": 64
			},
			{
				"deltaTime": 0,
				"channel": 0,
				"type": "noteOn",
				"noteNumber": 80,
				"velocity": 64
			},
			{
				"deltaTime": 60,
				"channel": 0,
				"type": "noteOff",
				"noteNumber": 80,
				"velocity": 64
			},
			{
				"deltaTime": 0,
				"channel": 0,
				"type": "noteOn",
				"noteNumber": 82,
				"velocity": 64
			},
			{
				"deltaTime": 60,
				"channel": 0,
				"type": "noteOff",
				"noteNumber": 82,
				"velocity": 64
			},
			{
				"deltaTime": 0,
				"channel": 0,
				"type": "noteOn",
				"noteNumber": 80,
				"velocity": 64
			},
			{
				"deltaTime": 60,
				"channel": 0,
				"type": "noteOff",
				"noteNumber": 80,
				"velocity": 64
			},
			{
				"deltaTime": 0,
				"channel": 0,
				"type": "noteOn",
				"noteNumber": 84,
				"velocity": 64
			},
			{
				"deltaTime": 60,
				"channel": 0,
				"type": "noteOff",
				"noteNumber": 84,
				"velocity": 64
			},
			{
				"deltaTime": 0,
				"channel": 0,
				"type": "noteOn",
				"noteNumber": 82,
				"velocity": 64
			},
			{
				"deltaTime": 60,
				"channel": 0,
				"type": "noteOff",
				"noteNumber": 82,
				"velocity": 64
			},
			{
				"deltaTime": 0,
				"channel": 0,
				"type": "noteOn",
				"noteNumber": 80,
				"velocity": 64
			},
			{
				"deltaTime": 60,
				"channel": 0,
				"type": "noteOff",
				"noteNumber": 80,
				"velocity": 64
			},
			{
				"deltaTime": 0,
				"channel": 0,
				"type": "noteOn",
				"noteNumber": 79,
				"velocity": 64
			},
			{
				"deltaTime": 60,
				"channel": 0,
				"type": "noteOff",
				"noteNumber": 79,
				"velocity": 64
			},
			{
				"deltaTime": 0,
				"channel": 0,
				"type": "noteOn",
				"noteNumber": 77,
				"velocity": 64
			},
			{
				"deltaTime": 60,
				"channel": 0,
				"type": "noteOff",
				"noteNumber": 77,
				"velocity": 64
			},
			{
				"deltaTime": 0,
				"channel": 0,
				"type": "noteOn",
				"noteNumber": 80,
				"velocity": 64
			},
			{
				"deltaTime": 60,
				"channel": 0,
				"type": "noteOff",
				"noteNumber": 80,
				"velocity": 64
			},
			{
				"deltaTime": 0,
				"channel": 0,
				"type": "noteOn",
				"noteNumber": 74,
				"velocity": 64
			},
			{
				"deltaTime": 290,
				"channel": 0,
				"type": "noteOff",
				"noteNumber": 74,
				"velocity": 64
			},
			{
				"deltaTime": 10,
				"channel": 0,
				"type": "noteOn",
				"noteNumber": 74,
				"velocity": 64
			},
			{
				"deltaTime": 60,
				"channel": 0,
				"type": "noteOff",
				"noteNumber": 74,
				"velocity": 64
			},
			{
				"deltaTime": 0,
				"channel": 0,
				"type": "noteOn",
				"noteNumber": 79,
				"velocity": 64
			},
			{
				"deltaTime": 60,
				"channel": 0,
				"type": "noteOff",
				"noteNumber": 79,
				"velocity": 64
			},
			{
				"deltaTime": 0,
				"channel": 0,
				"type": "noteOn",
				"noteNumber": 74,
				"velocity": 64
			},
			{
				"deltaTime": 60,
				"channel": 0,
				"type": "noteOff",
				"noteNumber": 74,
				"velocity": 64
			},
			{
				"deltaTime": 0,
				"channel": 0,
				"type": "noteOn",
				"noteNumber": 75,
				"velocity": 64
			},
			{
				"deltaTime": 60,
				"channel": 0,
				"type": "noteOff",
				"noteNumber": 75,
				"velocity": 64
			},
			{
				"deltaTime": 0,
				"channel": 0,
				"type": "noteOn",
				"noteNumber": 72,
				"velocity": 64
			},
			{
				"deltaTime": 60,
				"channel": 0,
				"type": "noteOff",
				"noteNumber": 72,
				"velocity": 64
			},
			{
				"deltaTime": 0,
				"channel": 0,
				"type": "noteOn",
				"noteNumber": 74,
				"velocity": 64
			},
			{
				"deltaTime": 60,
				"channel": 0,
				"type": "noteOff",
				"noteNumber": 74,
				"velocity": 64
			},
			{
				"deltaTime": 0,
				"channel": 0,
				"type": "noteOn",
				"noteNumber": 70,
				"velocity": 64
			},
			{
				"deltaTime": 60,
				"channel": 0,
				"type": "noteOff",
				"noteNumber": 70,
				"velocity": 64
			},
			{
				"deltaTime": 0,
				"channel": 0,
				"type": "noteOn",
				"noteNumber": 72,
				"velocity": 64
			},
			{
				"deltaTime": 290,
				"channel": 0,
				"type": "noteOff",
				"noteNumber": 72,
				"velocity": 64
			},
			{
				"deltaTime": 10,
				"channel": 0,
				"type": "noteOn",
				"noteNumber": 79,
				"velocity": 64
			},
			{
				"deltaTime": 60,
				"channel": 0,
				"type": "noteOff",
				"noteNumber": 79,
				"velocity": 64
			},
			{
				"deltaTime": 0,
				"channel": 0,
				"type": "noteOn",
				"noteNumber": 78,
				"velocity": 64
			},
			{
				"deltaTime": 60,
				"channel": 0,
				"type": "noteOff",
				"noteNumber": 78,
				"velocity": 64
			},
			{
				"deltaTime": 0,
				"channel": 0,
				"type": "noteOn",
				"noteNumber": 81,
				"velocity": 64
			},
			{
				"deltaTime": 60,
				"channel": 0,
				"type": "noteOff",
				"noteNumber": 81,
				"velocity": 64
			},
			{
				"deltaTime": 0,
				"channel": 0,
				"type": "noteOn",
				"noteNumber": 72,
				"velocity": 64
			},
			{
				"deltaTime": 60,
				"channel": 0,
				"type": "noteOff",
				"noteNumber": 72,
				"velocity": 64
			},
			{
				"deltaTime": 0,
				"channel": 0,
				"type": "noteOn",
				"noteNumber": 70,
				"velocity": 64
			},
			{
				"deltaTime": 60,
				"channel": 0,
				"type": "noteOff",
				"noteNumber": 70,
				"velocity": 64
			},
			{
				"deltaTime": 0,
				"channel": 0,
				"type": "noteOn",
				"noteNumber": 72,
				"velocity": 64
			},
			{
				"deltaTime": 180,
				"channel": 0,
				"type": "noteOff",
				"noteNumber": 72,
				"velocity": 64
			},
			{
				"deltaTime": 0,
				"channel": 0,
				"type": "noteOn",
				"noteNumber": 78,
				"velocity": 64
			},
			{
				"deltaTime": 60,
				"channel": 0,
				"type": "noteOff",
				"noteNumber": 78,
				"velocity": 64
			},
			{
				"deltaTime": 0,
				"channel": 0,
				"type": "noteOn",
				"noteNumber": 76,
				"velocity": 64
			},
			{
				"deltaTime": 60,
				"channel": 0,
				"type": "noteOff",
				"noteNumber": 76,
				"velocity": 64
			},
			{
				"deltaTime": 0,
				"channel": 0,
				"type": "noteOn",
				"noteNumber": 74,
				"velocity": 64
			},
			{
				"deltaTime": 60,
				"channel": 0,
				"type": "noteOff",
				"noteNumber": 74,
				"velocity": 64
			},
			{
				"deltaTime": 0,
				"channel": 0,
				"type": "noteOn",
				"noteNumber": 82,
				"velocity": 64
			},
			{
				"deltaTime": 180,
				"channel": 0,
				"type": "noteOff",
				"noteNumber": 82,
				"velocity": 64
			},
			{
				"deltaTime": 0,
				"channel": 0,
				"type": "noteOn",
				"noteNumber": 76,
				"velocity": 64
			},
			{
				"deltaTime": 60,
				"channel": 0,
				"type": "noteOff",
				"noteNumber": 76,
				"velocity": 64
			},
			{
				"deltaTime": 0,
				"channel": 0,
				"type": "noteOn",
				"noteNumber": 78,
				"velocity": 64
			},
			{
				"deltaTime": 180,
				"channel": 0,
				"type": "noteOff",
				"noteNumber": 78,
				"velocity": 64
			},
			{
				"deltaTime": 0,
				"channel": 0,
				"type": "noteOn",
				"noteNumber": 79,
				"velocity": 64
			},
			{
				"deltaTime": 50,
				"channel": 0,
				"type": "noteOff",
				"noteNumber": 79,
				"velocity": 64
			},
			{
				"deltaTime": 10,
				"channel": 0,
				"type": "noteOn",
				"noteNumber": 79,
				"velocity": 64
			},
			{
				"deltaTime": 120,
				"channel": 0,
				"type": "noteOff",
				"noteNumber": 79,
				"velocity": 64
			},
			{
				"deltaTime": 0,
				"channel": 0,
				"type": "noteOn",
				"noteNumber": 67,
				"velocity": 64
			},
			{
				"deltaTime": 60,
				"channel": 0,
				"type": "noteOff",
				"noteNumber": 67,
				"velocity": 64
			},
			{
				"deltaTime": 0,
				"channel": 0,
				"type": "noteOn",
				"noteNumber": 66,
				"velocity": 64
			},
			{
				"deltaTime": 60,
				"channel": 0,
				"type": "noteOff",
				"noteNumber": 66,
				"velocity": 64
			},
			{
				"deltaTime": 0,
				"channel": 0,
				"type": "noteOn",
				"noteNumber": 67,
				"velocity": 64
			},
			{
				"deltaTime": 60,
				"channel": 0,
				"type": "noteOff",
				"noteNumber": 67,
				"velocity": 64
			},
			{
				"deltaTime": 0,
				"channel": 0,
				"type": "noteOn",
				"noteNumber": 69,
				"velocity": 64
			},
			{
				"deltaTime": 60,
				"channel": 0,
				"type": "noteOff",
				"noteNumber": 69,
				"velocity": 64
			},
			{
				"deltaTime": 0,
				"channel": 0,
				"type": "noteOn",
				"noteNumber": 70,
				"velocity": 64
			},
			{
				"deltaTime": 60,
				"channel": 0,
				"type": "noteOff",
				"noteNumber": 70,
				"velocity": 64
			},
			{
				"deltaTime": 0,
				"channel": 0,
				"type": "noteOn",
				"noteNumber": 62,
				"velocity": 64
			},
			{
				"deltaTime": 60,
				"channel": 0,
				"type": "noteOff",
				"noteNumber": 62,
				"velocity": 64
			},
			{
				"deltaTime": 0,
				"channel": 0,
				"type": "noteOn",
				"noteNumber": 63,
				"velocity": 64
			},
			{
				"deltaTime": 60,
				"channel": 0,
				"type": "noteOff",
				"noteNumber": 63,
				"velocity": 64
			},
			{
				"deltaTime": 0,
				"channel": 0,
				"type": "noteOn",
				"noteNumber": 65,
				"velocity": 64
			},
			{
				"deltaTime": 60,
				"channel": 0,
				"type": "noteOff",
				"noteNumber": 65,
				"velocity": 64
			},
			{
				"deltaTime": 0,
				"channel": 0,
				"type": "noteOn",
				"noteNumber": 63,
				"velocity": 64
			},
			{
				"deltaTime": 60,
				"channel": 0,
				"type": "noteOff",
				"noteNumber": 63,
				"velocity": 64
			},
			{
				"deltaTime": 0,
				"channel": 0,
				"type": "noteOn",
				"noteNumber": 60,
				"velocity": 64
			},
			{
				"deltaTime": 60,
				"channel": 0,
				"type": "noteOff",
				"noteNumber": 60,
				"velocity": 64
			},
			{
				"deltaTime": 0,
				"channel": 0,
				"type": "noteOn",
				"noteNumber": 72,
				"velocity": 64
			},
			{
				"deltaTime": 60,
				"channel": 0,
				"type": "noteOff",
				"noteNumber": 72,
				"velocity": 64
			},
			{
				"deltaTime": 0,
				"channel": 0,
				"type": "noteOn",
				"noteNumber": 70,
				"velocity": 64
			},
			{
				"deltaTime": 60,
				"channel": 0,
				"type": "noteOff",
				"noteNumber": 70,
				"velocity": 64
			},
			{
				"deltaTime": 0,
				"channel": 0,
				"type": "noteOn",
				"noteNumber": 69,
				"velocity": 64
			},
			{
				"deltaTime": 60,
				"channel": 0,
				"type": "noteOff",
				"noteNumber": 69,
				"velocity": 64
			},
			{
				"deltaTime": 0,
				"channel": 0,
				"type": "noteOn",
				"noteNumber": 67,
				"velocity": 64
			},
			{
				"deltaTime": 60,
				"channel": 0,
				"type": "noteOff",
				"noteNumber": 67,
				"velocity": 64
			},
			{
				"deltaTime": 0,
				"channel": 0,
				"type": "noteOn",
				"noteNumber": 66,
				"velocity": 64
			},
			{
				"deltaTime": 60,
				"channel": 0,
				"type": "noteOff",
				"noteNumber": 66,
				"velocity": 64
			},
			{
				"deltaTime": 0,
				"channel": 0,
				"type": "noteOn",
				"noteNumber": 75,
				"velocity": 64
			},
			{
				"deltaTime": 60,
				"channel": 0,
				"type": "noteOff",
				"noteNumber": 75,
				"velocity": 64
			},
			{
				"deltaTime": 0,
				"channel": 0,
				"type": "noteOn",
				"noteNumber": 74,
				"velocity": 64
			},
			{
				"deltaTime": 60,
				"channel": 0,
				"type": "noteOff",
				"noteNumber": 74,
				"velocity": 64
			},
			{
				"deltaTime": 0,
				"channel": 0,
				"type": "noteOn",
				"noteNumber": 72,
				"velocity": 64
			},
			{
				"deltaTime": 60,
				"channel": 0,
				"type": "noteOff",
				"noteNumber": 72,
				"velocity": 64
			},
			{
				"deltaTime": 0,
				"channel": 0,
				"type": "noteOn",
				"noteNumber": 70,
				"velocity": 64
			},
			{
				"deltaTime": 60,
				"channel": 0,
				"type": "noteOff",
				"noteNumber": 70,
				"velocity": 64
			},
			{
				"deltaTime": 0,
				"channel": 0,
				"type": "noteOn",
				"noteNumber": 69,
				"velocity": 64
			},
			{
				"deltaTime": 60,
				"channel": 0,
				"type": "noteOff",
				"noteNumber": 69,
				"velocity": 64
			},
			{
				"deltaTime": 0,
				"channel": 0,
				"type": "noteOn",
				"noteNumber": 67,
				"velocity": 64
			},
			{
				"deltaTime": 60,
				"channel": 0,
				"type": "noteOff",
				"noteNumber": 67,
				"velocity": 64
			},
			{
				"deltaTime": 0,
				"channel": 0,
				"type": "noteOn",
				"noteNumber": 66,
				"velocity": 64
			},
			{
				"deltaTime": 60,
				"channel": 0,
				"type": "noteOff",
				"noteNumber": 66,
				"velocity": 64
			},
			{
				"deltaTime": 0,
				"channel": 0,
				"type": "noteOn",
				"noteNumber": 67,
				"velocity": 64
			},
			{
				"deltaTime": 60,
				"channel": 0,
				"type": "noteOff",
				"noteNumber": 67,
				"velocity": 64
			},
			{
				"deltaTime": 0,
				"channel": 0,
				"type": "noteOn",
				"noteNumber": 69,
				"velocity": 64
			},
			{
				"deltaTime": 60,
				"channel": 0,
				"type": "noteOff",
				"noteNumber": 69,
				"velocity": 64
			},
			{
				"deltaTime": 0,
				"channel": 0,
				"type": "noteOn",
				"noteNumber": 67,
				"velocity": 64
			},
			{
				"deltaTime": 60,
				"channel": 0,
				"type": "noteOff",
				"noteNumber": 67,
				"velocity": 64
			},
			{
				"deltaTime": 0,
				"channel": 0,
				"type": "noteOn",
				"noteNumber": 69,
				"velocity": 64
			},
			{
				"deltaTime": 60,
				"channel": 0,
				"type": "noteOff",
				"noteNumber": 69,
				"velocity": 64
			},
			{
				"deltaTime": 0,
				"channel": 0,
				"type": "noteOn",
				"noteNumber": 70,
				"velocity": 48
			},
			{
				"deltaTime": 30,
				"channel": 0,
				"type": "noteOn",
				"noteNumber": 69,
				"velocity": 50
			},
			{
				"deltaTime": 3,
				"channel": 0,
				"type": "noteOff",
				"noteNumber": 70,
				"velocity": 64
			},
			{
				"deltaTime": 27,
				"channel": 0,
				"type": "noteOn",
				"noteNumber": 70,
				"velocity": 51
			},
			{
				"deltaTime": 3,
				"channel": 0,
				"type": "noteOff",
				"noteNumber": 69,
				"velocity": 64
			},
			{
				"deltaTime": 27,
				"channel": 0,
				"type": "noteOn",
				"noteNumber": 69,
				"velocity": 53
			},
			{
				"deltaTime": 3,
				"channel": 0,
				"type": "noteOff",
				"noteNumber": 70,
				"velocity": 64
			},
			{
				"deltaTime": 27,
				"channel": 0,
				"type": "noteOn",
				"noteNumber": 70,
				"velocity": 54
			},
			{
				"deltaTime": 3,
				"channel": 0,
				"type": "noteOff",
				"noteNumber": 69,
				"velocity": 64
			},
			{
				"deltaTime": 27,
				"channel": 0,
				"type": "noteOn",
				"noteNumber": 69,
				"velocity": 56
			},
			{
				"deltaTime": 3,
				"channel": 0,
				"type": "noteOff",
				"noteNumber": 70,
				"velocity": 64
			},
			{
				"deltaTime": 27,
				"channel": 0,
				"type": "noteOn",
				"noteNumber": 67,
				"velocity": 58
			},
			{
				"deltaTime": 3,
				"channel": 0,
				"type": "noteOff",
				"noteNumber": 69,
				"velocity": 64
			},
			{
				"deltaTime": 27,
				"channel": 0,
				"type": "noteOn",
				"noteNumber": 69,
				"velocity": 59
			},
			{
				"deltaTime": 3,
				"channel": 0,
				"type": "noteOff",
				"noteNumber": 67,
				"velocity": 64
			},
			{
				"deltaTime": 27,
				"channel": 0,
				"type": "noteOn",
				"noteNumber": 70,
				"velocity": 64
			},
			{
				"deltaTime": 3,
				"channel": 0,
				"type": "noteOff",
				"noteNumber": 69,
				"velocity": 64
			},
			{
				"deltaTime": 57,
				"channel": 0,
				"type": "noteOff",
				"noteNumber": 70,
				"velocity": 64
			},
			{
				"deltaTime": 0,
				"channel": 0,
				"type": "noteOn",
				"noteNumber": 69,
				"velocity": 64
			},
			{
				"deltaTime": 60,
				"channel": 0,
				"type": "noteOff",
				"noteNumber": 69,
				"velocity": 64
			},
			{
				"deltaTime": 0,
				"channel": 0,
				"type": "noteOn",
				"noteNumber": 67,
				"velocity": 64
			},
			{
				"deltaTime": 60,
				"channel": 0,
				"type": "noteOff",
				"noteNumber": 67,
				"velocity": 64
			},
			{
				"deltaTime": 0,
				"channel": 0,
				"type": "noteOn",
				"noteNumber": 69,
				"velocity": 64
			},
			{
				"deltaTime": 60,
				"channel": 0,
				"type": "noteOff",
				"noteNumber": 69,
				"velocity": 64
			},
			{
				"deltaTime": 0,
				"channel": 0,
				"type": "noteOn",
				"noteNumber": 70,
				"velocity": 64
			},
			{
				"deltaTime": 60,
				"channel": 0,
				"type": "noteOff",
				"noteNumber": 70,
				"velocity": 64
			},
			{
				"deltaTime": 0,
				"channel": 0,
				"type": "noteOn",
				"noteNumber": 72,
				"velocity": 64
			},
			{
				"deltaTime": 60,
				"channel": 0,
				"type": "noteOff",
				"noteNumber": 72,
				"velocity": 64
			},
			{
				"deltaTime": 0,
				"channel": 0,
				"type": "noteOn",
				"noteNumber": 74,
				"velocity": 64
			},
			{
				"deltaTime": 100,
				"channel": 0,
				"type": "noteOff",
				"noteNumber": 74,
				"velocity": 64
			},
			{
				"deltaTime": 20,
				"channel": 0,
				"type": "noteOn",
				"noteNumber": 74,
				"velocity": 64
			},
			{
				"deltaTime": 20,
				"channel": 0,
				"type": "noteOff",
				"noteNumber": 74,
				"velocity": 64
			},
			{
				"deltaTime": 0,
				"channel": 0,
				"type": "noteOn",
				"noteNumber": 75,
				"velocity": 56
			},
			{
				"deltaTime": 20,
				"channel": 0,
				"type": "noteOff",
				"noteNumber": 75,
				"velocity": 64
			},
			{
				"deltaTime": 0,
				"channel": 0,
				"type": "noteOn",
				"noteNumber": 74,
				"velocity": 64
			},
			{
				"deltaTime": 90,
				"channel": 0,
				"type": "noteOff",
				"noteNumber": 74,
				"velocity": 64
			},
			{
				"deltaTime": 0,
				"channel": 0,
				"type": "noteOn",
				"noteNumber": 72,
				"velocity": 64
			},
			{
				"deltaTime": 120,
				"channel": 0,
				"type": "noteOff",
				"noteNumber": 72,
				"velocity": 64
			},
			{
				"deltaTime": 110,
				"channel": 0,
				"type": "noteOn",
				"noteNumber": 72,
				"velocity": 64
			},
			{
				"deltaTime": 100,
				"channel": 0,
				"type": "noteOff",
				"noteNumber": 72,
				"velocity": 64
			},
			{
				"deltaTime": 20,
				"channel": 0,
				"type": "noteOn",
				"noteNumber": 72,
				"velocity": 64
			},
			{
				"deltaTime": 20,
				"channel": 0,
				"type": "noteOff",
				"noteNumber": 72,
				"velocity": 64
			},
			{
				"deltaTime": 0,
				"channel": 0,
				"type": "noteOn",
				"noteNumber": 74,
				"velocity": 56
			},
			{
				"deltaTime": 20,
				"channel": 0,
				"type": "noteOff",
				"noteNumber": 74,
				"velocity": 64
			},
			{
				"deltaTime": 0,
				"channel": 0,
				"type": "noteOn",
				"noteNumber": 72,
				"velocity": 64
			},
			{
				"deltaTime": 90,
				"channel": 0,
				"type": "noteOff",
				"noteNumber": 72,
				"velocity": 64
			},
			{
				"deltaTime": 0,
				"channel": 0,
				"type": "noteOn",
				"noteNumber": 70,
				"velocity": 64
			},
			{
				"deltaTime": 120,
				"channel": 0,
				"type": "noteOff",
				"noteNumber": 70,
				"velocity": 64
			},
			{
				"deltaTime": 110,
				"channel": 0,
				"type": "noteOn",
				"noteNumber": 69,
				"velocity": 64
			},
			{
				"deltaTime": 120,
				"channel": 0,
				"type": "noteOff",
				"noteNumber": 69,
				"velocity": 64
			},
			{
				"deltaTime": 0,
				"channel": 0,
				"type": "noteOn",
				"noteNumber": 70,
				"velocity": 64
			},
			{
				"deltaTime": 120,
				"channel": 0,
				"type": "noteOff",
				"noteNumber": 70,
				"velocity": 64
			},
			{
				"deltaTime": 0,
				"channel": 0,
				"type": "noteOn",
				"noteNumber": 63,
				"velocity": 64
			},
			{
				"deltaTime": 180,
				"channel": 0,
				"type": "noteOff",
				"noteNumber": 63,
				"velocity": 64
			},
			{
				"deltaTime": 0,
				"channel": 0,
				"type": "noteOn",
				"noteNumber": 60,
				"velocity": 64
			},
			{
				"deltaTime": 60,
				"channel": 0,
				"type": "noteOff",
				"noteNumber": 60,
				"velocity": 64
			},
			{
				"deltaTime": 0,
				"channel": 0,
				"type": "noteOn",
				"noteNumber": 65,
				"velocity": 64
			},
			{
				"deltaTime": 60,
				"channel": 0,
				"type": "noteOff",
				"noteNumber": 65,
				"velocity": 64
			},
			{
				"deltaTime": 0,
				"channel": 0,
				"type": "noteOn",
				"noteNumber": 60,
				"velocity": 64
			},
			{
				"deltaTime": 60,
				"channel": 0,
				"type": "noteOff",
				"noteNumber": 60,
				"velocity": 64
			},
			{
				"deltaTime": 0,
				"channel": 0,
				"type": "noteOn",
				"noteNumber": 62,
				"velocity": 64
			},
			{
				"deltaTime": 120,
				"channel": 0,
				"type": "noteOff",
				"noteNumber": 62,
				"velocity": 64
			},
			{
				"deltaTime": 0,
				"channel": 0,
				"type": "noteOn",
				"noteNumber": 70,
				"velocity": 64
			},
			{
				"deltaTime": 180,
				"channel": 0,
				"type": "noteOff",
				"noteNumber": 70,
				"velocity": 64
			},
			{
				"deltaTime": 0,
				"channel": 0,
				"type": "noteOn",
				"noteNumber": 69,
				"velocity": 64
			},
			{
				"deltaTime": 60,
				"channel": 0,
				"type": "noteOff",
				"noteNumber": 69,
				"velocity": 64
			},
			{
				"deltaTime": 0,
				"channel": 0,
				"type": "noteOn",
				"noteNumber": 70,
				"velocity": 64
			},
			{
				"deltaTime": 60,
				"channel": 0,
				"type": "noteOff",
				"noteNumber": 70,
				"velocity": 64
			},
			{
				"deltaTime": 0,
				"channel": 0,
				"type": "noteOn",
				"noteNumber": 65,
				"velocity": 64
			},
			{
				"deltaTime": 60,
				"channel": 0,
				"type": "noteOff",
				"noteNumber": 65,
				"velocity": 64
			},
			{
				"deltaTime": 0,
				"channel": 0,
				"type": "noteOn",
				"noteNumber": 67,
				"velocity": 64
			},
			{
				"deltaTime": 60,
				"channel": 0,
				"type": "noteOff",
				"noteNumber": 67,
				"velocity": 64
			},
			{
				"deltaTime": 0,
				"channel": 0,
				"type": "noteOn",
				"noteNumber": 70,
				"velocity": 64
			},
			{
				"deltaTime": 60,
				"channel": 0,
				"type": "noteOff",
				"noteNumber": 70,
				"velocity": 64
			},
			{
				"deltaTime": 0,
				"channel": 0,
				"type": "noteOn",
				"noteNumber": 75,
				"velocity": 64
			},
			{
				"deltaTime": 60,
				"channel": 0,
				"type": "noteOff",
				"noteNumber": 75,
				"velocity": 64
			},
			{
				"deltaTime": 0,
				"channel": 0,
				"type": "noteOn",
				"noteNumber": 74,
				"velocity": 64
			},
			{
				"deltaTime": 60,
				"channel": 0,
				"type": "noteOff",
				"noteNumber": 74,
				"velocity": 64
			},
			{
				"deltaTime": 0,
				"channel": 0,
				"type": "noteOn",
				"noteNumber": 72,
				"velocity": 64
			},
			{
				"deltaTime": 60,
				"channel": 0,
				"type": "noteOff",
				"noteNumber": 72,
				"velocity": 64
			},
			{
				"deltaTime": 0,
				"channel": 0,
				"type": "noteOn",
				"noteNumber": 70,
				"velocity": 64
			},
			{
				"deltaTime": 60,
				"channel": 0,
				"type": "noteOff",
				"noteNumber": 70,
				"velocity": 64
			},
			{
				"deltaTime": 0,
				"channel": 0,
				"type": "noteOn",
				"noteNumber": 69,
				"velocity": 64
			},
			{
				"deltaTime": 60,
				"channel": 0,
				"type": "noteOff",
				"noteNumber": 69,
				"velocity": 64
			},
			{
				"deltaTime": 0,
				"channel": 0,
				"type": "noteOn",
				"noteNumber": 67,
				"velocity": 64
			},
			{
				"deltaTime": 60,
				"channel": 0,
				"type": "noteOff",
				"noteNumber": 67,
				"velocity": 64
			},
			{
				"deltaTime": 0,
				"channel": 0,
				"type": "noteOn",
				"noteNumber": 65,
				"velocity": 64
			},
			{
				"deltaTime": 60,
				"channel": 0,
				"type": "noteOff",
				"noteNumber": 65,
				"velocity": 64
			},
			{
				"deltaTime": 0,
				"channel": 0,
				"type": "noteOn",
				"noteNumber": 69,
				"velocity": 64
			},
			{
				"deltaTime": 60,
				"channel": 0,
				"type": "noteOff",
				"noteNumber": 69,
				"velocity": 64
			},
			{
				"deltaTime": 0,
				"channel": 0,
				"type": "noteOn",
				"noteNumber": 74,
				"velocity": 64
			},
			{
				"deltaTime": 60,
				"channel": 0,
				"type": "noteOff",
				"noteNumber": 74,
				"velocity": 64
			},
			{
				"deltaTime": 0,
				"channel": 0,
				"type": "noteOn",
				"noteNumber": 72,
				"velocity": 64
			},
			{
				"deltaTime": 60,
				"channel": 0,
				"type": "noteOff",
				"noteNumber": 72,
				"velocity": 64
			},
			{
				"deltaTime": 0,
				"channel": 0,
				"type": "noteOn",
				"noteNumber": 70,
				"velocity": 64
			},
			{
				"deltaTime": 60,
				"channel": 0,
				"type": "noteOff",
				"noteNumber": 70,
				"velocity": 64
			},
			{
				"deltaTime": 0,
				"channel": 0,
				"type": "noteOn",
				"noteNumber": 69,
				"velocity": 64
			},
			{
				"deltaTime": 60,
				"channel": 0,
				"type": "noteOff",
				"noteNumber": 69,
				"velocity": 64
			},
			{
				"deltaTime": 0,
				"channel": 0,
				"type": "noteOn",
				"noteNumber": 67,
				"velocity": 64
			},
			{
				"deltaTime": 60,
				"channel": 0,
				"type": "noteOff",
				"noteNumber": 67,
				"velocity": 64
			},
			{
				"deltaTime": 0,
				"channel": 0,
				"type": "noteOn",
				"noteNumber": 65,
				"velocity": 64
			},
			{
				"deltaTime": 60,
				"channel": 0,
				"type": "noteOff",
				"noteNumber": 65,
				"velocity": 64
			},
			{
				"deltaTime": 0,
				"channel": 0,
				"type": "noteOn",
				"noteNumber": 63,
				"velocity": 64
			},
			{
				"deltaTime": 60,
				"channel": 0,
				"type": "noteOff",
				"noteNumber": 63,
				"velocity": 64
			},
			{
				"deltaTime": 0,
				"channel": 0,
				"type": "noteOn",
				"noteNumber": 67,
				"velocity": 64
			},
			{
				"deltaTime": 60,
				"channel": 0,
				"type": "noteOff",
				"noteNumber": 67,
				"velocity": 64
			},
			{
				"deltaTime": 0,
				"channel": 0,
				"type": "noteOn",
				"noteNumber": 72,
				"velocity": 64
			},
			{
				"deltaTime": 60,
				"channel": 0,
				"type": "noteOff",
				"noteNumber": 72,
				"velocity": 64
			},
			{
				"deltaTime": 0,
				"channel": 0,
				"type": "noteOn",
				"noteNumber": 67,
				"velocity": 64
			},
			{
				"deltaTime": 60,
				"channel": 0,
				"type": "noteOff",
				"noteNumber": 67,
				"velocity": 64
			},
			{
				"deltaTime": 0,
				"channel": 0,
				"type": "noteOn",
				"noteNumber": 69,
				"velocity": 64
			},
			{
				"deltaTime": 180,
				"channel": 0,
				"type": "noteOff",
				"noteNumber": 69,
				"velocity": 64
			},
			{
				"deltaTime": 0,
				"channel": 0,
				"type": "noteOn",
				"noteNumber": 69,
				"velocity": 64
			},
			{
				"deltaTime": 60,
				"channel": 0,
				"type": "noteOff",
				"noteNumber": 69,
				"velocity": 64
			},
			{
				"deltaTime": 0,
				"channel": 0,
				"type": "noteOn",
				"noteNumber": 70,
				"velocity": 64
			},
			{
				"deltaTime": 60,
				"channel": 0,
				"type": "noteOff",
				"noteNumber": 70,
				"velocity": 64
			},
			{
				"deltaTime": 0,
				"channel": 0,
				"type": "noteOn",
				"noteNumber": 65,
				"velocity": 64
			},
			{
				"deltaTime": 60,
				"channel": 0,
				"type": "noteOff",
				"noteNumber": 65,
				"velocity": 64
			},
			{
				"deltaTime": 0,
				"channel": 0,
				"type": "noteOn",
				"noteNumber": 67,
				"velocity": 64
			},
			{
				"deltaTime": 60,
				"channel": 0,
				"type": "noteOff",
				"noteNumber": 67,
				"velocity": 64
			},
			{
				"deltaTime": 0,
				"channel": 0,
				"type": "noteOn",
				"noteNumber": 65,
				"velocity": 64
			},
			{
				"deltaTime": 60,
				"channel": 0,
				"type": "noteOff",
				"noteNumber": 65,
				"velocity": 64
			},
			{
				"deltaTime": 0,
				"channel": 0,
				"type": "noteOn",
				"noteNumber": 74,
				"velocity": 64
			},
			{
				"deltaTime": 290,
				"channel": 0,
				"type": "noteOff",
				"noteNumber": 74,
				"velocity": 64
			},
			{
				"deltaTime": 10,
				"channel": 0,
				"type": "noteOn",
				"noteNumber": 65,
				"velocity": 64
			},
			{
				"deltaTime": 60,
				"channel": 0,
				"type": "noteOff",
				"noteNumber": 65,
				"velocity": 64
			},
			{
				"deltaTime": 0,
				"channel": 0,
				"type": "noteOn",
				"noteNumber": 67,
				"velocity": 64
			},
			{
				"deltaTime": 60,
				"channel": 0,
				"type": "noteOff",
				"noteNumber": 67,
				"velocity": 64
			},
			{
				"deltaTime": 0,
				"channel": 0,
				"type": "noteOn",
				"noteNumber": 65,
				"velocity": 64
			},
			{
				"deltaTime": 60,
				"channel": 0,
				"type": "noteOff",
				"noteNumber": 65,
				"velocity": 64
			},
			{
				"deltaTime": 0,
				"channel": 0,
				"type": "noteOn",
				"noteNumber": 75,
				"velocity": 64
			},
			{
				"deltaTime": 290,
				"channel": 0,
				"type": "noteOff",
				"noteNumber": 75,
				"velocity": 64
			},
			{
				"deltaTime": 10,
				"channel": 0,
				"type": "noteOn",
				"noteNumber": 65,
				"velocity": 64
			},
			{
				"deltaTime": 60,
				"channel": 0,
				"type": "noteOff",
				"noteNumber": 65,
				"velocity": 64
			},
			{
				"deltaTime": 0,
				"channel": 0,
				"type": "noteOn",
				"noteNumber": 70,
				"velocity": 64
			},
			{
				"deltaTime": 60,
				"channel": 0,
				"type": "noteOff",
				"noteNumber": 70,
				"velocity": 64
			},
			{
				"deltaTime": 0,
				"channel": 0,
				"type": "noteOn",
				"noteNumber": 69,
				"velocity": 64
			},
			{
				"deltaTime": 60,
				"channel": 0,
				"type": "noteOff",
				"noteNumber": 69,
				"velocity": 64
			},
			{
				"deltaTime": 0,
				"channel": 0,
				"type": "noteOn",
				"noteNumber": 74,
				"velocity": 64
			},
			{
				"deltaTime": 60,
				"channel": 0,
				"type": "noteOff",
				"noteNumber": 74,
				"velocity": 64
			},
			{
				"deltaTime": 0,
				"channel": 0,
				"type": "noteOn",
				"noteNumber": 72,
				"velocity": 64
			},
			{
				"deltaTime": 60,
				"channel": 0,
				"type": "noteOff",
				"noteNumber": 72,
				"velocity": 64
			},
			{
				"deltaTime": 0,
				"channel": 0,
				"type": "noteOn",
				"noteNumber": 75,
				"velocity": 64
			},
			{
				"deltaTime": 60,
				"channel": 0,
				"type": "noteOff",
				"noteNumber": 75,
				"velocity": 64
			},
			{
				"deltaTime": 0,
				"channel": 0,
				"type": "noteOn",
				"noteNumber": 74,
				"velocity": 64
			},
			{
				"deltaTime": 60,
				"channel": 0,
				"type": "noteOff",
				"noteNumber": 74,
				"velocity": 64
			},
			{
				"deltaTime": 0,
				"channel": 0,
				"type": "noteOn",
				"noteNumber": 79,
				"velocity": 64
			},
			{
				"deltaTime": 60,
				"channel": 0,
				"type": "noteOff",
				"noteNumber": 79,
				"velocity": 64
			},
			{
				"deltaTime": 0,
				"channel": 0,
				"type": "noteOn",
				"noteNumber": 77,
				"velocity": 64
			},
			{
				"deltaTime": 60,
				"channel": 0,
				"type": "noteOff",
				"noteNumber": 77,
				"velocity": 64
			},
			{
				"deltaTime": 0,
				"channel": 0,
				"type": "noteOn",
				"noteNumber": 75,
				"velocity": 64
			},
			{
				"deltaTime": 60,
				"channel": 0,
				"type": "noteOff",
				"noteNumber": 75,
				"velocity": 64
			},
			{
				"deltaTime": 0,
				"channel": 0,
				"type": "noteOn",
				"noteNumber": 74,
				"velocity": 64
			},
			{
				"deltaTime": 60,
				"channel": 0,
				"type": "noteOff",
				"noteNumber": 74,
				"velocity": 64
			},
			{
				"deltaTime": 0,
				"channel": 0,
				"type": "noteOn",
				"noteNumber": 72,
				"velocity": 64
			},
			{
				"deltaTime": 60,
				"channel": 0,
				"type": "noteOff",
				"noteNumber": 72,
				"velocity": 64
			},
			{
				"deltaTime": 0,
				"channel": 0,
				"type": "noteOn",
				"noteNumber": 77,
				"velocity": 64
			},
			{
				"deltaTime": 60,
				"channel": 0,
				"type": "noteOff",
				"noteNumber": 77,
				"velocity": 64
			},
			{
				"deltaTime": 0,
				"channel": 0,
				"type": "noteOn",
				"noteNumber": 75,
				"velocity": 64
			},
			{
				"deltaTime": 60,
				"channel": 0,
				"type": "noteOff",
				"noteNumber": 75,
				"velocity": 64
			},
			{
				"deltaTime": 0,
				"channel": 0,
				"type": "noteOn",
				"noteNumber": 77,
				"velocity": 64
			},
			{
				"deltaTime": 60,
				"channel": 0,
				"type": "noteOff",
				"noteNumber": 77,
				"velocity": 64
			},
			{
				"deltaTime": 0,
				"channel": 0,
				"type": "noteOn",
				"noteNumber": 74,
				"velocity": 64
			},
			{
				"deltaTime": 60,
				"channel": 0,
				"type": "noteOff",
				"noteNumber": 74,
				"velocity": 64
			},
			{
				"deltaTime": 0,
				"channel": 0,
				"type": "noteOn",
				"noteNumber": 72,
				"velocity": 64
			},
			{
				"deltaTime": 60,
				"channel": 0,
				"type": "noteOff",
				"noteNumber": 72,
				"velocity": 64
			},
			{
				"deltaTime": 0,
				"channel": 0,
				"type": "noteOn",
				"noteNumber": 70,
				"velocity": 64
			},
			{
				"deltaTime": 60,
				"channel": 0,
				"type": "noteOff",
				"noteNumber": 70,
				"velocity": 64
			},
			{
				"deltaTime": 0,
				"channel": 0,
				"type": "noteOn",
				"noteNumber": 69,
				"velocity": 64
			},
			{
				"deltaTime": 60,
				"channel": 0,
				"type": "noteOff",
				"noteNumber": 69,
				"velocity": 64
			},
			{
				"deltaTime": 0,
				"channel": 0,
				"type": "noteOn",
				"noteNumber": 74,
				"velocity": 64
			},
			{
				"deltaTime": 60,
				"channel": 0,
				"type": "noteOff",
				"noteNumber": 74,
				"velocity": 64
			},
			{
				"deltaTime": 0,
				"channel": 0,
				"type": "noteOn",
				"noteNumber": 72,
				"velocity": 64
			},
			{
				"deltaTime": 60,
				"channel": 0,
				"type": "noteOff",
				"noteNumber": 72,
				"velocity": 64
			},
			{
				"deltaTime": 0,
				"channel": 0,
				"type": "noteOn",
				"noteNumber": 75,
				"velocity": 64
			},
			{
				"deltaTime": 60,
				"channel": 0,
				"type": "noteOff",
				"noteNumber": 75,
				"velocity": 64
			},
			{
				"deltaTime": 0,
				"channel": 0,
				"type": "noteOn",
				"noteNumber": 74,
				"velocity": 64
			},
			{
				"deltaTime": 60,
				"channel": 0,
				"type": "noteOff",
				"noteNumber": 74,
				"velocity": 64
			},
			{
				"deltaTime": 0,
				"channel": 0,
				"type": "noteOn",
				"noteNumber": 72,
				"velocity": 64
			},
			{
				"deltaTime": 60,
				"channel": 0,
				"type": "noteOff",
				"noteNumber": 72,
				"velocity": 64
			},
			{
				"deltaTime": 0,
				"channel": 0,
				"type": "noteOn",
				"noteNumber": 70,
				"velocity": 64
			},
			{
				"deltaTime": 60,
				"channel": 0,
				"type": "noteOff",
				"noteNumber": 70,
				"velocity": 64
			},
			{
				"deltaTime": 0,
				"channel": 0,
				"type": "noteOn",
				"noteNumber": 69,
				"velocity": 64
			},
			{
				"deltaTime": 60,
				"channel": 0,
				"type": "noteOff",
				"noteNumber": 69,
				"velocity": 64
			},
			{
				"deltaTime": 0,
				"channel": 0,
				"type": "noteOn",
				"noteNumber": 72,
				"velocity": 64
			},
			{
				"deltaTime": 60,
				"channel": 0,
				"type": "noteOff",
				"noteNumber": 72,
				"velocity": 64
			},
			{
				"deltaTime": 0,
				"channel": 0,
				"type": "noteOn",
				"noteNumber": 77,
				"velocity": 64
			},
			{
				"deltaTime": 290,
				"channel": 0,
				"type": "noteOff",
				"noteNumber": 77,
				"velocity": 64
			},
			{
				"deltaTime": 10,
				"channel": 0,
				"type": "noteOn",
				"noteNumber": 67,
				"velocity": 64
			},
			{
				"deltaTime": 60,
				"channel": 0,
				"type": "noteOff",
				"noteNumber": 67,
				"velocity": 64
			},
			{
				"deltaTime": 0,
				"channel": 0,
				"type": "noteOn",
				"noteNumber": 72,
				"velocity": 64
			},
			{
				"deltaTime": 60,
				"channel": 0,
				"type": "noteOff",
				"noteNumber": 72,
				"velocity": 64
			},
			{
				"deltaTime": 0,
				"channel": 0,
				"type": "noteOn",
				"noteNumber": 71,
				"velocity": 64
			},
			{
				"deltaTime": 60,
				"channel": 0,
				"type": "noteOff",
				"noteNumber": 71,
				"velocity": 64
			},
			{
				"deltaTime": 0,
				"channel": 0,
				"type": "noteOn",
				"noteNumber": 75,
				"velocity": 64
			},
			{
				"deltaTime": 60,
				"channel": 0,
				"type": "noteOff",
				"noteNumber": 75,
				"velocity": 64
			},
			{
				"deltaTime": 0,
				"channel": 0,
				"type": "noteOn",
				"noteNumber": 74,
				"velocity": 64
			},
			{
				"deltaTime": 60,
				"channel": 0,
				"type": "noteOff",
				"noteNumber": 74,
				"velocity": 64
			},
			{
				"deltaTime": 0,
				"channel": 0,
				"type": "noteOn",
				"noteNumber": 77,
				"velocity": 64
			},
			{
				"deltaTime": 60,
				"channel": 0,
				"type": "noteOff",
				"noteNumber": 77,
				"velocity": 64
			},
			{
				"deltaTime": 0,
				"channel": 0,
				"type": "noteOn",
				"noteNumber": 75,
				"velocity": 64
			},
			{
				"deltaTime": 60,
				"channel": 0,
				"type": "noteOff",
				"noteNumber": 75,
				"velocity": 64
			},
			{
				"deltaTime": 0,
				"channel": 0,
				"type": "noteOn",
				"noteNumber": 80,
				"velocity": 64
			},
			{
				"deltaTime": 60,
				"channel": 0,
				"type": "noteOff",
				"noteNumber": 80,
				"velocity": 64
			},
			{
				"deltaTime": 0,
				"channel": 0,
				"type": "noteOn",
				"noteNumber": 79,
				"velocity": 64
			},
			{
				"deltaTime": 60,
				"channel": 0,
				"type": "noteOff",
				"noteNumber": 79,
				"velocity": 64
			},
			{
				"deltaTime": 0,
				"channel": 0,
				"type": "noteOn",
				"noteNumber": 77,
				"velocity": 64
			},
			{
				"deltaTime": 60,
				"channel": 0,
				"type": "noteOff",
				"noteNumber": 77,
				"velocity": 64
			},
			{
				"deltaTime": 0,
				"channel": 0,
				"type": "noteOn",
				"noteNumber": 75,
				"velocity": 64
			},
			{
				"deltaTime": 60,
				"channel": 0,
				"type": "noteOff",
				"noteNumber": 75,
				"velocity": 64
			},
			{
				"deltaTime": 0,
				"channel": 0,
				"type": "noteOn",
				"noteNumber": 74,
				"velocity": 64
			},
			{
				"deltaTime": 60,
				"channel": 0,
				"type": "noteOff",
				"noteNumber": 74,
				"velocity": 64
			},
			{
				"deltaTime": 0,
				"channel": 0,
				"type": "noteOn",
				"noteNumber": 79,
				"velocity": 64
			},
			{
				"deltaTime": 60,
				"channel": 0,
				"type": "noteOff",
				"noteNumber": 79,
				"velocity": 64
			},
			{
				"deltaTime": 0,
				"channel": 0,
				"type": "noteOn",
				"noteNumber": 77,
				"velocity": 64
			},
			{
				"deltaTime": 60,
				"channel": 0,
				"type": "noteOff",
				"noteNumber": 77,
				"velocity": 64
			},
			{
				"deltaTime": 0,
				"channel": 0,
				"type": "noteOn",
				"noteNumber": 79,
				"velocity": 64
			},
			{
				"deltaTime": 60,
				"channel": 0,
				"type": "noteOff",
				"noteNumber": 79,
				"velocity": 64
			},
			{
				"deltaTime": 0,
				"channel": 0,
				"type": "noteOn",
				"noteNumber": 75,
				"velocity": 64
			},
			{
				"deltaTime": 60,
				"channel": 0,
				"type": "noteOff",
				"noteNumber": 75,
				"velocity": 64
			},
			{
				"deltaTime": 0,
				"channel": 0,
				"type": "noteOn",
				"noteNumber": 74,
				"velocity": 64
			},
			{
				"deltaTime": 60,
				"channel": 0,
				"type": "noteOff",
				"noteNumber": 74,
				"velocity": 64
			},
			{
				"deltaTime": 0,
				"channel": 0,
				"type": "noteOn",
				"noteNumber": 72,
				"velocity": 64
			},
			{
				"deltaTime": 60,
				"channel": 0,
				"type": "noteOff",
				"noteNumber": 72,
				"velocity": 64
			},
			{
				"deltaTime": 0,
				"channel": 0,
				"type": "noteOn",
				"noteNumber": 71,
				"velocity": 64
			},
			{
				"deltaTime": 60,
				"channel": 0,
				"type": "noteOff",
				"noteNumber": 71,
				"velocity": 64
			},
			{
				"deltaTime": 0,
				"channel": 0,
				"type": "noteOn",
				"noteNumber": 72,
				"velocity": 64
			},
			{
				"deltaTime": 60,
				"channel": 0,
				"type": "noteOff",
				"noteNumber": 72,
				"velocity": 64
			},
			{
				"deltaTime": 0,
				"channel": 0,
				"type": "noteOn",
				"noteNumber": 74,
				"velocity": 64
			},
			{
				"deltaTime": 60,
				"channel": 0,
				"type": "noteOff",
				"noteNumber": 74,
				"velocity": 64
			},
			{
				"deltaTime": 0,
				"channel": 0,
				"type": "noteOn",
				"noteNumber": 75,
				"velocity": 64
			},
			{
				"deltaTime": 60,
				"channel": 0,
				"type": "noteOff",
				"noteNumber": 75,
				"velocity": 64
			},
			{
				"deltaTime": 0,
				"channel": 0,
				"type": "noteOn",
				"noteNumber": 67,
				"velocity": 64
			},
			{
				"deltaTime": 60,
				"channel": 0,
				"type": "noteOff",
				"noteNumber": 67,
				"velocity": 64
			},
			{
				"deltaTime": 0,
				"channel": 0,
				"type": "noteOn",
				"noteNumber": 68,
				"velocity": 64
			},
			{
				"deltaTime": 60,
				"channel": 0,
				"type": "noteOff",
				"noteNumber": 68,
				"velocity": 64
			},
			{
				"deltaTime": 0,
				"channel": 0,
				"type": "noteOn",
				"noteNumber": 70,
				"velocity": 64
			},
			{
				"deltaTime": 60,
				"channel": 0,
				"type": "noteOff",
				"noteNumber": 70,
				"velocity": 64
			},
			{
				"deltaTime": 0,
				"channel": 0,
				"type": "noteOn",
				"noteNumber": 68,
				"velocity": 64
			},
			{
				"deltaTime": 60,
				"channel": 0,
				"type": "noteOff",
				"noteNumber": 68,
				"velocity": 64
			},
			{
				"deltaTime": 0,
				"channel": 0,
				"type": "noteOn",
				"noteNumber": 65,
				"velocity": 64
			},
			{
				"deltaTime": 60,
				"channel": 0,
				"type": "noteOff",
				"noteNumber": 65,
				"velocity": 64
			},
			{
				"deltaTime": 0,
				"channel": 0,
				"type": "noteOn",
				"noteNumber": 77,
				"velocity": 64
			},
			{
				"deltaTime": 60,
				"channel": 0,
				"type": "noteOff",
				"noteNumber": 77,
				"velocity": 64
			},
			{
				"deltaTime": 0,
				"channel": 0,
				"type": "noteOn",
				"noteNumber": 75,
				"velocity": 64
			},
			{
				"deltaTime": 60,
				"channel": 0,
				"type": "noteOff",
				"noteNumber": 75,
				"velocity": 64
			},
			{
				"deltaTime": 0,
				"channel": 0,
				"type": "noteOn",
				"noteNumber": 74,
				"velocity": 64
			},
			{
				"deltaTime": 60,
				"channel": 0,
				"type": "noteOff",
				"noteNumber": 74,
				"velocity": 64
			},
			{
				"deltaTime": 0,
				"channel": 0,
				"type": "noteOn",
				"noteNumber": 72,
				"velocity": 64
			},
			{
				"deltaTime": 60,
				"channel": 0,
				"type": "noteOff",
				"noteNumber": 72,
				"velocity": 64
			},
			{
				"deltaTime": 0,
				"channel": 0,
				"type": "noteOn",
				"noteNumber": 71,
				"velocity": 64
			},
			{
				"deltaTime": 60,
				"channel": 0,
				"type": "noteOff",
				"noteNumber": 71,
				"velocity": 64
			},
			{
				"deltaTime": 0,
				"channel": 0,
				"type": "noteOn",
				"noteNumber": 80,
				"velocity": 64
			},
			{
				"deltaTime": 60,
				"channel": 0,
				"type": "noteOff",
				"noteNumber": 80,
				"velocity": 64
			},
			{
				"deltaTime": 0,
				"channel": 0,
				"type": "noteOn",
				"noteNumber": 79,
				"velocity": 64
			},
			{
				"deltaTime": 60,
				"channel": 0,
				"type": "noteOff",
				"noteNumber": 79,
				"velocity": 64
			},
			{
				"deltaTime": 0,
				"channel": 0,
				"type": "noteOn",
				"noteNumber": 77,
				"velocity": 64
			},
			{
				"deltaTime": 60,
				"channel": 0,
				"type": "noteOff",
				"noteNumber": 77,
				"velocity": 64
			},
			{
				"deltaTime": 0,
				"channel": 0,
				"type": "noteOn",
				"noteNumber": 75,
				"velocity": 64
			},
			{
				"deltaTime": 60,
				"channel": 0,
				"type": "noteOff",
				"noteNumber": 75,
				"velocity": 64
			},
			{
				"deltaTime": 0,
				"channel": 0,
				"type": "noteOn",
				"noteNumber": 74,
				"velocity": 64
			},
			{
				"deltaTime": 60,
				"channel": 0,
				"type": "noteOff",
				"noteNumber": 74,
				"velocity": 64
			},
			{
				"deltaTime": 0,
				"channel": 0,
				"type": "noteOn",
				"noteNumber": 72,
				"velocity": 64
			},
			{
				"deltaTime": 60,
				"channel": 0,
				"type": "noteOff",
				"noteNumber": 72,
				"velocity": 64
			},
			{
				"deltaTime": 0,
				"channel": 0,
				"type": "noteOn",
				"noteNumber": 71,
				"velocity": 64
			},
			{
				"deltaTime": 60,
				"channel": 0,
				"type": "noteOff",
				"noteNumber": 71,
				"velocity": 64
			},
			{
				"deltaTime": 0,
				"channel": 0,
				"type": "noteOn",
				"noteNumber": 72,
				"velocity": 64
			},
			{
				"deltaTime": 60,
				"channel": 0,
				"type": "noteOff",
				"noteNumber": 72,
				"velocity": 64
			},
			{
				"deltaTime": 0,
				"channel": 0,
				"type": "noteOn",
				"noteNumber": 74,
				"velocity": 64
			},
			{
				"deltaTime": 60,
				"channel": 0,
				"type": "noteOff",
				"noteNumber": 74,
				"velocity": 64
			},
			{
				"deltaTime": 0,
				"channel": 0,
				"type": "noteOn",
				"noteNumber": 72,
				"velocity": 64
			},
			{
				"deltaTime": 60,
				"channel": 0,
				"type": "noteOff",
				"noteNumber": 72,
				"velocity": 64
			},
			{
				"deltaTime": 0,
				"channel": 0,
				"type": "noteOn",
				"noteNumber": 74,
				"velocity": 64
			},
			{
				"deltaTime": 60,
				"channel": 0,
				"type": "noteOff",
				"noteNumber": 74,
				"velocity": 64
			},
			{
				"deltaTime": 0,
				"channel": 0,
				"type": "noteOn",
				"noteNumber": 75,
				"velocity": 49
			},
			{
				"deltaTime": 30,
				"channel": 0,
				"type": "noteOn",
				"noteNumber": 74,
				"velocity": 50
			},
			{
				"deltaTime": 3,
				"channel": 0,
				"type": "noteOff",
				"noteNumber": 75,
				"velocity": 64
			},
			{
				"deltaTime": 27,
				"channel": 0,
				"type": "noteOn",
				"noteNumber": 75,
				"velocity": 52
			},
			{
				"deltaTime": 3,
				"channel": 0,
				"type": "noteOff",
				"noteNumber": 74,
				"velocity": 64
			},
			{
				"deltaTime": 27,
				"channel": 0,
				"type": "noteOn",
				"noteNumber": 74,
				"velocity": 53
			},
			{
				"deltaTime": 3,
				"channel": 0,
				"type": "noteOff",
				"noteNumber": 75,
				"velocity": 64
			},
			{
				"deltaTime": 27,
				"channel": 0,
				"type": "noteOn",
				"noteNumber": 75,
				"velocity": 55
			},
			{
				"deltaTime": 3,
				"channel": 0,
				"type": "noteOff",
				"noteNumber": 74,
				"velocity": 64
			},
			{
				"deltaTime": 27,
				"channel": 0,
				"type": "noteOn",
				"noteNumber": 74,
				"velocity": 56
			},
			{
				"deltaTime": 3,
				"channel": 0,
				"type": "noteOff",
				"noteNumber": 75,
				"velocity": 64
			},
			{
				"deltaTime": 27,
				"channel": 0,
				"type": "noteOn",
				"noteNumber": 72,
				"velocity": 58
			},
			{
				"deltaTime": 3,
				"channel": 0,
				"type": "noteOff",
				"noteNumber": 74,
				"velocity": 64
			},
			{
				"deltaTime": 27,
				"channel": 0,
				"type": "noteOn",
				"noteNumber": 74,
				"velocity": 59
			},
			{
				"deltaTime": 3,
				"channel": 0,
				"type": "noteOff",
				"noteNumber": 72,
				"velocity": 64
			},
			{
				"deltaTime": 27,
				"channel": 0,
				"type": "noteOn",
				"noteNumber": 75,
				"velocity": 64
			},
			{
				"deltaTime": 3,
				"channel": 0,
				"type": "noteOff",
				"noteNumber": 74,
				"velocity": 64
			},
			{
				"deltaTime": 57,
				"channel": 0,
				"type": "noteOff",
				"noteNumber": 75,
				"velocity": 64
			},
			{
				"deltaTime": 0,
				"channel": 0,
				"type": "noteOn",
				"noteNumber": 74,
				"velocity": 64
			},
			{
				"deltaTime": 60,
				"channel": 0,
				"type": "noteOff",
				"noteNumber": 74,
				"velocity": 64
			},
			{
				"deltaTime": 0,
				"channel": 0,
				"type": "noteOn",
				"noteNumber": 72,
				"velocity": 64
			},
			{
				"deltaTime": 60,
				"channel": 0,
				"type": "noteOff",
				"noteNumber": 72,
				"velocity": 64
			},
			{
				"deltaTime": 0,
				"channel": 0,
				"type": "noteOn",
				"noteNumber": 74,
				"velocity": 64
			},
			{
				"deltaTime": 60,
				"channel": 0,
				"type": "noteOff",
				"noteNumber": 74,
				"velocity": 64
			},
			{
				"deltaTime": 0,
				"channel": 0,
				"type": "noteOn",
				"noteNumber": 75,
				"velocity": 64
			},
			{
				"deltaTime": 60,
				"channel": 0,
				"type": "noteOff",
				"noteNumber": 75,
				"velocity": 64
			},
			{
				"deltaTime": 0,
				"channel": 0,
				"type": "noteOn",
				"noteNumber": 77,
				"velocity": 64
			},
			{
				"deltaTime": 60,
				"channel": 0,
				"type": "noteOff",
				"noteNumber": 77,
				"velocity": 64
			},
			{
				"deltaTime": 0,
				"channel": 0,
				"type": "noteOn",
				"noteNumber": 79,
				"velocity": 64
			},
			{
				"deltaTime": 100,
				"channel": 0,
				"type": "noteOff",
				"noteNumber": 79,
				"velocity": 64
			},
			{
				"deltaTime": 20,
				"channel": 0,
				"type": "noteOn",
				"noteNumber": 79,
				"velocity": 64
			},
			{
				"deltaTime": 20,
				"channel": 0,
				"type": "noteOff",
				"noteNumber": 79,
				"velocity": 64
			},
			{
				"deltaTime": 0,
				"channel": 0,
				"type": "noteOn",
				"noteNumber": 80,
				"velocity": 56
			},
			{
				"deltaTime": 20,
				"channel": 0,
				"type": "noteOff",
				"noteNumber": 80,
				"velocity": 64
			},
			{
				"deltaTime": 0,
				"channel": 0,
				"type": "noteOn",
				"noteNumber": 79,
				"velocity": 64
			},
			{
				"deltaTime": 90,
				"channel": 0,
				"type": "noteOff",
				"noteNumber": 79,
				"velocity": 64
			},
			{
				"deltaTime": 0,
				"channel": 0,
				"type": "noteOn",
				"noteNumber": 77,
				"velocity": 64
			},
			{
				"deltaTime": 120,
				"channel": 0,
				"type": "noteOff",
				"noteNumber": 77,
				"velocity": 64
			},
			{
				"deltaTime": 110,
				"channel": 0,
				"type": "noteOn",
				"noteNumber": 77,
				"velocity": 64
			},
			{
				"deltaTime": 100,
				"channel": 0,
				"type": "noteOff",
				"noteNumber": 77,
				"velocity": 64
			},
			{
				"deltaTime": 20,
				"channel": 0,
				"type": "noteOn",
				"noteNumber": 77,
				"velocity": 64
			},
			{
				"deltaTime": 20,
				"channel": 0,
				"type": "noteOff",
				"noteNumber": 77,
				"velocity": 64
			},
			{
				"deltaTime": 0,
				"channel": 0,
				"type": "noteOn",
				"noteNumber": 79,
				"velocity": 56
			},
			{
				"deltaTime": 20,
				"channel": 0,
				"type": "noteOff",
				"noteNumber": 79,
				"velocity": 64
			},
			{
				"deltaTime": 0,
				"channel": 0,
				"type": "noteOn",
				"noteNumber": 77,
				"velocity": 64
			},
			{
				"deltaTime": 80,
				"channel": 0,
				"type": "noteOn",
				"noteNumber": 75,
				"velocity": 64
			},
			{
				"deltaTime": 10,
				"channel": 0,
				"type": "noteOff",
				"noteNumber": 77,
				"velocity": 64
			},
			{
				"deltaTime": 50,
				"channel": 0,
				"type": "noteOff",
				"noteNumber": 75,
				"velocity": 64
			},
			{
				"deltaTime": 0,
				"channel": 0,
				"type": "noteOn",
				"noteNumber": 74,
				"velocity": 64
			},
			{
				"deltaTime": 60,
				"channel": 0,
				"type": "noteOff",
				"noteNumber": 74,
				"velocity": 64
			},
			{
				"deltaTime": 0,
				"channel": 0,
				"type": "noteOn",
				"noteNumber": 79,
				"velocity": 64
			},
			{
				"deltaTime": 60,
				"channel": 0,
				"type": "noteOff",
				"noteNumber": 79,
				"velocity": 64
			},
			{
				"deltaTime": 0,
				"channel": 0,
				"type": "noteOn",
				"noteNumber": 77,
				"velocity": 64
			},
			{
				"deltaTime": 60,
				"channel": 0,
				"type": "noteOff",
				"noteNumber": 77,
				"velocity": 64
			},
			{
				"deltaTime": 0,
				"channel": 0,
				"type": "noteOn",
				"noteNumber": 80,
				"velocity": 64
			},
			{
				"deltaTime": 60,
				"channel": 0,
				"type": "noteOff",
				"noteNumber": 80,
				"velocity": 64
			},
			{
				"deltaTime": 0,
				"channel": 0,
				"type": "noteOn",
				"noteNumber": 79,
				"velocity": 64
			},
			{
				"deltaTime": 50,
				"channel": 0,
				"type": "noteOff",
				"noteNumber": 79,
				"velocity": 64
			},
			{
				"deltaTime": 10,
				"channel": 0,
				"type": "noteOn",
				"noteNumber": 79,
				"velocity": 64
			},
			{
				"deltaTime": 180,
				"channel": 0,
				"type": "noteOff",
				"noteNumber": 79,
				"velocity": 64
			},
			{
				"deltaTime": 0,
				"channel": 0,
				"type": "noteOn",
				"noteNumber": 80,
				"velocity": 64
			},
			{
				"deltaTime": 60,
				"channel": 0,
				"type": "noteOff",
				"noteNumber": 80,
				"velocity": 64
			},
			{
				"deltaTime": 0,
				"channel": 0,
				"type": "noteOn",
				"noteNumber": 74,
				"velocity": 64
			},
			{
				"deltaTime": 20,
				"channel": 0,
				"type": "noteOff",
				"noteNumber": 74,
				"velocity": 64
			},
			{
				"deltaTime": 0,
				"channel": 0,
				"type": "noteOn",
				"noteNumber": 75,
				"velocity": 48
			},
			{
				"deltaTime": 20,
				"channel": 0,
				"type": "noteOn",
				"noteNumber": 74,
				"velocity": 50
			},
			{
				"deltaTime": 2,
				"channel": 0,
				"type": "noteOff",
				"noteNumber": 75,
				"velocity": 64
			},
			{
				"deltaTime": 18,
				"channel": 0,
				"type": "noteOn",
				"noteNumber": 75,
				"velocity": 52
			},
			{
				"deltaTime": 2,
				"channel": 0,
				"type": "noteOff",
				"noteNumber": 74,
				"velocity": 64
			},
			{
				"deltaTime": 18,
				"channel": 0,
				"type": "noteOn",
				"noteNumber": 74,
				"velocity": 54
			},
			{
				"deltaTime": 2,
				"channel": 0,
				"type": "noteOff",
				"noteNumber": 75,
				"velocity": 64
			},
			{
				"deltaTime": 18,
				"channel": 0,
				"type": "noteOn",
				"noteNumber": 75,
				"velocity": 56
			},
			{
				"deltaTime": 2,
				"channel": 0,
				"type": "noteOff",
				"noteNumber": 74,
				"velocity": 64
			},
			{
				"deltaTime": 18,
				"channel": 0,
				"type": "noteOn",
				"noteNumber": 74,
				"velocity": 58
			},
			{
				"deltaTime": 2,
				"channel": 0,
				"type": "noteOff",
				"noteNumber": 75,
				"velocity": 64
			},
			{
				"deltaTime": 58,
				"channel": 0,
				"type": "noteOn",
				"noteNumber": 72,
				"velocity": 64
			},
			{
				"deltaTime": 6,
				"channel": 0,
				"type": "noteOff",
				"noteNumber": 74,
				"velocity": 64
			},
			{
				"deltaTime": 54,
				"channel": 0,
				"type": "noteOff",
				"noteNumber": 72,
				"velocity": 64
			},
			{
				"deltaTime": 0,
				"channel": 0,
				"type": "noteOn",
				"noteNumber": 72,
				"velocity": 64
			},
			{
				"deltaTime": 960,
				"channel": 0,
				"type": "noteOff",
				"noteNumber": 72,
				"velocity": 64
			},
			{
				"deltaTime": 0,
				"meta": true,
				"type": "endOfTrack"
			}
		],
		[
			{
				"deltaTime": 0,
				"meta": true,
				"type": "text",
				"text": "LH"
			},
			{
				"deltaTime": 2040,
				"channel": 1,
				"type": "noteOn",
				"noteNumber": 60,
				"velocity": 64
			},
			{
				"deltaTime": 60,
				"channel": 1,
				"type": "noteOff",
				"noteNumber": 60,
				"velocity": 64
			},
			{
				"deltaTime": 0,
				"channel": 1,
				"type": "noteOn",
				"noteNumber": 59,
				"velocity": 64
			},
			{
				"deltaTime": 60,
				"channel": 1,
				"type": "noteOff",
				"noteNumber": 59,
				"velocity": 64
			},
			{
				"deltaTime": 0,
				"channel": 1,
				"type": "noteOn",
				"noteNumber": 60,
				"velocity": 64
			},
			{
				"deltaTime": 60,
				"channel": 1,
				"type": "noteOff",
				"noteNumber": 60,
				"velocity": 64
			},
			{
				"deltaTime": 0,
				"channel": 1,
				"type": "noteOn",
				"noteNumber": 62,
				"velocity": 64
			},
			{
				"deltaTime": 60,
				"channel": 1,
				"type": "noteOff",
				"noteNumber": 62,
				"velocity": 64
			},
			{
				"deltaTime": 0,
				"channel": 1,
				"type": "noteOn",
				"noteNumber": 63,
				"velocity": 64
			},
			{
				"deltaTime": 60,
				"channel": 1,
				"type": "noteOff",
				"noteNumber": 63,
				"velocity": 64
			},
			{
				"deltaTime": 0,
				"channel": 1,
				"type": "noteOn",
				"noteNumber": 55,
				"velocity": 64
			},
			{
				"deltaTime": 60,
				"channel": 1,
				"type": "noteOff",
				"noteNumber": 55,
				"velocity": 64
			},
			{
				"deltaTime": 0,
				"channel": 1,
				"type": "noteOn",
				"noteNumber": 56,
				"velocity": 64
			},
			{
				"deltaTime": 60,
				"channel": 1,
				"type": "noteOff",
				"noteNumber": 56,
				"velocity": 64
			},
			{
				"deltaTime": 0,
				"channel": 1,
				"type": "noteOn",
				"noteNumber": 58,
				"velocity": 64
			},
			{
				"deltaTime": 60,
				"channel": 1,
				"type": "noteOff",
				"noteNumber": 58,
				"velocity": 64
			},
			{
				"deltaTime": 0,
				"channel": 1,
				"type": "noteOn",
				"noteNumber": 56,
				"velocity": 64
			},
			{
				"deltaTime": 60,
				"channel": 1,
				"type": "noteOff",
				"noteNumber": 56,
				"velocity": 64
			},
			{
				"deltaTime": 0,
				"channel": 1,
				"type": "noteOn",
				"noteNumber": 53,
				"velocity": 64
			},
			{
				"deltaTime": 60,
				"channel": 1,
				"type": "noteOff",
				"noteNumber": 53,
				"velocity": 64
			},
			{
				"deltaTime": 0,
				"channel": 1,
				"type": "noteOn",
				"noteNumber": 65,
				"velocity": 64
			},
			{
				"deltaTime": 60,
				"channel": 1,
				"type": "noteOff",
				"noteNumber": 65,
				"velocity": 64
			},
			{
				"deltaTime": 0,
				"channel": 1,
				"type": "noteOn",
				"noteNumber": 63,
				"velocity": 64
			},
			{
				"deltaTime": 60,
				"channel": 1,
				"type": "noteOff",
				"noteNumber": 63,
				"velocity": 64
			},
			{
				"deltaTime": 0,
				"channel": 1,
				"type": "noteOn",
				"noteNumber": 62,
				"velocity": 64
			},
			{
				"deltaTime": 60,
				"channel": 1,
				"type": "noteOff",
				"noteNumber": 62,
				"velocity": 64
			},
			{
				"deltaTime": 0,
				"channel": 1,
				"type": "noteOn",
				"noteNumber": 60,
				"velocity": 64
			},
			{
				"deltaTime": 60,
				"channel": 1,
				"type": "noteOff",
				"noteNumber": 60,
				"velocity": 64
			},
			{
				"deltaTime": 0,
				"channel": 1,
				"type": "noteOn",
				"noteNumber": 59,
				"velocity": 64
			},
			{
				"deltaTime": 60,
				"channel": 1,
				"type": "noteOff",
				"noteNumber": 59,
				"velocity": 64
			},
			{
				"deltaTime": 0,
				"channel": 1,
				"type": "noteOn",
				"noteNumber": 68,
				"velocity": 64
			},
			{
				"deltaTime": 60,
				"channel": 1,
				"type": "noteOff",
				"noteNumber": 68,
				"velocity": 64
			},
			{
				"deltaTime": 0,
				"channel": 1,
				"type": "noteOn",
				"noteNumber": 67,
				"velocity": 64
			},
			{
				"deltaTime": 60,
				"channel": 1,
				"type": "noteOff",
				"noteNumber": 67,
				"velocity": 64
			},
			{
				"deltaTime": 0,
				"channel": 1,
				"type": "noteOn",
				"noteNumber": 65,
				"velocity": 64
			},
			{
				"deltaTime": 60,
				"channel": 1,
				"type": "noteOff",
				"noteNumber": 65,
				"velocity": 64
			},
			{
				"deltaTime": 0,
				"channel": 1,
				"type": "noteOn",
				"noteNumber": 63,
				"velocity": 64
			},
			{
				"deltaTime": 60,
				"channel": 1,
				"type": "noteOff",
				"noteNumber": 63,
				"velocity": 64
			},
			{
				"deltaTime": 0,
				"channel": 1,
				"type": "noteOn",
				"noteNumber": 62,
				"velocity": 64
			},
			{
				"deltaTime": 60,
				"channel": 1,
				"type": "noteOff",
				"noteNumber": 62,
				"velocity": 64
			},
			{
				"deltaTime": 0,
				"channel": 1,
				"type": "noteOn",
				"noteNumber": 60,
				"velocity": 64
			},
			{
				"deltaTime": 60,
				"channel": 1,
				"type": "noteOff",
				"noteNumber": 60,
				"velocity": 64
			},
			{
				"deltaTime": 0,
				"channel": 1,
				"type": "noteOn",
				"noteNumber": 59,
				"velocity": 64
			},
			{
				"deltaTime": 60,
				"channel": 1,
				"type": "noteOff",
				"noteNumber": 59,
				"velocity": 64
			},
			{
				"deltaTime": 0,
				"channel": 1,
				"type": "noteOn",
				"noteNumber": 60,
				"velocity": 64
			},
			{
				"deltaTime": 60,
				"channel": 1,
				"type": "noteOff",
				"noteNumber": 60,
				"velocity": 64
			},
			{
				"deltaTime": 0,
				"channel": 1,
				"type": "noteOn",
				"noteNumber": 62,
				"velocity": 64
			},
			{
				"deltaTime": 60,
				"channel": 1,
				"type": "noteOff",
				"noteNumber": 62,
				"velocity": 64
			},
			{
				"deltaTime": 0,
				"channel": 1,
				"type": "noteOn",
				"noteNumber": 60,
				"velocity": 64
			},
			{
				"deltaTime": 60,
				"channel": 1,
				"type": "noteOff",
				"noteNumber": 60,
				"velocity": 64
			},
			{
				"deltaTime": 0,
				"channel": 1,
				"type": "noteOn",
				"noteNumber": 62,
				"velocity": 64
			},
			{
				"deltaTime": 60,
				"channel": 1,
				"type": "noteOff",
				"noteNumber": 62,
				"velocity": 64
			},
			{
				"deltaTime": 0,
				"channel": 1,
				"type": "noteOn",
				"noteNumber": 63,
				"velocity": 49
			},
			{
				"deltaTime": 30,
				"channel": 1,
				"type": "noteOn",
				"noteNumber": 62,
				"velocity": 50
			},
			{
				"deltaTime": 3,
				"channel": 1,
				"type": "noteOff",
				"noteNumber": 63,
				"velocity": 64
			},
			{
				"deltaTime": 27,
				"channel": 1,
				"type": "noteOn",
				"noteNumber": 63,
				"velocity": 52
			},
			{
				"deltaTime": 3,
				"channel": 1,
				"type": "noteOff",
				"noteNumber": 62,
				"velocity": 64
			},
			{
				"deltaTime": 27,
				"channel": 1,
				"type": "noteOn",
				"noteNumber": 62,
				"velocity": 53
			},
			{
				"deltaTime": 3,
				"channel": 1,
				"type": "noteOff",
				"noteNumber": 63,
				"velocity": 64
			},
			{
				"deltaTime": 27,
				"channel": 1,
				"type": "noteOn",
				"noteNumber": 63,
				"velocity": 55
			},
			{
				"deltaTime": 3,
				"channel": 1,
				"type": "noteOff",
				"noteNumber": 62,
				"velocity": 64
			},
			{
				"deltaTime": 27,
				"channel": 1,
				"type": "noteOn",
				"noteNumber": 62,
				"velocity": 56
			},
			{
				"deltaTime": 3,
				"channel": 1,
				"type": "noteOff",
				"noteNumber": 63,
				"velocity": 64
			},
			{
				"deltaTime": 27,
				"channel": 1,
				"type": "noteOn",
				"noteNumber": 60,
				"velocity": 58
			},
			{
				"deltaTime": 3,
				"channel": 1,
				"type": "noteOff",
				"noteNumber": 62,
				"velocity": 64
			},
			{
				"deltaTime": 27,
				"channel": 1,
				"type": "noteOn",
				"noteNumber": 62,
				"velocity": 59
			},
			{
				"deltaTime": 3,
				"channel": 1,
				"type": "noteOff",
				"noteNumber": 60,
				"velocity": 64
			},
			{
				"deltaTime": 27,
				"channel": 1,
				"type": "noteOn",
				"noteNumber": 63,
				"velocity": 64
			},
			{
				"deltaTime": 3,
				"channel": 1,
				"type": "noteOff",
				"noteNumber": 62,
				"velocity": 64
			},
			{
				"deltaTime": 57,
				"channel": 1,
				"type": "noteOff",
				"noteNumber": 63,
				"velocity": 64
			},
			{
				"deltaTime": 0,
				"channel": 1,
				"type": "noteOn",
				"noteNumber": 62,
				"velocity": 64
			},
			{
				"deltaTime": 60,
				"channel": 1,
				"type": "noteOff",
				"noteNumber": 62,
				"velocity": 64
			},
			{
				"deltaTime": 0,
				"channel": 1,
				"type": "noteOn",
				"noteNumber": 60,
				"velocity": 64
			},
			{
				"deltaTime": 60,
				"channel": 1,
				"type": "noteOff",
				"noteNumber": 60,
				"velocity": 64
			},
			{
				"deltaTime": 0,
				"channel": 1,
				"type": "noteOn",
				"noteNumber": 62,
				"velocity": 64
			},
			{
				"deltaTime": 60,
				"channel": 1,
				"type": "noteOff",
				"noteNumber": 62,
				"velocity": 64
			},
			{
				"deltaTime": 0,
				"channel": 1,
				"type": "noteOn",
				"noteNumber": 63,
				"velocity": 64
			},
			{
				"deltaTime": 60,
				"channel": 1,
				"type": "noteOff",
				"noteNumber": 63,
				"velocity": 64
			},
			{
				"deltaTime": 0,
				"channel": 1,
				"type": "noteOn",
				"noteNumber": 65,
				"velocity": 64
			},
			{
				"deltaTime": 60,
				"channel": 1,
				"type": "noteOff",
				"noteNumber": 65,
				"velocity": 64
			},
			{
				"deltaTime": 0,
				"channel": 1,
				"type": "noteOn",
				"noteNumber": 67,
				"velocity": 64
			},
			{
				"deltaTime": 100,
				"channel": 1,
				"type": "noteOff",
				"noteNumber": 67,
				"velocity": 64
			},
			{
				"deltaTime": 20,
				"channel": 1,
				"type": "noteOn",
				"noteNumber": 67,
				"velocity": 64
			},
			{
				"deltaTime": 20,
				"channel": 1,
				"type": "noteOff",
				"noteNumber": 67,
				"velocity": 64
			},
			{
				"deltaTime": 0,
				"channel": 1,
				"type": "noteOn",
				"noteNumber": 68,
				"velocity": 56
			},
			{
				"deltaTime": 20,
				"channel": 1,
				"type": "noteOff",
				"noteNumber": 68,
				"velocity": 64
			},
			{
				"deltaTime": 0,
				"channel": 1,
				"type": "noteOn",
				"noteNumber": 67,
				"velocity": 64
			},
			{
				"deltaTime": 90,
				"channel": 1,
				"type": "noteOff",
				"noteNumber": 67,
				"velocity": 64
			},
			{
				"deltaTime": 0,
				"channel": 1,
				"type": "noteOn",
				"noteNumber": 65,
				"velocity": 64
			},
			{
				"deltaTime": 120,
				"channel": 1,
				"type": "noteOff",
				"noteNumber": 65,
				"velocity": 64
			},
			{
				"deltaTime": 110,
				"channel": 1,
				"type": "noteOn",
				"noteNumber": 65,
				"velocity": 64
			},
			{
				"deltaTime": 100,
				"channel": 1,
				"type": "noteOff",
				"noteNumber": 65,
				"velocity": 64
			},
			{
				"deltaTime": 20,
				"channel": 1,
				"type": "noteOn",
				"noteNumber": 65,
				"velocity": 64
			},
			{
				"deltaTime": 20,
				"channel": 1,
				"type": "noteOff",
				"noteNumber": 65,
				"velocity": 64
			},
			{
				"deltaTime": 0,
				"channel": 1,
				"type": "noteOn",
				"noteNumber": 67,
				"velocity": 56
			},
			{
				"deltaTime": 20,
				"channel": 1,
				"type": "noteOff",
				"noteNumber": 67,
				"velocity": 64
			},
			{
				"deltaTime": 0,
				"channel": 1,
				"type": "noteOn",
				"noteNumber": 65,
				"velocity": 64
			},
			{
				"deltaTime": 90,
				"channel": 1,
				"type": "noteOff",
				"noteNumber": 65,
				"velocity": 64
			},
			{
				"deltaTime": 0,
				"channel": 1,
				"type": "noteOn",
				"noteNumber": 63,
				"velocity": 64
			},
			{
				"deltaTime": 120,
				"channel": 1,
				"type": "noteOff",
				"noteNumber": 63,
				"velocity": 64
			},
			{
				"deltaTime": 110,
				"channel": 1,
				"type": "noteOn",
				"noteNumber": 62,
				"velocity": 64
			},
			{
				"deltaTime": 120,
				"channel": 1,
				"type": "noteOff",
				"noteNumber": 62,
				"velocity": 64
			},
			{
				"deltaTime": 0,
				"channel": 1,
				"type": "noteOn",
				"noteNumber": 63,
				"velocity": 64
			},
			{
				"deltaTime": 120,
				"channel": 1,
				"type": "noteOff",
				"noteNumber": 63,
				"velocity": 64
			},
			{
				"deltaTime": 0,
				"channel": 1,
				"type": "noteOn",
				"noteNumber": 56,
				"velocity": 64
			},
			{
				"deltaTime": 180,
				"channel": 1,
				"type": "noteOff",
				"noteNumber": 56,
				"velocity": 64
			},
			{
				"deltaTime": 0,
				"channel": 1,
				"type": "noteOn",
				"noteNumber": 53,
				"velocity": 64
			},
			{
				"deltaTime": 60,
				"channel": 1,
				"type": "noteOff",
				"noteNumber": 53,
				"velocity": 64
			},
			{
				"deltaTime": 0,
				"channel": 1,
				"type": "noteOn",
				"noteNumber": 58,
				"velocity": 64
			},
			{
				"deltaTime": 60,
				"channel": 1,
				"type": "noteOff",
				"noteNumber": 58,
				"velocity": 64
			},
			{
				"deltaTime": 0,
				"channel": 1,
				"type": "noteOn",
				"noteNumber": 53,
				"velocity": 64
			},
			{
				"deltaTime": 60,
				"channel": 1,
				"type": "noteOff",
				"noteNumber": 53,
				"velocity": 64
			},
			{
				"deltaTime": 0,
				"channel": 1,
				"type": "noteOn",
				"noteNumber": 55,
				"velocity": 64
			},
			{
				"deltaTime": 120,
				"channel": 1,
				"type": "noteOff",
				"noteNumber": 55,
				"velocity": 64
			},
			{
				"deltaTime": 0,
				"channel": 1,
				"type": "noteOn",
				"noteNumber": 63,
				"velocity": 64
			},
			{
				"deltaTime": 180,
				"channel": 1,
				"type": "noteOff",
				"noteNumber": 63,
				"velocity": 64
			},
			{
				"deltaTime": 0,
				"channel": 1,
				"type": "noteOn",
				"noteNumber": 62,
				"velocity": 64
			},
			{
				"deltaTime": 60,
				"channel": 1,
				"type": "noteOff",
				"noteNumber": 62,
				"velocity": 64
			},
			{
				"deltaTime": 0,
				"channel": 1,
				"type": "noteOn",
				"noteNumber": 63,
				"velocity": 64
			},
			{
				"deltaTime": 60,
				"channel": 1,
				"type": "noteOff",
				"noteNumber": 63,
				"velocity": 64
			},
			{
				"deltaTime": 0,
				"channel": 1,
				"type": "noteOn",
				"noteNumber": 58,
				"velocity": 64
			},
			{
				"deltaTime": 60,
				"channel": 1,
				"type": "noteOff",
				"noteNumber": 58,
				"velocity": 64
			},
			{
				"deltaTime": 0,
				"channel": 1,
				"type": "noteOn",
				"noteNumber": 60,
				"velocity": 64
			},
			{
				"deltaTime": 60,
				"channel": 1,
				"type": "noteOff",
				"noteNumber": 60,
				"velocity": 64
			},
			{
				"deltaTime": 0,
				"channel": 1,
				"type": "noteOn",
				"noteNumber": 63,
				"velocity": 64
			},
			{
				"deltaTime": 60,
				"channel": 1,
				"type": "noteOff",
				"noteNumber": 63,
				"velocity": 64
			},
			{
				"deltaTime": 0,
				"channel": 1,
				"type": "noteOn",
				"noteNumber": 68,
				"velocity": 64
			},
			{
				"deltaTime": 60,
				"channel": 1,
				"type": "noteOff",
				"noteNumber": 68,
				"velocity": 64
			},
			{
				"deltaTime": 0,
				"channel": 1,
				"type": "noteOn",
				"noteNumber": 67,
				"velocity": 64
			},
			{
				"deltaTime": 60,
				"channel": 1,
				"type": "noteOff",
				"noteNumber": 67,
				"velocity": 64
			},
			{
				"deltaTime": 0,
				"channel": 1,
				"type": "noteOn",
				"noteNumber": 65,
				"velocity": 64
			},
			{
				"deltaTime": 60,
				"channel": 1,
				"type": "noteOff",
				"noteNumber": 65,
				"velocity": 64
			},
			{
				"deltaTime": 0,
				"channel": 1,
				"type": "noteOn",
				"noteNumber": 63,
				"velocity": 64
			},
			{
				"deltaTime": 60,
				"channel": 1,
				"type": "noteOff",
				"noteNumber": 63,
				"velocity": 64
			},
			{
				"deltaTime": 0,
				"channel": 1,
				"type": "noteOn",
				"noteNumber": 62,
				"velocity": 64
			},
			{
				"deltaTime": 60,
				"channel": 1,
				"type": "noteOff",
				"noteNumber": 62,
				"velocity": 64
			},
			{
				"deltaTime": 0,
				"channel": 1,
				"type": "noteOn",
				"noteNumber": 60,
				"velocity": 64
			},
			{
				"deltaTime": 60,
				"channel": 1,
				"type": "noteOff",
				"noteNumber": 60,
				"velocity": 64
			},
			{
				"deltaTime": 0,
				"channel": 1,
				"type": "noteOn",
				"noteNumber": 58,
				"velocity": 64
			},
			{
				"deltaTime": 60,
				"channel": 1,
				"type": "noteOff",
				"noteNumber": 58,
				"velocity": 64
			},
			{
				"deltaTime": 0,
				"channel": 1,
				"type": "noteOn",
				"noteNumber": 62,
				"velocity": 64
			},
			{
				"deltaTime": 60,
				"channel": 1,
				"type": "noteOff",
				"noteNumber": 62,
				"velocity": 64
			},
			{
				"deltaTime": 0,
				"channel": 1,
				"type": "noteOn",
				"noteNumber": 67,
				"velocity": 64
			},
			{
				"deltaTime": 60,
				"channel": 1,
				"type": "noteOff",
				"noteNumber": 67,
				"velocity": 64
			},
			{
				"deltaTime": 0,
				"channel": 1,
				"type": "noteOn",
				"noteNumber": 65,
				"velocity": 64
			},
			{
				"deltaTime": 60,
				"channel": 1,
				"type": "noteOff",
				"noteNumber": 65,
				"velocity": 64
			},
			{
				"deltaTime": 0,
				"channel": 1,
				"type": "noteOn",
				"noteNumber": 63,
				"velocity": 64
			},
			{
				"deltaTime": 60,
				"channel": 1,
				"type": "noteOff",
				"noteNumber": 63,
				"velocity": 64
			},
			{
				"deltaTime": 0,
				"channel": 1,
				"type": "noteOn",
				"noteNumber": 62,
				"velocity": 64
			},
			{
				"deltaTime": 60,
				"channel": 1,
				"type": "noteOff",
				"noteNumber": 62,
				"velocity": 64
			},
			{
				"deltaTime": 0,
				"channel": 1,
				"type": "noteOn",
				"noteNumber": 60,
				"velocity": 64
			},
			{
				"deltaTime": 60,
				"channel": 1,
				"type": "noteOff",
				"noteNumber": 60,
				"velocity": 64
			},
			{
				"deltaTime": 0,
				"channel": 1,
				"type": "noteOn",
				"noteNumber": 58,
				"velocity": 64
			},
			{
				"deltaTime": 60,
				"channel": 1,
				"type": "noteOff",
				"noteNumber": 58,
				"velocity": 64
			},
			{
				"deltaTime": 0,
				"channel": 1,
				"type": "noteOn",
				"noteNumber": 56,
				"velocity": 64
			},
			{
				"deltaTime": 60,
				"channel": 1,
				"type": "noteOff",
				"noteNumber": 56,
				"velocity": 64
			},
			{
				"deltaTime": 0,
				"channel": 1,
				"type": "noteOn",
				"noteNumber": 60,
				"velocity": 64
			},
			{
				"deltaTime": 60,
				"channel": 1,
				"type": "noteOff",
				"noteNumber": 60,
				"velocity": 64
			},
			{
				"deltaTime": 0,
				"channel": 1,
				"type": "noteOn",
				"noteNumber": 65,
				"velocity": 64
			},
			{
				"deltaTime": 60,
				"channel": 1,
				"type": "noteOff",
				"noteNumber": 65,
				"velocity": 64
			},
			{
				"deltaTime": 0,
				"channel": 1,
				"type": "noteOn",
				"noteNumber": 63,
				"velocity": 64
			},
			{
				"deltaTime": 60,
				"channel": 1,
				"type": "noteOff",
				"noteNumber": 63,
				"velocity": 64
			},
			{
				"deltaTime": 0,
				"channel": 1,
				"type": "noteOn",
				"noteNumber": 62,
				"velocity": 64
			},
			{
				"deltaTime": 30,
				"channel": 1,
				"type": "noteOff",
				"noteNumber": 62,
				"velocity": 64
			},
			{
				"deltaTime": 0,
				"channel": 1,
				"type": "noteOn",
				"noteNumber": 63,
				"velocity": 56
			},
			{
				"deltaTime": 30,
				"channel": 1,
				"type": "noteOff",
				"noteNumber": 63,
				"velocity": 64
			},
			{
				"deltaTime": 0,
				"channel": 1,
				"type": "noteOn",
				"noteNumber": 62,
				"velocity": 64
			},
			{
				"deltaTime": 110,
				"channel": 1,
				"type": "noteOff",
				"noteNumber": 62,
				"velocity": 64
			},
			{
				"deltaTime": 10,
				"channel": 1,
				"type": "noteOn",
				"noteNumber": 62,
				"velocity": 64
			},
			{
				"deltaTime": 60,
				"channel": 1,
				"type": "noteOff",
				"noteNumber": 62,
				"velocity": 64
			},
			{
				"deltaTime": 0,
				"channel": 1,
				"type": "noteOn",
				"noteNumber": 63,
				"velocity": 64
			},
			{
				"deltaTime": 60,
				"channel": 1,
				"type": "noteOff",
				"noteNumber": 63,
				"velocity": 64
			},
			{
				"deltaTime": 0,
				"channel": 1,
				"type": "noteOn",
				"noteNumber": 58,
				"velocity": 64
			},
			{
				"deltaTime": 60,
				"channel": 1,
				"type": "noteOff",
				"noteNumber": 58,
				"velocity": 64
			},
			{
				"deltaTime": 0,
				"channel": 1,
				"type": "noteOn",
				"noteNumber": 60,
				"velocity": 64
			},
			{
				"deltaTime": 60,
				"channel": 1,
				"type": "noteOff",
				"noteNumber": 60,
				"velocity": 64
			},
			{
				"deltaTime": 0,
				"channel": 1,
				"type": "noteOn",
				"noteNumber": 58,
				"velocity": 64
			},
			{
				"deltaTime": 60,
				"channel": 1,
				"type": "noteOff",
				"noteNumber": 58,
				"velocity": 64
			},
			{
				"deltaTime": 0,
				"channel": 1,
				"type": "noteOn",
				"noteNumber": 67,
				"velocity": 64
			},
			{
				"deltaTime": 290,
				"channel": 1,
				"type": "noteOff",
				"noteNumber": 67,
				"velocity": 64
			},
			{
				"deltaTime": 10,
				"channel": 1,
				"type": "noteOn",
				"noteNumber": 58,
				"velocity": 64
			},
			{
				"deltaTime": 60,
				"channel": 1,
				"type": "noteOff",
				"noteNumber": 58,
				"velocity": 64
			},
			{
				"deltaTime": 0,
				"channel": 1,
				"type": "noteOn",
				"noteNumber": 60,
				"velocity": 64
			},
			{
				"deltaTime": 60,
				"channel": 1,
				"type": "noteOff",
				"noteNumber": 60,
				"velocity": 64
			},
			{
				"deltaTime": 0,
				"channel": 1,
				"type": "noteOn",
				"noteNumber": 58,
				"velocity": 64
			},
			{
				"deltaTime": 60,
				"channel": 1,
				"type": "noteOff",
				"noteNumber": 58,
				"velocity": 64
			},
			{
				"deltaTime": 0,
				"channel": 1,
				"type": "noteOn",
				"noteNumber": 68,
				"velocity": 64
			},
			{
				"deltaTime": 290,
				"channel": 1,
				"type": "noteOff",
				"noteNumber": 68,
				"velocity": 64
			},
			{
				"deltaTime": 10,
				"channel": 1,
				"type": "noteOn",
				"noteNumber": 58,
				"velocity": 64
			},
			{
				"deltaTime": 60,
				"channel": 1,
				"type": "noteOff",
				"noteNumber": 58,
				"velocity": 64
			},
			{
				"deltaTime": 0,
				"channel": 1,
				"type": "noteOn",
				"noteNumber": 63,
				"velocity": 64
			},
			{
				"deltaTime": 60,
				"channel": 1,
				"type": "noteOff",
				"noteNumber": 63,
				"velocity": 64
			},
			{
				"deltaTime": 0,
				"channel": 1,
				"type": "noteOn",
				"noteNumber": 62,
				"velocity": 64
			},
			{
				"deltaTime": 60,
				"channel": 1,
				"type": "noteOff",
				"noteNumber": 62,
				"velocity": 64
			},
			{
				"deltaTime": 0,
				"channel": 1,
				"type": "noteOn",
				"noteNumber": 67,
				"velocity": 64
			},
			{
				"deltaTime": 60,
				"channel": 1,
				"type": "noteOff",
				"noteNumber": 67,
				"velocity": 64
			},
			{
				"deltaTime": 0,
				"channel": 1,
				"type": "noteOn",
				"noteNumber": 65,
				"velocity": 64
			},
			{
				"deltaTime": 60,
				"channel": 1,
				"type": "noteOff",
				"noteNumber": 65,
				"velocity": 64
			},
			{
				"deltaTime": 0,
				"channel": 1,
				"type": "noteOn",
				"noteNumber": 68,
				"velocity": 64
			},
			{
				"deltaTime": 60,
				"channel": 1,
				"type": "noteOff",
				"noteNumber": 68,
				"velocity": 64
			},
			{
				"deltaTime": 0,
				"channel": 1,
				"type": "noteOn",
				"noteNumber": 67,
				"velocity": 64
			},
			{
				"deltaTime": 60,
				"channel": 1,
				"type": "noteOff",
				"noteNumber": 67,
				"velocity": 64
			},
			{
				"deltaTime": 0,
				"channel": 1,
				"type": "noteOn",
				"noteNumber": 72,
				"velocity": 64
			},
			{
				"deltaTime": 60,
				"channel": 1,
				"type": "noteOff",
				"noteNumber": 72,
				"velocity": 64
			},
			{
				"deltaTime": 0,
				"channel": 1,
				"type": "noteOn",
				"noteNumber": 70,
				"velocity": 64
			},
			{
				"deltaTime": 60,
				"channel": 1,
				"type": "noteOff",
				"noteNumber": 70,
				"velocity": 64
			},
			{
				"deltaTime": 0,
				"channel": 1,
				"type": "noteOn",
				"noteNumber": 68,
				"velocity": 64
			},
			{
				"deltaTime": 60,
				"channel": 1,
				"type": "noteOff",
				"noteNumber": 68,
				"velocity": 64
			},
			{
				"deltaTime": 0,
				"channel": 1,
				"type": "noteOn",
				"noteNumber": 67,
				"velocity": 64
			},
			{
				"deltaTime": 60,
				"channel": 1,
				"type": "noteOff",
				"noteNumber": 67,
				"velocity": 64
			},
			{
				"deltaTime": 0,
				"channel": 1,
				"type": "noteOn",
				"noteNumber": 65,
				"velocity": 64
			},
			{
				"deltaTime": 60,
				"channel": 1,
				"type": "noteOff",
				"noteNumber": 65,
				"velocity": 64
			},
			{
				"deltaTime": 0,
				"channel": 1,
				"type": "noteOn",
				"noteNumber": 70,
				"velocity": 64
			},
			{
				"deltaTime": 60,
				"channel": 1,
				"type": "noteOff",
				"noteNumber": 70,
				"velocity": 64
			},
			{
				"deltaTime": 0,
				"channel": 1,
				"type": "noteOn",
				"noteNumber": 68,
				"velocity": 64
			},
			{
				"deltaTime": 60,
				"channel": 1,
				"type": "noteOff",
				"noteNumber": 68,
				"velocity": 64
			},
			{
				"deltaTime": 0,
				"channel": 1,
				"type": "noteOn",
				"noteNumber": 70,
				"velocity": 64
			},
			{
				"deltaTime": 60,
				"channel": 1,
				"type": "noteOff",
				"noteNumber": 70,
				"velocity": 64
			},
			{
				"deltaTime": 0,
				"channel": 1,
				"type": "noteOn",
				"noteNumber": 67,
				"velocity": 64
			},
			{
				"deltaTime": 120,
				"channel": 1,
				"type": "noteOff",
				"noteNumber": 67,
				"velocity": 64
			},
			{
				"deltaTime": 0,
				"channel": 1,
				"type": "noteOn",
				"noteNumber": 51,
				"velocity": 64
			},
			{
				"deltaTime": 60,
				"channel": 1,
				"type": "noteOff",
				"noteNumber": 51,
				"velocity": 64
			},
			{
				"deltaTime": 0,
				"channel": 1,
				"type": "noteOn",
				"noteNumber": 53,
				"velocity": 64
			},
			{
				"deltaTime": 60,
				"channel": 1,
				"type": "noteOff",
				"noteNumber": 53,
				"velocity": 64
			},
			{
				"deltaTime": 0,
				"channel": 1,
				"type": "noteOn",
				"noteNumber": 55,
				"velocity": 64
			},
			{
				"deltaTime": 60,
				"channel": 1,
				"type": "noteOff",
				"noteNumber": 55,
				"velocity": 64
			},
			{
				"deltaTime": 0,
				"channel": 1,
				"type": "noteOn",
				"noteNumber": 57,
				"velocity": 64
			},
			{
				"deltaTime": 60,
				"channel": 1,
				"type": "noteOff",
				"noteNumber": 57,
				"velocity": 64
			},
			{
				"deltaTime": 0,
				"channel": 1,
				"type": "noteOn",
				"noteNumber": 58,
				"velocity": 64
			},
			{
				"deltaTime": 60,
				"channel": 1,
				"type": "noteOff",
				"noteNumber": 58,
				"velocity": 64
			},
			{
				"deltaTime": 0,
				"channel": 1,
				"type": "noteOn",
				"noteNumber": 50,
				"velocity": 64
			},
			{
				"deltaTime": 60,
				"channel": 1,
				"type": "noteOff",
				"noteNumber": 50,
				"velocity": 64
			},
			{
				"deltaTime": 0,
				"channel": 1,
				"type": "noteOn",
				"noteNumber": 51,
				"velocity": 64
			},
			{
				"deltaTime": 60,
				"channel": 1,
				"type": "noteOff",
				"noteNumber": 51,
				"velocity": 64
			},
			{
				"deltaTime": 0,
				"channel": 1,
				"type": "noteOn",
				"noteNumber": 53,
				"velocity": 64
			},
			{
				"deltaTime": 60,
				"channel": 1,
				"type": "noteOff",
				"noteNumber": 53,
				"velocity": 64
			},
			{
				"deltaTime": 0,
				"channel": 1,
				"type": "noteOn",
				"noteNumber": 51,
				"velocity": 64
			},
			{
				"deltaTime": 60,
				"channel": 1,
				"type": "noteOff",
				"noteNumber": 51,
				"velocity": 64
			},
			{
				"deltaTime": 0,
				"channel": 1,
				"type": "noteOn",
				"noteNumber": 48,
				"velocity": 64
			},
			{
				"deltaTime": 60,
				"channel": 1,
				"type": "noteOff",
				"noteNumber": 48,
				"velocity": 64
			},
			{
				"deltaTime": 0,
				"channel": 1,
				"type": "noteOn",
				"noteNumber": 60,
				"velocity": 64
			},
			{
				"deltaTime": 60,
				"channel": 1,
				"type": "noteOff",
				"noteNumber": 60,
				"velocity": 64
			},
			{
				"deltaTime": 0,
				"channel": 1,
				"type": "noteOn",
				"noteNumber": 58,
				"velocity": 64
			},
			{
				"deltaTime": 60,
				"channel": 1,
				"type": "noteOff",
				"noteNumber": 58,
				"velocity": 64
			},
			{
				"deltaTime": 0,
				"channel": 1,
				"type": "noteOn",
				"noteNumber": 57,
				"velocity": 64
			},
			{
				"deltaTime": 60,
				"channel": 1,
				"type": "noteOff",
				"noteNumber": 57,
				"velocity": 64
			},
			{
				"deltaTime": 0,
				"channel": 1,
				"type": "noteOn",
				"noteNumber": 55,
				"velocity": 64
			},
			{
				"deltaTime": 60,
				"channel": 1,
				"type": "noteOff",
				"noteNumber": 55,
				"velocity": 64
			},
			{
				"deltaTime": 0,
				"channel": 1,
				"type": "noteOn",
				"noteNumber": 54,
				"velocity": 64
			},
			{
				"deltaTime": 60,
				"channel": 1,
				"type": "noteOff",
				"noteNumber": 54,
				"velocity": 64
			},
			{
				"deltaTime": 0,
				"channel": 1,
				"type": "noteOn",
				"noteNumber": 63,
				"velocity": 64
			},
			{
				"deltaTime": 60,
				"channel": 1,
				"type": "noteOff",
				"noteNumber": 63,
				"velocity": 64
			},
			{
				"deltaTime": 0,
				"channel": 1,
				"type": "noteOn",
				"noteNumber": 62,
				"velocity": 64
			},
			{
				"deltaTime": 60,
				"channel": 1,
				"type": "noteOff",
				"noteNumber": 62,
				"velocity": 64
			},
			{
				"deltaTime": 0,
				"channel": 1,
				"type": "noteOn",
				"noteNumber": 60,
				"velocity": 64
			},
			{
				"deltaTime": 60,
				"channel": 1,
				"type": "noteOff",
				"noteNumber": 60,
				"velocity": 64
			},
			{
				"deltaTime": 0,
				"channel": 1,
				"type": "noteOn",
				"noteNumber": 58,
				"velocity": 64
			},
			{
				"deltaTime": 60,
				"channel": 1,
				"type": "noteOff",
				"noteNumber": 58,
				"velocity": 64
			},
			{
				"deltaTime": 0,
				"channel": 1,
				"type": "noteOn",
				"noteNumber": 57,
				"velocity": 64
			},
			{
				"deltaTime": 60,
				"channel": 1,
				"type": "noteOff",
				"noteNumber": 57,
				"velocity": 64
			},
			{
				"deltaTime": 0,
				"channel": 1,
				"type": "noteOn",
				"noteNumber": 55,
				"velocity": 64
			},
			{
				"deltaTime": 60,
				"channel": 1,
				"type": "noteOff",
				"noteNumber": 55,
				"velocity": 64
			},
			{
				"deltaTime": 0,
				"channel": 1,
				"type": "noteOn",
				"noteNumber": 54,
				"velocity": 64
			},
			{
				"deltaTime": 60,
				"channel": 1,
				"type": "noteOff",
				"noteNumber": 54,
				"velocity": 64
			},
			{
				"deltaTime": 0,
				"channel": 1,
				"type": "noteOn",
				"noteNumber": 55,
				"velocity": 64
			},
			{
				"deltaTime": 60,
				"channel": 1,
				"type": "noteOff",
				"noteNumber": 55,
				"velocity": 64
			},
			{
				"deltaTime": 0,
				"channel": 1,
				"type": "noteOn",
				"noteNumber": 57,
				"velocity": 64
			},
			{
				"deltaTime": 60,
				"channel": 1,
				"type": "noteOff",
				"noteNumber": 57,
				"velocity": 64
			},
			{
				"deltaTime": 0,
				"channel": 1,
				"type": "noteOn",
				"noteNumber": 55,
				"velocity": 64
			},
			{
				"deltaTime": 60,
				"channel": 1,
				"type": "noteOff",
				"noteNumber": 55,
				"velocity": 64
			},
			{
				"deltaTime": 0,
				"channel": 1,
				"type": "noteOn",
				"noteNumber": 57,
				"velocity": 64
			},
			{
				"deltaTime": 60,
				"channel": 1,
				"type": "noteOff",
				"noteNumber": 57,
				"velocity": 64
			},
			{
				"deltaTime": 0,
				"channel": 1,
				"type": "noteOn",
				"noteNumber": 58,
				"velocity": 48
			},
			{
				"deltaTime": 30,
				"channel": 1,
				"type": "noteOn",
				"noteNumber": 57,
				"velocity": 50
			},
			{
				"deltaTime": 3,
				"channel": 1,
				"type": "noteOff",
				"noteNumber": 58,
				"velocity": 64
			},
			{
				"deltaTime": 27,
				"channel": 1,
				"type": "noteOn",
				"noteNumber": 58,
				"velocity": 51
			},
			{
				"deltaTime": 3,
				"channel": 1,
				"type": "noteOff",
				"noteNumber": 57,
				"velocity": 64
			},
			{
				"deltaTime": 27,
				"channel": 1,
				"type": "noteOn",
				"noteNumber": 57,
				"velocity": 53
			},
			{
				"deltaTime": 3,
				"channel": 1,
				"type": "noteOff",
				"noteNumber": 58,
				"velocity": 64
			},
			{
				"deltaTime": 27,
				"channel": 1,
				"type": "noteOn",
				"noteNumber": 58,
				"velocity": 55
			},
			{
				"deltaTime": 3,
				"channel": 1,
				"type": "noteOff",
				"noteNumber": 57,
				"velocity": 64
			},
			{
				"deltaTime": 27,
				"channel": 1,
				"type": "noteOn",
				"noteNumber": 57,
				"velocity": 56
			},
			{
				"deltaTime": 3,
				"channel": 1,
				"type": "noteOff",
				"noteNumber": 58,
				"velocity": 64
			},
			{
				"deltaTime": 27,
				"channel": 1,
				"type": "noteOn",
				"noteNumber": 55,
				"velocity": 58
			},
			{
				"deltaTime": 3,
				"channel": 1,
				"type": "noteOff",
				"noteNumber": 57,
				"velocity": 64
			},
			{
				"deltaTime": 27,
				"channel": 1,
				"type": "noteOn",
				"noteNumber": 57,
				"velocity": 59
			},
			{
				"deltaTime": 3,
				"channel": 1,
				"type": "noteOff",
				"noteNumber": 55,
				"velocity": 64
			},
			{
				"deltaTime": 27,
				"channel": 1,
				"type": "noteOn",
				"noteNumber": 58,
				"velocity": 64
			},
			{
				"deltaTime": 3,
				"channel": 1,
				"type": "noteOff",
				"noteNumber": 57,
				"velocity": 64
			},
			{
				"deltaTime": 57,
				"channel": 1,
				"type": "noteOff",
				"noteNumber": 58,
				"velocity": 64
			},
			{
				"deltaTime": 0,
				"channel": 1,
				"type": "noteOn",
				"noteNumber": 57,
				"velocity": 64
			},
			{
				"deltaTime": 60,
				"channel": 1,
				"type": "noteOff",
				"noteNumber": 57,
				"velocity": 64
			},
			{
				"deltaTime": 0,
				"channel": 1,
				"type": "noteOn",
				"noteNumber": 55,
				"velocity": 64
			},
			{
				"deltaTime": 60,
				"channel": 1,
				"type": "noteOff",
				"noteNumber": 55,
				"velocity": 64
			},
			{
				"deltaTime": 0,
				"channel": 1,
				"type": "noteOn",
				"noteNumber": 57,
				"velocity": 64
			},
			{
				"deltaTime": 60,
				"channel": 1,
				"type": "noteOff",
				"noteNumber": 57,
				"velocity": 64
			},
			{
				"deltaTime": 0,
				"channel": 1,
				"type": "noteOn",
				"noteNumber": 58,
				"velocity": 64
			},
			{
				"deltaTime": 60,
				"channel": 1,
				"type": "noteOff",
				"noteNumber": 58,
				"velocity": 64
			},
			{
				"deltaTime": 0,
				"channel": 1,
				"type": "noteOn",
				"noteNumber": 60,
				"velocity": 64
			},
			{
				"deltaTime": 60,
				"channel": 1,
				"type": "noteOff",
				"noteNumber": 60,
				"velocity": 64
			},
			{
				"deltaTime": 0,
				"channel": 1,
				"type": "noteOn",
				"noteNumber": 62,
				"velocity": 64
			},
			{
				"deltaTime": 120,
				"channel": 1,
				"type": "noteOff",
				"noteNumber": 62,
				"velocity": 64
			},
			{
				"deltaTime": 0,
				"channel": 1,
				"type": "noteOn",
				"noteNumber": 62,
				"velocity": 64
			},
			{
				"deltaTime": 120,
				"channel": 1,
				"type": "noteOff",
				"noteNumber": 62,
				"velocity": 64
			},
			{
				"deltaTime": 0,
				"channel": 1,
				"type": "noteOn",
				"noteNumber": 60,
				"velocity": 64
			},
			{
				"deltaTime": 120,
				"channel": 1,
				"type": "noteOff",
				"noteNumber": 60,
				"velocity": 64
			},
			{
				"deltaTime": 120,
				"channel": 1,
				"type": "noteOn",
				"noteNumber": 60,
				"velocity": 64
			},
			{
				"deltaTime": 100,
				"channel": 1,
				"type": "noteOff",
				"noteNumber": 60,
				"velocity": 64
			},
			{
				"deltaTime": 20,
				"channel": 1,
				"type": "noteOn",
				"noteNumber": 60,
				"velocity": 64
			},
			{
				"deltaTime": 20,
				"channel": 1,
				"type": "noteOff",
				"noteNumber": 60,
				"velocity": 64
			},
			{
				"deltaTime": 0,
				"channel": 1,
				"type": "noteOn",
				"noteNumber": 62,
				"velocity": 56
			},
			{
				"deltaTime": 20,
				"channel": 1,
				"type": "noteOff",
				"noteNumber": 62,
				"velocity": 64
			},
			{
				"deltaTime": 0,
				"channel": 1,
				"type": "noteOn",
				"noteNumber": 60,
				"velocity": 64
			},
			{
				"deltaTime": 90,
				"channel": 1,
				"type": "noteOff",
				"noteNumber": 60,
				"velocity": 64
			},
			{
				"deltaTime": 0,
				"channel": 1,
				"type": "noteOn",
				"noteNumber": 58,
				"velocity": 64
			},
			{
				"deltaTime": 120,
				"channel": 1,
				"type": "noteOff",
				"noteNumber": 58,
				"velocity": 64
			},
			{
				"deltaTime": 110,
				"channel": 1,
				"type": "noteOn",
				"noteNumber": 57,
				"velocity": 64
			},
			{
				"deltaTime": 120,
				"channel": 1,
				"type": "noteOff",
				"noteNumber": 57,
				"velocity": 64
			},
			{
				"deltaTime": 0,
				"channel": 1,
				"type": "noteOn",
				"noteNumber": 58,
				"velocity": 64
			},
			{
				"deltaTime": 120,
				"channel": 1,
				"type": "noteOff",
				"noteNumber": 58,
				"velocity": 64
			},
			{
				"deltaTime": 0,
				"channel": 1,
				"type": "noteOn",
				"noteNumber": 51,
				"velocity": 64
			},
			{
				"deltaTime": 180,
				"channel": 1,
				"type": "noteOff",
				"noteNumber": 51,
				"velocity": 64
			},
			{
				"deltaTime": 0,
				"channel": 1,
				"type": "noteOn",
				"noteNumber": 48,
				"velocity": 64
			},
			{
				"deltaTime": 60,
				"channel": 1,
				"type": "noteOff",
				"noteNumber": 48,
				"velocity": 64
			},
			{
				"deltaTime": 0,
				"channel": 1,
				"type": "noteOn",
				"noteNumber": 53,
				"velocity": 64
			},
			{
				"deltaTime": 60,
				"channel": 1,
				"type": "noteOff",
				"noteNumber": 53,
				"velocity": 64
			},
			{
				"deltaTime": 0,
				"channel": 1,
				"type": "noteOn",
				"noteNumber": 48,
				"velocity": 64
			},
			{
				"deltaTime": 60,
				"channel": 1,
				"type": "noteOff",
				"noteNumber": 48,
				"velocity": 64
			},
			{
				"deltaTime": 0,
				"channel": 1,
				"type": "noteOn",
				"noteNumber": 50,
				"velocity": 64
			},
			{
				"deltaTime": 120,
				"channel": 1,
				"type": "noteOff",
				"noteNumber": 50,
				"velocity": 64
			},
			{
				"deltaTime": 0,
				"channel": 1,
				"type": "noteOn",
				"noteNumber": 58,
				"velocity": 64
			},
			{
				"deltaTime": 180,
				"channel": 1,
				"type": "noteOff",
				"noteNumber": 58,
				"velocity": 64
			},
			{
				"deltaTime": 0,
				"channel": 1,
				"type": "noteOn",
				"noteNumber": 57,
				"velocity": 64
			},
			{
				"deltaTime": 60,
				"channel": 1,
				"type": "noteOff",
				"noteNumber": 57,
				"velocity": 64
			},
			{
				"deltaTime": 0,
				"channel": 1,
				"type": "noteOn",
				"noteNumber": 58,
				"velocity": 64
			},
			{
				"deltaTime": 60,
				"channel": 1,
				"type": "noteOff",
				"noteNumber": 58,
				"velocity": 64
			},
			{
				"deltaTime": 0,
				"channel": 1,
				"type": "noteOn",
				"noteNumber": 53,
				"velocity": 64
			},
			{
				"deltaTime": 60,
				"channel": 1,
				"type": "noteOff",
				"noteNumber": 53,
				"velocity": 64
			},
			{
				"deltaTime": 0,
				"channel": 1,
				"type": "noteOn",
				"noteNumber": 55,
				"velocity": 64
			},
			{
				"deltaTime": 60,
				"channel": 1,
				"type": "noteOff",
				"noteNumber": 55,
				"velocity": 64
			},
			{
				"deltaTime": 0,
				"channel": 1,
				"type": "noteOn",
				"noteNumber": 58,
				"velocity": 64
			},
			{
				"deltaTime": 60,
				"channel": 1,
				"type": "noteOff",
				"noteNumber": 58,
				"velocity": 64
			},
			{
				"deltaTime": 0,
				"channel": 1,
				"type": "noteOn",
				"noteNumber": 63,
				"velocity": 64
			},
			{
				"deltaTime": 60,
				"channel": 1,
				"type": "noteOff",
				"noteNumber": 63,
				"velocity": 64
			},
			{
				"deltaTime": 0,
				"channel": 1,
				"type": "noteOn",
				"noteNumber": 62,
				"velocity": 64
			},
			{
				"deltaTime": 60,
				"channel": 1,
				"type": "noteOff",
				"noteNumber": 62,
				"velocity": 64
			},
			{
				"deltaTime": 0,
				"channel": 1,
				"type": "noteOn",
				"noteNumber": 60,
				"velocity": 64
			},
			{
				"deltaTime": 60,
				"channel": 1,
				"type": "noteOff",
				"noteNumber": 60,
				"velocity": 64
			},
			{
				"deltaTime": 0,
				"channel": 1,
				"type": "noteOn",
				"noteNumber": 58,
				"velocity": 64
			},
			{
				"deltaTime": 60,
				"channel": 1,
				"type": "noteOff",
				"noteNumber": 58,
				"velocity": 64
			},
			{
				"deltaTime": 0,
				"channel": 1,
				"type": "noteOn",
				"noteNumber": 57,
				"velocity": 64
			},
			{
				"deltaTime": 60,
				"channel": 1,
				"type": "noteOff",
				"noteNumber": 57,
				"velocity": 64
			},
			{
				"deltaTime": 0,
				"channel": 1,
				"type": "noteOn",
				"noteNumber": 55,
				"velocity": 64
			},
			{
				"deltaTime": 60,
				"channel": 1,
				"type": "noteOff",
				"noteNumber": 55,
				"velocity": 64
			},
			{
				"deltaTime": 0,
				"channel": 1,
				"type": "noteOn",
				"noteNumber": 53,
				"velocity": 64
			},
			{
				"deltaTime": 60,
				"channel": 1,
				"type": "noteOff",
				"noteNumber": 53,
				"velocity": 64
			},
			{
				"deltaTime": 0,
				"channel": 1,
				"type": "noteOn",
				"noteNumber": 57,
				"velocity": 64
			},
			{
				"deltaTime": 60,
				"channel": 1,
				"type": "noteOff",
				"noteNumber": 57,
				"velocity": 64
			},
			{
				"deltaTime": 0,
				"channel": 1,
				"type": "noteOn",
				"noteNumber": 62,
				"velocity": 64
			},
			{
				"deltaTime": 60,
				"channel": 1,
				"type": "noteOff",
				"noteNumber": 62,
				"velocity": 64
			},
			{
				"deltaTime": 0,
				"channel": 1,
				"type": "noteOn",
				"noteNumber": 60,
				"velocity": 64
			},
			{
				"deltaTime": 60,
				"channel": 1,
				"type": "noteOff",
				"noteNumber": 60,
				"velocity": 64
			},
			{
				"deltaTime": 0,
				"channel": 1,
				"type": "noteOn",
				"noteNumber": 58,
				"velocity": 64
			},
			{
				"deltaTime": 60,
				"channel": 1,
				"type": "noteOff",
				"noteNumber": 58,
				"velocity": 64
			},
			{
				"deltaTime": 0,
				"channel": 1,
				"type": "noteOn",
				"noteNumber": 57,
				"velocity": 64
			},
			{
				"deltaTime": 60,
				"channel": 1,
				"type": "noteOff",
				"noteNumber": 57,
				"velocity": 64
			},
			{
				"deltaTime": 0,
				"channel": 1,
				"type": "noteOn",
				"noteNumber": 55,
				"velocity": 64
			},
			{
				"deltaTime": 60,
				"channel": 1,
				"type": "noteOff",
				"noteNumber": 55,
				"velocity": 64
			},
			{
				"deltaTime": 0,
				"channel": 1,
				"type": "noteOn",
				"noteNumber": 53,
				"velocity": 64
			},
			{
				"deltaTime": 60,
				"channel": 1,
				"type": "noteOff",
				"noteNumber": 53,
				"velocity": 64
			},
			{
				"deltaTime": 0,
				"channel": 1,
				"type": "noteOn",
				"noteNumber": 51,
				"velocity": 64
			},
			{
				"deltaTime": 60,
				"channel": 1,
				"type": "noteOff",
				"noteNumber": 51,
				"velocity": 64
			},
			{
				"deltaTime": 0,
				"channel": 1,
				"type": "noteOn",
				"noteNumber": 55,
				"velocity": 64
			},
			{
				"deltaTime": 60,
				"channel": 1,
				"type": "noteOff",
				"noteNumber": 55,
				"velocity": 64
			},
			{
				"deltaTime": 0,
				"channel": 1,
				"type": "noteOn",
				"noteNumber": 60,
				"velocity": 64
			},
			{
				"deltaTime": 60,
				"channel": 1,
				"type": "noteOff",
				"noteNumber": 60,
				"velocity": 64
			},
			{
				"deltaTime": 0,
				"channel": 1,
				"type": "noteOn",
				"noteNumber": 55,
				"velocity": 64
			},
			{
				"deltaTime": 60,
				"channel": 1,
				"type": "noteOff",
				"noteNumber": 55,
				"velocity": 64
			},
			{
				"deltaTime": 0,
				"channel": 1,
				"type": "noteOn",
				"noteNumber": 57,
				"velocity": 64
			},
			{
				"deltaTime": 30,
				"channel": 1,
				"type": "noteOff",
				"noteNumber": 57,
				"velocity": 64
			},
			{
				"deltaTime": 0,
				"channel": 1,
				"type": "noteOn",
				"noteNumber": 58,
				"velocity": 64
			},
			{
				"deltaTime": 30,
				"channel": 1,
				"type": "noteOff",
				"noteNumber": 58,
				"velocity": 64
			},
			{
				"deltaTime": 0,
				"channel": 1,
				"type": "noteOn",
				"noteNumber": 57,
				"velocity": 64
			},
			{
				"deltaTime": 120,
				"channel": 1,
				"type": "noteOff",
				"noteNumber": 57,
				"velocity": 64
			},
			{
				"deltaTime": 0,
				"channel": 1,
				"type": "noteOn",
				"noteNumber": 57,
				"velocity": 64
			},
			{
				"deltaTime": 60,
				"channel": 1,
				"type": "noteOff",
				"noteNumber": 57,
				"velocity": 64
			},
			{
				"deltaTime": 0,
				"channel": 1,
				"type": "noteOn",
				"noteNumber": 58,
				"velocity": 64
			},
			{
				"deltaTime": 60,
				"channel": 1,
				"type": "noteOff",
				"noteNumber": 58,
				"velocity": 64
			},
			{
				"deltaTime": 0,
				"channel": 1,
				"type": "noteOn",
				"noteNumber": 53,
				"velocity": 64
			},
			{
				"deltaTime": 60,
				"channel": 1,
				"type": "noteOff",
				"noteNumber": 53,
				"velocity": 64
			},
			{
				"deltaTime": 0,
				"channel": 1,
				"type": "noteOn",
				"noteNumber": 55,
				"velocity": 64
			},
			{
				"deltaTime": 60,
				"channel": 1,
				"type": "noteOff",
				"noteNumber": 55,
				"velocity": 64
			},
			{
				"deltaTime": 0,
				"channel": 1,
				"type": "noteOn",
				"noteNumber": 53,
				"velocity": 64
			},
			{
				"deltaTime": 60,
				"channel": 1,
				"type": "noteOff",
				"noteNumber": 53,
				"velocity": 64
			},
			{
				"deltaTime": 0,
				"channel": 1,
				"type": "noteOn",
				"noteNumber": 62,
				"velocity": 64
			},
			{
				"deltaTime": 290,
				"channel": 1,
				"type": "noteOff",
				"noteNumber": 62,
				"velocity": 64
			},
			{
				"deltaTime": 10,
				"channel": 1,
				"type": "noteOn",
				"noteNumber": 53,
				"velocity": 64
			},
			{
				"deltaTime": 60,
				"channel": 1,
				"type": "noteOff",
				"noteNumber": 53,
				"velocity": 64
			},
			{
				"deltaTime": 0,
				"channel": 1,
				"type": "noteOn",
				"noteNumber": 55,
				"velocity": 64
			},
			{
				"deltaTime": 60,
				"channel": 1,
				"type": "noteOff",
				"noteNumber": 55,
				"velocity": 64
			},
			{
				"deltaTime": 0,
				"channel": 1,
				"type": "noteOn",
				"noteNumber": 53,
				"velocity": 64
			},
			{
				"deltaTime": 60,
				"channel": 1,
				"type": "noteOff",
				"noteNumber": 53,
				"velocity": 64
			},
			{
				"deltaTime": 0,
				"channel": 1,
				"type": "noteOn",
				"noteNumber": 63,
				"velocity": 64
			},
			{
				"deltaTime": 290,
				"channel": 1,
				"type": "noteOff",
				"noteNumber": 63,
				"velocity": 64
			},
			{
				"deltaTime": 10,
				"channel": 1,
				"type": "noteOn",
				"noteNumber": 53,
				"velocity": 64
			},
			{
				"deltaTime": 60,
				"channel": 1,
				"type": "noteOff",
				"noteNumber": 53,
				"velocity": 64
			},
			{
				"deltaTime": 0,
				"channel": 1,
				"type": "noteOn",
				"noteNumber": 58,
				"velocity": 64
			},
			{
				"deltaTime": 60,
				"channel": 1,
				"type": "noteOff",
				"noteNumber": 58,
				"velocity": 64
			},
			{
				"deltaTime": 0,
				"channel": 1,
				"type": "noteOn",
				"noteNumber": 57,
				"velocity": 64
			},
			{
				"deltaTime": 60,
				"channel": 1,
				"type": "noteOff",
				"noteNumber": 57,
				"velocity": 64
			},
			{
				"deltaTime": 0,
				"channel": 1,
				"type": "noteOn",
				"noteNumber": 62,
				"velocity": 64
			},
			{
				"deltaTime": 60,
				"channel": 1,
				"type": "noteOff",
				"noteNumber": 62,
				"velocity": 64
			},
			{
				"deltaTime": 0,
				"channel": 1,
				"type": "noteOn",
				"noteNumber": 60,
				"velocity": 64
			},
			{
				"deltaTime": 60,
				"channel": 1,
				"type": "noteOff",
				"noteNumber": 60,
				"velocity": 64
			},
			{
				"deltaTime": 0,
				"channel": 1,
				"type": "noteOn",
				"noteNumber": 63,
				"velocity": 64
			},
			{
				"deltaTime": 60,
				"channel": 1,
				"type": "noteOff",
				"noteNumber": 63,
				"velocity": 64
			},
			{
				"deltaTime": 0,
				"channel": 1,
				"type": "noteOn",
				"noteNumber": 62,
				"velocity": 64
			},
			{
				"deltaTime": 60,
				"channel": 1,
				"type": "noteOff",
				"noteNumber": 62,
				"velocity": 64
			},
			{
				"deltaTime": 0,
				"channel": 1,
				"type": "noteOn",
				"noteNumber": 67,
				"velocity": 64
			},
			{
				"deltaTime": 60,
				"channel": 1,
				"type": "noteOff",
				"noteNumber": 67,
				"velocity": 64
			},
			{
				"deltaTime": 0,
				"channel": 1,
				"type": "noteOn",
				"noteNumber": 65,
				"velocity": 64
			},
			{
				"deltaTime": 60,
				"channel": 1,
				"type": "noteOff",
				"noteNumber": 65,
				"velocity": 64
			},
			{
				"deltaTime": 0,
				"channel": 1,
				"type": "noteOn",
				"noteNumber": 63,
				"velocity": 64
			},
			{
				"deltaTime": 60,
				"channel": 1,
				"type": "noteOff",
				"noteNumber": 63,
				"velocity": 64
			},
			{
				"deltaTime": 0,
				"channel": 1,
				"type": "noteOn",
				"noteNumber": 62,
				"velocity": 64
			},
			{
				"deltaTime": 60,
				"channel": 1,
				"type": "noteOff",
				"noteNumber": 62,
				"velocity": 64
			},
			{
				"deltaTime": 0,
				"channel": 1,
				"type": "noteOn",
				"noteNumber": 60,
				"velocity": 64
			},
			{
				"deltaTime": 60,
				"channel": 1,
				"type": "noteOff",
				"noteNumber": 60,
				"velocity": 64
			},
			{
				"deltaTime": 0,
				"channel": 1,
				"type": "noteOn",
				"noteNumber": 65,
				"velocity": 64
			},
			{
				"deltaTime": 60,
				"channel": 1,
				"type": "noteOff",
				"noteNumber": 65,
				"velocity": 64
			},
			{
				"deltaTime": 0,
				"channel": 1,
				"type": "noteOn",
				"noteNumber": 63,
				"velocity": 64
			},
			{
				"deltaTime": 60,
				"channel": 1,
				"type": "noteOff",
				"noteNumber": 63,
				"velocity": 64
			},
			{
				"deltaTime": 0,
				"channel": 1,
				"type": "noteOn",
				"noteNumber": 65,
				"velocity": 64
			},
			{
				"deltaTime": 60,
				"channel": 1,
				"type": "noteOff",
				"noteNumber": 65,
				"velocity": 64
			},
			{
				"deltaTime": 0,
				"channel": 1,
				"type": "noteOn",
				"noteNumber": 62,
				"velocity": 64
			},
			{
				"deltaTime": 60,
				"channel": 1,
				"type": "noteOff",
				"noteNumber": 62,
				"velocity": 64
			},
			{
				"deltaTime": 60,
				"channel": 1,
				"type": "noteOn",
				"noteNumber": 63,
				"velocity": 64
			},
			{
				"deltaTime": 60,
				"channel": 1,
				"type": "noteOff",
				"noteNumber": 63,
				"velocity": 64
			},
			{
				"deltaTime": 60,
				"channel": 1,
				"type": "noteOn",
				"noteNumber": 58,
				"velocity": 64
			},
			{
				"deltaTime": 60,
				"channel": 1,
				"type": "noteOff",
				"noteNumber": 58,
				"velocity": 64
			},
			{
				"deltaTime": 0,
				"channel": 1,
				"type": "noteOn",
				"noteNumber": 62,
				"velocity": 64
			},
			{
				"deltaTime": 60,
				"channel": 1,
				"type": "noteOff",
				"noteNumber": 62,
				"velocity": 64
			},
			{
				"deltaTime": 0,
				"channel": 1,
				"type": "noteOn",
				"noteNumber": 60,
				"velocity": 64
			},
			{
				"deltaTime": 60,
				"channel": 1,
				"type": "noteOff",
				"noteNumber": 60,
				"velocity": 64
			},
			{
				"deltaTime": 0,
				"channel": 1,
				"type": "noteOn",
				"noteNumber": 62,
				"velocity": 64
			},
			{
				"deltaTime": 60,
				"channel": 1,
				"type": "noteOff",
				"noteNumber": 62,
				"velocity": 64
			},
			{
				"deltaTime": 0,
				"channel": 1,
				"type": "noteOn",
				"noteNumber": 55,
				"velocity": 64
			},
			{
				"deltaTime": 60,
				"channel": 1,
				"type": "noteOff",
				"noteNumber": 55,
				"velocity": 64
			},
			{
				"deltaTime": 0,
				"channel": 1,
				"type": "noteOn",
				"noteNumber": 57,
				"velocity": 64
			},
			{
				"deltaTime": 60,
				"channel": 1,
				"type": "noteOff",
				"noteNumber": 57,
				"velocity": 64
			},
			{
				"deltaTime": 0,
				"channel": 1,
				"type": "noteOn",
				"noteNumber": 58,
				"velocity": 64
			},
			{
				"deltaTime": 60,
				"channel": 1,
				"type": "noteOff",
				"noteNumber": 58,
				"velocity": 64
			},
			{
				"deltaTime": 0,
				"channel": 1,
				"type": "noteOn",
				"noteNumber": 60,
				"velocity": 64
			},
			{
				"deltaTime": 60,
				"channel": 1,
				"type": "noteOff",
				"noteNumber": 60,
				"velocity": 64
			},
			{
				"deltaTime": 0,
				"channel": 1,
				"type": "noteOn",
				"noteNumber": 57,
				"velocity": 64
			},
			{
				"deltaTime": 60,
				"channel": 1,
				"type": "noteOff",
				"noteNumber": 57,
				"velocity": 64
			},
			{
				"deltaTime": 0,
				"channel": 1,
				"type": "noteOn",
				"noteNumber": 58,
				"velocity": 64
			},
			{
				"deltaTime": 60,
				"channel": 1,
				"type": "noteOff",
				"noteNumber": 58,
				"velocity": 64
			},
			{
				"deltaTime": 0,
				"channel": 1,
				"type": "noteOn",
				"noteNumber": 60,
				"velocity": 64
			},
			{
				"deltaTime": 60,
				"channel": 1,
				"type": "noteOff",
				"noteNumber": 60,
				"velocity": 64
			},
			{
				"deltaTime": 0,
				"channel": 1,
				"type": "noteOn",
				"noteNumber": 62,
				"velocity": 64
			},
			{
				"deltaTime": 60,
				"channel": 1,
				"type": "noteOff",
				"noteNumber": 62,
				"velocity": 64
			},
			{
				"deltaTime": 0,
				"channel": 1,
				"type": "noteOn",
				"noteNumber": 58,
				"velocity": 64
			},
			{
				"deltaTime": 60,
				"channel": 1,
				"type": "noteOff",
				"noteNumber": 58,
				"velocity": 64
			},
			{
				"deltaTime": 0,
				"channel": 1,
				"type": "noteOn",
				"noteNumber": 60,
				"velocity": 64
			},
			{
				"deltaTime": 60,
				"channel": 1,
				"type": "noteOff",
				"noteNumber": 60,
				"velocity": 64
			},
			{
				"deltaTime": 0,
				"channel": 1,
				"type": "noteOn",
				"noteNumber": 62,
				"velocity": 64
			},
			{
				"deltaTime": 60,
				"channel": 1,
				"type": "noteOff",
				"noteNumber": 62,
				"velocity": 64
			},
			{
				"deltaTime": 0,
				"channel": 1,
				"type": "noteOn",
				"noteNumber": 63,
				"velocity": 64
			},
			{
				"deltaTime": 60,
				"channel": 1,
				"type": "noteOff",
				"noteNumber": 63,
				"velocity": 64
			},
			{
				"deltaTime": 0,
				"channel": 1,
				"type": "noteOn",
				"noteNumber": 65,
				"velocity": 64
			},
			{
				"deltaTime": 60,
				"channel": 1,
				"type": "noteOff",
				"noteNumber": 65,
				"velocity": 64
			},
			{
				"deltaTime": 0,
				"channel": 1,
				"type": "noteOn",
				"noteNumber": 63,
				"velocity": 64
			},
			{
				"deltaTime": 60,
				"channel": 1,
				"type": "noteOff",
				"noteNumber": 63,
				"velocity": 64
			},
			{
				"deltaTime": 0,
				"channel": 1,
				"type": "noteOn",
				"noteNumber": 67,
				"velocity": 64
			},
			{
				"deltaTime": 60,
				"channel": 1,
				"type": "noteOff",
				"noteNumber": 67,
				"velocity": 64
			},
			{
				"deltaTime": 0,
				"channel": 1,
				"type": "noteOn",
				"noteNumber": 65,
				"velocity": 64
			},
			{
				"deltaTime": 60,
				"channel": 1,
				"type": "noteOff",
				"noteNumber": 65,
				"velocity": 64
			},
			{
				"deltaTime": 0,
				"channel": 1,
				"type": "noteOn",
				"noteNumber": 63,
				"velocity": 64
			},
			{
				"deltaTime": 60,
				"channel": 1,
				"type": "noteOff",
				"noteNumber": 63,
				"velocity": 64
			},
			{
				"deltaTime": 0,
				"channel": 1,
				"type": "noteOn",
				"noteNumber": 62,
				"velocity": 64
			},
			{
				"deltaTime": 60,
				"channel": 1,
				"type": "noteOff",
				"noteNumber": 62,
				"velocity": 64
			},
			{
				"deltaTime": 0,
				"channel": 1,
				"type": "noteOn",
				"noteNumber": 60,
				"velocity": 64
			},
			{
				"deltaTime": 60,
				"channel": 1,
				"type": "noteOff",
				"noteNumber": 60,
				"velocity": 64
			},
			{
				"deltaTime": 0,
				"channel": 1,
				"type": "noteOn",
				"noteNumber": 63,
				"velocity": 64
			},
			{
				"deltaTime": 60,
				"channel": 1,
				"type": "noteOff",
				"noteNumber": 63,
				"velocity": 64
			},
			{
				"deltaTime": 0,
				"channel": 1,
				"type": "noteOn",
				"noteNumber": 57,
				"velocity": 64
			},
			{
				"deltaTime": 290,
				"channel": 1,
				"type": "noteOff",
				"noteNumber": 57,
				"velocity": 64
			},
			{
				"deltaTime": 10,
				"channel": 1,
				"type": "noteOn",
				"noteNumber": 50,
				"velocity": 64
			},
			{
				"deltaTime": 60,
				"channel": 1,
				"type": "noteOff",
				"noteNumber": 50,
				"velocity": 64
			},
			{
				"deltaTime": 0,
				"channel": 1,
				"type": "noteOn",
				"noteNumber": 55,
				"velocity": 64
			},
			{
				"deltaTime": 60,
				"channel": 1,
				"type": "noteOff",
				"noteNumber": 55,
				"velocity": 64
			},
			{
				"deltaTime": 0,
				"channel": 1,
				"type": "noteOn",
				"noteNumber": 54,
				"velocity": 64
			},
			{
				"deltaTime": 60,
				"channel": 1,
				"type": "noteOff",
				"noteNumber": 54,
				"velocity": 64
			},
			{
				"deltaTime": 0,
				"channel": 1,
				"type": "noteOn",
				"noteNumber": 58,
				"velocity": 64
			},
			{
				"deltaTime": 60,
				"channel": 1,
				"type": "noteOff",
				"noteNumber": 58,
				"velocity": 64
			},
			{
				"deltaTime": 0,
				"channel": 1,
				"type": "noteOn",
				"noteNumber": 57,
				"velocity": 64
			},
			{
				"deltaTime": 60,
				"channel": 1,
				"type": "noteOff",
				"noteNumber": 57,
				"velocity": 64
			},
			{
				"deltaTime": 0,
				"channel": 1,
				"type": "noteOn",
				"noteNumber": 60,
				"velocity": 64
			},
			{
				"deltaTime": 60,
				"channel": 1,
				"type": "noteOff",
				"noteNumber": 60,
				"velocity": 64
			},
			{
				"deltaTime": 0,
				"channel": 1,
				"type": "noteOn",
				"noteNumber": 58,
				"velocity": 64
			},
			{
				"deltaTime": 60,
				"channel": 1,
				"type": "noteOff",
				"noteNumber": 58,
				"velocity": 64
			},
			{
				"deltaTime": 0,
				"channel": 1,
				"type": "noteOn",
				"noteNumber": 63,
				"velocity": 64
			},
			{
				"deltaTime": 60,
				"channel": 1,
				"type": "noteOff",
				"noteNumber": 63,
				"velocity": 64
			},
			{
				"deltaTime": 0,
				"channel": 1,
				"type": "noteOn",
				"noteNumber": 62,
				"velocity": 64
			},
			{
				"deltaTime": 60,
				"channel": 1,
				"type": "noteOff",
				"noteNumber": 62,
				"velocity": 64
			},
			{
				"deltaTime": 0,
				"channel": 1,
				"type": "noteOn",
				"noteNumber": 60,
				"velocity": 64
			},
			{
				"deltaTime": 60,
				"channel": 1,
				"type": "noteOff",
				"noteNumber": 60,
				"velocity": 64
			},
			{
				"deltaTime": 0,
				"channel": 1,
				"type": "noteOn",
				"noteNumber": 58,
				"velocity": 64
			},
			{
				"deltaTime": 60,
				"channel": 1,
				"type": "noteOff",
				"noteNumber": 58,
				"velocity": 64
			},
			{
				"deltaTime": 0,
				"channel": 1,
				"type": "noteOn",
				"noteNumber": 57,
				"velocity": 64
			},
			{
				"deltaTime": 60,
				"channel": 1,
				"type": "noteOff",
				"noteNumber": 57,
				"velocity": 64
			},
			{
				"deltaTime": 0,
				"channel": 1,
				"type": "noteOn",
				"noteNumber": 62,
				"velocity": 64
			},
			{
				"deltaTime": 60,
				"channel": 1,
				"type": "noteOff",
				"noteNumber": 62,
				"velocity": 64
			},
			{
				"deltaTime": 0,
				"channel": 1,
				"type": "noteOn",
				"noteNumber": 60,
				"velocity": 64
			},
			{
				"deltaTime": 60,
				"channel": 1,
				"type": "noteOff",
				"noteNumber": 60,
				"velocity": 64
			},
			{
				"deltaTime": 0,
				"channel": 1,
				"type": "noteOn",
				"noteNumber": 62,
				"velocity": 64
			},
			{
				"deltaTime": 60,
				"channel": 1,
				"type": "noteOff",
				"noteNumber": 62,
				"velocity": 64
			},
			{
				"deltaTime": 0,
				"channel": 1,
				"type": "noteOn",
				"noteNumber": 59,
				"velocity": 64
			},
			{
				"deltaTime": 60,
				"channel": 1,
				"type": "noteOff",
				"noteNumber": 59,
				"velocity": 64
			},
			{
				"deltaTime": 0,
				"channel": 1,
				"type": "noteOn",
				"noteNumber": 65,
				"velocity": 64
			},
			{
				"deltaTime": 60,
				"channel": 1,
				"type": "noteOff",
				"noteNumber": 65,
				"velocity": 64
			},
			{
				"deltaTime": 0,
				"channel": 1,
				"type": "noteOn",
				"noteNumber": 63,
				"velocity": 64
			},
			{
				"deltaTime": 60,
				"channel": 1,
				"type": "noteOff",
				"noteNumber": 63,
				"velocity": 64
			},
			{
				"deltaTime": 0,
				"channel": 1,
				"type": "noteOn",
				"noteNumber": 62,
				"velocity": 64
			},
			{
				"deltaTime": 60,
				"channel": 1,
				"type": "noteOff",
				"noteNumber": 62,
				"velocity": 64
			},
			{
				"deltaTime": 0,
				"channel": 1,
				"type": "noteOn",
				"noteNumber": 60,
				"velocity": 64
			},
			{
				"deltaTime": 60,
				"channel": 1,
				"type": "noteOff",
				"noteNumber": 60,
				"velocity": 64
			},
			{
				"deltaTime": 0,
				"channel": 1,
				"type": "noteOn",
				"noteNumber": 58,
				"velocity": 64
			},
			{
				"deltaTime": 60,
				"channel": 1,
				"type": "noteOff",
				"noteNumber": 58,
				"velocity": 64
			},
			{
				"deltaTime": 0,
				"channel": 1,
				"type": "noteOn",
				"noteNumber": 56,
				"velocity": 64
			},
			{
				"deltaTime": 60,
				"channel": 1,
				"type": "noteOff",
				"noteNumber": 56,
				"velocity": 64
			},
			{
				"deltaTime": 0,
				"channel": 1,
				"type": "noteOn",
				"noteNumber": 55,
				"velocity": 64
			},
			{
				"deltaTime": 60,
				"channel": 1,
				"type": "noteOff",
				"noteNumber": 55,
				"velocity": 64
			},
			{
				"deltaTime": 0,
				"channel": 1,
				"type": "noteOn",
				"noteNumber": 53,
				"velocity": 64
			},
			{
				"deltaTime": 60,
				"channel": 1,
				"type": "noteOff",
				"noteNumber": 53,
				"velocity": 64
			},
			{
				"deltaTime": 0,
				"channel": 1,
				"type": "noteOn",
				"noteNumber": 51,
				"velocity": 64
			},
			{
				"deltaTime": 60,
				"channel": 1,
				"type": "noteOff",
				"noteNumber": 51,
				"velocity": 64
			},
			{
				"deltaTime": 0,
				"channel": 1,
				"type": "noteOn",
				"noteNumber": 50,
				"velocity": 64
			},
			{
				"deltaTime": 60,
				"channel": 1,
				"type": "noteOff",
				"noteNumber": 50,
				"velocity": 64
			},
			{
				"deltaTime": 0,
				"channel": 1,
				"type": "noteOn",
				"noteNumber": 48,
				"velocity": 64
			},
			{
				"deltaTime": 60,
				"channel": 1,
				"type": "noteOff",
				"noteNumber": 48,
				"velocity": 64
			},
			{
				"deltaTime": 0,
				"channel": 1,
				"type": "noteOn",
				"noteNumber": 55,
				"velocity": 64
			},
			{
				"deltaTime": 120,
				"channel": 1,
				"type": "noteOff",
				"noteNumber": 55,
				"velocity": 64
			},
			{
				"deltaTime": 0,
				"channel": 1,
				"type": "noteOn",
				"noteNumber": 43,
				"velocity": 64
			},
			{
				"deltaTime": 120,
				"channel": 1,
				"type": "noteOff",
				"noteNumber": 43,
				"velocity": 64
			},
			{
				"deltaTime": 0,
				"channel": 1,
				"type": "noteOn",
				"noteNumber": 48,
				"velocity": 64
			},
			{
				"deltaTime": 180,
				"channel": 1,
				"type": "noteOff",
				"noteNumber": 48,
				"velocity": 64
			},
			{
				"deltaTime": 0,
				"channel": 1,
				"type": "noteOn",
				"noteNumber": 50,
				"velocity": 64
			},
			{
				"deltaTime": 60,
				"channel": 1,
				"type": "noteOff",
				"noteNumber": 50,
				"velocity": 64
			},
			{
				"deltaTime": 0,
				"channel": 1,
				"type": "noteOn",
				"noteNumber": 51,
				"velocity": 64
			},
			{
				"deltaTime": 60,
				"channel": 1,
				"type": "noteOff",
				"noteNumber": 51,
				"velocity": 64
			},
			{
				"deltaTime": 0,
				"channel": 1,
				"type": "noteOn",
				"noteNumber": 53,
				"velocity": 64
			},
			{
				"deltaTime": 60,
				"channel": 1,
				"type": "noteOff",
				"noteNumber": 53,
				"velocity": 64
			},
			{
				"deltaTime": 0,
				"channel": 1,
				"type": "noteOn",
				"noteNumber": 55,
				"velocity": 64
			},
			{
				"deltaTime": 100,
				"channel": 1,
				"type": "noteOff",
				"noteNumber": 55,
				"velocity": 64
			},
			{
				"deltaTime": 20,
				"channel": 1,
				"type": "noteOn",
				"noteNumber": 55,
				"velocity": 64
			},
			{
				"deltaTime": 20,
				"channel": 1,
				"type": "noteOff",
				"noteNumber": 55,
				"velocity": 64
			},
			{
				"deltaTime": 0,
				"channel": 1,
				"type": "noteOn",
				"noteNumber": 56,
				"velocity": 56
			},
			{
				"deltaTime": 20,
				"channel": 1,
				"type": "noteOff",
				"noteNumber": 56,
				"velocity": 64
			},
			{
				"deltaTime": 0,
				"channel": 1,
				"type": "noteOn",
				"noteNumber": 55,
				"velocity": 64
			},
			{
				"deltaTime": 90,
				"channel": 1,
				"type": "noteOff",
				"noteNumber": 55,
				"velocity": 64
			},
			{
				"deltaTime": 0,
				"channel": 1,
				"type": "noteOn",
				"noteNumber": 53,
				"velocity": 64
			},
			{
				"deltaTime": 120,
				"channel": 1,
				"type": "noteOff",
				"noteNumber": 53,
				"velocity": 64
			},
			{
				"deltaTime": 110,
				"channel": 1,
				"type": "noteOn",
				"noteNumber": 53,
				"velocity": 64
			},
			{
				"deltaTime": 100,
				"channel": 1,
				"type": "noteOff",
				"noteNumber": 53,
				"velocity": 64
			},
			{
				"deltaTime": 20,
				"channel": 1,
				"type": "noteOn",
				"noteNumber": 53,
				"velocity": 64
			},
			{
				"deltaTime": 20,
				"channel": 1,
				"type": "noteOff",
				"noteNumber": 53,
				"velocity": 64
			},
			{
				"deltaTime": 0,
				"channel": 1,
				"type": "noteOn",
				"noteNumber": 55,
				"velocity": 56
			},
			{
				"deltaTime": 20,
				"channel": 1,
				"type": "noteOff",
				"noteNumber": 55,
				"velocity": 64
			},
			{
				"deltaTime": 0,
				"channel": 1,
				"type": "noteOn",
				"noteNumber": 53,
				"velocity": 64
			},
			{
				"deltaTime": 80,
				"channel": 1,
				"type": "noteOn",
				"noteNumber": 51,
				"velocity": 64
			},
			{
				"deltaTime": 10,
				"channel": 1,
				"type": "noteOff",
				"noteNumber": 53,
				"velocity": 64
			},
			{
				"deltaTime": 170,
				"channel": 1,
				"type": "noteOff",
				"noteNumber": 51,
				"velocity": 64
			},
			{
				"deltaTime": 0,
				"channel": 1,
				"type": "noteOn",
				"noteNumber": 53,
				"velocity": 64
			},
			{
				"deltaTime": 60,
				"channel": 1,
				"type": "noteOff",
				"noteNumber": 53,
				"velocity": 64
			},
			{
				"deltaTime": 0,
				"channel": 1,
				"type": "noteOn",
				"noteNumber": 51,
				"velocity": 64
			},
			{
				"deltaTime": 60,
				"channel": 1,
				"type": "noteOff",
				"noteNumber": 51,
				"velocity": 64
			},
			{
				"deltaTime": 0,
				"channel": 1,
				"type": "noteOn",
				"noteNumber": 50,
				"velocity": 64
			},
			{
				"deltaTime": 60,
				"channel": 1,
				"type": "noteOff",
				"noteNumber": 50,
				"velocity": 64
			},
			{
				"deltaTime": 0,
				"channel": 1,
				"type": "noteOn",
				"noteNumber": 48,
				"velocity": 64
			},
			{
				"deltaTime": 60,
				"channel": 1,
				"type": "noteOff",
				"noteNumber": 48,
				"velocity": 64
			},
			{
				"deltaTime": 0,
				"channel": 1,
				"type": "noteOn",
				"noteNumber": 46,
				"velocity": 64
			},
			{
				"deltaTime": 60,
				"channel": 1,
				"type": "noteOff",
				"noteNumber": 46,
				"velocity": 64
			},
			{
				"deltaTime": 0,
				"channel": 1,
				"type": "noteOn",
				"noteNumber": 44,
				"velocity": 64
			},
			{
				"deltaTime": 60,
				"channel": 1,
				"type": "noteOff",
				"noteNumber": 44,
				"velocity": 64
			},
			{
				"deltaTime": 0,
				"channel": 1,
				"type": "noteOn",
				"noteNumber": 43,
				"velocity": 64
			},
			{
				"deltaTime": 60,
				"channel": 1,
				"type": "noteOff",
				"noteNumber": 43,
				"velocity": 64
			},
			{
				"deltaTime": 0,
				"channel": 1,
				"type": "noteOn",
				"noteNumber": 41,
				"velocity": 64
			},
			{
				"deltaTime": 60,
				"channel": 1,
				"type": "noteOff",
				"noteNumber": 41,
				"velocity": 64
			},
			{
				"deltaTime": 0,
				"channel": 1,
				"type": "noteOn",
				"noteNumber": 39,
				"velocity": 64
			},
			{
				"deltaTime": 60,
				"channel": 1,
				"type": "noteOff",
				"noteNumber": 39,
				"velocity": 64
			},
			{
				"deltaTime": 0,
				"channel": 1,
				"type": "noteOn",
				"noteNumber": 41,
				"velocity": 64
			},
			{
				"deltaTime": 60,
				"channel": 1,
				"type": "noteOff",
				"noteNumber": 41,
				"velocity": 64
			},
			{
				"deltaTime": 0,
				"channel": 1,
				"type": "noteOn",
				"noteNumber": 43,
				"velocity": 64
			},
			{
				"deltaTime": 60,
				"channel": 1,
				"type": "noteOff",
				"noteNumber": 43,
				"velocity": 64
			},
			{
				"deltaTime": 0,
				"channel": 1,
				"type": "noteOn",
				"noteNumber": 36,
				"velocity": 64
			},
			{
				"deltaTime": 120,
				"channel": 1,
				"type": "noteOff",
				"noteNumber": 36,
				"velocity": 64
			},
			{
				"deltaTime": 0,
				"channel": 1,
				"type": "noteOn",
				"noteNumber": 48,
				"velocity": 64
			},
			{
				"deltaTime": 60,
				"channel": 1,
				"type": "noteOff",
				"noteNumber": 48,
				"velocity": 64
			},
			{
				"deltaTime": 0,
				"channel": 1,
				"type": "noteOn",
				"noteNumber": 47,
				"velocity": 64
			},
			{
				"deltaTime": 60,
				"channel": 1,
				"type": "noteOff",
				"noteNumber": 47,
				"velocity": 64
			},
			{
				"deltaTime": 0,
				"channel": 1,
				"type": "noteOn",
				"noteNumber": 48,
				"velocity": 64
			},
			{
				"deltaTime": 60,
				"channel": 1,
				"type": "noteOff",
				"noteNumber": 48,
				"velocity": 64
			},
			{
				"deltaTime": 0,
				"channel": 1,
				"type": "noteOn",
				"noteNumber": 50,
				"velocity": 64
			},
			{
				"deltaTime": 60,
				"channel": 1,
				"type": "noteOff",
				"noteNumber": 50,
				"velocity": 64
			},
			{
				"deltaTime": 0,
				"channel": 1,
				"type": "noteOn",
				"noteNumber": 51,
				"velocity": 64
			},
			{
				"deltaTime": 60,
				"channel": 1,
				"type": "noteOff",
				"noteNumber": 51,
				"velocity": 64
			},
			{
				"deltaTime": 0,
				"channel": 1,
				"type": "noteOn",
				"noteNumber": 43,
				"velocity": 64
			},
			{
				"deltaTime": 60,
				"channel": 1,
				"type": "noteOff",
				"noteNumber": 43,
				"velocity": 64
			},
			{
				"deltaTime": 0,
				"channel": 1,
				"type": "noteOn",
				"noteNumber": 44,
				"velocity": 64
			},
			{
				"deltaTime": 60,
				"channel": 1,
				"type": "noteOff",
				"noteNumber": 44,
				"velocity": 64
			},
			{
				"deltaTime": 0,
				"channel": 1,
				"type": "noteOn",
				"noteNumber": 46,
				"velocity": 64
			},
			{
				"deltaTime": 60,
				"channel": 1,
				"type": "noteOff",
				"noteNumber": 46,
				"velocity": 64
			},
			{
				"deltaTime": 0,
				"channel": 1,
				"type": "noteOn",
				"noteNumber": 44,
				"velocity": 64
			},
			{
				"deltaTime": 60,
				"channel": 1,
				"type": "noteOff",
				"noteNumber": 44,
				"velocity": 64
			},
			{
				"deltaTime": 0,
				"channel": 1,
				"type": "noteOn",
				"noteNumber": 41,
				"velocity": 64
			},
			{
				"deltaTime": 60,
				"channel": 1,
				"type": "noteOff",
				"noteNumber": 41,
				"velocity": 64
			},
			{
				"deltaTime": 0,
				"channel": 1,
				"type": "noteOn",
				"noteNumber": 53,
				"velocity": 64
			},
			{
				"deltaTime": 60,
				"channel": 1,
				"type": "noteOff",
				"noteNumber": 53,
				"velocity": 64
			},
			{
				"deltaTime": 0,
				"channel": 1,
				"type": "noteOn",
				"noteNumber": 51,
				"velocity": 64
			},
			{
				"deltaTime": 60,
				"channel": 1,
				"type": "noteOff",
				"noteNumber": 51,
				"velocity": 64
			},
			{
				"deltaTime": 0,
				"channel": 1,
				"type": "noteOn",
				"noteNumber": 50,
				"velocity": 64
			},
			{
				"deltaTime": 60,
				"channel": 1,
				"type": "noteOff",
				"noteNumber": 50,
				"velocity": 64
			},
			{
				"deltaTime": 0,
				"channel": 1,
				"type": "noteOn",
				"noteNumber": 48,
				"velocity": 64
			},
			{
				"deltaTime": 60,
				"channel": 1,
				"type": "noteOff",
				"noteNumber": 48,
				"velocity": 64
			},
			{
				"deltaTime": 0,
				"channel": 1,
				"type": "noteOn",
				"noteNumber": 47,
				"velocity": 64
			},
			{
				"deltaTime": 60,
				"channel": 1,
				"type": "noteOff",
				"noteNumber": 47,
				"velocity": 64
			},
			{
				"deltaTime": 0,
				"channel": 1,
				"type": "noteOn",
				"noteNumber": 56,
				"velocity": 64
			},
			{
				"deltaTime": 60,
				"channel": 1,
				"type": "noteOff",
				"noteNumber": 56,
				"velocity": 64
			},
			{
				"deltaTime": 0,
				"channel": 1,
				"type": "noteOn",
				"noteNumber": 55,
				"velocity": 64
			},
			{
				"deltaTime": 60,
				"channel": 1,
				"type": "noteOff",
				"noteNumber": 55,
				"velocity": 64
			},
			{
				"deltaTime": 0,
				"channel": 1,
				"type": "noteOn",
				"noteNumber": 53,
				"velocity": 64
			},
			{
				"deltaTime": 60,
				"channel": 1,
				"type": "noteOff",
				"noteNumber": 53,
				"velocity": 64
			},
			{
				"deltaTime": 0,
				"channel": 1,
				"type": "noteOn",
				"noteNumber": 51,
				"velocity": 64
			},
			{
				"deltaTime": 60,
				"channel": 1,
				"type": "noteOff",
				"noteNumber": 51,
				"velocity": 64
			},
			{
				"deltaTime": 0,
				"channel": 1,
				"type": "noteOn",
				"noteNumber": 50,
				"velocity": 64
			},
			{
				"deltaTime": 60,
				"channel": 1,
				"type": "noteOff",
				"noteNumber": 50,
				"velocity": 64
			},
			{
				"deltaTime": 0,
				"channel": 1,
				"type": "noteOn",
				"noteNumber": 48,
				"velocity": 64
			},
			{
				"deltaTime": 60,
				"channel": 1,
				"type": "noteOff",
				"noteNumber": 48,
				"velocity": 64
			},
			{
				"deltaTime": 0,
				"channel": 1,
				"type": "noteOn",
				"noteNumber": 47,
				"velocity": 64
			},
			{
				"deltaTime": 60,
				"channel": 1,
				"type": "noteOff",
				"noteNumber": 47,
				"velocity": 64
			},
			{
				"deltaTime": 0,
				"channel": 1,
				"type": "noteOn",
				"noteNumber": 48,
				"velocity": 64
			},
			{
				"deltaTime": 60,
				"channel": 1,
				"type": "noteOff",
				"noteNumber": 48,
				"velocity": 64
			},
			{
				"deltaTime": 0,
				"channel": 1,
				"type": "noteOn",
				"noteNumber": 43,
				"velocity": 64
			},
			{
				"deltaTime": 60,
				"channel": 1,
				"type": "noteOff",
				"noteNumber": 43,
				"velocity": 64
			},
			{
				"deltaTime": 0,
				"channel": 1,
				"type": "noteOn",
				"noteNumber": 44,
				"velocity": 64
			},
			{
				"deltaTime": 60,
				"channel": 1,
				"type": "noteOff",
				"noteNumber": 44,
				"velocity": 64
			},
			{
				"deltaTime": 0,
				"channel": 1,
				"type": "noteOn",
				"noteNumber": 41,
				"velocity": 64
			},
			{
				"deltaTime": 60,
				"channel": 1,
				"type": "noteOff",
				"noteNumber": 41,
				"velocity": 64
			},
			{
				"deltaTime": 0,
				"channel": 1,
				"type": "noteOn",
				"noteNumber": 43,
				"velocity": 64
			},
			{
				"deltaTime": 120,
				"channel": 1,
				"type": "noteOff",
				"noteNumber": 43,
				"velocity": 64
			},
			{
				"deltaTime": 0,
				"channel": 1,
				"type": "noteOn",
				"noteNumber": 43,
				"velocity": 64
			},
			{
				"deltaTime": 120,
				"channel": 1,
				"type": "noteOff",
				"noteNumber": 43,
				"velocity": 64
			},
			{
				"deltaTime": 0,
				"channel": 1,
				"type": "noteOn",
				"noteNumber": 36,
				"velocity": 64
			},
			{
				"deltaTime": 960,
				"channel": 1,
				"type": "noteOff",
				"noteNumber": 36,
				"velocity": 64
			},
			{
				"deltaTime": 0,
				"meta": true,
				"type": "endOfTrack"
			}
		]
	]
}