{
	"header": {
		"format": 1,
		"numTracks": 3,
		"ticksPerBeat": 240
	},
	"tracks": [
		[
			{
				"deltaTime": 0,
				"meta": true,
				"type": "timeSignature",
				"numerator": 3,
				"denominator": 8,
				"metronome": 36,
				"thirtyseconds": 8
			},
			{
				"deltaTime": 0,
				"meta": true,
				"type": "setTempo",
				"microsecondsPerBeat": 666667
			},
			{
				"deltaTime": 0,
				"meta": true,
				"type": "endOfTrack"
			}
		],
		[
			{
				"deltaTime": 0,
				"meta": true,
				"type": "text",
				"text": "RH"
			},
			{
				"deltaTime": 240,
				"channel": 0,
				"type": "noteOn",
				"noteNumber": 62,
				"velocity": 64
			},
			{
				"deltaTime": 60,
				"channel": 0,
				"type": "noteOff",
				"noteNumber": 62,
				"velocity": 64
			},
			{
				"deltaTime": 0,
				"channel": 0,
				"type": "noteOn",
				"noteNumber": 64,
				"velocity": 64
			},
			{
				"deltaTime": 60,
				"channel": 0,
				"type": "noteOff",
				"noteNumber": 64,
				"velocity": 64
			},
			{
				"deltaTime": 0,
				"channel": 0,
				"type": "noteOn",
				"noteNumber": 66,
				"velocity": 64
			},
			{
				"deltaTime": 60,
				"channel": 0,
				"type": "noteOff",
				"noteNumber": 66,
				"velocity": 64
			},
			{
				"deltaTime": 0,
				"channel": 0,
				"type": "noteOn",
				"noteNumber": 64,
				"velocity": 64
			},
			{
				"deltaTime": 60,
				"channel": 0,
				"type": "noteOff",
				"noteNumber": 64,
				"velocity": 64
			},
			{
				"deltaTime": 0,
				"channel": 0,
				"type": "noteOn",
				"noteNumber": 67,
				"velocity": 64
			},
			{
				"deltaTime": 60,
				"channel": 0,
				"type": "noteOff",
				"noteNumber": 67,
				"velocity": 64
			},
			{
				"deltaTime": 0,
				"channel": 0,
				"type": "noteOn",
				"noteNumber": 66,
				"velocity": 64
			},
			{
				"deltaTime": 60,
				"channel": 0,
				"type": "noteOff",
				"noteNumber": 66,
				"velocity": 64
			},
			{
				"deltaTime": 0,
				"channel": 0,
				"type": "noteOn",
				"noteNumber": 64,
				"velocity": 64
			},
			{
				"deltaTime": 60,
				"channel": 0,
				"type": "noteOff",
				"noteNumber": 64,
				"velocity": 64
			},
			{
				"deltaTime": 0,
				"channel": 0,
				"type": "noteOn",
				"noteNumber": 62,
				"velocity": 64
			},
			{
				"deltaTime": 60,
				"channel": 0,
				"type": "noteOff",
				"noteNumber": 62,
				"velocity": 64
			},
			{
				"deltaTime": 0,
				"channel": 0,
				"type": "noteOn",
				"noteNumber": 69,
				"velocity": 64
			},
			{
				"deltaTime": 60,
				"channel": 0,
				"type": "noteOff",
				"noteNumber": 69,
				"velocity": 64
			},
			{
				"deltaTime": 0,
				"channel": 0,
				"type": "noteOn",
				"noteNumber": 67,
				"velocity": 64
			},
			{
				"deltaTime": 60,
				"channel": 0,
				"type": "noteOff",
				"noteNumber": 67,
				"velocity": 64
			},
			{
				"deltaTime": 0,
				"channel": 0,
				"type": "noteOn",
				"noteNumber": 66,
				"velocity": 64
			},
			{
				"deltaTime": 60,
				"channel": 0,
				"type": "noteOff",
				"noteNumber": 66,
				"velocity": 64
			},
			{
				"deltaTime": 0,
				"channel": 0,
				"type": "noteOn",
				"noteNumber": 64,
				"velocity": 64
			},
			{
				"deltaTime": 60,
				"channel": 0,
				"type": "noteOff",
				"noteNumber": 64,
				"velocity": 64
			},
			{
				"deltaTime": 0,
				"channel": 0,
				"type": "noteOn",
				"noteNumber": 66,
				"velocity": 64
			},
			{
				"deltaTime": 60,
				"channel": 0,
				"type": "noteOff",
				"noteNumber": 66,
				"velocity": 64
			},
			{
				"deltaTime": 0,
				"channel": 0,
				"type": "noteOn",
				"noteNumber": 62,
				"velocity": 64
			},
			{
				"deltaTime": 60,
				"channel": 0,
				"type": "noteOff",
				"noteNumber": 62,
				"velocity": 64
			},
			{
				"deltaTime": 0,
				"channel": 0,
				"type": "noteOn",
				"noteNumber": 69,
				"velocity": 64
			},
			{
				"deltaTime": 120,
				"channel": 0,
				"type": "noteOff",
				"noteNumber": 69,
				"velocity": 64
			},
			{
				"deltaTime": 0,
				"channel": 0,
				"type": "noteOn",
				"noteNumber": 71,
				"velocity": 64
			},
			{
				"deltaTime": 120,
				"channel": 0,
				"type": "noteOff",
				"noteNumber": 71,
				"velocity": 64
			},
			{
				"deltaTime": 0,
				"channel": 0,
				"type": "noteOn",
				"noteNumber": 73,
				"velocity": 64
			},
			{
				"deltaTime": 20,
				"channel": 0,
				"type": "noteOff",
				"noteNumber": 73,
				"velocity": 64
			},
			{
				"deltaTime": 0,
				"channel": 0,
				"type": "noteOn",
				"noteNumber": 71,
				"velocity": 56
			},
			{
				"deltaTime": 20,
				"channel": 0,
				"type": "noteOff",
				"noteNumber": 71,
				"velocity": 64
			},
			{
				"deltaTime": 0,
				"channel": 0,
				"type": "noteOn",
				"noteNumber": 73,
				"velocity": 64
			},
			{
				"deltaTime": 20,
				"channel": 0,
				"type": "noteOff",
				"noteNumber": 73,
				"velocity": 64
			},
			{
				"deltaTime": 0,
				"channel": 0,
				"type": "noteOn",
				"noteNumber": 74,
				"velocity": 64
			},
			{
				"deltaTime": 60,
				"channel": 0,
				"type": "noteOff",
				"noteNumber": 74,
				"velocity": 64
			},
			{
				"deltaTime": 0,
				"channel": 0,
				"type": "noteOn",
				"noteNumber": 73,
				"velocity": 64
			},
			{
				"deltaTime": 30,
				"channel": 0,
				"type": "noteOff",
				"noteNumber": 73,
				"velocity": 64
			},
			{
				"deltaTime": 0,
				"channel": 0,
				"type": "noteOn",
				"noteNumber": 74,
				"velocity": 56
			},
			{
				"deltaTime": 30,
				"channel": 0,
				"type": "noteOff",
				"noteNumber": 74,
				"velocity": 64
			},
			{
				"deltaTime": 0,
				"channel": 0,
				"type": "noteOn",
				"noteNumber": 73,
				"velocity": 64
			},
			{
				"deltaTime": 60,
				"channel": 0,
				"type": "noteOff",
				"noteNumber": 73,
				"velocity": 64
			},
			{
				"deltaTime": 0,
				"channel": 0,
				"type": "noteOn",
				"noteNumber": 71,
				"velocity": 56
			},
			{
				"deltaTime": 30,
				"channel": 0,
				"type": "noteOff",
				"noteNumber": 71,
				"velocity": 64
			},
			{
				"deltaTime": 0,
				"channel": 0,
				"type": "noteOn",
				"noteNumber": 69,
				"velocity": 64
			},
			{
				"deltaTime": 75,
				"channel": 0,
				"type": "noteOff",
				"noteNumber": 69,
				"velocity": 64
			},
			{
				"deltaTime": 15,
				"channel": 0,
				"type": "noteOn",
				"noteNumber": 73,
				"velocity": 64
			},
			{
				"deltaTime": 60,
				"channel": 0,
				"type": "noteOff",
				"noteNumber": 73,
				"velocity": 64
			},
			{
				"deltaTime": 0,
				"channel": 0,
				"type": "noteOn",
				"noteNumber": 74,
				"velocity": 64
			},
			{
				"deltaTime": 60,
				"channel": 0,
				"type": "noteOff",
				"noteNumber": 74,
				"velocity": 64
			},
			{
				"deltaTime": 0,
				"channel": 0,
				"type": "noteOn",
				"noteNumber": 76,
				"velocity": 64
			},
			{
				"deltaTime": 60,
				"channel": 0,
				"type": "noteOff",
				"noteNumber": 76,
				"velocity": 64
			},
			{
				"deltaTime": 0,
				"channel": 0,
				"type": "noteOn",
				"noteNumber": 73,
				"velocity": 64
			},
			{
				"deltaTime": 60,
				"channel": 0,
				"type": "noteOff",
				"noteNumber": 73,
				"velocity": 64
			},
			{
				"deltaTime": 0,
				"channel": 0,
				"type": "noteOn",
				"noteNumber": 78,
				"velocity": 64
			},
			{
				"deltaTime": 60,
				"channel": 0,
				"type": "noteOff",
				"noteNumber": 78,
				"velocity": 64
			},
			{
				"deltaTime": 0,
				"channel": 0,
				"type": "noteOn",
				"noteNumber": 74,
				"velocity": 64
			},
			{
				"deltaTime": 60,
				"channel": 0,
				"type": "noteOff",
				"noteNumber": 74,
				"velocity": 64
			},
			{
				"deltaTime": 0,
				"channel": 0,
				"type": "noteOn",
				"noteNumber": 73,
				"velocity": 64
			},
			{
				"deltaTime": 60,
				"channel": 0,
				"type": "noteOff",
				"noteNumber": 73,
				"velocity": 64
			},
			{
				"deltaTime": 0,
				"channel": 0,
				"type": "noteOn",
				"noteNumber": 71,
				"velocity": 64
			},
			{
				"deltaTime": 60,
				"channel": 0,
				"type": "noteOff",
				"noteNumber": 71,
				"velocity": 64
			},
			{
				"deltaTime": 0,
				"channel": 0,
				"type": "noteOn",
				"noteNumber": 76,
				"velocity": 64
			},
			{
				"deltaTime": 60,
				"channel": 0,
				"type": "noteOff",
				"noteNumber": 76,
				"velocity": 64
			},
			{
				"deltaTime": 0,
				"channel": 0,
				"type": "noteOn",
				"noteNumber": 73,
				"velocity": 64
			},
			{
				"deltaTime": 60,
				"channel": 0,
				"type": "noteOff",
				"noteNumber": 73,
				"velocity": 64
			},
			{
				"deltaTime": 0,
				"channel": 0,
				"type": "noteOn",
				"noteNumber": 74,
				"velocity": 64
			},
			{
				"deltaTime": 60,
				"channel": 0,
				"type": "noteOff",
				"noteNumber": 74,
				"velocity": 64
			},
			{
				"deltaTime": 0,
				"channel": 0,
				"type": "noteOn",
				"noteNumber": 71,
				"velocity": 64
			},
			{
				"deltaTime": 60,
				"channel": 0,
				"type": "noteOff",
				"noteNumber": 71,
				"velocity": 64
			},
			{
				"deltaTime": 0,
				"channel": 0,
				"type": "noteOn",
				"noteNumber": 69,
				"velocity": 64
			},
			{
				"deltaTime": 60,
				"channel": 0,
				"type": "noteOff",
				"noteNumber": 69,
				"velocity": 64
			},
			{
				"deltaTime": 0,
				"channel": 0,
				"type": "noteOn",
				"noteNumber": 68,
				"velocity": 64
			},
			{
				"deltaTime": 60,
				"channel": 0,
				"type": "noteOff",
				"noteNumber": 68,
				"velocity": 64
			},
			{
				"deltaTime": 0,
				"channel": 0,
				"type": "noteOn",
				"noteNumber": 76,
				"velocity": 64
			},
			{
				"deltaTime": 60,
				"channel": 0,
				"type": "noteOff",
				"noteNumber": 76,
				"velocity": 64
			},
			{
				"deltaTime": 0,
				"channel": 0,
				"type": "noteOn",
				"noteNumber": 73,
				"velocity": 64
			},
			{
				"deltaTime": 60,
				"channel": 0,
				"type": "noteOff",
				"noteNumber": 73,
				"velocity": 64
			},
			{
				"deltaTime": 0,
				"channel": 0,
				"type": "noteOn",
				"noteNumber": 78,
				"velocity": 64
			},
			{
				"deltaTime": 60,
				"channel": 0,
				"type": "noteOff",
				"noteNumber": 78,
				"velocity": 64
			},
			{
				"deltaTime": 0,
				"channel": 0,
				"type": "noteOn",
				"noteNumber": 74,
				"velocity": 64
			},
			{
				"deltaTime": 60,
				"channel": 0,
				"type": "noteOff",
				"noteNumber": 74,
				"velocity": 64
			},
			{
				"deltaTime": 0,
				"channel": 0,
				"type": "noteOn",
				"noteNumber": 73,
				"velocity": 64
			},
			{
				"deltaTime": 60,
				"channel": 0,
				"type": "noteOff",
				"noteNumber": 73,
				"velocity": 64
			},
			{
				"deltaTime": 0,
				"channel": 0,
				"type": "noteOn",
				"noteNumber": 71,
				"velocity": 64
			},
			{
				"deltaTime": 60,
				"channel": 0,
				"type": "noteOff",
				"noteNumber": 71,
				"velocity": 64
			},
			{
				"deltaTime": 0,
				"channel": 0,
				"type": "noteOn",
				"noteNumber": 76,
				"velocity": 64
			},
			{
				"deltaTime": 60,
				"channel": 0,
				"type": "noteOff",
				"noteNumber": 76,
				"velocity": 64
			},
			{
				"deltaTime": 0,
				"channel": 0,
				"type": "noteOn",
				"noteNumber": 73,
				"velocity": 64
			},
			{
				"deltaTime": 60,
				"channel": 0,
				"type": "noteOff",
				"noteNumber": 73,
				"velocity": 64
			},
			{
				"deltaTime": 0,
				"channel": 0,
				"type": "noteOn",
				"noteNumber": 74,
				"velocity": 64
			},
			{
				"deltaTime": 60,
				"channel": 0,
				"type": "noteOff",
				"noteNumber": 74,
				"velocity": 64
			},
			{
				"deltaTime": 0,
				"channel": 0,
				"type": "noteOn",
				"noteNumber": 71,
				"velocity": 64
			},
			{
				"deltaTime": 60,
				"channel": 0,
				"type": "noteOff",
				"noteNumber": 71,
				"velocity": 64
			},
			{
				"deltaTime": 0,
				"channel": 0,
				"type": "noteOn",
				"noteNumber": 69,
				"velocity": 64
			},
			{
				"deltaTime": 60,
				"channel": 0,
				"type": "noteOff",
				"noteNumber": 69,
				"velocity": 64
			},
			{
				"deltaTime": 0,
				"channel": 0,
				"type": "noteOn",
				"noteNumber": 68,
				"velocity": 64
			},
			{
				"deltaTime": 60,
				"channel": 0,
				"type": "noteOff",
				"noteNumber": 68,
				"velocity": 64
			},
			{
				"deltaTime": 0,
				"channel": 0,
				"type": "noteOn",
				"noteNumber": 73,
				"velocity": 64
			},
			{
				"deltaTime": 60,
				"channel": 0,
				"type": "noteOff",
				"noteNumber": 73,
				"velocity": 64
			},
			{
				"deltaTime": 0,
				"channel": 0,
				"type": "noteOn",
				"noteNumber": 71,
				"velocity": 64
			},
			{
				"deltaTime": 60,
				"channel": 0,
				"type": "noteOff",
				"noteNumber": 71,
				"velocity": 64
			},
			{
				"deltaTime": 0,
				"channel": 0,
				"type": "noteOn",
				"noteNumber": 74,
				"velocity": 64
			},
			{
				"deltaTime": 60,
				"channel": 0,
				"type": "noteOff",
				"noteNumber": 74,
				"velocity": 64
			},
			{
				"deltaTime": 0,
				"channel": 0,
				"type": "noteOn",
				"noteNumber": 73,
				"velocity": 64
			},
			{
				"deltaTime": 60,
				"channel": 0,
				"type": "noteOff",
				"noteNumber": 73,
				"velocity": 64
			},
			{
				"deltaTime": 0,
				"channel": 0,
				"type": "noteOn",
				"noteNumber": 71,
				"velocity": 64
			},
			{
				"deltaTime": 60,
				"channel": 0,
				"type": "noteOff",
				"noteNumber": 71,
				"velocity": 64
			},
			{
				"deltaTime": 0,
				"channel": 0,
				"type": "noteOn",
				"noteNumber": 69,
				"velocity": 64
			},
			{
				"deltaTime": 60,
				"channel": 0,
				"type": "noteOff",
				"noteNumber": 69,
				"velocity": 64
			},
			{
				"deltaTime": 0,
				"channel": 0,
				"type": "noteOn",
				"noteNumber": 78,
				"velocity": 64
			},
			{
				"deltaTime": 120,
				"channel": 0,
				"type": "noteOff",
				"noteNumber": 78,
				"velocity": 64
			},
			{
				"deltaTime": 0,
				"channel": 0,
				"type": "noteOn",
				"noteNumber": 68,
				"velocity": 64
			},
			{
				"deltaTime": 120,
				"channel": 0,
				"type": "noteOff",
				"noteNumber": 68,
				"velocity": 64
			},
			{
				"deltaTime": 0,
				"channel": 0,
				"type": "noteOn",
				"noteNumber": 69,
				"velocity": 64
			},
			{
				"deltaTime": 130,
				"channel": 0,
				"type": "noteOff",
				"noteNumber": 69,
				"velocity": 64
			},
			{
				"deltaTime": 10,
				"channel": 0,
				"type": "noteOn",
				"noteNumber": 71,
				"velocity": 64
			},
			{
				"deltaTime": 20,
				"channel": 0,
				"type": "noteOff",
				"noteNumber": 71,
				"velocity": 64
			},
			{
				"deltaTime": 0,
				"channel": 0,
				"type": "noteOn",
				"noteNumber": 69,
				"velocity": 49
			},
			{
				"deltaTime": 20,
				"channel": 0,
				"type": "noteOff",
				"noteNumber": 69,
				"velocity": 64
			},
			{
				"deltaTime": 0,
				"channel": 0,
				"type": "noteOn",
				"noteNumber": 68,
				"velocity": 52
			},
			{
				"deltaTime": 20,
				"channel": 0,
				"type": "noteOff",
				"noteNumber": 68,
				"velocity": 64
			},
			{
				"deltaTime": 0,
				"channel": 0,
				"type": "noteOn",
				"noteNumber": 69,
				"velocity": 56
			},
			{
				"deltaTime": 20,
				"channel": 0,
				"type": "noteOff",
				"noteNumber": 69,
				"velocity": 64
			},
			{
				"deltaTime": 0,
				"channel": 0,
				"type": "noteOn",
				"noteNumber": 71,
				"velocity": 64
			},
			{
				"deltaTime": 10,
				"channel": 0,
				"type": "noteOff",
				"noteNumber": 71,
				"velocity": 64
			},
			{
				"deltaTime": 10,
				"channel": 0,
				"type": "noteOn",
				"noteNumber": 71,
				"velocity": 64
			},
			{
				"deltaTime": 180,
				"channel": 0,
				"type": "noteOff",
				"noteNumber": 71,
				"velocity": 64
			},
			{
				"deltaTime": 0,
				"channel": 0,
				"type": "noteOn",
				"noteNumber": 69,
				"velocity": 64
			},
			{
				"deltaTime": 60,
				"channel": 0,
				"type": "noteOff",
				"noteNumber": 69,
				"velocity": 64
			},
			{
				"deltaTime": 0,
				"channel": 0,
				"type": "noteOn",
				"noteNumber": 69,
				"velocity": 64
			},
			{
				"deltaTime": 240,
				"channel": 0,
				"type": "noteOff",
				"noteNumber": 69,
				"velocity": 64
			},
			{
				"deltaTime": 240,
				"channel": 0,
				"type": "noteOn",
				"noteNumber": 76,
				"velocity": 64
			},
			{
				"deltaTime": 120,
				"channel": 0,
				"type": "noteOff",
				"noteNumber": 76,
				"velocity": 64
			},
			{
				"deltaTime": 0,
				"channel": 0,
				"type": "noteOn",
				"noteNumber": 81,
				"velocity": 64
			},
			{
				"deltaTime": 180,
				"channel": 0,
				"type": "noteOff",
				"noteNumber": 81,
				"velocity": 64
			},
			{
				"deltaTime": 0,
				"channel": 0,
				"type": "noteOn",
				"noteNumber": 71,
				"velocity": 64
			},
			{
				"deltaTime": 60,
				"channel": 0,
				"type": "noteOff",
				"noteNumber": 71,
				"velocity": 64
			},
			{
				"deltaTime": 0,
				"channel": 0,
				"type": "noteOn",
				"noteNumber": 73,
				"velocity": 64
			},
			{
				"deltaTime": 60,
				"channel": 0,
				"type": "noteOff",
				"noteNumber": 73,
				"velocity": 64
			},
			{
				"deltaTime": 0,
				"channel": 0,
				"type": "noteOn",
				"noteNumber": 75,
				"velocity": 64
			},
			{
				"deltaTime": 60,
				"channel": 0,
				"type": "noteOff",
				"noteNumber": 75,
				"velocity": 64
			},
			{
				"deltaTime": 0,
				"channel": 0,
				"type": "noteOn",
				"noteNumber": 76,
				"velocity": 64
			},
			{
				"deltaTime": 60,
				"channel": 0,
				"type": "noteOff",
				"noteNumber": 76,
				"velocity": 64
			},
			{
				"deltaTime": 0,
				"channel": 0,
				"type": "noteOn",
				"noteNumber": 78,
				"velocity": 64
			},
			{
				"deltaTime": 60,
				"channel": 0,
				"type": "noteOff",
				"noteNumber": 78,
				"velocity": 64
			},
			{
				"deltaTime": 0,
				"channel": 0,
				"type": "noteOn",
				"noteNumber": 79,
				"velocity": 64
			},
			{
				"deltaTime": 60,
				"channel": 0,
				"type": "noteOff",
				"noteNumber": 79,
				"velocity": 64
			},
			{
				"deltaTime": 0,
				"channel": 0,
				"type": "noteOn",
				"noteNumber": 78,
				"velocity": 64
			},
			{
				"deltaTime": 60,
				"channel": 0,
				"type": "noteOff",
				"noteNumber": 78,
				"velocity": 64
			},
			{
				"deltaTime": 0,
				"channel": 0,
				"type": "noteOn",
				"noteNumber": 81,
				"velocity": 64
			},
			{
				"deltaTime": 60,
				"channel": 0,
				"type": "noteOff",
				"noteNumber": 81,
				"velocity": 64
			},
			{
				"deltaTime": 0,
				"channel": 0,
				"type": "noteOn",
				"noteNumber": 79,
				"velocity": 64
			},
			{
				"deltaTime": 60,
				"channel": 0,
				"type": "noteOff",
				"noteNumber": 79,
				"velocity": 64
			},
			{
				"deltaTime": 0,
				"channel": 0,
				"type": "noteOn",
				"noteNumber": 78,
				"velocity": 64
			},
			{
				"deltaTime": 60,
				"channel": 0,
				"type": "noteOff",
				"noteNumber": 78,
				"velocity": 64
			},
			{
				"deltaTime": 0,
				"channel": 0,
				"type": "noteOn",
				"noteNumber": 76,
				"velocity": 64
			},
			{
				"deltaTime": 60,
				"channel": 0,
				"type": "noteOff",
				"noteNumber": 76,
				"velocity": 64
			},
			{
				"deltaTime": 0,
				"channel": 0,
				"type": "noteOn",
				"noteNumber": 83,
				"velocity": 64
			},
			{
				"deltaTime": 120,
				"channel": 0,
				"type": "noteOff",
				"noteNumber": 83,
				"velocity": 64
			},
			{
				"deltaTime": 0,
				"channel": 0,
				"type": "noteOn",
				"noteNumber": 71,
				"velocity": 64
			},
			{
				"deltaTime": 120,
				"channel": 0,
				"type": "noteOff",
				"noteNumber": 71,
				"velocity": 64
			},
			{
				"deltaTime": 240,
				"channel": 0,
				"type": "noteOn",
				"noteNumber": 66,
				"velocity": 64
			},
			{
				"deltaTime": 120,
				"channel": 0,
				"type": "noteOff",
				"noteNumber": 66,
				"velocity": 64
			},
			{
				"deltaTime": 0,
				"channel": 0,
				"type": "noteOn",
				"noteNumber": 71,
				"velocity": 64
			},
			{
				"deltaTime": 180,
				"channel": 0,
				"type": "noteOff",
				"noteNumber": 71,
				"velocity": 64
			},
			{
				"deltaTime": 0,
				"channel": 0,
				"type": "noteOn",
				"noteNumber": 70,
				"velocity": 64
			},
			{
				"deltaTime": 60,
				"channel": 0,
				"type": "noteOff",
				"noteNumber": 70,
				"velocity": 64
			},
			{
				"deltaTime": 0,
				"channel": 0,
				"type": "noteOn",
				"noteNumber": 71,
				"velocity": 64
			},
			{
				"deltaTime": 60,
				"channel": 0,
				"type": "noteOff",
				"noteNumber": 71,
				"velocity": 64
			},
			{
				"deltaTime": 0,
				"channel": 0,
				"type": "noteOn",
				"noteNumber": 73,
				"velocity": 64
			},
			{
				"deltaTime": 60,
				"channel": 0,
				"type": "noteOff",
				"noteNumber": 73,
				"velocity": 64
			},
			{
				"deltaTime": 0,
				"channel": 0,
				"type": "noteOn",
				"noteNumber": 74,
				"velocity": 64
			},
			{
				"deltaTime": 60,
				"channel": 0,
				"type": "noteOff",
				"noteNumber": 74,
				"velocity": 64
			},
			{
				"deltaTime": 0,
				"channel": 0,
				"type": "noteOn",
				"noteNumber": 76,
				"velocity": 64
			},
			{
				"deltaTime": 60,
				"channel": 0,
				"type": "noteOff",
				"noteNumber": 76,
				"velocity": 64
			},
			{
				"deltaTime": 0,
				"channel": 0,
				"type": "noteOn",
				"noteNumber": 78,
				"velocity": 64
			},
			{
				"deltaTime": 60,
				"channel": 0,
				"type": "noteOff",
				"noteNumber": 78,
				"velocity": 64
			},
			{
				"deltaTime": 0,
				"channel": 0,
				"type": "noteOn",
				"noteNumber": 76,
				"velocity": 64
			},
			{
				"deltaTime": 60,
				"channel": 0,
				"type": "noteOff",
				"noteNumber": 76,
				"velocity": 64
			},
			{
				"deltaTime": 0,
				"channel": 0,
				"type": "noteOn",
				"noteNumber": 79,
				"velocity": 64
			},
			{
				"deltaTime": 60,
				"channel": 0,
				"type": "noteOff",
				"noteNumber": 79,
				"velocity": 64
			},
			{
				"deltaTime": 0,
				"channel": 0,
				"type": "noteOn",
				"noteNumber": 78,
				"velocity": 64
			},
			{
				"deltaTime": 60,
				"channel": 0,
				"type": "noteOff",
				"noteNumber": 78,
				"velocity": 64
			},
			{
				"deltaTime": 0,
				"channel": 0,
				"type": "noteOn",
				"noteNumber": 76,
				"velocity": 64
			},
			{
				"deltaTime": 60,
				"channel": 0,
				"type": "noteOff",
				"noteNumber": 76,
				"velocity": 64
			},
			{
				"deltaTime": 0,
				"channel": 0,
				"type": "noteOn",
				"noteNumber": 74,
				"velocity": 64
			},
			{
				"deltaTime": 60,
				"channel": 0,
				"type": "noteOff",
				"noteNumber": 74,
				"velocity": 64
			},
			{
				"deltaTime": 0,
				"channel": 0,
				"type": "noteOn",
				"noteNumber": 76,
				"velocity": 64
			},
			{
				"deltaTime": 60,
				"channel": 0,
				"type": "noteOff",
				"noteNumber": 76,
				"velocity": 64
			},
			{
				"deltaTime": 0,
				"channel": 0,
				"type": "noteOn",
				"noteNumber": 74,
				"velocity": 64
			},
			{
				"deltaTime": 60,
				"channel": 0,
				"type": "noteOff",
				"noteNumber": 74,
				"velocity": 64
			},
			{
				"deltaTime": 0,
				"channel": 0,
				"type": "noteOn",
				"noteNumber": 78,
				"velocity": 64
			},
			{
				"deltaTime": 60,
				"channel": 0,
				"type": "noteOff",
				"noteNumber": 78,
				"velocity": 64
			},
			{
				"deltaTime": 0,
				"channel": 0,
				"type": "noteOn",
				"noteNumber": 76,
				"velocity": 64
			},
			{
				"deltaTime": 60,
				"channel": 0,
				"type": "noteOff",
				"noteNumber": 76,
				"velocity": 64
			},
			{
				"deltaTime": 0,
				"channel": 0,
				"type": "noteOn",
				"noteNumber": 74,
				"velocity": 64
			},
			{
				"deltaTime": 60,
				"channel": 0,
				"type": "noteOff",
				"noteNumber": 74,
				"velocity": 64
			},
			{
				"deltaTime": 0,
				"channel": 0,
				"type": "noteOn",
				"noteNumber": 73,
				"velocity": 64
			},
			{
				"deltaTime": 60,
				"channel": 0,
				"type": "noteOff",
				"noteNumber": 73,
				"velocity": 64
			},
			{
				"deltaTime": 0,
				"channel": 0,
				"type": "noteOn",
				"noteNumber": 74,
				"velocity": 64
			},
			{
				"deltaTime": 60,
				"channel": 0,
				"type": "noteOff",
				"noteNumber": 74,
				"velocity": 64
			},
			{
				"deltaTime": 0,
				"channel": 0,
				"type": "noteOn",
				"noteNumber": 73,
				"velocity": 64
			},
			{
				"deltaTime": 60,
				"channel": 0,
				"type": "noteOff",
				"noteNumber": 73,
				"velocity": 64
			},
			{
				"deltaTime": 0,
				"channel": 0,
				"type": "noteOn",
				"noteNumber": 76,
				"velocity": 64
			},
			{
				"deltaTime": 60,
				"channel": 0,
				"type": "noteOff",
				"noteNumber": 76,
				"velocity": 64
			},
			{
				"deltaTime": 0,
				"channel": 0,
				"type": "noteOn",
				"noteNumber": 74,
				"velocity": 64
			},
			{
				"deltaTime": 60,
				"channel": 0,
				"type": "noteOff",
				"noteNumber": 74,
				"velocity": 64
			},
			{
				"deltaTime": 0,
				"channel": 0,
				"type": "noteOn",
				"noteNumber": 73,
				"velocity": 64
			},
			{
				"deltaTime": 60,
				"channel": 0,
				"type": "noteOff",
				"noteNumber": 73,
				"velocity": 64
			},
			{
				"deltaTime": 0,
				"channel": 0,
				"type": "noteOn",
				"noteNumber": 71,
				"velocity": 64
			},
			{
				"deltaTime": 60,
				"channel": 0,
				"type": "noteOff",
				"noteNumber": 71,
				"velocity": 64
			},
			{
				"deltaTime": 0,
				"channel": 0,
				"type": "noteOn",
				"noteNumber": 73,
				"velocity": 64
			},
			{
				"deltaTime": 120,
				"channel": 0,
				"type": "noteOff",
				"noteNumber": 73,
				"velocity": 64
			},
			{
				"deltaTime": 0,
				"channel": 0,
				"type": "noteOn",
				"noteNumber": 70,
				"velocity": 64
			},
			{
				"deltaTime": 30,
				"channel": 0,
				"type": "noteOff",
				"noteNumber": 70,
				"velocity": 64
			},
			{
				"deltaTime": 0,
				"channel": 0,
				"type": "noteOn",
				"noteNumber": 68,
				"velocity": 56
			},
			{
				"deltaTime": 30,
				"channel": 0,
				"type": "noteOff",
				"noteNumber": 68,
				"velocity": 64
			},
			{
				"deltaTime": 0,
				"channel": 0,
				"type": "noteOn",
				"noteNumber": 70,
				"velocity": 64
			},
			{
				"deltaTime": 60,
				"channel": 0,
				"type": "noteOff",
				"noteNumber": 70,
				"velocity": 64
			},
			{
				"deltaTime": 0,
				"channel": 0,
				"type": "noteOn",
				"noteNumber": 71,
				"velocity": 64
			},
			{
				"deltaTime": 180,
				"channel": 0,
				"type": "noteOff",
				"noteNumber": 71,
				"velocity": 64
			},
			{
				"deltaTime": 0,
				"channel": 0,
				"type": "noteOn",
				"noteNumber": 73,
				"velocity": 64
			},
			{
				"deltaTime": 50,
				"channel": 0,
				"type": "noteOff",
				"noteNumber": 73,
				"velocity": 64
			},
			{
				"deltaTime": 10,
				"channel": 0,
				"type": "noteOn",
				"noteNumber": 73,
				"velocity": 64
			},
			{
				"deltaTime": 30,
				"channel": 0,
				"type": "noteOff",
				"noteNumber": 73,
				"velocity": 64
			},
			{
				"deltaTime": 0,
				"channel": 0,
				"type": "noteOn",
				"noteNumber": 74,
				"velocity": 56
			},
			{
				"deltaTime": 30,
				"channel": 0,
				"type": "noteOff",
				"noteNumber": 74,
				"velocity": 64
			},
			{
				"deltaTime": 0,
				"channel": 0,
				"type": "noteOn",
				"noteNumber": 73,
				"velocity": 64
			},
			{
				"deltaTime": 120,
				"channel": 0,
				"type": "noteOff",
				"noteNumber": 73,
				"velocity": 64
			},
			{
				"deltaTime": 0,
				"channel": 0,
				"type": "noteOn",
				"noteNumber": 71,
				"velocity": 64
			},
			{
				"deltaTime": 120,
				"channel": 0,
				"type": "noteOff",
				"noteNumber": 71,
				"velocity": 64
			},
			{
				"deltaTime": 0,
				"channel": 0,
				"type": "noteOn",
				"noteNumber": 66,
				"velocity": 64
			},
			{
				"deltaTime": 60,
				"channel": 0,
				"type": "noteOff",
				"noteNumber": 66,
				"velocity": 64
			},
			{
				"deltaTime": 0,
				"channel": 0,
				"type": "noteOn",
				"noteNumber": 68,
				"velocity": 64
			},
			{
				"deltaTime": 60,
				"channel": 0,
				"type": "noteOff",
				"noteNumber": 68,
				"velocity": 64
			},
			{
				"deltaTime": 0,
				"channel": 0,
				"type": "noteOn",
				"noteNumber": 70,
				"velocity": 64
			},
			{
				"deltaTime": 60,
				"channel": 0,
				"type": "noteOff",
				"noteNumber": 70,
				"velocity": 64
			},
			{
				"deltaTime": 0,
				"channel": 0,
				"type": "noteOn",
				"noteNumber": 71,
				"velocity": 64
			},
			{
				"deltaTime": 60,
				"channel": 0,
				"type": "noteOff",
				"noteNumber": 71,
				"velocity": 64
			},
			{
				"deltaTime": 0,
				"channel": 0,
				"type": "noteOn",
				"noteNumber": 73,
				"velocity": 64
			},
			{
				"deltaTime": 60,
				"channel": 0,
				"type": "noteOff",
				"noteNumber": 73,
				"velocity": 64
			},
			{
				"deltaTime": 0,
				"channel": 0,
				"type": "noteOn",
				"noteNumber": 74,
				"velocity": 64
			},
			{
				"deltaTime": 60,
				"channel": 0,
				"type": "noteOff",
				"noteNumber": 74,
				"velocity": 64
			},
			{
				"deltaTime": 0,
				"channel": 0,
				"type": "noteOn",
				"noteNumber": 73,
				"velocity": 64
			},
			{
				"deltaTime": 60,
				"channel": 0,
				"type": "noteOff",
				"noteNumber": 73,
				"velocity": 64
			},
			{
				"deltaTime": 0,
				"channel": 0,
				"type": "noteOn",
				"noteNumber": 76,
				"velocity": 64
			},
			{
				"deltaTime": 60,
				"channel": 0,
				"type": "noteOff",
				"noteNumber": 76,
				"velocity": 64
			},
			{
				"deltaTime": 0,
				"channel": 0,
				"type": "noteOn",
				"noteNumber": 74,
				"velocity": 64
			},
			{
				"deltaTime": 60,
				"channel": 0,
				"type": "noteOff",
				"noteNumber": 74,
				"velocity": 64
			},
			{
				"deltaTime": 0,
				"channel": 0,
				"type": "noteOn",
				"noteNumber": 73,
				"velocity": 64
			},
			{
				"deltaTime": 60,
				"channel": 0,
				"type": "noteOff",
				"noteNumber": 73,
				"velocity": 64
			},
			{
				"deltaTime": 0,
				"channel": 0,
				"type": "noteOn",
				"noteNumber": 71,
				"velocity": 64
			},
			{
				"deltaTime": 60,
				"channel": 0,
				"type": "noteOff",
				"noteNumber": 71,
				"velocity": 64
			},
			{
				"deltaTime": 0,
				"channel": 0,
				"type": "noteOn",
				"noteNumber": 79,
				"velocity": 64
			},
			{
				"deltaTime": 770,
				"channel": 0,
				"type": "noteOff",
				"noteNumber": 79,
				"velocity": 64
			},
			{
				"deltaTime": 10,
				"channel": 0,
				"type": "noteOn",
				"noteNumber": 64,
				"velocity": 64
			},
			{
				"deltaTime": 60,
				"channel": 0,
				"type": "noteOff",
				"noteNumber": 64,
				"velocity": 64
			},
			{
				"deltaTime": 0,
				"channel": 0,
				"type": "noteOn",
				"noteNumber": 66,
				"velocity": 64
			},
			{
				"deltaTime": 60,
				"channel": 0,
				"type": "noteOff",
				"noteNumber": 66,
				"velocity": 64
			},
			{
				"deltaTime": 0,
				"channel": 0,
				"type": "noteOn",
				"noteNumber": 68,
				"velocity": 64
			},
			{
				"deltaTime": 60,
				"channel": 0,
				"type": "noteOff",
				"noteNumber": 68,
				"velocity": 64
			},
			{
				"deltaTime": 0,
				"channel": 0,
				"type": "noteOn",
				"noteNumber": 69,
				"velocity": 64
			},
			{
				"deltaTime": 60,
				"channel": 0,
				"type": "noteOff",
				"noteNumber": 69,
				"velocity": 64
			},
			{
				"deltaTime": 0,
				"channel": 0,
				"type": "noteOn",
				"noteNumber": 71,
				"velocity": 64
			},
			{
				"deltaTime": 60,
				"channel": 0,
				"type": "noteOff",
				"noteNumber": 71,
				"velocity": 64
			},
			{
				"deltaTime": 0,
				"channel": 0,
				"type": "noteOn",
				"noteNumber": 73,
				"velocity": 64
			},
			{
				"deltaTime": 60,
				"channel": 0,
				"type": "noteOff",
				"noteNumber": 73,
				"velocity": 64
			},
			{
				"deltaTime": 0,
				"channel": 0,
				"type": "noteOn",
				"noteNumber": 71,
				"velocity": 64
			},
			{
				"deltaTime": 60,
				"channel": 0,
				"type": "noteOff",
				"noteNumber": 71,
				"velocity": 64
			},
			{
				"deltaTime": 0,
				"channel": 0,
				"type": "noteOn",
				"noteNumber": 74,
				"velocity": 64
			},
			{
				"deltaTime": 60,
				"channel": 0,
				"type": "noteOff",
				"noteNumber": 74,
				"velocity": 64
			},
			{
				"deltaTime": 0,
				"channel": 0,
				"type": "noteOn",
				"noteNumber": 73,
				"velocity": 64
			},
			{
				"deltaTime": 60,
				"channel": 0,
				"type": "noteOff",
				"noteNumber": 73,
				"velocity": 64
			},
			{
				"deltaTime": 0,
				"channel": 0,
				"type": "noteOn",
				"noteNumber": 71,
				"velocity": 64
			},
			{
				"deltaTime": 60,
				"channel": 0,
				"type": "noteOff",
				"noteNumber": 71,
				"velocity": 64
			},
			{
				"deltaTime": 0,
				"channel": 0,
				"type": "noteOn",
				"noteNumber": 69,
				"velocity": 64
			},
			{
				"deltaTime": 60,
				"channel": 0,
				"type": "noteOff",
				"noteNumber": 69,
				"velocity": 64
			},
			{
				"deltaTime": 0,
				"channel": 0,
				"type": "noteOn",
				"noteNumber": 78,
				"velocity": 64
			},
			{
				"deltaTime": 770,
				"channel": 0,
				"type": "noteOff",
				"noteNumber": 78,
				"velocity": 64
			},
			{
				"deltaTime": 10,
				"channel": 0,
				"type": "noteOn",
				"noteNumber": 71,
				"velocity": 64
			},
			{
				"deltaTime": 60,
				"channel": 0,
				"type": "noteOff",
				"noteNumber": 71,
				"velocity": 64
			},
			{
				"deltaTime": 0,
				"channel": 0,
				"type": "noteOn",
				"noteNumber": 76,
				"velocity": 64
			},
			{
				"deltaTime": 60,
				"channel": 0,
				"type": "noteOff",
				"noteNumber": 76,
				"velocity": 64
			},
			{
				"deltaTime": 0,
				"channel": 0,
				"type": "noteOn",
				"noteNumber": 74,
				"velocity": 64
			},
			{
				"deltaTime": 60,
				"channel": 0,
				"type": "noteOff",
				"noteNumber": 74,
				"velocity": 64
			},
			{
				"deltaTime": 0,
				"channel": 0,
				"type": "noteOn",
				"noteNumber": 73,
				"velocity": 64
			},
			{
				"deltaTime": 60,
				"channel": 0,
				"type": "noteOff",
				"noteNumber": 73,
				"velocity": 64
			},
			{
				"deltaTime": 0,
				"channel": 0,
				"type": "noteOn",
				"noteNumber": 71,
				"velocity": 64
			},
			{
				"deltaTime": 60,
				"channel": 0,
				"type": "noteOff",
				"noteNumber": 71,
				"velocity": 64
			},
			{
				"deltaTime": 0,
				"channel": 0,
				"type": "noteOn",
				"noteNumber": 73,
				"velocity": 64
			},
			{
				"deltaTime": 60,
				"channel": 0,
				"type": "noteOff",
				"noteNumber": 73,
				"velocity": 64
			},
			{
				"deltaTime": 0,
				"channel": 0,
				"type": "noteOn",
				"noteNumber": 71,
				"velocity": 64
			},
			{
				"deltaTime": 60,
				"channel": 0,
				"type": "noteOff",
				"noteNumber": 71,
				"velocity": 64
			},
			{
				"deltaTime": 0,
				"channel": 0,
				"type": "noteOn",
				"noteNumber": 74,
				"velocity": 64
			},
			{
				"deltaTime": 60,
				"channel": 0,
				"type": "noteOff",
				"noteNumber": 74,
				"velocity": 64
			},
			{
				"deltaTime": 0,
				"channel": 0,
				"type": "noteOn",
				"noteNumber": 73,
				"velocity": 64
			},
			{
				"deltaTime": 60,
				"channel": 0,
				"type": "noteOff",
				"noteNumber": 73,
				"velocity": 64
			},
			{
				"deltaTime": 0,
				"channel": 0,
				"type": "noteOn",
				"noteNumber": 71,
				"velocity": 64
			},
			{
				"deltaTime": 60,
				"channel": 0,
				"type": "noteOff",
				"noteNumber": 71,
				"velocity": 64
			},
			{
				"deltaTime": 0,
				"channel": 0,
				"type": "noteOn",
				"noteNumber": 69,
				"velocity": 64
			},
			{
				"deltaTime": 60,
				"channel": 0,
				"type": "noteOff",
				"noteNumber": 69,
				"velocity": 64
			},
			{
				"deltaTime": 0,
				"channel": 0,
				"type": "noteOn",
				"noteNumber": 68,
				"velocity": 64
			},
			{
				"deltaTime": 30,
				"channel": 0,
				"type": "noteOff",
				"noteNumber": 68,
				"velocity": 64
			},
			{
				"deltaTime": 0,
				"channel": 0,
				"type": "noteOn",
				"noteNumber": 69,
				"velocity": 56
			},
			{
				"deltaTime": 30,
				"channel": 0,
				"type": "noteOff",
				"noteNumber": 69,
				"velocity": 64
			},
			{
				"deltaTime": 0,
				"channel": 0,
				"type": "noteOn",
				"noteNumber": 68,
				"velocity": 64
			},
			{
				"deltaTime": 60,
				"channel": 0,
				"type": "noteOff",
				"noteNumber": 68,
				"velocity": 64
			},
			{
				"deltaTime": 0,
				"channel": 0,
				"type": "noteOn",
				"noteNumber": 64,
				"velocity": 64
			},
			{
				"deltaTime": 120,
				"channel": 0,
				"type": "noteOff",
				"noteNumber": 64,
				"velocity": 64
			},
			{
				"deltaTime": 0,
				"channel": 0,
				"type": "noteOn",
				"noteNumber": 69,
				"velocity": 64
			},
			{
				"deltaTime": 60,
				"channel": 0,
				"type": "noteOff",
				"noteNumber": 69,
				"velocity": 64
			},
			{
				"deltaTime": 0,
				"channel": 0,
				"type": "noteOn",
				"noteNumber": 71,
				"velocity": 64
			},
			{
				"deltaTime": 60,
				"channel": 0,
				"type": "noteOff",
				"noteNumber": 71,
				"velocity": 64
			},
			{
				"deltaTime": 0,
				"channel": 0,
				"type": "noteOn",
				"noteNumber": 73,
				"velocity": 64
			},
			{
				"deltaTime": 60,
				"channel": 0,
				"type": "noteOff",
				"noteNumber": 73,
				"velocity": 64
			},
			{
				"deltaTime": 0,
				"channel": 0,
				"type": "noteOn",
				"noteNumber": 71,
				"velocity": 64
			},
			{
				"deltaTime": 60,
				"channel": 0,
				"type": "noteOff",
				"noteNumber": 71,
				"velocity": 64
			},
			{
				"deltaTime": 0,
				"channel": 0,
				"type": "noteOn",
				"noteNumber": 74,
				"velocity": 64
			},
			{
				"deltaTime": 60,
				"channel": 0,
				"type": "noteOff",
				"noteNumber": 74,
				"velocity": 64
			},
			{
				"deltaTime": 0,
				"channel": 0,
				"type": "noteOn",
				"noteNumber": 73,
				"velocity": 64
			},
			{
				"deltaTime": 60,
				"channel": 0,
				"type": "noteOff",
				"noteNumber": 73,
				"velocity": 64
			},
			{
				"deltaTime": 0,
				"channel": 0,
				"type": "noteOn",
				"noteNumber": 71,
				"velocity": 64
			},
			{
				"deltaTime": 60,
				"channel": 0,
				"type": "noteOff",
				"noteNumber": 71,
				"velocity": 64
			},
			{
				"deltaTime": 0,
				"channel": 0,
				"type": "noteOn",
				"noteNumber": 69,
				"velocity": 64
			},
			{
				"deltaTime": 60,
				"channel": 0,
				"type": "noteOff",
				"noteNumber": 69,
				"velocity": 64
			},
			{
				"deltaTime": 0,
				"channel": 0,
				"type": "noteOn",
				"noteNumber": 78,
				"velocity": 64
			},
			{
				"deltaTime": 180,
				"channel": 0,
				"type": "noteOff",
				"noteNumber": 78,
				"velocity": 64
			},
			{
				"deltaTime": 0,
				"channel": 0,
				"type": "noteOn",
				"noteNumber": 68,
				"velocity": 64
			},
			{
				"deltaTime": 60,
				"channel": 0,
				"type": "noteOff",
				"noteNumber": 68,
				"velocity": 64
			},
			{
				"deltaTime": 0,
				"channel": 0,
				"type": "noteOn",
				"noteNumber": 69,
				"velocity": 64
			},
			{
				"deltaTime": 60,
				"channel": 0,
				"type": "noteOff",
				"noteNumber": 69,
				"velocity": 64
			},
			{
				"deltaTime": 0,
				"channel": 0,
				"type": "noteOn",
				"noteNumber": 68,
				"velocity": 64
			},
			{
				"deltaTime": 60,
				"channel": 0,
				"type": "noteOff",
				"noteNumber": 68,
				"velocity": 64
			},
			{
				"deltaTime": 0,
				"channel": 0,
				"type": "noteOn",
				"noteNumber": 69,
				"velocity": 64
			},
			{
				"deltaTime": 60,
				"channel": 0,
				"type": "noteOff",
				"noteNumber": 69,
				"velocity": 64
			},
			{
				"deltaTime": 0,
				"channel": 0,
				"type": "noteOn",
				"noteNumber": 74,
				"velocity": 64
			},
			{
				"deltaTime": 60,
				"channel": 0,
				"type": "noteOff",
				"noteNumber": 74,
				"velocity": 64
			},
			{
				"deltaTime": 0,
				"channel": 0,
				"type": "noteOn",
				"noteNumber": 71,
				"velocity": 64
			},
			{
				"deltaTime": 180,
				"channel": 0,
				"type": "noteOff",
				"noteNumber": 71,
				"velocity": 64
			},
			{
				"deltaTime": 0,
				"channel": 0,
				"type": "noteOn",
				"noteNumber": 69,
				"velocity": 64
			},
			{
				"deltaTime": 50,
				"channel": 0,
				"type": "noteOff",
				"noteNumber": 69,
				"velocity": 64
			},
			{
				"deltaTime": 10,
				"channel": 0,
				"type": "noteOn",
				"noteNumber": 69,
				"velocity": 64
			},
			{
				"deltaTime": 180,
				"channel": 0,
				"type": "noteOff",
				"noteNumber": 69,
				"velocity": 64
			},
			{
				"deltaTime": 0,
				"channel": 0,
				"type": "noteOn",
				"noteNumber": 73,
				"velocity": 64
			},
			{
				"deltaTime": 60,
				"channel": 0,
				"type": "noteOff",
				"noteNumber": 73,
				"velocity": 64
			},
			{
				"deltaTime": 0,
				"channel": 0,
				"type": "noteOn",
				"noteNumber": 74,
				"velocity": 64
			},
			{
				"deltaTime": 60,
				"channel": 0,
				"type": "noteOff",
				"noteNumber": 74,
				"velocity": 64
			},
			{
				"deltaTime": 0,
				"channel": 0,
				"type": "noteOn",
				"noteNumber": 76,
				"velocity": 64
			},
			{
				"deltaTime": 60,
				"channel": 0,
				"type": "noteOff",
				"noteNumber": 76,
				"velocity": 64
			},
			{
				"deltaTime": 0,
				"channel": 0,
				"type": "noteOn",
				"noteNumber": 66,
				"velocity": 64
			},
			{
				"deltaTime": 120,
				"channel": 0,
				"type": "noteOff",
				"noteNumber": 66,
				"velocity": 64
			},
			{
				"deltaTime": 0,
				"channel": 0,
				"type": "noteOn",
				"noteNumber": 67,
				"velocity": 64
			},
			{
				"deltaTime": 120,
				"channel": 0,
				"type": "noteOff",
				"noteNumber": 67,
				"velocity": 64
			},
			{
				"deltaTime": 0,
				"channel": 0,
				"type": "noteOn",
				"noteNumber": 71,
				"velocity": 64
			},
			{
				"deltaTime": 30,
				"channel": 0,
				"type": "noteOff",
				"noteNumber": 71,
				"velocity": 64
			},
			{
				"deltaTime": 0,
				"channel": 0,
				"type": "noteOn",
				"noteNumber": 69,
				"velocity": 48
			},
			{
				"deltaTime": 30,
				"channel": 0,
				"type": "noteOff",
				"noteNumber": 69,
				"velocity": 64
			},
			{
				"deltaTime": 0,
				"channel": 0,
				"type": "noteOn",
				"noteNumber": 67,
				"velocity": 51
			},
			{
				"deltaTime": 30,
				"channel": 0,
				"type": "noteOff",
				"noteNumber": 67,
				"velocity": 64
			},
			{
				"deltaTime": 0,
				"channel": 0,
				"type": "noteOn",
				"noteNumber": 69,
				"velocity": 55
			},
			{
				"deltaTime": 30,
				"channel": 0,
				"type": "noteOff",
				"noteNumber": 69,
				"velocity": 64
			},
			{
				"deltaTime": 0,
				"channel": 0,
				"type": "noteOn",
				"noteNumber": 71,
				"velocity": 64
			},
			{
				"deltaTime": 120,
				"channel": 0,
				"type": "noteOff",
				"noteNumber": 71,
				"velocity": 64
			},
			{
				"deltaTime": 0,
				"channel": 0,
				"type": "noteOn",
				"noteNumber": 74,
				"velocity": 64
			},
			{
				"deltaTime": 30,
				"channel": 0,
				"type": "noteOff",
				"noteNumber": 74,
				"velocity": 64
			},
			{
				"deltaTime": 0,
				"channel": 0,
				"type": "noteOn",
				"noteNumber": 73,
				"velocity": 49
			},
			{
				"deltaTime": 30,
				"channel": 0,
				"type": "noteOff",
				"noteNumber": 73,
				"velocity": 64
			},
			{
				"deltaTime": 0,
				"channel": 0,
				"type": "noteOn",
				"noteNumber": 71,
				"velocity": 54
			},
			{
				"deltaTime": 30,
				"channel": 0,
				"type": "noteOff",
				"noteNumber": 71,
				"velocity": 64
			},
			{
				"deltaTime": 0,
				"channel": 0,
				"type": "noteOn",
				"noteNumber": 73,
				"velocity": 58
			},
			{
				"deltaTime": 30,
				"channel": 0,
				"type": "noteOff",
				"noteNumber": 73,
				"velocity": 64
			},
			{
				"deltaTime": 0,
				"channel": 0,
				"type": "noteOn",
				"noteNumber": 74,
				"velocity": 64
			},
			{
				"deltaTime": 180,
				"channel": 0,
				"type": "noteOff",
				"noteNumber": 74,
				"velocity": 64
			},
			{
				"deltaTime": 0,
				"channel": 0,
				"type": "noteOn",
				"noteNumber": 73,
				"velocity": 64
			},
			{
				"deltaTime": 60,
				"channel": 0,
				"type": "noteOff",
				"noteNumber": 73,
				"velocity": 64
			},
			{
				"deltaTime": 0,
				"channel": 0,
				"type": "noteOn",
				"noteNumber": 76,
				"velocity": 64
			},
			{
				"deltaTime": 60,
				"channel": 0,
				"type": "noteOff",
				"noteNumber": 76,
				"velocity": 64
			},
			{
				"deltaTime": 0,
				"channel": 0,
				"type": "noteOn",
				"noteNumber": 74,
				"velocity": 64
			},
			{
				"deltaTime": 60,
				"channel": 0,
				"type": "noteOff",
				"noteNumber": 74,
				"velocity": 64
			},
			{
				"deltaTime": 0,
				"channel": 0,
				"type": "noteOn",
				"noteNumber": 73,
				"velocity": 64
			},
			{
				"deltaTime": 60,
				"channel": 0,
				"type": "noteOff",
				"noteNumber": 73,
				"velocity": 64
			},
			{
				"deltaTime": 0,
				"channel": 0,
				"type": "noteOn",
				"noteNumber": 74,
				"velocity": 64
			},
			{
				"deltaTime": 60,
				"channel": 0,
				"type": "noteOff",
				"noteNumber": 74,
				"velocity": 64
			},
			{
				"deltaTime": 0,
				"channel": 0,
				"type": "noteOn",
				"noteNumber": 76,
				"velocity": 64
			},
			{
				"deltaTime": 60,
				"channel": 0,
				"type": "noteOff",
				"noteNumber": 76,
				"velocity": 64
			},
			{
				"deltaTime": 0,
				"channel": 0,
				"type": "noteOn",
				"noteNumber": 74,
				"velocity": 64
			},
			{
				"deltaTime": 60,
				"channel": 0,
				"type": "noteOff",
				"noteNumber": 74,
				"velocity": 64
			},
			{
				"deltaTime": 0,
				"channel": 0,
				"type": "noteOn",
				"noteNumber": 73,
				"velocity": 64
			},
			{
				"deltaTime": 60,
				"channel": 0,
				"type": "noteOff",
				"noteNumber": 73,
				"velocity": 64
			},
			{
				"deltaTime": 0,
				"channel": 0,
				"type": "noteOn",
				"noteNumber": 71,
				"velocity": 64
			},
			{
				"deltaTime": 60,
				"channel": 0,
				"type": "noteOff",
				"noteNumber": 71,
				"velocity": 64
			},
			{
				"deltaTime": 0,
				"channel": 0,
				"type": "noteOn",
				"noteNumber": 69,
				"velocity": 64
			},
			{
				"deltaTime": 60,
				"channel": 0,
				"type": "noteOff",
				"noteNumber": 69,
				"velocity": 64
			},
			{
				"deltaTime": 0,
				"channel": 0,
				"type": "noteOn",
				"noteNumber": 67,
				"velocity": 64
			},
			{
				"deltaTime": 60,
				"channel": 0,
				"type": "noteOff",
				"noteNumber": 67,
				"velocity": 64
			},
			{
				"deltaTime": 0,
				"channel": 0,
				"type": "noteOn",
				"noteNumber": 66,
				"velocity": 64
			},
			{
				"deltaTime": 60,
				"channel": 0,
				"type": "noteOff",
				"noteNumber": 66,
				"velocity": 64
			},
			{
				"deltaTime": 0,
				"channel": 0,
				"type": "noteOn",
				"noteNumber": 64,
				"velocity": 64
			},
			{
				"deltaTime": 60,
				"channel": 0,
				"type": "noteOff",
				"noteNumber": 64,
				"velocity": 64
			},
			{
				"deltaTime": 0,
				"channel": 0,
				"type": "noteOn",
				"noteNumber": 67,
				"velocity": 64
			},
			{
				"deltaTime": 60,
				"channel": 0,
				"type": "noteOff",
				"noteNumber": 67,
				"velocity": 64
			},
			{
				"deltaTime": 0,
				"channel": 0,
				"type": "noteOn",
				"noteNumber": 66,
				"velocity": 64
			},
			{
				"deltaTime": 60,
				"channel": 0,
				"type": "noteOff",
				"noteNumber": 66,
				"velocity": 64
			},
			{
				"deltaTime": 0,
				"channel": 0,
				"type": "noteOn",
				"noteNumber": 64,
				"velocity": 64
			},
			{
				"deltaTime": 60,
				"channel": 0,
				"type": "noteOff",
				"noteNumber": 64,
				"velocity": 64
			},
			{
				"deltaTime": 0,
				"channel": 0,
				"type": "noteOn",
				"noteNumber": 62,
				"velocity": 64
			},
			{
				"deltaTime": 60,
				"channel": 0,
				"type": "noteOff",
				"noteNumber": 62,
				"velocity": 64
			},
			{
				"deltaTime": 0,
				"channel": 0,
				"type": "noteOn",
				"noteNumber": 69,
				"velocity": 64
			},
			{
				"deltaTime": 60,
				"channel": 0,
				"type": "noteOff",
				"noteNumber": 69,
				"velocity": 64
			},
			{
				"deltaTime": 0,
				"channel": 0,
				"type": "noteOn",
				"noteNumber": 67,
				"velocity": 64
			},
			{
				"deltaTime": 60,
				"channel": 0,
				"type": "noteOff",
				"noteNumber": 67,
				"velocity": 64
			},
			{
				"deltaTime": 0,
				"channel": 0,
				"type": "noteOn",
				"noteNumber": 66,
				"velocity": 64
			},
			{
				"deltaTime": 60,
				"channel": 0,
				"type": "noteOff",
				"noteNumber": 66,
				"velocity": 64
			},
			{
				"deltaTime": 0,
				"channel": 0,
				"type": "noteOn",
				"noteNumber": 64,
				"velocity": 64
			},
			{
				"deltaTime": 60,
				"channel": 0,
				"type": "noteOff",
				"noteNumber": 64,
				"velocity": 64
			},
			{
				"deltaTime": 0,
				"channel": 0,
				"type": "noteOn",
				"noteNumber": 66,
				"velocity": 64
			},
			{
				"deltaTime": 60,
				"channel": 0,
				"type": "noteOff",
				"noteNumber": 66,
				"velocity": 64
			},
			{
				"deltaTime": 0,
				"channel": 0,
				"type": "noteOn",
				"noteNumber": 62,
				"velocity": 64
			},
			{
				"deltaTime": 60,
				"channel": 0,
				"type": "noteOff",
				"noteNumber": 62,
				"velocity": 64
			},
			{
				"deltaTime": 0,
				"channel": 0,
				"type": "noteOn",
				"noteNumber": 69,
				"velocity": 64
			},
			{
				"deltaTime": 120,
				"channel": 0,
				"type": "noteOff",
				"noteNumber": 69,
				"velocity": 64
			},
			{
				"deltaTime": 0,
				"channel": 0,
				"type": "noteOn",
				"noteNumber": 71,
				"velocity": 64
			},
			{
				"deltaTime": 120,
				"channel": 0,
				"type": "noteOff",
				"noteNumber": 71,
				"velocity": 64
			},
			{
				"deltaTime": 0,
				"channel": 0,
				"type": "noteOn",
				"noteNumber": 73,
				"velocity": 64
			},
			{
				"deltaTime": 20,
				"channel": 0,
				"type": "noteOff",
				"noteNumber": 73,
				"velocity": 64
			},
			{
				"deltaTime": 0,
				"channel": 0,
				"type": "noteOn",
				"noteNumber": 71,
				"velocity": 56
			},
			{
				"deltaTime": 20,
				"channel": 0,
				"type": "noteOff",
				"noteNumber": 71,
				"velocity": 64
			},
			{
				"deltaTime": 0,
				"channel": 0,
				"type": "noteOn",
				"noteNumber": 73,
				"velocity": 64
			},
			{
				"deltaTime": 20,
				"channel": 0,
				"type": "noteOff",
				"noteNumber": 73,
				"velocity": 64
			},
			{
				"deltaTime": 0,
				"channel": 0,
				"type": "noteOn",
				"noteNumber": 74,
				"velocity": 64
			},
			{
				"deltaTime": 60,
				"channel": 0,
				"type": "noteOff",
				"noteNumber": 74,
				"velocity": 64
			},
			{
				"deltaTime": 0,
				"channel": 0,
				"type": "noteOn",
				"noteNumber": 73,
				"velocity": 64
			},
			{
				"deltaTime": 30,
				"channel": 0,
				"type": "noteOff",
				"noteNumber": 73,
				"velocity": 64
			},
			{
				"deltaTime": 0,
				"channel": 0,
				"type": "noteOn",
				"noteNumber": 74,
				"velocity": 56
			},
			{
				"deltaTime": 30,
				"channel": 0,
				"type": "noteOff",
				"noteNumber": 74,
				"velocity": 64
			},
			{
				"deltaTime": 0,
				"channel": 0,
				"type": "noteOn",
				"noteNumber": 73,
				"velocity": 60
			},
			{
				"deltaTime": 60,
				"channel": 0,
				"type": "noteOff",
				"noteNumber": 73,
				"velocity": 64
			},
			{
				"deltaTime": 0,
				"channel": 0,
				"type": "noteOn",
				"noteNumber": 71,
				"velocity": 56
			},
			{
				"deltaTime": 30,
				"channel": 0,
				"type": "noteOff",
				"noteNumber": 71,
				"velocity": 64
			},
			{
				"deltaTime": 0,
				"channel": 0,
				"type": "noteOn",
				"noteNumber": 69,
				"velocity": 64
			},
			{
				"deltaTime": 75,
				"channel": 0,
				"type": "noteOff",
				"noteNumber": 69,
				"velocity": 64
			},
			{
				"deltaTime": 15,
				"channel": 0,
				"type": "noteOn",
				"noteNumber": 74,
				"velocity": 64
			},
			{
				"deltaTime": 110,
				"channel": 0,
				"type": "noteOff",
				"noteNumber": 74,
				"velocity": 64
			},
			{
				"deltaTime": 10,
				"channel": 0,
				"type": "noteOn",
				"noteNumber": 74,
				"velocity": 64
			},
			{
				"deltaTime": 120,
				"channel": 0,
				"type": "noteOff",
				"noteNumber": 74,
				"velocity": 64
			},
			{
				"deltaTime": 0,
				"channel": 0,
				"type": "noteOn",
				"noteNumber": 62,
				"velocity": 64
			},
			{
				"deltaTime": 120,
				"channel": 0,
				"type": "noteOff",
				"noteNumber": 62,
				"velocity": 64
			},
			{
				"deltaTime": 0,
				"channel": 0,
				"type": "noteOn",
				"noteNumber": 74,
				"velocity": 64
			},
			{
				"deltaTime": 110,
				"channel": 0,
				"type": "noteOff",
				"noteNumber": 74,
				"velocity": 64
			},
			{
				"deltaTime": 10,
				"channel": 0,
				"type": "noteOn",
				"noteNumber": 74,
				"velocity": 64
			},
			{
				"deltaTime": 120,
				"channel": 0,
				"type": "noteOff",
				"noteNumber": 74,
				"velocity": 64
			},
			{
				"deltaTime": 0,
				"channel": 0,
				"type": "noteOn",
				"noteNumber": 62,
				"velocity": 64
			},
			{
				"deltaTime": 120,
				"channel": 0,
				"type": "noteOff",
				"noteNumber": 62,
				"velocity": 64
			},
			{
				"deltaTime": 0,
				"channel": 0,
				"type": "noteOn",
				"noteNumber": 74,
				"velocity": 64
			},
			{
				"deltaTime": 110,
				"channel": 0,
				"type": "noteOff",
				"noteNumber": 74,
				"velocity": 64
			},
			{
				"deltaTime": 10,
				"channel": 0,
				"type": "noteOn",
				"noteNumber": 74,
				"velocity": 64
			},
			{
				"deltaTime": 120,
				"channel": 0,
				"type": "noteOff",
				"noteNumber": 74,
				"velocity": 64
			},
			{
				"deltaTime": 0,
				"channel": 0,
				"type": "noteOn",
				"noteNumber": 62,
				"velocity": 64
			},
			{
				"deltaTime": 120,
				"channel": 0,
				"type": "noteOff",
				"noteNumber": 62,
				"velocity": 64
			},
			{
				"deltaTime": 0,
				"channel": 0,
				"type": "noteOn",
				"noteNumber": 74,
				"velocity": 64
			},
			{
				"deltaTime": 110,
				"channel": 0,
				"type": "noteOff",
				"noteNumber": 74,
				"velocity": 64
			},
			{
				"deltaTime": 10,
				"channel": 0,
				"type": "noteOn",
				"noteNumber": 74,
				"velocity": 64
			},
			{
				"deltaTime": 120,
				"channel": 0,
				"type": "noteOff",
				"noteNumber": 74,
				"velocity": 64
			},
			{
				"deltaTime": 0,
				"channel": 0,
				"type": "noteOn",
				"noteNumber": 62,
				"velocity": 64
			},
			{
				"deltaTime": 120,
				"channel": 0,
				"type": "noteOff",
				"noteNumber": 62,
				"velocity": 64
			},
			{
				"deltaTime": 0,
				"channel": 0,
				"type": "noteOn",
				"noteNumber": 74,
				"velocity": 64
			},
			{
				"deltaTime": 60,
				"channel": 0,
				"type": "noteOff",
				"noteNumber": 74,
				"velocity": 64
			},
			{
				"deltaTime": 0,
				"channel": 0,
				"type": "noteOn",
				"noteNumber": 76,
				"velocity": 64
			},
			{
				"deltaTime": 60,
				"channel": 0,
				"type": "noteOff",
				"noteNumber": 76,
				"velocity": 64
			},
			{
				"deltaTime": 0,
				"channel": 0,
				"type": "noteOn",
				"noteNumber": 78,
				"velocity": 64
			},
			{
				"deltaTime": 60,
				"channel": 0,
				"type": "noteOff",
				"noteNumber": 78,
				"velocity": 64
			},
			{
				"deltaTime": 0,
				"channel": 0,
				"type": "noteOn",
				"noteNumber": 76,
				"velocity": 64
			},
			{
				"deltaTime": 60,
				"channel": 0,
				"type": "noteOff",
				"noteNumber": 76,
				"velocity": 64
			},
			{
				"deltaTime": 0,
				"channel": 0,
				"type": "noteOn",
				"noteNumber": 79,
				"velocity": 64
			},
			{
				"deltaTime": 60,
				"channel": 0,
				"type": "noteOff",
				"noteNumber": 79,
				"velocity": 64
			},
			{
				"deltaTime": 0,
				"channel": 0,
				"type": "noteOn",
				"noteNumber": 78,
				"velocity": 64
			},
			{
				"deltaTime": 60,
				"channel": 0,
				"type": "noteOff",
				"noteNumber": 78,
				"velocity": 64
			},
			{
				"deltaTime": 0,
				"channel": 0,
				"type": "noteOn",
				"noteNumber": 76,
				"velocity": 64
			},
			{
				"deltaTime": 60,
				"channel": 0,
				"type": "noteOff",
				"noteNumber": 76,
				"velocity": 64
			},
			{
				"deltaTime": 0,
				"channel": 0,
				"type": "noteOn",
				"noteNumber": 74,
				"velocity": 64
			},
			{
				"deltaTime": 60,
				"channel": 0,
				"type": "noteOff",
				"noteNumber": 74,
				"velocity": 64
			},
			{
				"deltaTime": 0,
				"channel": 0,
				"type": "noteOn",
				"noteNumber": 83,
				"velocity": 64
			},
			{
				"deltaTime": 120,
				"channel": 0,
				"type": "noteOff",
				"noteNumber": 83,
				"velocity": 64
			},
			{
				"deltaTime": 0,
				"channel": 0,
				"type": "noteOn",
				"noteNumber": 73,
				"velocity": 64
			},
			{
				"deltaTime": 120,
				"channel": 0,
				"type": "noteOff",
				"noteNumber": 73,
				"velocity": 64
			},
			{
				"deltaTime": 0,
				"channel": 0,
				"type": "noteOn",
				"noteNumber": 74,
				"velocity": 64
			},
			{
				"deltaTime": 130,
				"channel": 0,
				"type": "noteOff",
				"noteNumber": 74,
				"velocity": 64
			},
			{
				"deltaTime": 10,
				"channel": 0,
				"type": "noteOn",
				"noteNumber": 76,
				"velocity": 48
			},
			{
				"deltaTime": 20,
				"channel": 0,
				"type": "noteOff",
				"noteNumber": 76,
				"velocity": 64
			},
			{
				"deltaTime": 0,
				"channel": 0,
				"type": "noteOn",
				"noteNumber": 74,
				"velocity": 53
			},
			{
				"deltaTime": 20,
				"channel": 0,
				"type": "noteOff",
				"noteNumber": 74,
				"velocity": 64
			},
			{
				"deltaTime": 0,
				"channel": 0,
				"type": "noteOn",
				"noteNumber": 73,
				"velocity": 57
			},
			{
				"deltaTime": 20,
				"channel": 0,
				"type": "noteOff",
				"noteNumber": 73,
				"velocity": 64
			},
			{
				"deltaTime": 0,
				"channel": 0,
				"type": "noteOn",
				"noteNumber": 74,
				"velocity": 64
			},
			{
				"deltaTime": 20,
				"channel": 0,
				"type": "noteOff",
				"noteNumber": 74,
				"velocity": 64
			},
			{
				"deltaTime": 0,
				"channel": 0,
				"type": "noteOn",
				"noteNumber": 76,
				"velocity": 64
			},
			{
				"deltaTime": 15,
				"channel": 0,
				"type": "noteOff",
				"noteNumber": 76,
				"velocity": 64
			},
			{
				"deltaTime": 5,
				"channel": 0,
				"type": "noteOn",
				"noteNumber": 76,
				"velocity": 64
			},
			{
				"deltaTime": 180,
				"channel": 0,
				"type": "noteOff",
				"noteNumber": 76,
				"velocity": 64
			},
			{
				"deltaTime": 0,
				"channel": 0,
				"type": "noteOn",
				"noteNumber": 74,
				"velocity": 64
			},
			{
				"deltaTime": 50,
				"channel": 0,
				"type": "noteOff",
				"noteNumber": 74,
				"velocity": 64
			},
			{
				"deltaTime": 10,
				"channel": 0,
				"type": "noteOn",
				"noteNumber": 74,
				"velocity": 64
			},
			{
				"deltaTime": 120,
				"channel": 0,
				"type": "noteOff",
				"noteNumber": 74,
				"velocity": 64
			},
			{
				"deltaTime": 0,
				"channel": 0,
				"type": "noteOn",
				"noteNumber": 62,
				"velocity": 64
			},
			{
				"deltaTime": 120,
				"channel": 0,
				"type": "noteOff",
				"noteNumber": 62,
				"velocity": 64
			},
			{
				"deltaTime": 0,
				"channel": 0,
				"type": "noteOn",
				"noteNumber": 67,
				"velocity": 64
			},
			{
				"deltaTime": 180,
				"channel": 0,
				"type": "noteOff",
				"noteNumber": 67,
				"velocity": 64
			},
			{
				"deltaTime": 0,
				"channel": 0,
				"type": "noteOn",
				"noteNumber": 57,
				"velocity": 64
			},
			{
				"deltaTime": 60,
				"channel": 0,
				"type": "noteOff",
				"noteNumber": 57,
				"velocity": 64
			},
			{
				"deltaTime": 0,
				"channel": 0,
				"type": "noteOn",
				"noteNumber": 59,
				"velocity": 64
			},
			{
				"deltaTime": 60,
				"channel": 0,
				"type": "noteOff",
				"noteNumber": 59,
				"velocity": 64
			},
			{
				"deltaTime": 0,
				"channel": 0,
				"type": "noteOn",
				"noteNumber": 61,
				"velocity": 64
			},
			{
				"deltaTime": 60,
				"channel": 0,
				"type": "noteOff",
				"noteNumber": 61,
				"velocity": 64
			},
			{
				"deltaTime": 0,
				"channel": 0,
				"type": "noteOn",
				"noteNumber": 62,
				"velocity": 64
			},
			{
				"deltaTime": 60,
				"channel": 0,
				"type": "noteOff",
				"noteNumber": 62,
				"velocity": 64
			},
			{
				"deltaTime": 0,
				"channel": 0,
				"type": "noteOn",
				"noteNumber": 64,
				"velocity": 64
			},
			{
				"deltaTime": 60,
				"channel": 0,
				"type": "noteOff",
				"noteNumber": 64,
				"velocity": 64
			},
			{
				"deltaTime": 0,
				"channel": 0,
				"type": "noteOn",
				"noteNumber": 66,
				"velocity": 64
			},
			{
				"deltaTime": 60,
				"channel": 0,
				"type": "noteOff",
				"noteNumber": 66,
				"velocity": 64
			},
			{
				"deltaTime": 0,
				"channel": 0,
				"type": "noteOn",
				"noteNumber": 64,
				"velocity": 64
			},
			{
				"deltaTime": 60,
				"channel": 0,
				"type": "noteOff",
				"noteNumber": 64,
				"velocity": 64
			},
			{
				"deltaTime": 0,
				"channel": 0,
				"type": "noteOn",
				"noteNumber": 67,
				"velocity": 64
			},
			{
				"deltaTime": 60,
				"channel": 0,
				"type": "noteOff",
				"noteNumber": 67,
				"velocity": 64
			},
			{
				"deltaTime": 0,
				"channel": 0,
				"type": "noteOn",
				"noteNumber": 66,
				"velocity": 64
			},
			{
				"deltaTime": 60,
				"channel": 0,
				"type": "noteOff",
				"noteNumber": 66,
				"velocity": 64
			},
			{
				"deltaTime": 0,
				"channel": 0,
				"type": "noteOn",
				"noteNumber": 64,
				"velocity": 64
			},
			{
				"deltaTime": 60,
				"channel": 0,
				"type": "noteOff",
				"noteNumber": 64,
				"velocity": 64
			},
			{
				"deltaTime": 0,
				"channel": 0,
				"type": "noteOn",
				"noteNumber": 62,
				"velocity": 64
			},
			{
				"deltaTime": 60,
				"channel": 0,
				"type": "noteOff",
				"noteNumber": 62,
				"velocity": 64
			},
			{
				"deltaTime": 0,
				"channel": 0,
				"type": "noteOn",
				"noteNumber": 71,
				"velocity": 64
			},
			{
				"deltaTime": 180,
				"channel": 0,
				"type": "noteOff",
				"noteNumber": 71,
				"velocity": 64
			},
			{
				"deltaTime": 0,
				"channel": 0,
				"type": "noteOn",
				"noteNumber": 61,
				"velocity": 64
			},
			{
				"deltaTime": 60,
				"channel": 0,
				"type": "noteOff",
				"noteNumber": 61,
				"velocity": 64
			},
			{
				"deltaTime": 0,
				"channel": 0,
				"type": "noteOn",
				"noteNumber": 62,
				"velocity": 64
			},
			{
				"deltaTime": 60,
				"channel": 0,
				"type": "noteOff",
				"noteNumber": 62,
				"velocity": 64
			},
			{
				"deltaTime": 0,
				"channel": 0,
				"type": "noteOn",
				"noteNumber": 61,
				"velocity": 64
			},
			{
				"deltaTime": 60,
				"channel": 0,
				"type": "noteOff",
				"noteNumber": 61,
				"velocity": 64
			},
			{
				"deltaTime": 0,
				"channel": 0,
				"type": "noteOn",
				"noteNumber": 62,
				"velocity": 64
			},
			{
				"deltaTime": 60,
				"channel": 0,
				"type": "noteOff",
				"noteNumber": 62,
				"velocity": 64
			},
			{
				"deltaTime": 0,
				"channel": 0,
				"type": "noteOn",
				"noteNumber": 67,
				"velocity": 64
			},
			{
				"deltaTime": 60,
				"channel": 0,
				"type": "noteOff",
				"noteNumber": 67,
				"velocity": 64
			},
			{
				"deltaTime": 0,
				"channel": 0,
				"type": "noteOn",
				"noteNumber": 64,
				"velocity": 64
			},
			{
				"deltaTime": 180,
				"channel": 0,
				"type": "noteOff",
				"noteNumber": 64,
				"velocity": 64
			},
			{
				"deltaTime": 0,
				"channel": 0,
				"type": "noteOn",
				"noteNumber": 62,
				"velocity": 64
			},
			{
				"deltaTime": 50,
				"channel": 0,
				"type": "noteOff",
				"noteNumber": 62,
				"velocity": 64
			},
			{
				"deltaTime": 10,
				"channel": 0,
				"type": "noteOn",
				"noteNumber": 62,
				"velocity": 64
			},
			{
				"deltaTime": 720,
				"channel": 0,
				"type": "noteOff",
				"noteNumber": 62,
				"velocity": 64
			},
			{
				"deltaTime": 0,
				"meta": true,
				"type": "endOfTrack"
			}
		],
		[
			{
				"deltaTime": 0,
				"meta": true,
				"type": "text",
				"text": "LH"
			},
			{
				"deltaTime": 960,
				"channel": 1,
				"type": "noteOn",
				"noteNumber": 50,
				"velocity": 64
			},
			{
				"deltaTime": 60,
				"channel": 1,
				"type": "noteOff",
				"noteNumber": 50,
				"velocity": 64
			},
			{
				"deltaTime": 0,
				"channel": 1,
				"type": "noteOn",
				"noteNumber": 52,
				"velocity": 64
			},
			{
				"deltaTime": 60,
				"channel": 1,
				"type": "noteOff",
				"noteNumber": 52,
				"velocity": 64
			},
			{
				"deltaTime": 0,
				"channel": 1,
				"type": "noteOn",
				"noteNumber": 54,
				"velocity": 64
			},
			{
				"deltaTime": 60,
				"channel": 1,
				"type": "noteOff",
				"noteNumber": 54,
				"velocity": 64
			},
			{
				"deltaTime": 0,
				"channel": 1,
				"type": "noteOn",
				"noteNumber": 52,
				"velocity": 64
			},
			{
				"deltaTime": 60,
				"channel": 1,
				"type": "noteOff",
				"noteNumber": 52,
				"velocity": 64
			},
			{
				"deltaTime": 0,
				"channel": 1,
				"type": "noteOn",
				"noteNumber": 55,
				"velocity": 64
			},
			{
				"deltaTime": 60,
				"channel": 1,
				"type": "noteOff",
				"noteNumber": 55,
				"velocity": 64
			},
			{
				"deltaTime": 0,
				"channel": 1,
				"type": "noteOn",
				"noteNumber": 54,
				"velocity": 64
			},
			{
				"deltaTime": 60,
				"channel": 1,
				"type": "noteOff",
				"noteNumber": 54,
				"velocity": 64
			},
			{
				"deltaTime": 0,
				"channel": 1,
				"type": "noteOn",
				"noteNumber": 52,
				"velocity": 64
			},
			{
				"deltaTime": 60,
				"channel": 1,
				"type": "noteOff",
				"noteNumber": 52,
				"velocity": 64
			},
			{
				"deltaTime": 0,
				"channel": 1,
				"type": "noteOn",
				"noteNumber": 50,
				"velocity": 64
			},
			{
				"deltaTime": 60,
				"channel": 1,
				"type": "noteOff",
				"noteNumber": 50,
				"velocity": 64
			},
			{
				"deltaTime": 0,
				"channel": 1,
				"type": "noteOn",
				"noteNumber": 57,
				"velocity": 64
			},
			{
				"deltaTime": 60,
				"channel": 1,
				"type": "noteOff",
				"noteNumber": 57,
				"velocity": 64
			},
			{
				"deltaTime": 0,
				"channel": 1,
				"type": "noteOn",
				"noteNumber": 55,
				"velocity": 64
			},
			{
				"deltaTime": 60,
				"channel": 1,
				"type": "noteOff",
				"noteNumber": 55,
				"velocity": 64
			},
			{
				"deltaTime": 0,
				"channel": 1,
				"type": "noteOn",
				"noteNumber": 54,
				"velocity": 64
			},
			{
				"deltaTime": 60,
				"channel": 1,
				"type": "noteOff",
				"noteNumber": 54,
				"velocity": 64
			},
			{
				"deltaTime": 0,
				"channel": 1,
				"type": "noteOn",
				"noteNumber": 52,
				"velocity": 64
			},
			{
				"deltaTime": 60,
				"channel": 1,
				"type": "noteOff",
				"noteNumber": 52,
				"velocity": 64
			},
			{
				"deltaTime": 0,
				"channel": 1,
				"type": "noteOn",
				"noteNumber": 54,
				"velocity": 64
			},
			{
				"deltaTime": 60,
				"channel": 1,
				"type": "noteOff",
				"noteNumber": 54,
				"velocity": 64
			},
			{
				"deltaTime": 0,
				"channel": 1,
				"type": "noteOn",
				"noteNumber": 50,
				"velocity": 64
			},
			{
				"deltaTime": 60,
				"channel": 1,
				"type": "noteOff",
				"noteNumber": 50,
				"velocity": 64
			},
			{
				"deltaTime": 0,
				"channel": 1,
				"type": "noteOn",
				"noteNumber": 57,
				"velocity": 64
			},
			{
				"deltaTime": 120,
				"channel": 1,
				"type": "noteOff",
				"noteNumber": 57,
				"velocity": 64
			},
			{
				"deltaTime": 0,
				"channel": 1,
				"type": "noteOn",
				"noteNumber": 45,
				"velocity": 64
			},
			{
				"deltaTime": 120,
				"channel": 1,
				"type": "noteOff",
				"noteNumber": 45,
				"velocity": 64
			},
			{
				"deltaTime": 0,
				"channel": 1,
				"type": "noteOn",
				"noteNumber": 57,
				"velocity": 64
			},
			{
				"deltaTime": 110,
				"channel": 1,
				"type": "noteOff",
				"noteNumber": 57,
				"velocity": 64
			},
			{
				"deltaTime": 10,
				"channel": 1,
				"type": "noteOn",
				"noteNumber": 57,
				"velocity": 64
			},
			{
				"deltaTime": 120,
				"channel": 1,
				"type": "noteOff",
				"noteNumber": 57,
				"velocity": 64
			},
			{
				"deltaTime": 0,
				"channel": 1,
				"type": "noteOn",
				"noteNumber": 45,
				"velocity": 64
			},
			{
				"deltaTime": 120,
				"channel": 1,
				"type": "noteOff",
				"noteNumber": 45,
				"velocity": 64
			},
			{
				"deltaTime": 0,
				"channel": 1,
				"type": "noteOn",
				"noteNumber": 57,
				"velocity": 64
			},
			{
				"deltaTime": 110,
				"channel": 1,
				"type": "noteOff",
				"noteNumber": 57,
				"velocity": 64
			},
			{
				"deltaTime": 10,
				"channel": 1,
				"type": "noteOn",
				"noteNumber": 57,
				"velocity": 64
			},
			{
				"deltaTime": 120,
				"channel": 1,
				"type": "noteOff",
				"noteNumber": 57,
				"velocity": 64
			},
			{
				"deltaTime": 0,
				"channel": 1,
				"type": "noteOn",
				"noteNumber": 45,
				"velocity": 64
			},
			{
				"deltaTime": 120,
				"channel": 1,
				"type": "noteOff",
				"noteNumber": 45,
				"velocity": 64
			},
			{
				"deltaTime": 0,
				"channel": 1,
				"type": "noteOn",
				"noteNumber": 57,
				"velocity": 64
			},
			{
				"deltaTime": 110,
				"channel": 1,
				"type": "noteOff",
				"noteNumber": 57,
				"velocity": 64
			},
			{
				"deltaTime": 10,
				"channel": 1,
				"type": "noteOn",
				"noteNumber": 57,
				"velocity": 64
			},
			{
				"deltaTime": 120,
				"channel": 1,
				"type": "noteOff",
				"noteNumber": 57,
				"velocity": 64
			},
			{
				"deltaTime": 0,
				"channel": 1,
				"type": "noteOn",
				"noteNumber": 45,
				"velocity": 64
			},
			{
				"deltaTime": 120,
				"channel": 1,
				"type": "noteOff",
				"noteNumber": 45,
				"velocity": 64
			},
			{
				"deltaTime": 0,
				"channel": 1,
				"type": "noteOn",
				"noteNumber": 57,
				"velocity": 64
			},
			{
				"deltaTime": 110,
				"channel": 1,
				"type": "noteOff",
				"noteNumber": 57,
				"velocity": 64
			},
			{
				"deltaTime": 10,
				"channel": 1,
				"type": "noteOn",
				"noteNumber": 57,
				"velocity": 64
			},
			{
				"deltaTime": 120,
				"channel": 1,
				"type": "noteOff",
				"noteNumber": 57,
				"velocity": 64
			},
			{
				"deltaTime": 0,
				"channel": 1,
				"type": "noteOn",
				"noteNumber": 59,
				"velocity": 64
			},
			{
				"deltaTime": 120,
				"channel": 1,
				"type": "noteOff",
				"noteNumber": 59,
				"velocity": 64
			},
			{
				"deltaTime": 0,
				"channel": 1,
				"type": "noteOn",
				"noteNumber": 61,
				"velocity": 64
			},
			{
				"deltaTime": 120,
				"channel": 1,
				"type": "noteOff",
				"noteNumber": 61,
				"velocity": 64
			},
			{
				"deltaTime": 0,
				"channel": 1,
				"type": "noteOn",
				"noteNumber": 62,
				"velocity": 64
			},
			{
				"deltaTime": 60,
				"channel": 1,
				"type": "noteOff",
				"noteNumber": 62,
				"velocity": 64
			},
			{
				"deltaTime": 0,
				"channel": 1,
				"type": "noteOn",
				"noteNumber": 61,
				"velocity": 64
			},
			{
				"deltaTime": 60,
				"channel": 1,
				"type": "noteOff",
				"noteNumber": 61,
				"velocity": 64
			},
			{
				"deltaTime": 0,
				"channel": 1,
				"type": "noteOn",
				"noteNumber": 64,
				"velocity": 64
			},
			{
				"deltaTime": 60,
				"channel": 1,
				"type": "noteOff",
				"noteNumber": 64,
				"velocity": 64
			},
			{
				"deltaTime": 0,
				"channel": 1,
				"type": "noteOn",
				"noteNumber": 62,
				"velocity": 64
			},
			{
				"deltaTime": 60,
				"channel": 1,
				"type": "noteOff",
				"noteNumber": 62,
				"velocity": 64
			},
			{
				"deltaTime": 0,
				"channel": 1,
				"type": "noteOn",
				"noteNumber": 61,
				"velocity": 64
			},
			{
				"deltaTime": 60,
				"channel": 1,
				"type": "noteOff",
				"noteNumber": 61,
				"velocity": 64
			},
			{
				"deltaTime": 0,
				"channel": 1,
				"type": "noteOn",
				"noteNumber": 59,
				"velocity": 64
			},
			{
				"deltaTime": 60,
				"channel": 1,
				"type": "noteOff",
				"noteNumber": 59,
				"velocity": 64
			},
			{
				"deltaTime": 0,
				"channel": 1,
				"type": "noteOn",
				"noteNumber": 61,
				"velocity": 64
			},
			{
				"deltaTime": 60,
				"channel": 1,
				"type": "noteOff",
				"noteNumber": 61,
				"velocity": 64
			},
			{
				"deltaTime": 0,
				"channel": 1,
				"type": "noteOn",
				"noteNumber": 62,
				"velocity": 64
			},
			{
				"deltaTime": 60,
				"channel": 1,
				"type": "noteOff",
				"noteNumber": 62,
				"velocity": 64
			},
			{
				"deltaTime": 0,
				"channel": 1,
				"type": "noteOn",
				"noteNumber": 64,
				"velocity": 64
			},
			{
				"deltaTime": 120,
				"channel": 1,
				"type": "noteOff",
				"noteNumber": 64,
				"velocity": 64
			},
			{
				"deltaTime": 0,
				"channel": 1,
				"type": "noteOn",
				"noteNumber": 52,
				"velocity": 64
			},
			{
				"deltaTime": 120,
				"channel": 1,
				"type": "noteOff",
				"noteNumber": 52,
				"velocity": 64
			},
			{
				"deltaTime": 0,
				"channel": 1,
				"type": "noteOn",
				"noteNumber": 57,
				"velocity": 64
			},
			{
				"deltaTime": 60,
				"channel": 1,
				"type": "noteOff",
				"noteNumber": 57,
				"velocity": 64
			},
			{
				"deltaTime": 0,
				"channel": 1,
				"type": "noteOn",
				"noteNumber": 52,
				"velocity": 64
			},
			{
				"deltaTime": 60,
				"channel": 1,
				"type": "noteOff",
				"noteNumber": 52,
				"velocity": 64
			},
			{
				"deltaTime": 0,
				"channel": 1,
				"type": "noteOn",
				"noteNumber": 54,
				"velocity": 64
			},
			{
				"deltaTime": 60,
				"channel": 1,
				"type": "noteOff",
				"noteNumber": 54,
				"velocity": 64
			},
			{
				"deltaTime": 0,
				"channel": 1,
				"type": "noteOn",
				"noteNumber": 56,
				"velocity": 64
			},
			{
				"deltaTime": 60,
				"channel": 1,
				"type": "noteOff",
				"noteNumber": 56,
				"velocity": 64
			},
			{
				"deltaTime": 0,
				"channel": 1,
				"type": "noteOn",
				"noteNumber": 57,
				"velocity": 64
			},
			{
				"deltaTime": 60,
				"channel": 1,
				"type": "noteOff",
				"noteNumber": 57,
				"velocity": 64
			},
			{
				"deltaTime": 0,
				"channel": 1,
				"type": "noteOn",
				"noteNumber": 59,
				"velocity": 64
			},
			{
				"deltaTime": 60,
				"channel": 1,
				"type": "noteOff",
				"noteNumber": 59,
				"velocity": 64
			},
			{
				"deltaTime": 0,
				"channel": 1,
				"type": "noteOn",
				"noteNumber": 61,
				"velocity": 64
			},
			{
				"deltaTime": 60,
				"channel": 1,
				"type": "noteOff",
				"noteNumber": 61,
				"velocity": 64
			},
			{
				"deltaTime": 0,
				"channel": 1,
				"type": "noteOn",
				"noteNumber": 59,
				"velocity": 64
			},
			{
				"deltaTime": 60,
				"channel": 1,
				"type": "noteOff",
				"noteNumber": 59,
				"velocity": 64
			},
			{
				"deltaTime": 0,
				"channel": 1,
				"type": "noteOn",
				"noteNumber": 62,
				"velocity": 64
			},
			{
				"deltaTime": 60,
				"channel": 1,
				"type": "noteOff",
				"noteNumber": 62,
				"velocity": 64
			},
			{
				"deltaTime": 0,
				"channel": 1,
				"type": "noteOn",
				"noteNumber": 61,
				"velocity": 64
			},
			{
				"deltaTime": 60,
				"channel": 1,
				"type": "noteOff",
				"noteNumber": 61,
				"velocity": 64
			},
			{
				"deltaTime": 0,
				"channel": 1,
				"type": "noteOn",
				"noteNumber": 59,
				"velocity": 64
			},
			{
				"deltaTime": 60,
				"channel": 1,
				"type": "noteOff",
				"noteNumber": 59,
				"velocity": 64
			},
			{
				"deltaTime": 0,
				"channel": 1,
				"type": "noteOn",
				"noteNumber": 57,
				"velocity": 64
			},
			{
				"deltaTime": 60,
				"channel": 1,
				"type": "noteOff",
				"noteNumber": 57,
				"velocity": 64
			},
			{
				"deltaTime": 0,
				"channel": 1,
				"type": "noteOn",
				"noteNumber": 64,
				"velocity": 64
			},
			{
				"deltaTime": 120,
				"channel": 1,
				"type": "noteOff",
				"noteNumber": 64,
				"velocity": 64
			},
			{
				"deltaTime": 0,
				"channel": 1,
				"type": "noteOn",
				"noteNumber": 52,
				"velocity": 64
			},
			{
				"deltaTime": 120,
				"channel": 1,
				"type": "noteOff",
				"noteNumber": 52,
				"velocity": 64
			},
			{
				"deltaTime": 240,
				"channel": 1,
				"type": "noteOn",
				"noteNumber": 59,
				"velocity": 64
			},
			{
				"deltaTime": 120,
				"channel": 1,
				"type": "noteOff",
				"noteNumber": 59,
				"velocity": 64
			},
			{
				"deltaTime": 0,
				"channel": 1,
				"type": "noteOn",
				"noteNumber": 64,
				"velocity": 64
			},
			{
				"deltaTime": 180,
				"channel": 1,
				"type": "noteOff",
				"noteNumber": 64,
				"velocity": 64
			},
			{
				"deltaTime": 0,
				"channel": 1,
				"type": "noteOn",
				"noteNumber": 54,
				"velocity": 64
			},
			{
				"deltaTime": 60,
				"channel": 1,
				"type": "noteOff",
				"noteNumber": 54,
				"velocity": 64
			},
			{
				"deltaTime": 0,
				"channel": 1,
				"type": "noteOn",
				"noteNumber": 56,
				"velocity": 64
			},
			{
				"deltaTime": 60,
				"channel": 1,
				"type": "noteOff",
				"noteNumber": 56,
				"velocity": 64
			},
			{
				"deltaTime": 0,
				"channel": 1,
				"type": "noteOn",
				"noteNumber": 58,
				"velocity": 64
			},
			{
				"deltaTime": 60,
				"channel": 1,
				"type": "noteOff",
				"noteNumber": 58,
				"velocity": 64
			},
			{
				"deltaTime": 0,
				"channel": 1,
				"type": "noteOn",
				"noteNumber": 59,
				"velocity": 64
			},
			{
				"deltaTime": 60,
				"channel": 1,
				"type": "noteOff",
				"noteNumber": 59,
				"velocity": 64
			},
			{
				"deltaTime": 0,
				"channel": 1,
				"type": "noteOn",
				"noteNumber": 61,
				"velocity": 64
			},
			{
				"deltaTime": 60,
				"channel": 1,
				"type": "noteOff",
				"noteNumber": 61,
				"velocity": 64
			},
			{
				"deltaTime": 0,
				"channel": 1,
				"type": "noteOn",
				"noteNumber": 62,
				"velocity": 64
			},
			{
				"deltaTime": 60,
				"channel": 1,
				"type": "noteOff",
				"noteNumber": 62,
				"velocity": 64
			},
			{
				"deltaTime": 0,
				"channel": 1,
				"type": "noteOn",
				"noteNumber": 61,
				"velocity": 64
			},
			{
				"deltaTime": 60,
				"channel": 1,
				"type": "noteOff",
				"noteNumber": 61,
				"velocity": 64
			},
			{
				"deltaTime": 0,
				"channel": 1,
				"type": "noteOn",
				"noteNumber": 64,
				"velocity": 64
			},
			{
				"deltaTime": 60,
				"channel": 1,
				"type": "noteOff",
				"noteNumber": 64,
				"velocity": 64
			},
			{
				"deltaTime": 0,
				"channel": 1,
				"type": "noteOn",
				"noteNumber": 62,
				"velocity": 64
			},
			{
				"deltaTime": 60,
				"channel": 1,
				"type": "noteOff",
				"noteNumber": 62,
				"velocity": 64
			},
			{
				"deltaTime": 0,
				"channel": 1,
				"type": "noteOn",
				"noteNumber": 61,
				"velocity": 64
			},
			{
				"deltaTime": 60,
				"channel": 1,
				"type": "noteOff",
				"noteNumber": 61,
				"velocity": 64
			},
			{
				"deltaTime": 0,
				"channel": 1,
				"type": "noteOn",
				"noteNumber": 59,
				"velocity": 64
			},
			{
				"deltaTime": 60,
				"channel": 1,
				"type": "noteOff",
				"noteNumber": 59,
				"velocity": 64
			},
			{
				"deltaTime": 0,
				"channel": 1,
				"type": "noteOn",
				"noteNumber": 66,
				"velocity": 64
			},
			{
				"deltaTime": 120,
				"channel": 1,
				"type": "noteOff",
				"noteNumber": 66,
				"velocity": 64
			},
			{
				"deltaTime": 0,
				"channel": 1,
				"type": "noteOn",
				"noteNumber": 54,
				"velocity": 64
			},
			{
				"deltaTime": 120,
				"channel": 1,
				"type": "noteOff",
				"noteNumber": 54,
				"velocity": 64
			},
			{
				"deltaTime": 0,
				"channel": 1,
				"type": "noteOn",
				"noteNumber": 64,
				"velocity": 64
			},
			{
				"deltaTime": 120,
				"channel": 1,
				"type": "noteOff",
				"noteNumber": 64,
				"velocity": 64
			},
			{
				"deltaTime": 0,
				"channel": 1,
				"type": "noteOn",
				"noteNumber": 62,
				"velocity": 64
			},
			{
				"deltaTime": 120,
				"channel": 1,
				"type": "noteOff",
				"noteNumber": 62,
				"velocity": 64
			},
			{
				"deltaTime": 0,
				"channel": 1,
				"type": "noteOn",
				"noteNumber": 71,
				"velocity": 64
			},
			{
				"deltaTime": 60,
				"channel": 1,
				"type": "noteOff",
				"noteNumber": 71,
				"velocity": 64
			},
			{
				"deltaTime": 0,
				"channel": 1,
				"type": "noteOn",
				"noteNumber": 70,
				"velocity": 64
			},
			{
				"deltaTime": 60,
				"channel": 1,
				"type": "noteOff",
				"noteNumber": 70,
				"velocity": 64
			},
			{
				"deltaTime": 0,
				"channel": 1,
				"type": "noteOn",
				"noteNumber": 71,
				"velocity": 64
			},
			{
				"deltaTime": 120,
				"channel": 1,
				"type": "noteOff",
				"noteNumber": 71,
				"velocity": 64
			},
			{
				"deltaTime": 0,
				"channel": 1,
				"type": "noteOn",
				"noteNumber": 61,
				"velocity": 64
			},
			{
				"deltaTime": 120,
				"channel": 1,
				"type": "noteOff",
				"noteNumber": 61,
				"velocity": 64
			},
			{
				"deltaTime": 0,
				"channel": 1,
				"type": "noteOn",
				"noteNumber": 70,
				"velocity": 64
			},
			{
				"deltaTime": 60,
				"channel": 1,
				"type": "noteOff",
				"noteNumber": 70,
				"velocity": 64
			},
			{
				"deltaTime": 0,
				"channel": 1,
				"type": "noteOn",
				"noteNumber": 68,
				"velocity": 64
			},
			{
				"deltaTime": 60,
				"channel": 1,
				"type": "noteOff",
				"noteNumber": 68,
				"velocity": 64
			},
			{
				"deltaTime": 0,
				"channel": 1,
				"type": "noteOn",
				"noteNumber": 70,
				"velocity": 64
			},
			{
				"deltaTime": 120,
				"channel": 1,
				"type": "noteOff",
				"noteNumber": 70,
				"velocity": 64
			},
			{
				"deltaTime": 0,
				"channel": 1,
				"type": "noteOn",
				"noteNumber": 71,
				"velocity": 64
			},
			{
				"deltaTime": 60,
				"channel": 1,
				"type": "noteOff",
				"noteNumber": 71,
				"velocity": 64
			},
			{
				"deltaTime": 0,
				"channel": 1,
				"type": "noteOn",
				"noteNumber": 69,
				"velocity": 64
			},
			{
				"deltaTime": 60,
				"channel": 1,
				"type": "noteOff",
				"noteNumber": 69,
				"velocity": 64
			},
			{
				"deltaTime": 0,
				"channel": 1,
				"type": "noteOn",
				"noteNumber": 67,
				"velocity": 64
			},
			{
				"deltaTime": 60,
				"channel": 1,
				"type": "noteOff",
				"noteNumber": 67,
				"velocity": 64
			},
			{
				"deltaTime": 0,
				"channel": 1,
				"type": "noteOn",
				"noteNumber": 66,
				"velocity": 64
			},
			{
				"deltaTime": 60,
				"channel": 1,
				"type": "noteOff",
				"noteNumber": 66,
				"velocity": 64
			},
			{
				"deltaTime": 0,
				"channel": 1,
				"type": "noteOn",
				"noteNumber": 64,
				"velocity": 64
			},
			{
				"deltaTime": 60,
				"channel": 1,
				"type": "noteOff",
				"noteNumber": 64,
				"velocity": 64
			},
			{
				"deltaTime": 0,
				"channel": 1,
				"type": "noteOn",
				"noteNumber": 62,
				"velocity": 64
			},
			{
				"deltaTime": 60,
				"channel": 1,
				"type": "noteOff",
				"noteNumber": 62,
				"velocity": 64
			},
			{
				"deltaTime": 0,
				"channel": 1,
				"type": "noteOn",
				"noteNumber": 64,
				"velocity": 64
			},
			{
				"deltaTime": 60,
				"channel": 1,
				"type": "noteOff",
				"noteNumber": 64,
				"velocity": 64
			},
			{
				"deltaTime": 0,
				"channel": 1,
				"type": "noteOn",
				"noteNumber": 62,
				"velocity": 64
			},
			{
				"deltaTime": 60,
				"channel": 1,
				"type": "noteOff",
				"noteNumber": 62,
				"velocity": 64
			},
			{
				"deltaTime": 0,
				"channel": 1,
				"type": "noteOn",
				"noteNumber": 66,
				"velocity": 64
			},
			{
				"deltaTime": 60,
				"channel": 1,
				"type": "noteOff",
				"noteNumber": 66,
				"velocity": 64
			},
			{
				"deltaTime": 0,
				"channel": 1,
				"type": "noteOn",
				"noteNumber": 64,
				"velocity": 64
			},
			{
				"deltaTime": 60,
				"channel": 1,
				"type": "noteOff",
				"noteNumber": 64,
				"velocity": 64
			},
			{
				"deltaTime": 0,
				"channel": 1,
				"type": "noteOn",
				"noteNumber": 62,
				"velocity": 64
			},
			{
				"deltaTime": 60,
				"channel": 1,
				"type": "noteOff",
				"noteNumber": 62,
				"velocity": 64
			},
			{
				"deltaTime": 0,
				"channel": 1,
				"type": "noteOn",
				"noteNumber": 61,
				"velocity": 64
			},
			{
				"deltaTime": 60,
				"channel": 1,
				"type": "noteOff",
				"noteNumber": 61,
				"velocity": 64
			},
			{
				"deltaTime": 0,
				"channel": 1,
				"type": "noteOn",
				"noteNumber": 62,
				"velocity": 64
			},
			{
				"deltaTime": 60,
				"channel": 1,
				"type": "noteOff",
				"noteNumber": 62,
				"velocity": 64
			},
			{
				"deltaTime": 0,
				"channel": 1,
				"type": "noteOn",
				"noteNumber": 64,
				"velocity": 64
			},
			{
				"deltaTime": 60,
				"channel": 1,
				"type": "noteOff",
				"noteNumber": 64,
				"velocity": 64
			},
			{
				"deltaTime": 0,
				"channel": 1,
				"type": "noteOn",
				"noteNumber": 66,
				"velocity": 64
			},
			{
				"deltaTime": 120,
				"channel": 1,
				"type": "noteOff",
				"noteNumber": 66,
				"velocity": 64
			},
			{
				"deltaTime": 0,
				"channel": 1,
				"type": "noteOn",
				"noteNumber": 54,
				"velocity": 64
			},
			{
				"deltaTime": 120,
				"channel": 1,
				"type": "noteOff",
				"noteNumber": 54,
				"velocity": 64
			},
			{
				"deltaTime": 0,
				"channel": 1,
				"type": "noteOn",
				"noteNumber": 59,
				"velocity": 64
			},
			{
				"deltaTime": 120,
				"channel": 1,
				"type": "noteOff",
				"noteNumber": 59,
				"velocity": 64
			},
			{
				"deltaTime": 0,
				"channel": 1,
				"type": "noteOn",
				"noteNumber": 54,
				"velocity": 64
			},
			{
				"deltaTime": 120,
				"channel": 1,
				"type": "noteOff",
				"noteNumber": 54,
				"velocity": 64
			},
			{
				"deltaTime": 0,
				"channel": 1,
				"type": "noteOn",
				"noteNumber": 50,
				"velocity": 64
			},
			{
				"deltaTime": 120,
				"channel": 1,
				"type": "noteOff",
				"noteNumber": 50,
				"velocity": 64
			},
			{
				"deltaTime": 0,
				"channel": 1,
				"type": "noteOn",
				"noteNumber": 47,
				"velocity": 64
			},
			{
				"deltaTime": 240,
				"channel": 1,
				"type": "noteOff",
				"noteNumber": 47,
				"velocity": 64
			},
			{
				"deltaTime": 180,
				"channel": 1,
				"type": "noteOn",
				"noteNumber": 47,
				"velocity": 64
			},
			{
				"deltaTime": 60,
				"channel": 1,
				"type": "noteOff",
				"noteNumber": 47,
				"velocity": 64
			},
			{
				"deltaTime": 0,
				"channel": 1,
				"type": "noteOn",
				"noteNumber": 49,
				"velocity": 64
			},
			{
				"deltaTime": 60,
				"channel": 1,
				"type": "noteOff",
				"noteNumber": 49,
				"velocity": 64
			},
			{
				"deltaTime": 0,
				"channel": 1,
				"type": "noteOn",
				"noteNumber": 51,
				"velocity": 64
			},
			{
				"deltaTime": 60,
				"channel": 1,
				"type": "noteOff",
				"noteNumber": 51,
				"velocity": 64
			},
			{
				"deltaTime": 0,
				"channel": 1,
				"type": "noteOn",
				"noteNumber": 52,
				"velocity": 64
			},
			{
				"deltaTime": 60,
				"channel": 1,
				"type": "noteOff",
				"noteNumber": 52,
				"velocity": 64
			},
			{
				"deltaTime": 0,
				"channel": 1,
				"type": "noteOn",
				"noteNumber": 54,
				"velocity": 64
			},
			{
				"deltaTime": 60,
				"channel": 1,
				"type": "noteOff",
				"noteNumber": 54,
				"velocity": 64
			},
			{
				"deltaTime": 0,
				"channel": 1,
				"type": "noteOn",
				"noteNumber": 55,
				"velocity": 64
			},
			{
				"deltaTime": 60,
				"channel": 1,
				"type": "noteOff",
				"noteNumber": 55,
				"velocity": 64
			},
			{
				"deltaTime": 0,
				"channel": 1,
				"type": "noteOn",
				"noteNumber": 54,
				"velocity": 64
			},
			{
				"deltaTime": 60,
				"channel": 1,
				"type": "noteOff",
				"noteNumber": 54,
				"velocity": 64
			},
			{
				"deltaTime": 0,
				"channel": 1,
				"type": "noteOn",
				"noteNumber": 57,
				"velocity": 64
			},
			{
				"deltaTime": 60,
				"channel": 1,
				"type": "noteOff",
				"noteNumber": 57,
				"velocity": 64
			},
			{
				"deltaTime": 0,
				"channel": 1,
				"type": "noteOn",
				"noteNumber": 55,
				"velocity": 64
			},
			{
				"deltaTime": 60,
				"channel": 1,
				"type": "noteOff",
				"noteNumber": 55,
				"velocity": 64
			},
			{
				"deltaTime": 0,
				"channel": 1,
				"type": "noteOn",
				"noteNumber": 54,
				"velocity": 64
			},
			{
				"deltaTime": 60,
				"channel": 1,
				"type": "noteOff",
				"noteNumber": 54,
				"velocity": 64
			},
			{
				"deltaTime": 0,
				"channel": 1,
				"type": "noteOn",
				"noteNumber": 52,
				"velocity": 64
			},
			{
				"deltaTime": 60,
				"channel": 1,
				"type": "noteOff",
				"noteNumber": 52,
				"velocity": 64
			},
			{
				"deltaTime": 0,
				"channel": 1,
				"type": "noteOn",
				"noteNumber": 57,
				"velocity": 64
			},
			{
				"deltaTime": 770,
				"channel": 1,
				"type": "noteOff",
				"noteNumber": 57,
				"velocity": 64
			},
			{
				"deltaTime": 10,
				"channel": 1,
				"type": "noteOn",
				"noteNumber": 45,
				"velocity": 64
			},
			{
				"deltaTime": 60,
				"channel": 1,
				"type": "noteOff",
				"noteNumber": 45,
				"velocity": 64
			},
			{
				"deltaTime": 0,
				"channel": 1,
				"type": "noteOn",
				"noteNumber": 47,
				"velocity": 64
			},
			{
				"deltaTime": 60,
				"channel": 1,
				"type": "noteOff",
				"noteNumber": 47,
				"velocity": 64
			},
			{
				"deltaTime": 0,
				"channel": 1,
				"type": "noteOn",
				"noteNumber": 49,
				"velocity": 64
			},
			{
				"deltaTime": 60,
				"channel": 1,
				"type": "noteOff",
				"noteNumber": 49,
				"velocity": 64
			},
			{
				"deltaTime": 0,
				"channel": 1,
				"type": "noteOn",
				"noteNumber": 50,
				"velocity": 64
			},
			{
				"deltaTime": 60,
				"channel": 1,
				"type": "noteOff",
				"noteNumber": 50,
				"velocity": 64
			},
			{
				"deltaTime": 0,
				"channel": 1,
				"type": "noteOn",
				"noteNumber": 52,
				"velocity": 64
			},
			{
				"deltaTime": 60,
				"channel": 1,
				"type": "noteOff",
				"noteNumber": 52,
				"velocity": 64
			},
			{
				"deltaTime": 0,
				"channel": 1,
				"type": "noteOn",
				"noteNumber": 54,
				"velocity": 64
			},
			{
				"deltaTime": 60,
				"channel": 1,
				"type": "noteOff",
				"noteNumber": 54,
				"velocity": 64
			},
			{
				"deltaTime": 0,
				"channel": 1,
				"type": "noteOn",
				"noteNumber": 52,
				"velocity": 64
			},
			{
				"deltaTime": 60,
				"channel": 1,
				"type": "noteOff",
				"noteNumber": 52,
				"velocity": 64
			},
			{
				"deltaTime": 0,
				"channel": 1,
				"type": "noteOn",
				"noteNumber": 55,
				"velocity": 64
			},
			{
				"deltaTime": 60,
				"channel": 1,
				"type": "noteOff",
				"noteNumber": 55,
				"velocity": 64
			},
			{
				"deltaTime": 0,
				"channel": 1,
				"type": "noteOn",
				"noteNumber": 54,
				"velocity": 64
			},
			{
				"deltaTime": 60,
				"channel": 1,
				"type": "noteOff",
				"noteNumber": 54,
				"velocity": 64
			},
			{
				"deltaTime": 0,
				"channel": 1,
				"type": "noteOn",
				"noteNumber": 52,
				"velocity": 64
			},
			{
				"deltaTime": 60,
				"channel": 1,
				"type": "noteOff",
				"noteNumber": 52,
				"velocity": 64
			},
			{
				"deltaTime": 0,
				"channel": 1,
				"type": "noteOn",
				"noteNumber": 50,
				"velocity": 64
			},
			{
				"deltaTime": 60,
				"channel": 1,
				"type": "noteOff",
				"noteNumber": 50,
				"velocity": 64
			},
			{
				"deltaTime": 0,
				"channel": 1,
				"type": "noteOn",
				"noteNumber": 56,
				"velocity": 64
			},
			{
				"deltaTime": 180,
				"channel": 1,
				"type": "noteOff",
				"noteNumber": 56,
				"velocity": 64
			},
			{
				"deltaTime": 0,
				"channel": 1,
				"type": "noteOn",
				"noteNumber": 52,
				"velocity": 64
			},
			{
				"deltaTime": 60,
				"channel": 1,
				"type": "noteOff",
				"noteNumber": 52,
				"velocity": 64
			},
			{
				"deltaTime": 0,
				"channel": 1,
				"type": "noteOn",
				"noteNumber": 54,
				"velocity": 64
			},
			{
				"deltaTime": 60,
				"channel": 1,
				"type": "noteOff",
				"noteNumber": 54,
				"velocity": 64
			},
			{
				"deltaTime": 0,
				"channel": 1,
				"type": "noteOn",
				"noteNumber": 56,
				"velocity": 64
			},
			{
				"deltaTime": 60,
				"channel": 1,
				"type": "noteOff",
				"noteNumber": 56,
				"velocity": 64
			},
			{
				"deltaTime": 0,
				"channel": 1,
				"type": "noteOn",
				"noteNumber": 57,
				"velocity": 64
			},
			{
				"deltaTime": 60,
				"channel": 1,
				"type": "noteOff",
				"noteNumber": 57,
				"velocity": 64
			},
			{
				"deltaTime": 0,
				"channel": 1,
				"type": "noteOn",
				"noteNumber": 56,
				"velocity": 64
			},
			{
				"deltaTime": 60,
				"channel": 1,
				"type": "noteOff",
				"noteNumber": 56,
				"velocity": 64
			},
			{
				"deltaTime": 0,
				"channel": 1,
				"type": "noteOn",
				"noteNumber": 54,
				"velocity": 64
			},
			{
				"deltaTime": 60,
				"channel": 1,
				"type": "noteOff",
				"noteNumber": 54,
				"velocity": 64
			},
			{
				"deltaTime": 0,
				"channel": 1,
				"type": "noteOn",
				"noteNumber": 52,
				"velocity": 64
			},
			{
				"deltaTime": 60,
				"channel": 1,
				"type": "noteOff",
				"noteNumber": 52,
				"velocity": 64
			},
			{
				"deltaTime": 0,
				"channel": 1,
				"type": "noteOn",
				"noteNumber": 50,
				"velocity": 64
			},
			{
				"deltaTime": 60,
				"channel": 1,
				"type": "noteOff",
				"noteNumber": 50,
				"velocity": 64
			},
			{
				"deltaTime": 0,
				"channel": 1,
				"type": "noteOn",
				"noteNumber": 54,
				"velocity": 64
			},
			{
				"deltaTime": 60,
				"channel": 1,
				"type": "noteOff",
				"noteNumber": 54,
				"velocity": 64
			},
			{
				"deltaTime": 0,
				"channel": 1,
				"type": "noteOn",
				"noteNumber": 52,
				"velocity": 64
			},
			{
				"deltaTime": 60,
				"channel": 1,
				"type": "noteOff",
				"noteNumber": 52,
				"velocity": 64
			},
			{
				"deltaTime": 0,
				"channel": 1,
				"type": "noteOn",
				"noteNumber": 50,
				"velocity": 64
			},
			{
				"deltaTime": 60,
				"channel": 1,
				"type": "noteOff",
				"noteNumber": 50,
				"velocity": 64
			},
			{
				"deltaTime": 0,
				"channel": 1,
				"type": "noteOn",
				"noteNumber": 49,
				"velocity": 64
			},
			{
				"deltaTime": 60,
				"channel": 1,
				"type": "noteOff",
				"noteNumber": 49,
				"velocity": 64
			},
			{
				"deltaTime": 0,
				"channel": 1,
				"type": "noteOn",
				"noteNumber": 47,
				"velocity": 64
			},
			{
				"deltaTime": 60,
				"channel": 1,
				"type": "noteOff",
				"noteNumber": 47,
				"velocity": 64
			},
			{
				"deltaTime": 0,
				"channel": 1,
				"type": "noteOn",
				"noteNumber": 49,
				"velocity": 64
			},
			{
				"deltaTime": 60,
				"channel": 1,
				"type": "noteOff",
				"noteNumber": 49,
				"velocity": 64
			},
			{
				"deltaTime": 0,
				"channel": 1,
				"type": "noteOn",
				"noteNumber": 45,
				"velocity": 64
			},
			{
				"deltaTime": 60,
				"channel": 1,
				"type": "noteOff",
				"noteNumber": 45,
				"velocity": 64
			},
			{
				"deltaTime": 0,
				"channel": 1,
				"type": "noteOn",
				"noteNumber": 57,
				"velocity": 64
			},
			{
				"deltaTime": 120,
				"channel": 1,
				"type": "noteOff",
				"noteNumber": 57,
				"velocity": 64
			},
			{
				"deltaTime": 0,
				"channel": 1,
				"type": "noteOn",
				"noteNumber": 54,
				"velocity": 64
			},
			{
				"deltaTime": 120,
				"channel": 1,
				"type": "noteOff",
				"noteNumber": 54,
				"velocity": 64
			},
			{
				"deltaTime": 0,
				"channel": 1,
				"type": "noteOn",
				"noteNumber": 49,
				"velocity": 64
			},
			{
				"deltaTime": 120,
				"channel": 1,
				"type": "noteOff",
				"noteNumber": 49,
				"velocity": 64
			},
			{
				"deltaTime": 0,
				"channel": 1,
				"type": "noteOn",
				"noteNumber": 50,
				"velocity": 64
			},
			{
				"deltaTime": 60,
				"channel": 1,
				"type": "noteOff",
				"noteNumber": 50,
				"velocity": 64
			},
			{
				"deltaTime": 0,
				"channel": 1,
				"type": "noteOn",
				"noteNumber": 49,
				"velocity": 64
			},
			{
				"deltaTime": 60,
				"channel": 1,
				"type": "noteOff",
				"noteNumber": 49,
				"velocity": 64
			},
			{
				"deltaTime": 0,
				"channel": 1,
				"type": "noteOn",
				"noteNumber": 52,
				"velocity": 64
			},
			{
				"deltaTime": 60,
				"channel": 1,
				"type": "noteOff",
				"noteNumber": 52,
				"velocity": 64
			},
			{
				"deltaTime": 0,
				"channel": 1,
				"type": "noteOn",
				"noteNumber": 50,
				"velocity": 64
			},
			{
				"deltaTime": 60,
				"channel": 1,
				"type": "noteOff",
				"noteNumber": 50,
				"velocity": 64
			},
			{
				"deltaTime": 0,
				"channel": 1,
				"type": "noteOn",
				"noteNumber": 49,
				"velocity": 64
			},
			{
				"deltaTime": 60,
				"channel": 1,
				"type": "noteOff",
				"noteNumber": 49,
				"velocity": 64
			},
			{
				"deltaTime": 0,
				"channel": 1,
				"type": "noteOn",
				"noteNumber": 47,
				"velocity": 64
			},
			{
				"deltaTime": 60,
				"channel": 1,
				"type": "noteOff",
				"noteNumber": 47,
				"velocity": 64
			},
			{
				"deltaTime": 0,
				"channel": 1,
				"type": "noteOn",
				"noteNumber": 49,
				"velocity": 64
			},
			{
				"deltaTime": 60,
				"channel": 1,
				"type": "noteOff",
				"noteNumber": 49,
				"velocity": 64
			},
			{
				"deltaTime": 0,
				"channel": 1,
				"type": "noteOn",
				"noteNumber": 50,
				"velocity": 64
			},
			{
				"deltaTime": 60,
				"channel": 1,
				"type": "noteOff",
				"noteNumber": 50,
				"velocity": 64
			},
			{
				"deltaTime": 0,
				"channel": 1,
				"type": "noteOn",
				"noteNumber": 52,
				"velocity": 64
			},
			{
				"deltaTime": 120,
				"channel": 1,
				"type": "noteOff",
				"noteNumber": 52,
				"velocity": 64
			},
			{
				"deltaTime": 0,
				"channel": 1,
				"type": "noteOn",
				"noteNumber": 40,
				"velocity": 64
			},
			{
				"deltaTime": 120,
				"channel": 1,
				"type": "noteOff",
				"noteNumber": 40,
				"velocity": 64
			},
			{
				"deltaTime": 0,
				"channel": 1,
				"type": "noteOn",
				"noteNumber": 45,
				"velocity": 64
			},
			{
				"deltaTime": 60,
				"channel": 1,
				"type": "noteOff",
				"noteNumber": 45,
				"velocity": 64
			},
			{
				"deltaTime": 0,
				"channel": 1,
				"type": "noteOn",
				"noteNumber": 49,
				"velocity": 64
			},
			{
				"deltaTime": 60,
				"channel": 1,
				"type": "noteOff",
				"noteNumber": 49,
				"velocity": 64
			},
			{
				"deltaTime": 0,
				"channel": 1,
				"type": "noteOn",
				"noteNumber": 50,
				"velocity": 64
			},
			{
				"deltaTime": 60,
				"channel": 1,
				"type": "noteOff",
				"noteNumber": 50,
				"velocity": 64
			},
			{
				"deltaTime": 0,
				"channel": 1,
				"type": "noteOn",
				"noteNumber": 52,
				"velocity": 64
			},
			{
				"deltaTime": 60,
				"channel": 1,
				"type": "noteOff",
				"noteNumber": 52,
				"velocity": 64
			},
			{
				"deltaTime": 0,
				"channel": 1,
				"type": "noteOn",
				"noteNumber": 54,
				"velocity": 64
			},
			{
				"deltaTime": 60,
				"channel": 1,
				"type": "noteOff",
				"noteNumber": 54,
				"velocity": 64
			},
			{
				"deltaTime": 0,
				"channel": 1,
				"type": "noteOn",
				"noteNumber": 55,
				"velocity": 64
			},
			{
				"deltaTime": 60,
				"channel": 1,
				"type": "noteOff",
				"noteNumber": 55,
				"velocity": 64
			},
			{
				"deltaTime": 0,
				"channel": 1,
				"type": "noteOn",
				"noteNumber": 57,
				"velocity": 64
			},
			{
				"deltaTime": 60,
				"channel": 1,
				"type": "noteOff",
				"noteNumber": 57,
				"velocity": 64
			},
			{
				"deltaTime": 0,
				"channel": 1,
				"type": "noteOn",
				"noteNumber": 55,
				"velocity": 64
			},
			{
				"deltaTime": 60,
				"channel": 1,
				"type": "noteOff",
				"noteNumber": 55,
				"velocity": 64
			},
			{
				"deltaTime": 0,
				"channel": 1,
				"type": "noteOn",
				"noteNumber": 59,
				"velocity": 64
			},
			{
				"deltaTime": 60,
				"channel": 1,
				"type": "noteOff",
				"noteNumber": 59,
				"velocity": 64
			},
			{
				"deltaTime": 0,
				"channel": 1,
				"type": "noteOn",
				"noteNumber": 57,
				"velocity": 64
			},
			{
				"deltaTime": 60,
				"channel": 1,
				"type": "noteOff",
				"noteNumber": 57,
				"velocity": 64
			},
			{
				"deltaTime": 0,
				"channel": 1,
				"type": "noteOn",
				"noteNumber": 55,
				"velocity": 64
			},
			{
				"deltaTime": 60,
				"channel": 1,
				"type": "noteOff",
				"noteNumber": 55,
				"velocity": 64
			},
			{
				"deltaTime": 0,
				"channel": 1,
				"type": "noteOn",
				"noteNumber": 54,
				"velocity": 64
			},
			{
				"deltaTime": 60,
				"channel": 1,
				"type": "noteOff",
				"noteNumber": 54,
				"velocity": 64
			},
			{
				"deltaTime": 0,
				"channel": 1,
				"type": "noteOn",
				"noteNumber": 55,
				"velocity": 64
			},
			{
				"deltaTime": 60,
				"channel": 1,
				"type": "noteOff",
				"noteNumber": 55,
				"velocity": 64
			},
			{
				"deltaTime": 0,
				"channel": 1,
				"type": "noteOn",
				"noteNumber": 54,
				"velocity": 64
			},
			{
				"deltaTime": 60,
				"channel": 1,
				"type": "noteOff",
				"noteNumber": 54,
				"velocity": 64
			},
			{
				"deltaTime": 0,
				"channel": 1,
				"type": "noteOn",
				"noteNumber": 57,
				"velocity": 64
			},
			{
				"deltaTime": 60,
				"channel": 1,
				"type": "noteOff",
				"noteNumber": 57,
				"velocity": 64
			},
			{
				"deltaTime": 0,
				"channel": 1,
				"type": "noteOn",
				"noteNumber": 55,
				"velocity": 64
			},
			{
				"deltaTime": 60,
				"channel": 1,
				"type": "noteOff",
				"noteNumber": 55,
				"velocity": 64
			},
			{
				"deltaTime": 0,
				"channel": 1,
				"type": "noteOn",
				"noteNumber": 54,
				"velocity": 64
			},
			{
				"deltaTime": 60,
				"channel": 1,
				"type": "noteOff",
				"noteNumber": 54,
				"velocity": 64
			},
			{
				"deltaTime": 0,
				"channel": 1,
				"type": "noteOn",
				"noteNumber": 52,
				"velocity": 64
			},
			{
				"deltaTime": 60,
				"channel": 1,
				"type": "noteOff",
				"noteNumber": 52,
				"velocity": 64
			},
			{
				"deltaTime": 0,
				"channel": 1,
				"type": "noteOn",
				"noteNumber": 54,
				"velocity": 64
			},
			{
				"deltaTime": 60,
				"channel": 1,
				"type": "noteOff",
				"noteNumber": 54,
				"velocity": 64
			},
			{
				"deltaTime": 0,
				"channel": 1,
				"type": "noteOn",
				"noteNumber": 52,
				"velocity": 64
			},
			{
				"deltaTime": 60,
				"channel": 1,
				"type": "noteOff",
				"noteNumber": 52,
				"velocity": 64
			},
			{
				"deltaTime": 0,
				"channel": 1,
				"type": "noteOn",
				"noteNumber": 55,
				"velocity": 64
			},
			{
				"deltaTime": 60,
				"channel": 1,
				"type": "noteOff",
				"noteNumber": 55,
				"velocity": 64
			},
			{
				"deltaTime": 0,
				"channel": 1,
				"type": "noteOn",
				"noteNumber": 54,
				"velocity": 64
			},
			{
				"deltaTime": 60,
				"channel": 1,
				"type": "noteOff",
				"noteNumber": 54,
				"velocity": 64
			},
			{
				"deltaTime": 0,
				"channel": 1,
				"type": "noteOn",
				"noteNumber": 52,
				"velocity": 64
			},
			{
				"deltaTime": 60,
				"channel": 1,
				"type": "noteOff",
				"noteNumber": 52,
				"velocity": 64
			},
			{
				"deltaTime": 0,
				"channel": 1,
				"type": "noteOn",
				"noteNumber": 50,
				"velocity": 64
			},
			{
				"deltaTime": 60,
				"channel": 1,
				"type": "noteOff",
				"noteNumber": 50,
				"velocity": 64
			},
			{
				"deltaTime": 0,
				"channel": 1,
				"type": "noteOn",
				"noteNumber": 57,
				"velocity": 64
			},
			{
				"deltaTime": 120,
				"channel": 1,
				"type": "noteOff",
				"noteNumber": 57,
				"velocity": 64
			},
			{
				"deltaTime": 0,
				"channel": 1,
				"type": "noteOn",
				"noteNumber": 45,
				"velocity": 64
			},
			{
				"deltaTime": 120,
				"channel": 1,
				"type": "noteOff",
				"noteNumber": 45,
				"velocity": 64
			},
			{
				"deltaTime": 720,
				"channel": 1,
				"type": "noteOn",
				"noteNumber": 50,
				"velocity": 64
			},
			{
				"deltaTime": 60,
				"channel": 1,
				"type": "noteOff",
				"noteNumber": 50,
				"velocity": 64
			},
			{
				"deltaTime": 0,
				"channel": 1,
				"type": "noteOn",
				"noteNumber": 52,
				"velocity": 64
			},
			{
				"deltaTime": 60,
				"channel": 1,
				"type": "noteOff",
				"noteNumber": 52,
				"velocity": 64
			},
			{
				"deltaTime": 0,
				"channel": 1,
				"type": "noteOn",
				"noteNumber": 54,
				"velocity": 64
			},
			{
				"deltaTime": 60,
				"channel": 1,
				"type": "noteOff",
				"noteNumber": 54,
				"velocity": 64
			},
			{
				"deltaTime": 0,
				"channel": 1,
				"type": "noteOn",
				"noteNumber": 52,
				"velocity": 64
			},
			{
				"deltaTime": 60,
				"channel": 1,
				"type": "noteOff",
				"noteNumber": 52,
				"velocity": 64
			},
			{
				"deltaTime": 0,
				"channel": 1,
				"type": "noteOn",
				"noteNumber": 55,
				"velocity": 64
			},
			{
				"deltaTime": 60,
				"channel": 1,
				"type": "noteOff",
				"noteNumber": 55,
				"velocity": 64
			},
			{
				"deltaTime": 0,
				"channel": 1,
				"type": "noteOn",
				"noteNumber": 54,
				"velocity": 64
			},
			{
				"deltaTime": 60,
				"channel": 1,
				"type": "noteOff",
				"noteNumber": 54,
				"velocity": 64
			},
			{
				"deltaTime": 0,
				"channel": 1,
				"type": "noteOn",
				"noteNumber": 52,
				"velocity": 64
			},
			{
				"deltaTime": 60,
				"channel": 1,
				"type": "noteOff",
				"noteNumber": 52,
				"velocity": 64
			},
			{
				"deltaTime": 0,
				"channel": 1,
				"type": "noteOn",
				"noteNumber": 50,
				"velocity": 64
			},
			{
				"deltaTime": 60,
				"channel": 1,
				"type": "noteOff",
				"noteNumber": 50,
				"velocity": 64
			},
			{
				"deltaTime": 0,
				"channel": 1,
				"type": "noteOn",
				"noteNumber": 57,
				"velocity": 64
			},
			{
				"deltaTime": 60,
				"channel": 1,
				"type": "noteOff",
				"noteNumber": 57,
				"velocity": 64
			},
			{
				"deltaTime": 0,
				"channel": 1,
				"type": "noteOn",
				"noteNumber": 55,
				"velocity": 64
			},
			{
				"deltaTime": 60,
				"channel": 1,
				"type": "noteOff",
				"noteNumber": 55,
				"velocity": 64
			},
			{
				"deltaTime": 0,
				"channel": 1,
				"type": "noteOn",
				"noteNumber": 54,
				"velocity": 64
			},
			{
				"deltaTime": 60,
				"channel": 1,
				"type": "noteOff",
				"noteNumber": 54,
				"velocity": 64
			},
			{
				"deltaTime": 0,
				"channel": 1,
				"type": "noteOn",
				"noteNumber": 52,
				"velocity": 64
			},
			{
				"deltaTime": 60,
				"channel": 1,
				"type": "noteOff",
				"noteNumber": 52,
				"velocity": 64
			},
			{
				"deltaTime": 0,
				"channel": 1,
				"type": "noteOn",
				"noteNumber": 54,
				"velocity": 64
			},
			{
				"deltaTime": 60,
				"channel": 1,
				"type": "noteOff",
				"noteNumber": 54,
				"velocity": 64
			},
			{
				"deltaTime": 0,
				"channel": 1,
				"type": "noteOn",
				"noteNumber": 50,
				"velocity": 64
			},
			{
				"deltaTime": 60,
				"channel": 1,
				"type": "noteOff",
				"noteNumber": 50,
				"velocity": 64
			},
			{
				"deltaTime": 0,
				"channel": 1,
				"type": "noteOn",
				"noteNumber": 57,
				"velocity": 64
			},
			{
				"deltaTime": 60,
				"channel": 1,
				"type": "noteOff",
				"noteNumber": 57,
				"velocity": 64
			},
			{
				"deltaTime": 0,
				"channel": 1,
				"type": "noteOn",
				"noteNumber": 54,
				"velocity": 64
			},
			{
				"deltaTime": 60,
				"channel": 1,
				"type": "noteOff",
				"noteNumber": 54,
				"velocity": 64
			},
			{
				"deltaTime": 0,
				"channel": 1,
				"type": "noteOn",
				"noteNumber": 59,
				"velocity": 64
			},
			{
				"deltaTime": 60,
				"channel": 1,
				"type": "noteOff",
				"noteNumber": 59,
				"velocity": 64
			},
			{
				"deltaTime": 0,
				"channel": 1,
				"type": "noteOn",
				"noteNumber": 55,
				"velocity": 64
			},
			{
				"deltaTime": 60,
				"channel": 1,
				"type": "noteOff",
				"noteNumber": 55,
				"velocity": 64
			},
			{
				"deltaTime": 0,
				"channel": 1,
				"type": "noteOn",
				"noteNumber": 54,
				"velocity": 64
			},
			{
				"deltaTime": 60,
				"channel": 1,
				"type": "noteOff",
				"noteNumber": 54,
				"velocity": 64
			},
			{
				"deltaTime": 0,
				"channel": 1,
				"type": "noteOn",
				"noteNumber": 52,
				"velocity": 64
			},
			{
				"deltaTime": 60,
				"channel": 1,
				"type": "noteOff",
				"noteNumber": 52,
				"velocity": 64
			},
			{
				"deltaTime": 0,
				"channel": 1,
				"type": "noteOn",
				"noteNumber": 57,
				"velocity": 64
			},
			{
				"deltaTime": 60,
				"channel": 1,
				"type": "noteOff",
				"noteNumber": 57,
				"velocity": 64
			},
			{
				"deltaTime": 0,
				"channel": 1,
				"type": "noteOn",
				"noteNumber": 54,
				"velocity": 64
			},
			{
				"deltaTime": 60,
				"channel": 1,
				"type": "noteOff",
				"noteNumber": 54,
				"velocity": 64
			},
			{
				"deltaTime": 0,
				"channel": 1,
				"type": "noteOn",
				"noteNumber": 55,
				"velocity": 64
			},
			{
				"deltaTime": 60,
				"channel": 1,
				"type": "noteOff",
				"noteNumber": 55,
				"velocity": 64
			},
			{
				"deltaTime": 0,
				"channel": 1,
				"type": "noteOn",
				"noteNumber": 52,
				"velocity": 64
			},
			{
				"deltaTime": 60,
				"channel": 1,
				"type": "noteOff",
				"noteNumber": 52,
				"velocity": 64
			},
			{
				"deltaTime": 0,
				"channel": 1,
				"type": "noteOn",
				"noteNumber": 50,
				"velocity": 64
			},
			{
				"deltaTime": 60,
				"channel": 1,
				"type": "noteOff",
				"noteNumber": 50,
				"velocity": 64
			},
			{
				"deltaTime": 0,
				"channel": 1,
				"type": "noteOn",
				"noteNumber": 49,
				"velocity": 64
			},
			{
				"deltaTime": 60,
				"channel": 1,
				"type": "noteOff",
				"noteNumber": 49,
				"velocity": 64
			},
			{
				"deltaTime": 0,
				"channel": 1,
				"type": "noteOn",
				"noteNumber": 57,
				"velocity": 64
			},
			{
				"deltaTime": 60,
				"channel": 1,
				"type": "noteOff",
				"noteNumber": 57,
				"velocity": 64
			},
			{
				"deltaTime": 0,
				"channel": 1,
				"type": "noteOn",
				"noteNumber": 54,
				"velocity": 64
			},
			{
				"deltaTime": 60,
				"channel": 1,
				"type": "noteOff",
				"noteNumber": 54,
				"velocity": 64
			},
			{
				"deltaTime": 0,
				"channel": 1,
				"type": "noteOn",
				"noteNumber": 59,
				"velocity": 64
			},
			{
				"deltaTime": 60,
				"channel": 1,
				"type": "noteOff",
				"noteNumber": 59,
				"velocity": 64
			},
			{
				"deltaTime": 0,
				"channel": 1,
				"type": "noteOn",
				"noteNumber": 55,
				"velocity": 64
			},
			{
				"deltaTime": 60,
				"channel": 1,
				"type": "noteOff",
				"noteNumber": 55,
				"velocity": 64
			},
			{
				"deltaTime": 0,
				"channel": 1,
				"type": "noteOn",
				"noteNumber": 54,
				"velocity": 64
			},
			{
				"deltaTime": 60,
				"channel": 1,
				"type": "noteOff",
				"noteNumber": 54,
				"velocity": 64
			},
			{
				"deltaTime": 0,
				"channel": 1,
				"type": "noteOn",
				"noteNumber": 52,
				"velocity": 64
			},
			{
				"deltaTime": 60,
				"channel": 1,
				"type": "noteOff",
				"noteNumber": 52,
				"velocity": 64
			},
			{
				"deltaTime": 0,
				"channel": 1,
				"type": "noteOn",
				"noteNumber": 57,
				"velocity": 64
			},
			{
				"deltaTime": 60,
				"channel": 1,
				"type": "noteOff",
				"noteNumber": 57,
				"velocity": 64
			},
			{
				"deltaTime": 0,
				"channel": 1,
				"type": "noteOn",
				"noteNumber": 54,
				"velocity": 64
			},
			{
				"deltaTime": 60,
				"channel": 1,
				"type": "noteOff",
				"noteNumber": 54,
				"velocity": 64
			},
			{
				"deltaTime": 0,
				"channel": 1,
				"type": "noteOn",
				"noteNumber": 55,
				"velocity": 64
			},
			{
				"deltaTime": 60,
				"channel": 1,
				"type": "noteOff",
				"noteNumber": 55,
				"velocity": 64
			},
			{
				"deltaTime": 0,
				"channel": 1,
				"type": "noteOn",
				"noteNumber": 52,
				"velocity": 64
			},
			{
				"deltaTime": 60,
				"channel": 1,
				"type": "noteOff",
				"noteNumber": 52,
				"velocity": 64
			},
			{
				"deltaTime": 0,
				"channel": 1,
				"type": "noteOn",
				"noteNumber": 50,
				"velocity": 64
			},
			{
				"deltaTime": 60,
				"channel": 1,
				"type": "noteOff",
				"noteNumber": 50,
				"velocity": 64
			},
			{
				"deltaTime": 0,
				"channel": 1,
				"type": "noteOn",
				"noteNumber": 49,
				"velocity": 64
			},
			{
				"deltaTime": 60,
				"channel": 1,
				"type": "noteOff",
				"noteNumber": 49,
				"velocity": 64
			},
			{
				"deltaTime": 0,
				"channel": 1,
				"type": "noteOn",
				"noteNumber": 50,
				"velocity": 64
			},
			{
				"deltaTime": 120,
				"channel": 1,
				"type": "noteOff",
				"noteNumber": 50,
				"velocity": 64
			},
			{
				"deltaTime": 0,
				"channel": 1,
				"type": "noteOn",
				"noteNumber": 52,
				"velocity": 64
			},
			{
				"deltaTime": 120,
				"channel": 1,
				"type": "noteOff",
				"noteNumber": 52,
				"velocity": 64
			},
			{
				"deltaTime": 0,
				"channel": 1,
				"type": "noteOn",
				"noteNumber": 54,
				"velocity": 64
			},
			{
				"deltaTime": 120,
				"channel": 1,
				"type": "noteOff",
				"noteNumber": 54,
				"velocity": 64
			},
			{
				"deltaTime": 0,
				"channel": 1,
				"type": "noteOn",
				"noteNumber": 55,
				"velocity": 64
			},
			{
				"deltaTime": 60,
				"channel": 1,
				"type": "noteOff",
				"noteNumber": 55,
				"velocity": 64
			},
			{
				"deltaTime": 0,
				"channel": 1,
				"type": "noteOn",
				"noteNumber": 54,
				"velocity": 64
			},
			{
				"deltaTime": 60,
				"channel": 1,
				"type": "noteOff",
				"noteNumber": 54,
				"velocity": 64
			},
			{
				"deltaTime": 0,
				"channel": 1,
				"type": "noteOn",
				"noteNumber": 57,
				"velocity": 64
			},
			{
				"deltaTime": 60,
				"channel": 1,
				"type": "noteOff",
				"noteNumber": 57,
				"velocity": 64
			},
			{
				"deltaTime": 0,
				"channel": 1,
				"type": "noteOn",
				"noteNumber": 55,
				"velocity": 64
			},
			{
				"deltaTime": 60,
				"channel": 1,
				"type": "noteOff",
				"noteNumber": 55,
				"velocity": 64
			},
			{
				"deltaTime": 0,
				"channel": 1,
				"type": "noteOn",
				"noteNumber": 54,
				"velocity": 64
			},
			{
				"deltaTime": 60,
				"channel": 1,
				"type": "noteOff",
				"noteNumber": 54,
				"velocity": 64
			},
			{
				"deltaTime": 0,
				"channel": 1,
				"type": "noteOn",
				"noteNumber": 52,
				"velocity": 64
			},
			{
				"deltaTime": 60,
				"channel": 1,
				"type": "noteOff",
				"noteNumber": 52,
				"velocity": 64
			},
			{
				"deltaTime": 0,
				"channel": 1,
				"type": "noteOn",
				"noteNumber": 54,
				"velocity": 64
			},
			{
				"deltaTime": 60,
				"channel": 1,
				"type": "noteOff",
				"noteNumber": 54,
				"velocity": 64
			},
			{
				"deltaTime": 0,
				"channel": 1,
				"type": "noteOn",
				"noteNumber": 55,
				"velocity": 64
			},
			{
				"deltaTime": 60,
				"channel": 1,
				"type": "noteOff",
				"noteNumber": 55,
				"velocity": 64
			},
			{
				"deltaTime": 0,
				"channel": 1,
				"type": "noteOn",
				"noteNumber": 57,
				"velocity": 64
			},
			{
				"deltaTime": 120,
				"channel": 1,
				"type": "noteOff",
				"noteNumber": 57,
				"velocity": 64
			},
			{
				"deltaTime": 0,
				"channel": 1,
				"type": "noteOn",
				"noteNumber": 45,
				"velocity": 64
			},
			{
				"deltaTime": 120,
				"channel": 1,
				"type": "noteOff",
				"noteNumber": 45,
				"velocity": 64
			},
			{
				"deltaTime": 0,
				"channel": 1,
				"type": "noteOn",
				"noteNumber": 47,
				"velocity": 64
			},
			{
				"deltaTime": 60,
				"channel": 1,
				"type": "noteOff",
				"noteNumber": 47,
				"velocity": 64
			},
			{
				"deltaTime": 0,
				"channel": 1,
				"type": "noteOn",
				"noteNumber": 45,
				"velocity": 64
			},
			{
				"deltaTime": 60,
				"channel": 1,
				"type": "noteOff",
				"noteNumber": 45,
				"velocity": 64
			},
			{
				"deltaTime": 0,
				"channel": 1,
				"type": "noteOn",
				"noteNumber": 48,
				"velocity": 64
			},
			{
				"deltaTime": 60,
				"channel": 1,
				"type": "noteOff",
				"noteNumber": 48,
				"velocity": 64
			},
			{
				"deltaTime": 0,
				"channel": 1,
				"type": "noteOn",
				"noteNumber": 47,
				"velocity": 64
			},
			{
				"deltaTime": 60,
				"channel": 1,
				"type": "noteOff",
				"noteNumber": 47,
				"velocity": 64
			},
			{
				"deltaTime": 0,
				"channel": 1,
				"type": "noteOn",
				"noteNumber": 45,
				"velocity": 64
			},
			{
				"deltaTime": 60,
				"channel": 1,
				"type": "noteOff",
				"noteNumber": 45,
				"velocity": 64
			},
			{
				"deltaTime": 0,
				"channel": 1,
				"type": "noteOn",
				"noteNumber": 43,
				"velocity": 64
			},
			{
				"deltaTime": 60,
				"channel": 1,
				"type": "noteOff",
				"noteNumber": 43,
				"velocity": 64
			},
			{
				"deltaTime": 0,
				"channel": 1,
				"type": "noteOn",
				"noteNumber": 50,
				"velocity": 64
			},
			{
				"deltaTime": 410,
				"channel": 1,
				"type": "noteOff",
				"noteNumber": 50,
				"velocity": 64
			},
			{
				"deltaTime": 10,
				"channel": 1,
				"type": "noteOn",
				"noteNumber": 49,
				"velocity": 64
			},
			{
				"deltaTime": 60,
				"channel": 1,
				"type": "noteOff",
				"noteNumber": 49,
				"velocity": 64
			},
			{
				"deltaTime": 0,
				"channel": 1,
				"type": "noteOn",
				"noteNumber": 47,
				"velocity": 64
			},
			{
				"deltaTime": 60,
				"channel": 1,
				"type": "noteOff",
				"noteNumber": 47,
				"velocity": 64
			},
			{
				"deltaTime": 0,
				"channel": 1,
				"type": "noteOn",
				"noteNumber": 45,
				"velocity": 64
			},
			{
				"deltaTime": 60,
				"channel": 1,
				"type": "noteOff",
				"noteNumber": 45,
				"velocity": 64
			},
			{
				"deltaTime": 0,
				"channel": 1,
				"type": "noteOn",
				"noteNumber": 43,
				"velocity": 64
			},
			{
				"deltaTime": 60,
				"channel": 1,
				"type": "noteOff",
				"noteNumber": 43,
				"velocity": 64
			},
			{
				"deltaTime": 0,
				"channel": 1,
				"type": "noteOn",
				"noteNumber": 42,
				"velocity": 64
			},
			{
				"deltaTime": 60,
				"channel": 1,
				"type": "noteOff",
				"noteNumber": 42,
				"velocity": 64
			},
			{
				"deltaTime": 0,
				"channel": 1,
				"type": "noteOn",
				"noteNumber": 43,
				"velocity": 64
			},
			{
				"deltaTime": 60,
				"channel": 1,
				"type": "noteOff",
				"noteNumber": 43,
				"velocity": 64
			},
			{
				"deltaTime": 0,
				"channel": 1,
				"type": "noteOn",
				"noteNumber": 42,
				"velocity": 64
			},
			{
				"deltaTime": 60,
				"channel": 1,
				"type": "noteOff",
				"noteNumber": 42,
				"velocity": 64
			},
			{
				"deltaTime": 0,
				"channel": 1,
				"type": "noteOn",
				"noteNumber": 45,
				"velocity": 64
			},
			{
				"deltaTime": 60,
				"channel": 1,
				"type": "noteOff",
				"noteNumber": 45,
				"velocity": 64
			},
			{
				"deltaTime": 0,
				"channel": 1,
				"type": "noteOn",
				"noteNumber": 43,
				"velocity": 64
			},
			{
				"deltaTime": 60,
				"channel": 1,
				"type": "noteOff",
				"noteNumber": 43,
				"velocity": 64
			},
			{
				"deltaTime": 0,
				"channel": 1,
				"type": "noteOn",
				"noteNumber": 42,
				"velocity": 64
			},
			{
				"deltaTime": 60,
				"channel": 1,
				"type": "noteOff",
				"noteNumber": 42,
				"velocity": 64
			},
			{
				"deltaTime": 0,
				"channel": 1,
				"type": "noteOn",
				"noteNumber": 40,
				"velocity": 64
			},
			{
				"deltaTime": 60,
				"channel": 1,
				"type": "noteOff",
				"noteNumber": 40,
				"velocity": 64
			},
			{
				"deltaTime": 0,
				"channel": 1,
				"type": "noteOn",
				"noteNumber": 42,
				"velocity": 64
			},
			{
				"deltaTime": 60,
				"channel": 1,
				"type": "noteOff",
				"noteNumber": 42,
				"velocity": 64
			},
			{
				"deltaTime": 0,
				"channel": 1,
				"type": "noteOn",
				"noteNumber": 43,
				"velocity": 64
			},
			{
				"deltaTime": 60,
				"channel": 1,
				"type": "noteOff",
				"noteNumber": 43,
				"velocity": 64
			},
			{
				"deltaTime": 0,
				"channel": 1,
				"type": "noteOn",
				"noteNumber": 45,
				"velocity": 64
			},
			{
				"deltaTime": 240,
				"channel": 1,
				"type": "noteOff",
				"noteNumber": 45,
				"velocity": 64
			},
			{
				"deltaTime": 0,
				"channel": 1,
				"type": "noteOn",
				"noteNumber": 38,
				"velocity": 64
			},
			{
				"deltaTime": 720,
				"channel": 1,
				"type": "noteOff",
				"noteNumber": 38,
				"velocity": 64
			},
			{
				"deltaTime": 0,
				"meta": true,
				"type": "endOfTrack"
			}
		]
	]
}