{
	"header": {
		"format": 1,
		"numTracks": 3,
		"ticksPerBeat": 240
	},
	"tracks": [
		[
			{
				"deltaTime": 0,
				"meta": true,
				"type": "timeSignature",
				"numerator": 3,
				"denominator": 8,
				"metronome": 12,
				"thirtyseconds": 8
			},
			{
				"deltaTime": 0,
				"meta": true,
				"type": "setTempo",
				"microsecondsPerBeat": 833333
			},
			{
				"deltaTime": 7200,
				"meta": true,
				"type": "text",
				"text": "Repeat"
			},
			{
				"deltaTime": 7200,
				"meta": true,
				"type": "text",
				"text": "2nd Part"
			},
			{
				"deltaTime": 15120,
				"meta": true,
				"type": "text",
				"text": "Repeat"
			},
			{
				"deltaTime": 14400,
				"meta": true,
				"type": "setTempo",
				"microsecondsPerBeat": 857143
			},
			{
				"deltaTime": 360,
				"meta": true,
				"type": "setTempo",
				"microsecondsPerBeat": 833333
			},
			{
				"deltaTime": 0,
				"meta": true,
				"type": "endOfTrack"
			}
		],
		[
			{
				"deltaTime": 0,
				"meta": true,
				"type": "text",
				"text": "RH"
			},
			{
				"deltaTime": 60,
				"channel": 0,
				"type": "noteOn",
				"noteNumber": 76,
				"velocity": 64
			},
			{
				"deltaTime": 120,
				"channel": 0,
				"type": "noteOff",
				"noteNumber": 76,
				"velocity": 64
			},
			{
				"deltaTime": 0,
				"channel": 0,
				"type": "noteOn",
				"noteNumber": 75,
				"velocity": 64
			},
			{
				"deltaTime": 120,
				"channel": 0,
				"type": "noteOff",
				"noteNumber": 75,
				"velocity": 64
			},
			{
				"deltaTime": 0,
				"channel": 0,
				"type": "noteOn",
				"noteNumber": 74,
				"velocity": 64
			},
			{
				"deltaTime": 120,
				"channel": 0,
				"type": "noteOff",
				"noteNumber": 74,
				"velocity": 64
			},
			{
				"deltaTime": 0,
				"channel": 0,
				"type": "noteOn",
				"noteNumber": 73,
				"velocity": 64
			},
			{
				"deltaTime": 120,
				"channel": 0,
				"type": "noteOff",
				"noteNumber": 73,
				"velocity": 64
			},
			{
				"deltaTime": 0,
				"channel": 0,
				"type": "noteOn",
				"noteNumber": 71,
				"velocity": 64
			},
			{
				"deltaTime": 120,
				"channel": 0,
				"type": "noteOff",
				"noteNumber": 71,
				"velocity": 64
			},
			{
				"deltaTime": 0,
				"channel": 0,
				"type": "noteOn",
				"noteNumber": 69,
				"velocity": 64
			},
			{
				"deltaTime": 120,
				"channel": 0,
				"type": "noteOff",
				"noteNumber": 69,
				"velocity": 64
			},
			{
				"deltaTime": 0,
				"channel": 0,
				"type": "noteOn",
				"noteNumber": 68,
				"velocity": 64
			},
			{
				"deltaTime": 120,
				"channel": 0,
				"type": "noteOff",
				"noteNumber": 68,
				"velocity": 64
			},
			{
				"deltaTime": 0,
				"channel": 0,
				"type": "noteOn",
				"noteNumber": 66,
				"velocity": 64
			},
			{
				"deltaTime": 120,
				"channel": 0,
				"type": "noteOff",
				"noteNumber": 66,
				"velocity": 64
			},
			{
				"deltaTime": 0,
				"channel": 0,
				"type": "noteOn",
				"noteNumber": 68,
				"velocity": 64
			},
			{
				"deltaTime": 30,
				"channel": 0,
				"type": "noteOff",
				"noteNumber": 68,
				"velocity": 64
			},
			{
				"deltaTime": 0,
				"channel": 0,
				"type": "noteOn",
				"noteNumber": 69,
				"velocity": 64
			},
			{
				"deltaTime": 30,
				"channel": 0,
				"type": "noteOff",
				"noteNumber": 69,
				"velocity": 64
			},
			{
				"deltaTime": 0,
				"channel": 0,
				"type": "noteOn",
				"noteNumber": 68,
				"velocity": 64
			},
			{
				"deltaTime": 60,
				"channel": 0,
				"type": "noteOff",
				"noteNumber": 68,
				"velocity": 64
			},
			{
				"deltaTime": 0,
				"channel": 0,
				"type": "noteOn",
				"noteNumber": 71,
				"velocity": 64
			},
			{
				"deltaTime": 30,
				"channel": 0,
				"type": "noteOff",
				"noteNumber": 71,
				"velocity": 64
			},
			{
				"deltaTime": 0,
				"channel": 0,
				"type": "noteOn",
				"noteNumber": 69,
				"velocity": 64
			},
			{
				"deltaTime": 30,
				"channel": 0,
				"type": "noteOff",
				"noteNumber": 69,
				"velocity": 64
			},
			{
				"deltaTime": 0,
				"channel": 0,
				"type": "noteOn",
				"noteNumber": 71,
				"velocity": 64
			},
			{
				"deltaTime": 60,
				"channel": 0,
				"type": "noteOff",
				"noteNumber": 71,
				"velocity": 64
			},
			{
				"deltaTime": 0,
				"channel": 0,
				"type": "noteOn",
				"noteNumber": 68,
				"velocity": 64
			},
			{
				"deltaTime": 30,
				"channel": 0,
				"type": "noteOff",
				"noteNumber": 68,
				"velocity": 64
			},
			{
				"deltaTime": 0,
				"channel": 0,
				"type": "noteOn",
				"noteNumber": 66,
				"velocity": 64
			},
			{
				"deltaTime": 30,
				"channel": 0,
				"type": "noteOff",
				"noteNumber": 66,
				"velocity": 64
			},
			{
				"deltaTime": 0,
				"channel": 0,
				"type": "noteOn",
				"noteNumber": 68,
				"velocity": 64
			},
			{
				"deltaTime": 60,
				"channel": 0,
				"type": "noteOff",
				"noteNumber": 68,
				"velocity": 64
			},
			{
				"deltaTime": 0,
				"channel": 0,
				"type": "noteOn",
				"noteNumber": 64,
				"velocity": 64
			},
			{
				"deltaTime": 30,
				"channel": 0,
				"type": "noteOff",
				"noteNumber": 64,
				"velocity": 64
			},
			{
				"deltaTime": 0,
				"channel": 0,
				"type": "noteOn",
				"noteNumber": 63,
				"velocity": 64
			},
			{
				"deltaTime": 30,
				"channel": 0,
				"type": "noteOff",
				"noteNumber": 63,
				"velocity": 64
			},
			{
				"deltaTime": 0,
				"channel": 0,
				"type": "noteOn",
				"noteNumber": 64,
				"velocity": 64
			},
			{
				"deltaTime": 120,
				"channel": 0,
				"type": "noteOff",
				"noteNumber": 64,
				"velocity": 64
			},
			{
				"deltaTime": 0,
				"channel": 0,
				"type": "noteOn",
				"noteNumber": 66,
				"velocity": 64
			},
			{
				"deltaTime": 120,
				"channel": 0,
				"type": "noteOff",
				"noteNumber": 66,
				"velocity": 64
			},
			{
				"deltaTime": 0,
				"channel": 0,
				"type": "noteOn",
				"noteNumber": 68,
				"velocity": 64
			},
			{
				"deltaTime": 120,
				"channel": 0,
				"type": "noteOff",
				"noteNumber": 68,
				"velocity": 64
			},
			{
				"deltaTime": 0,
				"channel": 0,
				"type": "noteOn",
				"noteNumber": 69,
				"velocity": 64
			},
			{
				"deltaTime": 120,
				"channel": 0,
				"type": "noteOff",
				"noteNumber": 69,
				"velocity": 64
			},
			{
				"deltaTime": 0,
				"channel": 0,
				"type": "noteOn",
				"noteNumber": 71,
				"velocity": 64
			},
			{
				"deltaTime": 120,
				"channel": 0,
				"type": "noteOff",
				"noteNumber": 71,
				"velocity": 64
			},
			{
				"deltaTime": 0,
				"channel": 0,
				"type": "noteOn",
				"noteNumber": 73,
				"velocity": 64
			},
			{
				"deltaTime": 120,
				"channel": 0,
				"type": "noteOff",
				"noteNumber": 73,
				"velocity": 64
			},
			{
				"deltaTime": 0,
				"channel": 0,
				"type": "noteOn",
				"noteNumber": 75,
				"velocity": 64
			},
			{
				"deltaTime": 120,
				"channel": 0,
				"type": "noteOff",
				"noteNumber": 75,
				"velocity": 64
			},
			{
				"deltaTime": 0,
				"channel": 0,
				"type": "noteOn",
				"noteNumber": 76,
				"velocity": 64
			},
			{
				"deltaTime": 60,
				"channel": 0,
				"type": "noteOff",
				"noteNumber": 76,
				"velocity": 64
			},
			{
				"deltaTime": 0,
				"channel": 0,
				"type": "noteOn",
				"noteNumber": 75,
				"velocity": 64
			},
			{
				"deltaTime": 60,
				"channel": 0,
				"type": "noteOff",
				"noteNumber": 75,
				"velocity": 64
			},
			{
				"deltaTime": 0,
				"channel": 0,
				"type": "noteOn",
				"noteNumber": 73,
				"velocity": 64
			},
			{
				"deltaTime": 60,
				"channel": 0,
				"type": "noteOff",
				"noteNumber": 73,
				"velocity": 64
			},
			{
				"deltaTime": 0,
				"channel": 0,
				"type": "noteOn",
				"noteNumber": 71,
				"velocity": 64
			},
			{
				"deltaTime": 60,
				"channel": 0,
				"type": "noteOff",
				"noteNumber": 71,
				"velocity": 64
			},
			{
				"deltaTime": 0,
				"channel": 0,
				"type": "noteOn",
				"noteNumber": 76,
				"velocity": 64
			},
			{
				"deltaTime": 120,
				"channel": 0,
				"type": "noteOff",
				"noteNumber": 76,
				"velocity": 64
			},
			{
				"deltaTime": 0,
				"channel": 0,
				"type": "noteOn",
				"noteNumber": 64,
				"velocity": 64
			},
			{
				"deltaTime": 120,
				"channel": 0,
				"type": "noteOff",
				"noteNumber": 64,
				"velocity": 64
			},
			{
				"deltaTime": 180,
				"channel": 0,
				"type": "noteOn",
				"noteNumber": 80,
				"velocity": 64
			},
			{
				"deltaTime": 120,
				"channel": 0,
				"type": "noteOff",
				"noteNumber": 80,
				"velocity": 64
			},
			{
				"deltaTime": 0,
				"channel": 0,
				"type": "noteOn",
				"noteNumber": 76,
				"velocity": 64
			},
			{
				"deltaTime": 120,
				"channel": 0,
				"type": "noteOff",
				"noteNumber": 76,
				"velocity": 64
			},
			{
				"deltaTime": 0,
				"channel": 0,
				"type": "noteOn",
				"noteNumber": 73,
				"velocity": 64
			},
			{
				"deltaTime": 120,
				"channel": 0,
				"type": "noteOff",
				"noteNumber": 73,
				"velocity": 64
			},
			{
				"deltaTime": 0,
				"channel": 0,
				"type": "noteOn",
				"noteNumber": 76,
				"velocity": 64
			},
			{
				"deltaTime": 30,
				"channel": 0,
				"type": "noteOff",
				"noteNumber": 76,
				"velocity": 64
			},
			{
				"deltaTime": 0,
				"channel": 0,
				"type": "noteOn",
				"noteNumber": 75,
				"velocity": 64
			},
			{
				"deltaTime": 30,
				"channel": 0,
				"type": "noteOff",
				"noteNumber": 75,
				"velocity": 64
			},
			{
				"deltaTime": 0,
				"channel": 0,
				"type": "noteOn",
				"noteNumber": 76,
				"velocity": 64
			},
			{
				"deltaTime": 60,
				"channel": 0,
				"type": "noteOff",
				"noteNumber": 76,
				"velocity": 64
			},
			{
				"deltaTime": 0,
				"channel": 0,
				"type": "noteOn",
				"noteNumber": 73,
				"velocity": 64
			},
			{
				"deltaTime": 60,
				"channel": 0,
				"type": "noteOff",
				"noteNumber": 73,
				"velocity": 64
			},
			{
				"deltaTime": 0,
				"channel": 0,
				"type": "noteOn",
				"noteNumber": 70,
				"velocity": 64
			},
			{
				"deltaTime": 60,
				"channel": 0,
				"type": "noteOff",
				"noteNumber": 70,
				"velocity": 64
			},
			{
				"deltaTime": 0,
				"channel": 0,
				"type": "noteOn",
				"noteNumber": 66,
				"velocity": 64
			},
			{
				"deltaTime": 120,
				"channel": 0,
				"type": "noteOff",
				"noteNumber": 66,
				"velocity": 64
			},
			{
				"deltaTime": 0,
				"channel": 0,
				"type": "noteOn",
				"noteNumber": 78,
				"velocity": 64
			},
			{
				"deltaTime": 120,
				"channel": 0,
				"type": "noteOff",
				"noteNumber": 78,
				"velocity": 64
			},
			{
				"deltaTime": 0,
				"channel": 0,
				"type": "noteOn",
				"noteNumber": 75,
				"velocity": 64
			},
			{
				"deltaTime": 120,
				"channel": 0,
				"type": "noteOff",
				"noteNumber": 75,
				"velocity": 64
			},
			{
				"deltaTime": 0,
				"channel": 0,
				"type": "noteOn",
				"noteNumber": 71,
				"velocity": 64
			},
			{
				"deltaTime": 120,
				"channel": 0,
				"type": "noteOff",
				"noteNumber": 71,
				"velocity": 64
			},
			{
				"deltaTime": 0,
				"channel": 0,
				"type": "noteOn",
				"noteNumber": 75,
				"velocity": 64
			},
			{
				"deltaTime": 30,
				"channel": 0,
				"type": "noteOff",
				"noteNumber": 75,
				"velocity": 64
			},
			{
				"deltaTime": 0,
				"channel": 0,
				"type": "noteOn",
				"noteNumber": 73,
				"velocity": 64
			},
			{
				"deltaTime": 30,
				"channel": 0,
				"type": "noteOff",
				"noteNumber": 73,
				"velocity": 64
			},
			{
				"deltaTime": 0,
				"channel": 0,
				"type": "noteOn",
				"noteNumber": 75,
				"velocity": 64
			},
			{
				"deltaTime": 60,
				"channel": 0,
				"type": "noteOff",
				"noteNumber": 75,
				"velocity": 64
			},
			{
				"deltaTime": 0,
				"channel": 0,
				"type": "noteOn",
				"noteNumber": 71,
				"velocity": 64
			},
			{
				"deltaTime": 60,
				"channel": 0,
				"type": "noteOff",
				"noteNumber": 71,
				"velocity": 64
			},
			{
				"deltaTime": 0,
				"channel": 0,
				"type": "noteOn",
				"noteNumber": 68,
				"velocity": 64
			},
			{
				"deltaTime": 60,
				"channel": 0,
				"type": "noteOff",
				"noteNumber": 68,
				"velocity": 64
			},
			{
				"deltaTime": 0,
				"channel": 0,
				"type": "noteOn",
				"noteNumber": 64,
				"velocity": 64
			},
			{
				"deltaTime": 120,
				"channel": 0,
				"type": "noteOff",
				"noteNumber": 64,
				"velocity": 64
			},
			{
				"deltaTime": 0,
				"channel": 0,
				"type": "noteOn",
				"noteNumber": 76,
				"velocity": 64
			},
			{
				"deltaTime": 120,
				"channel": 0,
				"type": "noteOff",
				"noteNumber": 76,
				"velocity": 64
			},
			{
				"deltaTime": 0,
				"channel": 0,
				"type": "noteOn",
				"noteNumber": 73,
				"velocity": 64
			},
			{
				"deltaTime": 120,
				"channel": 0,
				"type": "noteOff",
				"noteNumber": 73,
				"velocity": 64
			},
			{
				"deltaTime": 0,
				"channel": 0,
				"type": "noteOn",
				"noteNumber": 70,
				"velocity": 64
			},
			{
				"deltaTime": 120,
				"channel": 0,
				"type": "noteOff",
				"noteNumber": 70,
				"velocity": 64
			},
			{
				"deltaTime": 0,
				"channel": 0,
				"type": "noteOn",
				"noteNumber": 80,
				"velocity": 64
			},
			{
				"deltaTime": 120,
				"channel": 0,
				"type": "noteOff",
				"noteNumber": 80,
				"velocity": 64
			},
			{
				"deltaTime": 0,
				"channel": 0,
				"type": "noteOn",
				"noteNumber": 78,
				"velocity": 64
			},
			{
				"deltaTime": 120,
				"channel": 0,
				"type": "noteOff",
				"noteNumber": 78,
				"velocity": 64
			},
			{
				"deltaTime": 0,
				"channel": 0,
				"type": "noteOn",
				"noteNumber": 76,
				"velocity": 64
			},
			{
				"deltaTime": 120,
				"channel": 0,
				"type": "noteOff",
				"noteNumber": 76,
				"velocity": 64
			},
			{
				"deltaTime": 0,
				"channel": 0,
				"type": "noteOn",
				"noteNumber": 75,
				"velocity": 64
			},
			{
				"deltaTime": 120,
				"channel": 0,
				"type": "noteOff",
				"noteNumber": 75,
				"velocity": 64
			},
			{
				"deltaTime": 0,
				"channel": 0,
				"type": "noteOn",
				"noteNumber": 73,
				"velocity": 64
			},
			{
				"deltaTime": 120,
				"channel": 0,
				"type": "noteOff",
				"noteNumber": 73,
				"velocity": 64
			},
			{
				"deltaTime": 0,
				"channel": 0,
				"type": "noteOn",
				"noteNumber": 71,
				"velocity": 64
			},
			{
				"deltaTime": 60,
				"channel": 0,
				"type": "noteOff",
				"noteNumber": 71,
				"velocity": 64
			},
			{
				"deltaTime": 0,
				"channel": 0,
				"type": "noteOn",
				"noteNumber": 70,
				"velocity": 64
			},
			{
				"deltaTime": 60,
				"channel": 0,
				"type": "noteOff",
				"noteNumber": 70,
				"velocity": 64
			},
			{
				"deltaTime": 0,
				"channel": 0,
				"type": "noteOn",
				"noteNumber": 64,
				"velocity": 64
			},
			{
				"deltaTime": 30,
				"channel": 0,
				"type": "noteOff",
				"noteNumber": 64,
				"velocity": 64
			},
			{
				"deltaTime": 0,
				"channel": 0,
				"type": "noteOn",
				"noteNumber": 63,
				"velocity": 64
			},
			{
				"deltaTime": 30,
				"channel": 0,
				"type": "noteOff",
				"noteNumber": 63,
				"velocity": 64
			},
			{
				"deltaTime": 0,
				"channel": 0,
				"type": "noteOn",
				"noteNumber": 64,
				"velocity": 64
			},
			{
				"deltaTime": 60,
				"channel": 0,
				"type": "noteOff",
				"noteNumber": 64,
				"velocity": 64
			},
			{
				"deltaTime": 0,
				"channel": 0,
				"type": "noteOn",
				"noteNumber": 70,
				"velocity": 64
			},
			{
				"deltaTime": 30,
				"channel": 0,
				"type": "noteOff",
				"noteNumber": 70,
				"velocity": 64
			},
			{
				"deltaTime": 0,
				"channel": 0,
				"type": "noteOn",
				"noteNumber": 68,
				"velocity": 64
			},
			{
				"deltaTime": 30,
				"channel": 0,
				"type": "noteOff",
				"noteNumber": 68,
				"velocity": 64
			},
			{
				"deltaTime": 0,
				"channel": 0,
				"type": "noteOn",
				"noteNumber": 70,
				"velocity": 64
			},
			{
				"deltaTime": 60,
				"channel": 0,
				"type": "noteOff",
				"noteNumber": 70,
				"velocity": 64
			},
			{
				"deltaTime": 0,
				"channel": 0,
				"type": "noteOn",
				"noteNumber": 71,
				"velocity": 64
			},
			{
				"deltaTime": 30,
				"channel": 0,
				"type": "noteOff",
				"noteNumber": 71,
				"velocity": 64
			},
			{
				"deltaTime": 0,
				"channel": 0,
				"type": "noteOn",
				"noteNumber": 70,
				"velocity": 64
			},
			{
				"deltaTime": 30,
				"channel": 0,
				"type": "noteOff",
				"noteNumber": 70,
				"velocity": 64
			},
			{
				"deltaTime": 0,
				"channel": 0,
				"type": "noteOn",
				"noteNumber": 71,
				"velocity": 64
			},
			{
				"deltaTime": 60,
				"channel": 0,
				"type": "noteOff",
				"noteNumber": 71,
				"velocity": 64
			},
			{
				"deltaTime": 0,
				"channel": 0,
				"type": "noteOn",
				"noteNumber": 63,
				"velocity": 64
			},
			{
				"deltaTime": 60,
				"channel": 0,
				"type": "noteOff",
				"noteNumber": 63,
				"velocity": 64
			},
			{
				"deltaTime": 0,
				"channel": 0,
				"type": "noteOn",
				"noteNumber": 61,
				"velocity": 64
			},
			{
				"deltaTime": 60,
				"channel": 0,
				"type": "noteOff",
				"noteNumber": 61,
				"velocity": 64
			},
			{
				"deltaTime": 0,
				"channel": 0,
				"type": "noteOn",
				"noteNumber": 71,
				"velocity": 64
			},
			{
				"deltaTime": 60,
				"channel": 0,
				"type": "noteOff",
				"noteNumber": 71,
				"velocity": 64
			},
			{
				"deltaTime": 0,
				"channel": 0,
				"type": "noteOn",
				"noteNumber": 61,
				"velocity": 64
			},
			{
				"deltaTime": 60,
				"channel": 0,
				"type": "noteOff",
				"noteNumber": 61,
				"velocity": 64
			},
			{
				"deltaTime": 0,
				"channel": 0,
				"type": "noteOn",
				"noteNumber": 70,
				"velocity": 64
			},
			{
				"deltaTime": 60,
				"channel": 0,
				"type": "noteOff",
				"noteNumber": 70,
				"velocity": 64
			},
			{
				"deltaTime": 0,
				"channel": 0,
				"type": "noteOn",
				"noteNumber": 71,
				"velocity": 64
			},
			{
				"deltaTime": 120,
				"channel": 0,
				"type": "noteOff",
				"noteNumber": 71,
				"velocity": 64
			},
			{
				"deltaTime": 60,
				"channel": 0,
				"type": "noteOn",
				"noteNumber": 71,
				"velocity": 64
			},
			{
				"deltaTime": 60,
				"channel": 0,
				"type": "noteOff",
				"noteNumber": 71,
				"velocity": 64
			},
			{
				"deltaTime": 0,
				"channel": 0,
				"type": "noteOn",
				"noteNumber": 75,
				"velocity": 64
			},
			{
				"deltaTime": 60,
				"channel": 0,
				"type": "noteOff",
				"noteNumber": 75,
				"velocity": 64
			},
			{
				"deltaTime": 0,
				"channel": 0,
				"type": "noteOn",
				"noteNumber": 78,
				"velocity": 64
			},
			{
				"deltaTime": 60,
				"channel": 0,
				"type": "noteOff",
				"noteNumber": 78,
				"velocity": 64
			},
			{
				"deltaTime": 0,
				"channel": 0,
				"type": "noteOn",
				"noteNumber": 83,
				"velocity": 64
			},
			{
				"deltaTime": 120,
				"channel": 0,
				"type": "noteOff",
				"noteNumber": 83,
				"velocity": 64
			},
			{
				"deltaTime": 60,
				"channel": 0,
				"type": "noteOn",
				"noteNumber": 83,
				"velocity": 64
			},
			{
				"deltaTime": 60,
				"channel": 0,
				"type": "noteOff",
				"noteNumber": 83,
				"velocity": 64
			},
			{
				"deltaTime": 0,
				"channel": 0,
				"type": "noteOn",
				"noteNumber": 78,
				"velocity": 64
			},
			{
				"deltaTime": 60,
				"channel": 0,
				"type": "noteOff",
				"noteNumber": 78,
				"velocity": 64
			},
			{
				"deltaTime": 0,
				"channel": 0,
				"type": "noteOn",
				"noteNumber": 75,
				"velocity": 64
			},
			{
				"deltaTime": 60,
				"channel": 0,
				"type": "noteOff",
				"noteNumber": 75,
				"velocity": 64
			},
			{
				"deltaTime": 0,
				"channel": 0,
				"type": "noteOn",
				"noteNumber": 71,
				"velocity": 64
			},
			{
				"deltaTime": 60,
				"channel": 0,
				"type": "noteOff",
				"noteNumber": 71,
				"velocity": 64
			},
			{
				"deltaTime": 0,
				"channel": 0,
				"type": "noteOn",
				"noteNumber": 66,
				"velocity": 64
			},
			{
				"deltaTime": 60,
				"channel": 0,
				"type": "noteOff",
				"noteNumber": 66,
				"velocity": 64
			},
			{
				"deltaTime": 0,
				"channel": 0,
				"type": "noteOn",
				"noteNumber": 63,
				"velocity": 64
			},
			{
				"deltaTime": 60,
				"channel": 0,
				"type": "noteOff",
				"noteNumber": 63,
				"velocity": 64
			},
			{
				"deltaTime": 0,
				"channel": 0,
				"type": "noteOn",
				"noteNumber": 59,
				"velocity": 64
			},
			{
				"deltaTime": 60,
				"channel": 0,
				"type": "noteOff",
				"noteNumber": 59,
				"velocity": 64
			},
			{
				"deltaTime": 180,
				"channel": 0,
				"type": "noteOn",
				"noteNumber": 76,
				"velocity": 64
			},
			{
				"deltaTime": 120,
				"channel": 0,
				"type": "noteOff",
				"noteNumber": 76,
				"velocity": 64
			},
			{
				"deltaTime": 0,
				"channel": 0,
				"type": "noteOn",
				"noteNumber": 75,
				"velocity": 64
			},
			{
				"deltaTime": 120,
				"channel": 0,
				"type": "noteOff",
				"noteNumber": 75,
				"velocity": 64
			},
			{
				"deltaTime": 0,
				"channel": 0,
				"type": "noteOn",
				"noteNumber": 74,
				"velocity": 64
			},
			{
				"deltaTime": 120,
				"channel": 0,
				"type": "noteOff",
				"noteNumber": 74,
				"velocity": 64
			},
			{
				"deltaTime": 0,
				"channel": 0,
				"type": "noteOn",
				"noteNumber": 73,
				"velocity": 64
			},
			{
				"deltaTime": 120,
				"channel": 0,
				"type": "noteOff",
				"noteNumber": 73,
				"velocity": 64
			},
			{
				"deltaTime": 0,
				"channel": 0,
				"type": "noteOn",
				"noteNumber": 71,
				"velocity": 64
			},
			{
				"deltaTime": 120,
				"channel": 0,
				"type": "noteOff",
				"noteNumber": 71,
				"velocity": 64
			},
			{
				"deltaTime": 0,
				"channel": 0,
				"type": "noteOn",
				"noteNumber": 69,
				"velocity": 64
			},
			{
				"deltaTime": 120,
				"channel": 0,
				"type": "noteOff",
				"noteNumber": 69,
				"velocity": 64
			},
			{
				"deltaTime": 0,
				"channel": 0,
				"type": "noteOn",
				"noteNumber": 68,
				"velocity": 64
			},
			{
				"deltaTime": 120,
				"channel": 0,
				"type": "noteOff",
				"noteNumber": 68,
				"velocity": 64
			},
			{
				"deltaTime": 0,
				"channel": 0,
				"type": "noteOn",
				"noteNumber": 66,
				"velocity": 64
			},
			{
				"deltaTime": 120,
				"channel": 0,
				"type": "noteOff",
				"noteNumber": 66,
				"velocity": 64
			},
			{
				"deltaTime": 0,
				"channel": 0,
				"type": "noteOn",
				"noteNumber": 68,
				"velocity": 64
			},
			{
				"deltaTime": 30,
				"channel": 0,
				"type": "noteOff",
				"noteNumber": 68,
				"velocity": 64
			},
			{
				"deltaTime": 0,
				"channel": 0,
				"type": "noteOn",
				"noteNumber": 69,
				"velocity": 64
			},
			{
				"deltaTime": 30,
				"channel": 0,
				"type": "noteOff",
				"noteNumber": 69,
				"velocity": 64
			},
			{
				"deltaTime": 0,
				"channel": 0,
				"type": "noteOn",
				"noteNumber": 68,
				"velocity": 64
			},
			{
				"deltaTime": 60,
				"channel": 0,
				"type": "noteOff",
				"noteNumber": 68,
				"velocity": 64
			},
			{
				"deltaTime": 0,
				"channel": 0,
				"type": "noteOn",
				"noteNumber": 71,
				"velocity": 64
			},
			{
				"deltaTime": 30,
				"channel": 0,
				"type": "noteOff",
				"noteNumber": 71,
				"velocity": 64
			},
			{
				"deltaTime": 0,
				"channel": 0,
				"type": "noteOn",
				"noteNumber": 69,
				"velocity": 64
			},
			{
				"deltaTime": 30,
				"channel": 0,
				"type": "noteOff",
				"noteNumber": 69,
				"velocity": 64
			},
			{
				"deltaTime": 0,
				"channel": 0,
				"type": "noteOn",
				"noteNumber": 71,
				"velocity": 64
			},
			{
				"deltaTime": 60,
				"channel": 0,
				"type": "noteOff",
				"noteNumber": 71,
				"velocity": 64
			},
			{
				"deltaTime": 0,
				"channel": 0,
				"type": "noteOn",
				"noteNumber": 68,
				"velocity": 64
			},
			{
				"deltaTime": 30,
				"channel": 0,
				"type": "noteOff",
				"noteNumber": 68,
				"velocity": 64
			},
			{
				"deltaTime": 0,
				"channel": 0,
				"type": "noteOn",
				"noteNumber": 66,
				"velocity": 64
			},
			{
				"deltaTime": 30,
				"channel": 0,
				"type": "noteOff",
				"noteNumber": 66,
				"velocity": 64
			},
			{
				"deltaTime": 0,
				"channel": 0,
				"type": "noteOn",
				"noteNumber": 68,
				"velocity": 64
			},
			{
				"deltaTime": 60,
				"channel": 0,
				"type": "noteOff",
				"noteNumber": 68,
				"velocity": 64
			},
			{
				"deltaTime": 0,
				"channel": 0,
				"type": "noteOn",
				"noteNumber": 64,
				"velocity": 64
			},
			{
				"deltaTime": 30,
				"channel": 0,
				"type": "noteOff",
				"noteNumber": 64,
				"velocity": 64
			},
			{
				"deltaTime": 0,
				"channel": 0,
				"type": "noteOn",
				"noteNumber": 63,
				"velocity": 64
			},
			{
				"deltaTime": 30,
				"channel": 0,
				"type": "noteOff",
				"noteNumber": 63,
				"velocity": 64
			},
			{
				"deltaTime": 0,
				"channel": 0,
				"type": "noteOn",
				"noteNumber": 64,
				"velocity": 64
			},
			{
				"deltaTime": 120,
				"channel": 0,
				"type": "noteOff",
				"noteNumber": 64,
				"velocity": 64
			},
			{
				"deltaTime": 0,
				"channel": 0,
				"type": "noteOn",
				"noteNumber": 66,
				"velocity": 64
			},
			{
				"deltaTime": 120,
				"channel": 0,
				"type": "noteOff",
				"noteNumber": 66,
				"velocity": 64
			},
			{
				"deltaTime": 0,
				"channel": 0,
				"type": "noteOn",
				"noteNumber": 68,
				"velocity": 64
			},
			{
				"deltaTime": 120,
				"channel": 0,
				"type": "noteOff",
				"noteNumber": 68,
				"velocity": 64
			},
			{
				"deltaTime": 0,
				"channel": 0,
				"type": "noteOn",
				"noteNumber": 69,
				"velocity": 64
			},
			{
				"deltaTime": 120,
				"channel": 0,
				"type": "noteOff",
				"noteNumber": 69,
				"velocity": 64
			},
			{
				"deltaTime": 0,
				"channel": 0,
				"type": "noteOn",
				"noteNumber": 71,
				"velocity": 64
			},
			{
				"deltaTime": 120,
				"channel": 0,
				"type": "noteOff",
				"noteNumber": 71,
				"velocity": 64
			},
			{
				"deltaTime": 0,
				"channel": 0,
				"type": "noteOn",
				"noteNumber": 73,
				"velocity": 64
			},
			{
				"deltaTime": 120,
				"channel": 0,
				"type": "noteOff",
				"noteNumber": 73,
				"velocity": 64
			},
			{
				"deltaTime": 0,
				"channel": 0,
				"type": "noteOn",
				"noteNumber": 75,
				"velocity": 64
			},
			{
				"deltaTime": 120,
				"channel": 0,
				"type": "noteOff",
				"noteNumber": 75,
				"velocity": 64
			},
			{
				"deltaTime": 0,
				"channel": 0,
				"type": "noteOn",
				"noteNumber": 76,
				"velocity": 64
			},
			{
				"deltaTime": 60,
				"channel": 0,
				"type": "noteOff",
				"noteNumber": 76,
				"velocity": 64
			},
			{
				"deltaTime": 0,
				"channel": 0,
				"type": "noteOn",
				"noteNumber": 75,
				"velocity": 64
			},
			{
				"deltaTime": 60,
				"channel": 0,
				"type": "noteOff",
				"noteNumber": 75,
				"velocity": 64
			},
			{
				"deltaTime": 0,
				"channel": 0,
				"type": "noteOn",
				"noteNumber": 73,
				"velocity": 64
			},
			{
				"deltaTime": 60,
				"channel": 0,
				"type": "noteOff",
				"noteNumber": 73,
				"velocity": 64
			},
			{
				"deltaTime": 0,
				"channel": 0,
				"type": "noteOn",
				"noteNumber": 71,
				"velocity": 64
			},
			{
				"deltaTime": 60,
				"channel": 0,
				"type": "noteOff",
				"noteNumber": 71,
				"velocity": 64
			},
			{
				"deltaTime": 0,
				"channel": 0,
				"type": "noteOn",
				"noteNumber": 76,
				"velocity": 64
			},
			{
				"deltaTime": 120,
				"channel": 0,
				"type": "noteOff",
				"noteNumber": 76,
				"velocity": 64
			},
			{
				"deltaTime": 0,
				"channel": 0,
				"type": "noteOn",
				"noteNumber": 64,
				"velocity": 64
			},
			{
				"deltaTime": 120,
				"channel": 0,
				"type": "noteOff",
				"noteNumber": 64,
				"velocity": 64
			},
			{
				"deltaTime": 180,
				"channel": 0,
				"type": "noteOn",
				"noteNumber": 80,
				"velocity": 64
			},
			{
				"deltaTime": 120,
				"channel": 0,
				"type": "noteOff",
				"noteNumber": 80,
				"velocity": 64
			},
			{
				"deltaTime": 0,
				"channel": 0,
				"type": "noteOn",
				"noteNumber": 76,
				"velocity": 64
			},
			{
				"deltaTime": 120,
				"channel": 0,
				"type": "noteOff",
				"noteNumber": 76,
				"velocity": 64
			},
			{
				"deltaTime": 0,
				"channel": 0,
				"type": "noteOn",
				"noteNumber": 73,
				"velocity": 64
			},
			{
				"deltaTime": 120,
				"channel": 0,
				"type": "noteOff",
				"noteNumber": 73,
				"velocity": 64
			},
			{
				"deltaTime": 0,
				"channel": 0,
				"type": "noteOn",
				"noteNumber": 76,
				"velocity": 64
			},
			{
				"deltaTime": 30,
				"channel": 0,
				"type": "noteOff",
				"noteNumber": 76,
				"velocity": 64
			},
			{
				"deltaTime": 0,
				"channel": 0,
				"type": "noteOn",
				"noteNumber": 75,
				"velocity": 64
			},
			{
				"deltaTime": 30,
				"channel": 0,
				"type": "noteOff",
				"noteNumber": 75,
				"velocity": 64
			},
			{
				"deltaTime": 0,
				"channel": 0,
				"type": "noteOn",
				"noteNumber": 76,
				"velocity": 64
			},
			{
				"deltaTime": 60,
				"channel": 0,
				"type": "noteOff",
				"noteNumber": 76,
				"velocity": 64
			},
			{
				"deltaTime": 0,
				"channel": 0,
				"type": "noteOn",
				"noteNumber": 73,
				"velocity": 64
			},
			{
				"deltaTime": 60,
				"channel": 0,
				"type": "noteOff",
				"noteNumber": 73,
				"velocity": 64
			},
			{
				"deltaTime": 0,
				"channel": 0,
				"type": "noteOn",
				"noteNumber": 70,
				"velocity": 64
			},
			{
				"deltaTime": 60,
				"channel": 0,
				"type": "noteOff",
				"noteNumber": 70,
				"velocity": 64
			},
			{
				"deltaTime": 0,
				"channel": 0,
				"type": "noteOn",
				"noteNumber": 66,
				"velocity": 64
			},
			{
				"deltaTime": 120,
				"channel": 0,
				"type": "noteOff",
				"noteNumber": 66,
				"velocity": 64
			},
			{
				"deltaTime": 0,
				"channel": 0,
				"type": "noteOn",
				"noteNumber": 78,
				"velocity": 64
			},
			{
				"deltaTime": 120,
				"channel": 0,
				"type": "noteOff",
				"noteNumber": 78,
				"velocity": 64
			},
			{
				"deltaTime": 0,
				"channel": 0,
				"type": "noteOn",
				"noteNumber": 75,
				"velocity": 64
			},
			{
				"deltaTime": 120,
				"channel": 0,
				"type": "noteOff",
				"noteNumber": 75,
				"velocity": 64
			},
			{
				"deltaTime": 0,
				"channel": 0,
				"type": "noteOn",
				"noteNumber": 71,
				"velocity": 64
			},
			{
				"deltaTime": 120,
				"channel": 0,
				"type": "noteOff",
				"noteNumber": 71,
				"velocity": 64
			},
			{
				"deltaTime": 0,
				"channel": 0,
				"type": "noteOn",
				"noteNumber": 75,
				"velocity": 64
			},
			{
				"deltaTime": 30,
				"channel": 0,
				"type": "noteOff",
				"noteNumber": 75,
				"velocity": 64
			},
			{
				"deltaTime": 0,
				"channel": 0,
				"type": "noteOn",
				"noteNumber": 73,
				"velocity": 64
			},
			{
				"deltaTime": 30,
				"channel": 0,
				"type": "noteOff",
				"noteNumber": 73,
				"velocity": 64
			},
			{
				"deltaTime": 0,
				"channel": 0,
				"type": "noteOn",
				"noteNumber": 75,
				"velocity": 64
			},
			{
				"deltaTime": 60,
				"channel": 0,
				"type": "noteOff",
				"noteNumber": 75,
				"velocity": 64
			},
			{
				"deltaTime": 0,
				"channel": 0,
				"type": "noteOn",
				"noteNumber": 71,
				"velocity": 64
			},
			{
				"deltaTime": 60,
				"channel": 0,
				"type": "noteOff",
				"noteNumber": 71,
				"velocity": 64
			},
			{
				"deltaTime": 0,
				"channel": 0,
				"type": "noteOn",
				"noteNumber": 68,
				"velocity": 64
			},
			{
				"deltaTime": 60,
				"channel": 0,
				"type": "noteOff",
				"noteNumber": 68,
				"velocity": 64
			},
			{
				"deltaTime": 0,
				"channel": 0,
				"type": "noteOn",
				"noteNumber": 64,
				"velocity": 64
			},
			{
				"deltaTime": 120,
				"channel": 0,
				"type": "noteOff",
				"noteNumber": 64,
				"velocity": 64
			},
			{
				"deltaTime": 0,
				"channel": 0,
				"type": "noteOn",
				"noteNumber": 76,
				"velocity": 64
			},
			{
				"deltaTime": 120,
				"channel": 0,
				"type": "noteOff",
				"noteNumber": 76,
				"velocity": 64
			},
			{
				"deltaTime": 0,
				"channel": 0,
				"type": "noteOn",
				"noteNumber": 73,
				"velocity": 64
			},
			{
				"deltaTime": 120,
				"channel": 0,
				"type": "noteOff",
				"noteNumber": 73,
				"velocity": 64
			},
			{
				"deltaTime": 0,
				"channel": 0,
				"type": "noteOn",
				"noteNumber": 70,
				"velocity": 64
			},
			{
				"deltaTime": 120,
				"channel": 0,
				"type": "noteOff",
				"noteNumber": 70,
				"velocity": 64
			},
			{
				"deltaTime": 0,
				"channel": 0,
				"type": "noteOn",
				"noteNumber": 80,
				"velocity": 64
			},
			{
				"deltaTime": 120,
				"channel": 0,
				"type": "noteOff",
				"noteNumber": 80,
				"velocity": 64
			},
			{
				"deltaTime": 0,
				"channel": 0,
				"type": "noteOn",
				"noteNumber": 78,
				"velocity": 64
			},
			{
				"deltaTime": 120,
				"channel": 0,
				"type": "noteOff",
				"noteNumber": 78,
				"velocity": 64
			},
			{
				"deltaTime": 0,
				"channel": 0,
				"type": "noteOn",
				"noteNumber": 76,
				"velocity": 64
			},
			{
				"deltaTime": 120,
				"channel": 0,
				"type": "noteOff",
				"noteNumber": 76,
				"velocity": 64
			},
			{
				"deltaTime": 0,
				"channel": 0,
				"type": "noteOn",
				"noteNumber": 75,
				"velocity": 64
			},
			{
				"deltaTime": 120,
				"channel": 0,
				"type": "noteOff",
				"noteNumber": 75,
				"velocity": 64
			},
			{
				"deltaTime": 0,
				"channel": 0,
				"type": "noteOn",
				"noteNumber": 73,
				"velocity": 64
			},
			{
				"deltaTime": 120,
				"channel": 0,
				"type": "noteOff",
				"noteNumber": 73,
				"velocity": 64
			},
			{
				"deltaTime": 0,
				"channel": 0,
				"type": "noteOn",
				"noteNumber": 71,
				"velocity": 64
			},
			{
				"deltaTime": 60,
				"channel": 0,
				"type": "noteOff",
				"noteNumber": 71,
				"velocity": 64
			},
			{
				"deltaTime": 0,
				"channel": 0,
				"type": "noteOn",
				"noteNumber": 70,
				"velocity": 64
			},
			{
				"deltaTime": 60,
				"channel": 0,
				"type": "noteOff",
				"noteNumber": 70,
				"velocity": 64
			},
			{
				"deltaTime": 0,
				"channel": 0,
				"type": "noteOn",
				"noteNumber": 64,
				"velocity": 64
			},
			{
				"deltaTime": 30,
				"channel": 0,
				"type": "noteOff",
				"noteNumber": 64,
				"velocity": 64
			},
			{
				"deltaTime": 0,
				"channel": 0,
				"type": "noteOn",
				"noteNumber": 63,
				"velocity": 64
			},
			{
				"deltaTime": 30,
				"channel": 0,
				"type": "noteOff",
				"noteNumber": 63,
				"velocity": 64
			},
			{
				"deltaTime": 0,
				"channel": 0,
				"type": "noteOn",
				"noteNumber": 64,
				"velocity": 64
			},
			{
				"deltaTime": 60,
				"channel": 0,
				"type": "noteOff",
				"noteNumber": 64,
				"velocity": 64
			},
			{
				"deltaTime": 0,
				"channel": 0,
				"type": "noteOn",
				"noteNumber": 70,
				"velocity": 64
			},
			{
				"deltaTime": 30,
				"channel": 0,
				"type": "noteOff",
				"noteNumber": 70,
				"velocity": 64
			},
			{
				"deltaTime": 0,
				"channel": 0,
				"type": "noteOn",
				"noteNumber": 68,
				"velocity": 64
			},
			{
				"deltaTime": 30,
				"channel": 0,
				"type": "noteOff",
				"noteNumber": 68,
				"velocity": 64
			},
			{
				"deltaTime": 0,
				"channel": 0,
				"type": "noteOn",
				"noteNumber": 70,
				"velocity": 64
			},
			{
				"deltaTime": 60,
				"channel": 0,
				"type": "noteOff",
				"noteNumber": 70,
				"velocity": 64
			},
			{
				"deltaTime": 0,
				"channel": 0,
				"type": "noteOn",
				"noteNumber": 71,
				"velocity": 64
			},
			{
				"deltaTime": 30,
				"channel": 0,
				"type": "noteOff",
				"noteNumber": 71,
				"velocity": 64
			},
			{
				"deltaTime": 0,
				"channel": 0,
				"type": "noteOn",
				"noteNumber": 70,
				"velocity": 64
			},
			{
				"deltaTime": 30,
				"channel": 0,
				"type": "noteOff",
				"noteNumber": 70,
				"velocity": 64
			},
			{
				"deltaTime": 0,
				"channel": 0,
				"type": "noteOn",
				"noteNumber": 71,
				"velocity": 64
			},
			{
				"deltaTime": 60,
				"channel": 0,
				"type": "noteOff",
				"noteNumber": 71,
				"velocity": 64
			},
			{
				"deltaTime": 0,
				"channel": 0,
				"type": "noteOn",
				"noteNumber": 63,
				"velocity": 64
			},
			{
				"deltaTime": 60,
				"channel": 0,
				"type": "noteOff",
				"noteNumber": 63,
				"velocity": 64
			},
			{
				"deltaTime": 0,
				"channel": 0,
				"type": "noteOn",
				"noteNumber": 61,
				"velocity": 64
			},
			{
				"deltaTime": 60,
				"channel": 0,
				"type": "noteOff",
				"noteNumber": 61,
				"velocity": 64
			},
			{
				"deltaTime": 0,
				"channel": 0,
				"type": "noteOn",
				"noteNumber": 71,
				"velocity": 64
			},
			{
				"deltaTime": 60,
				"channel": 0,
				"type": "noteOff",
				"noteNumber": 71,
				"velocity": 64
			},
			{
				"deltaTime": 0,
				"channel": 0,
				"type": "noteOn",
				"noteNumber": 61,
				"velocity": 64
			},
			{
				"deltaTime": 60,
				"channel": 0,
				"type": "noteOff",
				"noteNumber": 61,
				"velocity": 64
			},
			{
				"deltaTime": 0,
				"channel": 0,
				"type": "noteOn",
				"noteNumber": 70,
				"velocity": 64
			},
			{
				"deltaTime": 60,
				"channel": 0,
				"type": "noteOff",
				"noteNumber": 70,
				"velocity": 64
			},
			{
				"deltaTime": 0,
				"channel": 0,
				"type": "noteOn",
				"noteNumber": 71,
				"velocity": 64
			},
			{
				"deltaTime": 120,
				"channel": 0,
				"type": "noteOff",
				"noteNumber": 71,
				"velocity": 64
			},
			{
				"deltaTime": 60,
				"channel": 0,
				"type": "noteOn",
				"noteNumber": 71,
				"velocity": 64
			},
			{
				"deltaTime": 60,
				"channel": 0,
				"type": "noteOff",
				"noteNumber": 71,
				"velocity": 64
			},
			{
				"deltaTime": 0,
				"channel": 0,
				"type": "noteOn",
				"noteNumber": 75,
				"velocity": 64
			},
			{
				"deltaTime": 60,
				"channel": 0,
				"type": "noteOff",
				"noteNumber": 75,
				"velocity": 64
			},
			{
				"deltaTime": 0,
				"channel": 0,
				"type": "noteOn",
				"noteNumber": 78,
				"velocity": 64
			},
			{
				"deltaTime": 60,
				"channel": 0,
				"type": "noteOff",
				"noteNumber": 78,
				"velocity": 64
			},
			{
				"deltaTime": 0,
				"channel": 0,
				"type": "noteOn",
				"noteNumber": 83,
				"velocity": 64
			},
			{
				"deltaTime": 120,
				"channel": 0,
				"type": "noteOff",
				"noteNumber": 83,
				"velocity": 64
			},
			{
				"deltaTime": 60,
				"channel": 0,
				"type": "noteOn",
				"noteNumber": 83,
				"velocity": 64
			},
			{
				"deltaTime": 60,
				"channel": 0,
				"type": "noteOff",
				"noteNumber": 83,
				"velocity": 64
			},
			{
				"deltaTime": 0,
				"channel": 0,
				"type": "noteOn",
				"noteNumber": 78,
				"velocity": 64
			},
			{
				"deltaTime": 60,
				"channel": 0,
				"type": "noteOff",
				"noteNumber": 78,
				"velocity": 64
			},
			{
				"deltaTime": 0,
				"channel": 0,
				"type": "noteOn",
				"noteNumber": 75,
				"velocity": 64
			},
			{
				"deltaTime": 60,
				"channel": 0,
				"type": "noteOff",
				"noteNumber": 75,
				"velocity": 64
			},
			{
				"deltaTime": 0,
				"channel": 0,
				"type": "noteOn",
				"noteNumber": 71,
				"velocity": 64
			},
			{
				"deltaTime": 60,
				"channel": 0,
				"type": "noteOff",
				"noteNumber": 71,
				"velocity": 64
			},
			{
				"deltaTime": 0,
				"channel": 0,
				"type": "noteOn",
				"noteNumber": 66,
				"velocity": 64
			},
			{
				"deltaTime": 60,
				"channel": 0,
				"type": "noteOff",
				"noteNumber": 66,
				"velocity": 64
			},
			{
				"deltaTime": 0,
				"channel": 0,
				"type": "noteOn",
				"noteNumber": 63,
				"velocity": 64
			},
			{
				"deltaTime": 60,
				"channel": 0,
				"type": "noteOff",
				"noteNumber": 63,
				"velocity": 64
			},
			{
				"deltaTime": 0,
				"channel": 0,
				"type": "noteOn",
				"noteNumber": 59,
				"velocity": 64
			},
			{
				"deltaTime": 60,
				"channel": 0,
				"type": "noteOff",
				"noteNumber": 59,
				"velocity": 64
			},
			{
				"deltaTime": 120,
				"channel": 0,
				"type": "noteOn",
				"noteNumber": 59,
				"velocity": 64
			},
			{
				"deltaTime": 60,
				"channel": 0,
				"type": "noteOff",
				"noteNumber": 59,
				"velocity": 64
			},
			{
				"deltaTime": 60,
				"channel": 0,
				"type": "noteOn",
				"noteNumber": 61,
				"velocity": 64
			},
			{
				"deltaTime": 120,
				"channel": 0,
				"type": "noteOff",
				"noteNumber": 61,
				"velocity": 64
			},
			{
				"deltaTime": 0,
				"channel": 0,
				"type": "noteOn",
				"noteNumber": 63,
				"velocity": 64
			},
			{
				"deltaTime": 120,
				"channel": 0,
				"type": "noteOff",
				"noteNumber": 63,
				"velocity": 64
			},
			{
				"deltaTime": 0,
				"channel": 0,
				"type": "noteOn",
				"noteNumber": 64,
				"velocity": 64
			},
			{
				"deltaTime": 120,
				"channel": 0,
				"type": "noteOff",
				"noteNumber": 64,
				"velocity": 64
			},
			{
				"deltaTime": 0,
				"channel": 0,
				"type": "noteOn",
				"noteNumber": 66,
				"velocity": 64
			},
			{
				"deltaTime": 120,
				"channel": 0,
				"type": "noteOff",
				"noteNumber": 66,
				"velocity": 64
			},
			{
				"deltaTime": 0,
				"channel": 0,
				"type": "noteOn",
				"noteNumber": 68,
				"velocity": 64
			},
			{
				"deltaTime": 120,
				"channel": 0,
				"type": "noteOff",
				"noteNumber": 68,
				"velocity": 64
			},
			{
				"deltaTime": 0,
				"channel": 0,
				"type": "noteOn",
				"noteNumber": 70,
				"velocity": 64
			},
			{
				"deltaTime": 120,
				"channel": 0,
				"type": "noteOff",
				"noteNumber": 70,
				"velocity": 64
			},
			{
				"deltaTime": 0,
				"channel": 0,
				"type": "noteOn",
				"noteNumber": 71,
				"velocity": 64
			},
			{
				"deltaTime": 60,
				"channel": 0,
				"type": "noteOff",
				"noteNumber": 71,
				"velocity": 64
			},
			{
				"deltaTime": 0,
				"channel": 0,
				"type": "noteOn",
				"noteNumber": 70,
				"velocity": 64
			},
			{
				"deltaTime": 60,
				"channel": 0,
				"type": "noteOff",
				"noteNumber": 70,
				"velocity": 64
			},
			{
				"deltaTime": 0,
				"channel": 0,
				"type": "noteOn",
				"noteNumber": 68,
				"velocity": 64
			},
			{
				"deltaTime": 60,
				"channel": 0,
				"type": "noteOff",
				"noteNumber": 68,
				"velocity": 64
			},
			{
				"deltaTime": 0,
				"channel": 0,
				"type": "noteOn",
				"noteNumber": 66,
				"velocity": 64
			},
			{
				"deltaTime": 60,
				"channel": 0,
				"type": "noteOff",
				"noteNumber": 66,
				"velocity": 64
			},
			{
				"deltaTime": 0,
				"channel": 0,
				"type": "noteOn",
				"noteNumber": 71,
				"velocity": 64
			},
			{
				"deltaTime": 120,
				"channel": 0,
				"type": "noteOff",
				"noteNumber": 71,
				"velocity": 64
			},
			{
				"deltaTime": 0,
				"channel": 0,
				"type": "noteOn",
				"noteNumber": 59,
				"velocity": 64
			},
			{
				"deltaTime": 120,
				"channel": 0,
				"type": "noteOff",
				"noteNumber": 59,
				"velocity": 64
			},
			{
				"deltaTime": 180,
				"channel": 0,
				"type": "noteOn",
				"noteNumber": 83,
				"velocity": 64
			},
			{
				"deltaTime": 120,
				"channel": 0,
				"type": "noteOff",
				"noteNumber": 83,
				"velocity": 64
			},
			{
				"deltaTime": 0,
				"channel": 0,
				"type": "noteOn",
				"noteNumber": 82,
				"velocity": 64
			},
			{
				"deltaTime": 120,
				"channel": 0,
				"type": "noteOff",
				"noteNumber": 82,
				"velocity": 64
			},
			{
				"deltaTime": 0,
				"channel": 0,
				"type": "noteOn",
				"noteNumber": 81,
				"velocity": 64
			},
			{
				"deltaTime": 120,
				"channel": 0,
				"type": "noteOff",
				"noteNumber": 81,
				"velocity": 64
			},
			{
				"deltaTime": 0,
				"channel": 0,
				"type": "noteOn",
				"noteNumber": 80,
				"velocity": 64
			},
			{
				"deltaTime": 120,
				"channel": 0,
				"type": "noteOff",
				"noteNumber": 80,
				"velocity": 64
			},
			{
				"deltaTime": 0,
				"channel": 0,
				"type": "noteOn",
				"noteNumber": 78,
				"velocity": 64
			},
			{
				"deltaTime": 120,
				"channel": 0,
				"type": "noteOff",
				"noteNumber": 78,
				"velocity": 64
			},
			{
				"deltaTime": 0,
				"channel": 0,
				"type": "noteOn",
				"noteNumber": 76,
				"velocity": 64
			},
			{
				"deltaTime": 120,
				"channel": 0,
				"type": "noteOff",
				"noteNumber": 76,
				"velocity": 64
			},
			{
				"deltaTime": 0,
				"channel": 0,
				"type": "noteOn",
				"noteNumber": 75,
				"velocity": 64
			},
			{
				"deltaTime": 120,
				"channel": 0,
				"type": "noteOff",
				"noteNumber": 75,
				"velocity": 64
			},
			{
				"deltaTime": 0,
				"channel": 0,
				"type": "noteOn",
				"noteNumber": 73,
				"velocity": 64
			},
			{
				"deltaTime": 120,
				"channel": 0,
				"type": "noteOff",
				"noteNumber": 73,
				"velocity": 64
			},
			{
				"deltaTime": 0,
				"channel": 0,
				"type": "noteOn",
				"noteNumber": 75,
				"velocity": 64
			},
			{
				"deltaTime": 30,
				"channel": 0,
				"type": "noteOff",
				"noteNumber": 75,
				"velocity": 64
			},
			{
				"deltaTime": 0,
				"channel": 0,
				"type": "noteOn",
				"noteNumber": 76,
				"velocity": 64
			},
			{
				"deltaTime": 30,
				"channel": 0,
				"type": "noteOff",
				"noteNumber": 76,
				"velocity": 64
			},
			{
				"deltaTime": 0,
				"channel": 0,
				"type": "noteOn",
				"noteNumber": 75,
				"velocity": 64
			},
			{
				"deltaTime": 60,
				"channel": 0,
				"type": "noteOff",
				"noteNumber": 75,
				"velocity": 64
			},
			{
				"deltaTime": 0,
				"channel": 0,
				"type": "noteOn",
				"noteNumber": 78,
				"velocity": 64
			},
			{
				"deltaTime": 30,
				"channel": 0,
				"type": "noteOff",
				"noteNumber": 78,
				"velocity": 64
			},
			{
				"deltaTime": 0,
				"channel": 0,
				"type": "noteOn",
				"noteNumber": 76,
				"velocity": 64
			},
			{
				"deltaTime": 30,
				"channel": 0,
				"type": "noteOff",
				"noteNumber": 76,
				"velocity": 64
			},
			{
				"deltaTime": 0,
				"channel": 0,
				"type": "noteOn",
				"noteNumber": 78,
				"velocity": 64
			},
			{
				"deltaTime": 60,
				"channel": 0,
				"type": "noteOff",
				"noteNumber": 78,
				"velocity": 64
			},
			{
				"deltaTime": 0,
				"channel": 0,
				"type": "noteOn",
				"noteNumber": 75,
				"velocity": 64
			},
			{
				"deltaTime": 30,
				"channel": 0,
				"type": "noteOff",
				"noteNumber": 75,
				"velocity": 64
			},
			{
				"deltaTime": 0,
				"channel": 0,
				"type": "noteOn",
				"noteNumber": 73,
				"velocity": 64
			},
			{
				"deltaTime": 30,
				"channel": 0,
				"type": "noteOff",
				"noteNumber": 73,
				"velocity": 64
			},
			{
				"deltaTime": 0,
				"channel": 0,
				"type": "noteOn",
				"noteNumber": 75,
				"velocity": 64
			},
			{
				"deltaTime": 60,
				"channel": 0,
				"type": "noteOff",
				"noteNumber": 75,
				"velocity": 64
			},
			{
				"deltaTime": 0,
				"channel": 0,
				"type": "noteOn",
				"noteNumber": 71,
				"velocity": 64
			},
			{
				"deltaTime": 30,
				"channel": 0,
				"type": "noteOff",
				"noteNumber": 71,
				"velocity": 64
			},
			{
				"deltaTime": 0,
				"channel": 0,
				"type": "noteOn",
				"noteNumber": 70,
				"velocity": 64
			},
			{
				"deltaTime": 30,
				"channel": 0,
				"type": "noteOff",
				"noteNumber": 70,
				"velocity": 64
			},
			{
				"deltaTime": 0,
				"channel": 0,
				"type": "noteOn",
				"noteNumber": 71,
				"velocity": 64
			},
			{
				"deltaTime": 60,
				"channel": 0,
				"type": "noteOff",
				"noteNumber": 71,
				"velocity": 64
			},
			{
				"deltaTime": 0,
				"channel": 0,
				"type": "noteOn",
				"noteNumber": 75,
				"velocity": 64
			},
			{
				"deltaTime": 30,
				"channel": 0,
				"type": "noteOff",
				"noteNumber": 75,
				"velocity": 64
			},
			{
				"deltaTime": 0,
				"channel": 0,
				"type": "noteOn",
				"noteNumber": 73,
				"velocity": 64
			},
			{
				"deltaTime": 30,
				"channel": 0,
				"type": "noteOff",
				"noteNumber": 73,
				"velocity": 64
			},
			{
				"deltaTime": 0,
				"channel": 0,
				"type": "noteOn",
				"noteNumber": 75,
				"velocity": 64
			},
			{
				"deltaTime": 60,
				"channel": 0,
				"type": "noteOff",
				"noteNumber": 75,
				"velocity": 64
			},
			{
				"deltaTime": 0,
				"channel": 0,
				"type": "noteOn",
				"noteNumber": 80,
				"velocity": 64
			},
			{
				"deltaTime": 30,
				"channel": 0,
				"type": "noteOff",
				"noteNumber": 80,
				"velocity": 64
			},
			{
				"deltaTime": 0,
				"channel": 0,
				"type": "noteOn",
				"noteNumber": 79,
				"velocity": 64
			},
			{
				"deltaTime": 30,
				"channel": 0,
				"type": "noteOff",
				"noteNumber": 79,
				"velocity": 64
			},
			{
				"deltaTime": 0,
				"channel": 0,
				"type": "noteOn",
				"noteNumber": 80,
				"velocity": 64
			},
			{
				"deltaTime": 60,
				"channel": 0,
				"type": "noteOff",
				"noteNumber": 80,
				"velocity": 64
			},
			{
				"deltaTime": 0,
				"channel": 0,
				"type": "noteOn",
				"noteNumber": 73,
				"velocity": 64
			},
			{
				"deltaTime": 30,
				"channel": 0,
				"type": "noteOff",
				"noteNumber": 73,
				"velocity": 64
			},
			{
				"deltaTime": 0,
				"channel": 0,
				"type": "noteOn",
				"noteNumber": 71,
				"velocity": 64
			},
			{
				"deltaTime": 30,
				"channel": 0,
				"type": "noteOff",
				"noteNumber": 71,
				"velocity": 64
			},
			{
				"deltaTime": 0,
				"channel": 0,
				"type": "noteOn",
				"noteNumber": 73,
				"velocity": 64
			},
			{
				"deltaTime": 60,
				"channel": 0,
				"type": "noteOff",
				"noteNumber": 73,
				"velocity": 64
			},
			{
				"deltaTime": 0,
				"channel": 0,
				"type": "noteOn",
				"noteNumber": 76,
				"velocity": 64
			},
			{
				"deltaTime": 30,
				"channel": 0,
				"type": "noteOff",
				"noteNumber": 76,
				"velocity": 64
			},
			{
				"deltaTime": 0,
				"channel": 0,
				"type": "noteOn",
				"noteNumber": 75,
				"velocity": 64
			},
			{
				"deltaTime": 30,
				"channel": 0,
				"type": "noteOff",
				"noteNumber": 75,
				"velocity": 64
			},
			{
				"deltaTime": 0,
				"channel": 0,
				"type": "noteOn",
				"noteNumber": 76,
				"velocity": 64
			},
			{
				"deltaTime": 60,
				"channel": 0,
				"type": "noteOff",
				"noteNumber": 76,
				"velocity": 64
			},
			{
				"deltaTime": 0,
				"channel": 0,
				"type": "noteOn",
				"noteNumber": 82,
				"velocity": 64
			},
			{
				"deltaTime": 30,
				"channel": 0,
				"type": "noteOff",
				"noteNumber": 82,
				"velocity": 64
			},
			{
				"deltaTime": 0,
				"channel": 0,
				"type": "noteOn",
				"noteNumber": 80,
				"velocity": 64
			},
			{
				"deltaTime": 30,
				"channel": 0,
				"type": "noteOff",
				"noteNumber": 80,
				"velocity": 64
			},
			{
				"deltaTime": 0,
				"channel": 0,
				"type": "noteOn",
				"noteNumber": 82,
				"velocity": 64
			},
			{
				"deltaTime": 60,
				"channel": 0,
				"type": "noteOff",
				"noteNumber": 82,
				"velocity": 64
			},
			{
				"deltaTime": 0,
				"channel": 0,
				"type": "noteOn",
				"noteNumber": 75,
				"velocity": 64
			},
			{
				"deltaTime": 30,
				"channel": 0,
				"type": "noteOff",
				"noteNumber": 75,
				"velocity": 64
			},
			{
				"deltaTime": 0,
				"channel": 0,
				"type": "noteOn",
				"noteNumber": 73,
				"velocity": 64
			},
			{
				"deltaTime": 30,
				"channel": 0,
				"type": "noteOff",
				"noteNumber": 73,
				"velocity": 64
			},
			{
				"deltaTime": 0,
				"channel": 0,
				"type": "noteOn",
				"noteNumber": 75,
				"velocity": 64
			},
			{
				"deltaTime": 60,
				"channel": 0,
				"type": "noteOff",
				"noteNumber": 75,
				"velocity": 64
			},
			{
				"deltaTime": 0,
				"channel": 0,
				"type": "noteOn",
				"noteNumber": 80,
				"velocity": 64
			},
			{
				"deltaTime": 30,
				"channel": 0,
				"type": "noteOff",
				"noteNumber": 80,
				"velocity": 64
			},
			{
				"deltaTime": 0,
				"channel": 0,
				"type": "noteOn",
				"noteNumber": 79,
				"velocity": 64
			},
			{
				"deltaTime": 30,
				"channel": 0,
				"type": "noteOff",
				"noteNumber": 79,
				"velocity": 64
			},
			{
				"deltaTime": 0,
				"channel": 0,
				"type": "noteOn",
				"noteNumber": 80,
				"velocity": 64
			},
			{
				"deltaTime": 60,
				"channel": 0,
				"type": "noteOff",
				"noteNumber": 80,
				"velocity": 64
			},
			{
				"deltaTime": 0,
				"channel": 0,
				"type": "noteOn",
				"noteNumber": 83,
				"velocity": 64
			},
			{
				"deltaTime": 30,
				"channel": 0,
				"type": "noteOff",
				"noteNumber": 83,
				"velocity": 64
			},
			{
				"deltaTime": 0,
				"channel": 0,
				"type": "noteOn",
				"noteNumber": 82,
				"velocity": 64
			},
			{
				"deltaTime": 30,
				"channel": 0,
				"type": "noteOff",
				"noteNumber": 82,
				"velocity": 64
			},
			{
				"deltaTime": 0,
				"channel": 0,
				"type": "noteOn",
				"noteNumber": 83,
				"velocity": 64
			},
			{
				"deltaTime": 60,
				"channel": 0,
				"type": "noteOff",
				"noteNumber": 83,
				"velocity": 64
			},
			{
				"deltaTime": 0,
				"channel": 0,
				"type": "noteOn",
				"noteNumber": 75,
				"velocity": 64
			},
			{
				"deltaTime": 30,
				"channel": 0,
				"type": "noteOff",
				"noteNumber": 75,
				"velocity": 64
			},
			{
				"deltaTime": 0,
				"channel": 0,
				"type": "noteOn",
				"noteNumber": 74,
				"velocity": 64
			},
			{
				"deltaTime": 30,
				"channel": 0,
				"type": "noteOff",
				"noteNumber": 74,
				"velocity": 64
			},
			{
				"deltaTime": 0,
				"channel": 0,
				"type": "noteOn",
				"noteNumber": 75,
				"velocity": 64
			},
			{
				"deltaTime": 60,
				"channel": 0,
				"type": "noteOff",
				"noteNumber": 75,
				"velocity": 64
			},
			{
				"deltaTime": 0,
				"channel": 0,
				"type": "noteOn",
				"noteNumber": 82,
				"velocity": 64
			},
			{
				"deltaTime": 30,
				"channel": 0,
				"type": "noteOff",
				"noteNumber": 82,
				"velocity": 64
			},
			{
				"deltaTime": 0,
				"channel": 0,
				"type": "noteOn",
				"noteNumber": 80,
				"velocity": 64
			},
			{
				"deltaTime": 30,
				"channel": 0,
				"type": "noteOff",
				"noteNumber": 80,
				"velocity": 64
			},
			{
				"deltaTime": 0,
				"channel": 0,
				"type": "noteOn",
				"noteNumber": 82,
				"velocity": 64
			},
			{
				"deltaTime": 60,
				"channel": 0,
				"type": "noteOff",
				"noteNumber": 82,
				"velocity": 64
			},
			{
				"deltaTime": 0,
				"channel": 0,
				"type": "noteOn",
				"noteNumber": 79,
				"velocity": 64
			},
			{
				"deltaTime": 30,
				"channel": 0,
				"type": "noteOff",
				"noteNumber": 79,
				"velocity": 64
			},
			{
				"deltaTime": 0,
				"channel": 0,
				"type": "noteOn",
				"noteNumber": 77,
				"velocity": 64
			},
			{
				"deltaTime": 30,
				"channel": 0,
				"type": "noteOff",
				"noteNumber": 77,
				"velocity": 64
			},
			{
				"deltaTime": 0,
				"channel": 0,
				"type": "noteOn",
				"noteNumber": 79,
				"velocity": 64
			},
			{
				"deltaTime": 60,
				"channel": 0,
				"type": "noteOff",
				"noteNumber": 79,
				"velocity": 64
			},
			{
				"deltaTime": 0,
				"channel": 0,
				"type": "noteOn",
				"noteNumber": 75,
				"velocity": 64
			},
			{
				"deltaTime": 30,
				"channel": 0,
				"type": "noteOff",
				"noteNumber": 75,
				"velocity": 64
			},
			{
				"deltaTime": 0,
				"channel": 0,
				"type": "noteOn",
				"noteNumber": 74,
				"velocity": 64
			},
			{
				"deltaTime": 30,
				"channel": 0,
				"type": "noteOff",
				"noteNumber": 74,
				"velocity": 64
			},
			{
				"deltaTime": 0,
				"channel": 0,
				"type": "noteOn",
				"noteNumber": 74,
				"velocity": 64
			},
			{
				"deltaTime": 60,
				"channel": 0,
				"type": "noteOff",
				"noteNumber": 74,
				"velocity": 64
			},
			{
				"deltaTime": 0,
				"channel": 0,
				"type": "noteOn",
				"noteNumber": 81,
				"velocity": 64
			},
			{
				"deltaTime": 120,
				"channel": 0,
				"type": "noteOff",
				"noteNumber": 81,
				"velocity": 64
			},
			{
				"deltaTime": 0,
				"channel": 0,
				"type": "noteOn",
				"noteNumber": 80,
				"velocity": 64
			},
			{
				"deltaTime": 120,
				"channel": 0,
				"type": "noteOff",
				"noteNumber": 80,
				"velocity": 64
			},
			{
				"deltaTime": 0,
				"channel": 0,
				"type": "noteOn",
				"noteNumber": 78,
				"velocity": 64
			},
			{
				"deltaTime": 120,
				"channel": 0,
				"type": "noteOff",
				"noteNumber": 78,
				"velocity": 64
			},
			{
				"deltaTime": 0,
				"channel": 0,
				"type": "noteOn",
				"noteNumber": 76,
				"velocity": 64
			},
			{
				"deltaTime": 30,
				"channel": 0,
				"type": "noteOff",
				"noteNumber": 76,
				"velocity": 64
			},
			{
				"deltaTime": 0,
				"channel": 0,
				"type": "noteOn",
				"noteNumber": 75,
				"velocity": 64
			},
			{
				"deltaTime": 30,
				"channel": 0,
				"type": "noteOff",
				"noteNumber": 75,
				"velocity": 64
			},
			{
				"deltaTime": 0,
				"channel": 0,
				"type": "noteOn",
				"noteNumber": 76,
				"velocity": 64
			},
			{
				"deltaTime": 60,
				"channel": 0,
				"type": "noteOff",
				"noteNumber": 76,
				"velocity": 64
			},
			{
				"deltaTime": 0,
				"channel": 0,
				"type": "noteOn",
				"noteNumber": 73,
				"velocity": 64
			},
			{
				"deltaTime": 30,
				"channel": 0,
				"type": "noteOff",
				"noteNumber": 73,
				"velocity": 64
			},
			{
				"deltaTime": 0,
				"channel": 0,
				"type": "noteOn",
				"noteNumber": 72,
				"velocity": 64
			},
			{
				"deltaTime": 30,
				"channel": 0,
				"type": "noteOff",
				"noteNumber": 72,
				"velocity": 64
			},
			{
				"deltaTime": 0,
				"channel": 0,
				"type": "noteOn",
				"noteNumber": 73,
				"velocity": 64
			},
			{
				"deltaTime": 60,
				"channel": 0,
				"type": "noteOff",
				"noteNumber": 73,
				"velocity": 64
			},
			{
				"deltaTime": 0,
				"channel": 0,
				"type": "noteOn",
				"noteNumber": 76,
				"velocity": 64
			},
			{
				"deltaTime": 30,
				"channel": 0,
				"type": "noteOff",
				"noteNumber": 76,
				"velocity": 64
			},
			{
				"deltaTime": 0,
				"channel": 0,
				"type": "noteOn",
				"noteNumber": 75,
				"velocity": 64
			},
			{
				"deltaTime": 30,
				"channel": 0,
				"type": "noteOff",
				"noteNumber": 75,
				"velocity": 64
			},
			{
				"deltaTime": 0,
				"channel": 0,
				"type": "noteOn",
				"noteNumber": 76,
				"velocity": 64
			},
			{
				"deltaTime": 60,
				"channel": 0,
				"type": "noteOff",
				"noteNumber": 76,
				"velocity": 64
			},
			{
				"deltaTime": 0,
				"channel": 0,
				"type": "noteOn",
				"noteNumber": 80,
				"velocity": 64
			},
			{
				"deltaTime": 120,
				"channel": 0,
				"type": "noteOff",
				"noteNumber": 80,
				"velocity": 64
			},
			{
				"deltaTime": 0,
				"channel": 0,
				"type": "noteOn",
				"noteNumber": 78,
				"velocity": 64
			},
			{
				"deltaTime": 120,
				"channel": 0,
				"type": "noteOff",
				"noteNumber": 78,
				"velocity": 64
			},
			{
				"deltaTime": 0,
				"channel": 0,
				"type": "noteOn",
				"noteNumber": 76,
				"velocity": 64
			},
			{
				"deltaTime": 120,
				"channel": 0,
				"type": "noteOff",
				"noteNumber": 76,
				"velocity": 64
			},
			{
				"deltaTime": 0,
				"channel": 0,
				"type": "noteOn",
				"noteNumber": 75,
				"velocity": 64
			},
			{
				"deltaTime": 30,
				"channel": 0,
				"type": "noteOff",
				"noteNumber": 75,
				"velocity": 64
			},
			{
				"deltaTime": 0,
				"channel": 0,
				"type": "noteOn",
				"noteNumber": 73,
				"velocity": 64
			},
			{
				"deltaTime": 30,
				"channel": 0,
				"type": "noteOff",
				"noteNumber": 73,
				"velocity": 64
			},
			{
				"deltaTime": 0,
				"channel": 0,
				"type": "noteOn",
				"noteNumber": 75,
				"velocity": 64
			},
			{
				"deltaTime": 60,
				"channel": 0,
				"type": "noteOff",
				"noteNumber": 75,
				"velocity": 64
			},
			{
				"deltaTime": 0,
				"channel": 0,
				"type": "noteOn",
				"noteNumber": 71,
				"velocity": 64
			},
			{
				"deltaTime": 30,
				"channel": 0,
				"type": "noteOff",
				"noteNumber": 71,
				"velocity": 64
			},
			{
				"deltaTime": 0,
				"channel": 0,
				"type": "noteOn",
				"noteNumber": 70,
				"velocity": 64
			},
			{
				"deltaTime": 30,
				"channel": 0,
				"type": "noteOff",
				"noteNumber": 70,
				"velocity": 64
			},
			{
				"deltaTime": 0,
				"channel": 0,
				"type": "noteOn",
				"noteNumber": 71,
				"velocity": 64
			},
			{
				"deltaTime": 60,
				"channel": 0,
				"type": "noteOff",
				"noteNumber": 71,
				"velocity": 64
			},
			{
				"deltaTime": 0,
				"channel": 0,
				"type": "noteOn",
				"noteNumber": 73,
				"velocity": 64
			},
			{
				"deltaTime": 30,
				"channel": 0,
				"type": "noteOff",
				"noteNumber": 73,
				"velocity": 64
			},
			{
				"deltaTime": 0,
				"channel": 0,
				"type": "noteOn",
				"noteNumber": 71,
				"velocity": 64
			},
			{
				"deltaTime": 30,
				"channel": 0,
				"type": "noteOff",
				"noteNumber": 71,
				"velocity": 64
			},
			{
				"deltaTime": 0,
				"channel": 0,
				"type": "noteOn",
				"noteNumber": 73,
				"velocity": 64
			},
			{
				"deltaTime": 60,
				"channel": 0,
				"type": "noteOff",
				"noteNumber": 73,
				"velocity": 64
			},
			{
				"deltaTime": 0,
				"channel": 0,
				"type": "noteOn",
				"noteNumber": 76,
				"velocity": 64
			},
			{
				"deltaTime": 120,
				"channel": 0,
				"type": "noteOff",
				"noteNumber": 76,
				"velocity": 64
			},
			{
				"deltaTime": 0,
				"channel": 0,
				"type": "noteOn",
				"noteNumber": 75,
				"velocity": 64
			},
			{
				"deltaTime": 120,
				"channel": 0,
				"type": "noteOff",
				"noteNumber": 75,
				"velocity": 64
			},
			{
				"deltaTime": 0,
				"channel": 0,
				"type": "noteOn",
				"noteNumber": 73,
				"velocity": 64
			},
			{
				"deltaTime": 120,
				"channel": 0,
				"type": "noteOff",
				"noteNumber": 73,
				"velocity": 64
			},
			{
				"deltaTime": 0,
				"channel": 0,
				"type": "noteOn",
				"noteNumber": 71,
				"velocity": 64
			},
			{
				"deltaTime": 30,
				"channel": 0,
				"type": "noteOff",
				"noteNumber": 71,
				"velocity": 64
			},
			{
				"deltaTime": 0,
				"channel": 0,
				"type": "noteOn",
				"noteNumber": 70,
				"velocity": 64
			},
			{
				"deltaTime": 30,
				"channel": 0,
				"type": "noteOff",
				"noteNumber": 70,
				"velocity": 64
			},
			{
				"deltaTime": 0,
				"channel": 0,
				"type": "noteOn",
				"noteNumber": 71,
				"velocity": 64
			},
			{
				"deltaTime": 60,
				"channel": 0,
				"type": "noteOff",
				"noteNumber": 71,
				"velocity": 64
			},
			{
				"deltaTime": 0,
				"channel": 0,
				"type": "noteOn",
				"noteNumber": 68,
				"velocity": 64
			},
			{
				"deltaTime": 30,
				"channel": 0,
				"type": "noteOff",
				"noteNumber": 68,
				"velocity": 64
			},
			{
				"deltaTime": 0,
				"channel": 0,
				"type": "noteOn",
				"noteNumber": 67,
				"velocity": 64
			},
			{
				"deltaTime": 30,
				"channel": 0,
				"type": "noteOff",
				"noteNumber": 67,
				"velocity": 64
			},
			{
				"deltaTime": 0,
				"channel": 0,
				"type": "noteOn",
				"noteNumber": 68,
				"velocity": 64
			},
			{
				"deltaTime": 60,
				"channel": 0,
				"type": "noteOff",
				"noteNumber": 68,
				"velocity": 64
			},
			{
				"deltaTime": 0,
				"channel": 0,
				"type": "noteOn",
				"noteNumber": 69,
				"velocity": 64
			},
			{
				"deltaTime": 30,
				"channel": 0,
				"type": "noteOff",
				"noteNumber": 69,
				"velocity": 64
			},
			{
				"deltaTime": 0,
				"channel": 0,
				"type": "noteOn",
				"noteNumber": 68,
				"velocity": 64
			},
			{
				"deltaTime": 30,
				"channel": 0,
				"type": "noteOff",
				"noteNumber": 68,
				"velocity": 64
			},
			{
				"deltaTime": 0,
				"channel": 0,
				"type": "noteOn",
				"noteNumber": 69,
				"velocity": 64
			},
			{
				"deltaTime": 60,
				"channel": 0,
				"type": "noteOff",
				"noteNumber": 69,
				"velocity": 64
			},
			{
				"deltaTime": 0,
				"channel": 0,
				"type": "noteOn",
				"noteNumber": 73,
				"velocity": 64
			},
			{
				"deltaTime": 30,
				"channel": 0,
				"type": "noteOff",
				"noteNumber": 73,
				"velocity": 64
			},
			{
				"deltaTime": 0,
				"channel": 0,
				"type": "noteOn",
				"noteNumber": 71,
				"velocity": 64
			},
			{
				"deltaTime": 30,
				"channel": 0,
				"type": "noteOff",
				"noteNumber": 71,
				"velocity": 64
			},
			{
				"deltaTime": 0,
				"channel": 0,
				"type": "noteOn",
				"noteNumber": 73,
				"velocity": 64
			},
			{
				"deltaTime": 60,
				"channel": 0,
				"type": "noteOff",
				"noteNumber": 73,
				"velocity": 64
			},
			{
				"deltaTime": 0,
				"channel": 0,
				"type": "noteOn",
				"noteNumber": 69,
				"velocity": 64
			},
			{
				"deltaTime": 30,
				"channel": 0,
				"type": "noteOff",
				"noteNumber": 69,
				"velocity": 64
			},
			{
				"deltaTime": 0,
				"channel": 0,
				"type": "noteOn",
				"noteNumber": 68,
				"velocity": 64
			},
			{
				"deltaTime": 30,
				"channel": 0,
				"type": "noteOff",
				"noteNumber": 68,
				"velocity": 64
			},
			{
				"deltaTime": 0,
				"channel": 0,
				"type": "noteOn",
				"noteNumber": 69,
				"velocity": 64
			},
			{
				"deltaTime": 60,
				"channel": 0,
				"type": "noteOff",
				"noteNumber": 69,
				"velocity": 64
			},
			{
				"deltaTime": 0,
				"channel": 0,
				"type": "noteOn",
				"noteNumber": 76,
				"velocity": 64
			},
			{
				"deltaTime": 30,
				"channel": 0,
				"type": "noteOff",
				"noteNumber": 76,
				"velocity": 64
			},
			{
				"deltaTime": 0,
				"channel": 0,
				"type": "noteOn",
				"noteNumber": 75,
				"velocity": 64
			},
			{
				"deltaTime": 30,
				"channel": 0,
				"type": "noteOff",
				"noteNumber": 75,
				"velocity": 64
			},
			{
				"deltaTime": 0,
				"channel": 0,
				"type": "noteOn",
				"noteNumber": 76,
				"velocity": 64
			},
			{
				"deltaTime": 60,
				"channel": 0,
				"type": "noteOff",
				"noteNumber": 76,
				"velocity": 64
			},
			{
				"deltaTime": 0,
				"channel": 0,
				"type": "noteOn",
				"noteNumber": 67,
				"velocity": 64
			},
			{
				"deltaTime": 30,
				"channel": 0,
				"type": "noteOff",
				"noteNumber": 67,
				"velocity": 64
			},
			{
				"deltaTime": 0,
				"channel": 0,
				"type": "noteOn",
				"noteNumber": 65,
				"velocity": 64
			},
			{
				"deltaTime": 30,
				"channel": 0,
				"type": "noteOff",
				"noteNumber": 65,
				"velocity": 64
			},
			{
				"deltaTime": 0,
				"channel": 0,
				"type": "noteOn",
				"noteNumber": 67,
				"velocity": 64
			},
			{
				"deltaTime": 60,
				"channel": 0,
				"type": "noteOff",
				"noteNumber": 67,
				"velocity": 64
			},
			{
				"deltaTime": 0,
				"channel": 0,
				"type": "noteOn",
				"noteNumber": 70,
				"velocity": 64
			},
			{
				"deltaTime": 30,
				"channel": 0,
				"type": "noteOff",
				"noteNumber": 70,
				"velocity": 64
			},
			{
				"deltaTime": 0,
				"channel": 0,
				"type": "noteOn",
				"noteNumber": 68,
				"velocity": 64
			},
			{
				"deltaTime": 30,
				"channel": 0,
				"type": "noteOff",
				"noteNumber": 68,
				"velocity": 64
			},
			{
				"deltaTime": 0,
				"channel": 0,
				"type": "noteOn",
				"noteNumber": 70,
				"velocity": 64
			},
			{
				"deltaTime": 60,
				"channel": 0,
				"type": "noteOff",
				"noteNumber": 70,
				"velocity": 64
			},
			{
				"deltaTime": 0,
				"channel": 0,
				"type": "noteOn",
				"noteNumber": 59,
				"velocity": 64
			},
			{
				"deltaTime": 30,
				"channel": 0,
				"type": "noteOff",
				"noteNumber": 59,
				"velocity": 64
			},
			{
				"deltaTime": 0,
				"channel": 0,
				"type": "noteOn",
				"noteNumber": 58,
				"velocity": 64
			},
			{
				"deltaTime": 30,
				"channel": 0,
				"type": "noteOff",
				"noteNumber": 58,
				"velocity": 64
			},
			{
				"deltaTime": 0,
				"channel": 0,
				"type": "noteOn",
				"noteNumber": 59,
				"velocity": 64
			},
			{
				"deltaTime": 60,
				"channel": 0,
				"type": "noteOff",
				"noteNumber": 59,
				"velocity": 64
			},
			{
				"deltaTime": 0,
				"channel": 0,
				"type": "noteOn",
				"noteNumber": 68,
				"velocity": 64
			},
			{
				"deltaTime": 60,
				"channel": 0,
				"type": "noteOff",
				"noteNumber": 68,
				"velocity": 64
			},
			{
				"deltaTime": 0,
				"channel": 0,
				"type": "noteOn",
				"noteNumber": 64,
				"velocity": 64
			},
			{
				"deltaTime": 60,
				"channel": 0,
				"type": "noteOff",
				"noteNumber": 64,
				"velocity": 64
			},
			{
				"deltaTime": 0,
				"channel": 0,
				"type": "noteOn",
				"noteNumber": 61,
				"velocity": 64
			},
			{
				"deltaTime": 60,
				"channel": 0,
				"type": "noteOff",
				"noteNumber": 61,
				"velocity": 64
			},
			{
				"deltaTime": 0,
				"channel": 0,
				"type": "noteOn",
				"noteNumber": 58,
				"velocity": 64
			},
			{
				"deltaTime": 60,
				"channel": 0,
				"type": "noteOff",
				"noteNumber": 58,
				"velocity": 64
			},
			{
				"deltaTime": 0,
				"channel": 0,
				"type": "noteOn",
				"noteNumber": 67,
				"velocity": 64
			},
			{
				"deltaTime": 60,
				"channel": 0,
				"type": "noteOff",
				"noteNumber": 67,
				"velocity": 64
			},
			{
				"deltaTime": 0,
				"channel": 0,
				"type": "noteOn",
				"noteNumber": 68,
				"velocity": 64
			},
			{
				"deltaTime": 60,
				"channel": 0,
				"type": "noteOff",
				"noteNumber": 68,
				"velocity": 64
			},
			{
				"deltaTime": 0,
				"channel": 0,
				"type": "noteOn",
				"noteNumber": 63,
				"velocity": 64
			},
			{
				"deltaTime": 60,
				"channel": 0,
				"type": "noteOff",
				"noteNumber": 63,
				"velocity": 64
			},
			{
				"deltaTime": 0,
				"channel": 0,
				"type": "noteOn",
				"noteNumber": 59,
				"velocity": 64
			},
			{
				"deltaTime": 60,
				"channel": 0,
				"type": "noteOff",
				"noteNumber": 59,
				"velocity": 64
			},
			{
				"deltaTime": 0,
				"channel": 0,
				"type": "noteOn",
				"noteNumber": 56,
				"velocity": 64
			},
			{
				"deltaTime": 60,
				"channel": 0,
				"type": "noteOff",
				"noteNumber": 56,
				"velocity": 64
			},
			{
				"deltaTime": 120,
				"channel": 0,
				"type": "noteOn",
				"noteNumber": 64,
				"velocity": 64
			},
			{
				"deltaTime": 120,
				"channel": 0,
				"type": "noteOff",
				"noteNumber": 64,
				"velocity": 64
			},
			{
				"deltaTime": 0,
				"channel": 0,
				"type": "noteOn",
				"noteNumber": 66,
				"velocity": 64
			},
			{
				"deltaTime": 120,
				"channel": 0,
				"type": "noteOff",
				"noteNumber": 66,
				"velocity": 64
			},
			{
				"deltaTime": 0,
				"channel": 0,
				"type": "noteOn",
				"noteNumber": 68,
				"velocity": 64
			},
			{
				"deltaTime": 120,
				"channel": 0,
				"type": "noteOff",
				"noteNumber": 68,
				"velocity": 64
			},
			{
				"deltaTime": 0,
				"channel": 0,
				"type": "noteOn",
				"noteNumber": 69,
				"velocity": 64
			},
			{
				"deltaTime": 120,
				"channel": 0,
				"type": "noteOff",
				"noteNumber": 69,
				"velocity": 64
			},
			{
				"deltaTime": 0,
				"channel": 0,
				"type": "noteOn",
				"noteNumber": 71,
				"velocity": 64
			},
			{
				"deltaTime": 120,
				"channel": 0,
				"type": "noteOff",
				"noteNumber": 71,
				"velocity": 64
			},
			{
				"deltaTime": 0,
				"channel": 0,
				"type": "noteOn",
				"noteNumber": 73,
				"velocity": 64
			},
			{
				"deltaTime": 120,
				"channel": 0,
				"type": "noteOff",
				"noteNumber": 73,
				"velocity": 64
			},
			{
				"deltaTime": 0,
				"channel": 0,
				"type": "noteOn",
				"noteNumber": 75,
				"velocity": 64
			},
			{
				"deltaTime": 120,
				"channel": 0,
				"type": "noteOff",
				"noteNumber": 75,
				"velocity": 64
			},
			{
				"deltaTime": 0,
				"channel": 0,
				"type": "noteOn",
				"noteNumber": 76,
				"velocity": 64
			},
			{
				"deltaTime": 60,
				"channel": 0,
				"type": "noteOff",
				"noteNumber": 76,
				"velocity": 64
			},
			{
				"deltaTime": 0,
				"channel": 0,
				"type": "noteOn",
				"noteNumber": 75,
				"velocity": 64
			},
			{
				"deltaTime": 60,
				"channel": 0,
				"type": "noteOff",
				"noteNumber": 75,
				"velocity": 64
			},
			{
				"deltaTime": 0,
				"channel": 0,
				"type": "noteOn",
				"noteNumber": 73,
				"velocity": 64
			},
			{
				"deltaTime": 60,
				"channel": 0,
				"type": "noteOff",
				"noteNumber": 73,
				"velocity": 64
			},
			{
				"deltaTime": 0,
				"channel": 0,
				"type": "noteOn",
				"noteNumber": 71,
				"velocity": 64
			},
			{
				"deltaTime": 60,
				"channel": 0,
				"type": "noteOff",
				"noteNumber": 71,
				"velocity": 64
			},
			{
				"deltaTime": 0,
				"channel": 0,
				"type": "noteOn",
				"noteNumber": 76,
				"velocity": 64
			},
			{
				"deltaTime": 180,
				"channel": 0,
				"type": "noteOff",
				"noteNumber": 76,
				"velocity": 64
			},
			{
				"deltaTime": 0,
				"channel": 0,
				"type": "noteOn",
				"noteNumber": 71,
				"velocity": 64
			},
			{
				"deltaTime": 30,
				"channel": 0,
				"type": "noteOff",
				"noteNumber": 71,
				"velocity": 64
			},
			{
				"deltaTime": 0,
				"channel": 0,
				"type": "noteOn",
				"noteNumber": 69,
				"velocity": 64
			},
			{
				"deltaTime": 30,
				"channel": 0,
				"type": "noteOff",
				"noteNumber": 69,
				"velocity": 64
			},
			{
				"deltaTime": 0,
				"channel": 0,
				"type": "noteOn",
				"noteNumber": 71,
				"velocity": 64
			},
			{
				"deltaTime": 60,
				"channel": 0,
				"type": "noteOff",
				"noteNumber": 71,
				"velocity": 64
			},
			{
				"deltaTime": 0,
				"channel": 0,
				"type": "noteOn",
				"noteNumber": 68,
				"velocity": 64
			},
			{
				"deltaTime": 30,
				"channel": 0,
				"type": "noteOff",
				"noteNumber": 68,
				"velocity": 64
			},
			{
				"deltaTime": 0,
				"channel": 0,
				"type": "noteOn",
				"noteNumber": 66,
				"velocity": 64
			},
			{
				"deltaTime": 30,
				"channel": 0,
				"type": "noteOff",
				"noteNumber": 66,
				"velocity": 64
			},
			{
				"deltaTime": 0,
				"channel": 0,
				"type": "noteOn",
				"noteNumber": 68,
				"velocity": 64
			},
			{
				"deltaTime": 60,
				"channel": 0,
				"type": "noteOff",
				"noteNumber": 68,
				"velocity": 64
			},
			{
				"deltaTime": 0,
				"channel": 0,
				"type": "noteOn",
				"noteNumber": 76,
				"velocity": 64
			},
			{
				"deltaTime": 120,
				"channel": 0,
				"type": "noteOff",
				"noteNumber": 76,
				"velocity": 64
			},
			{
				"deltaTime": 0,
				"channel": 0,
				"type": "noteOn",
				"noteNumber": 75,
				"velocity": 64
			},
			{
				"deltaTime": 120,
				"channel": 0,
				"type": "noteOff",
				"noteNumber": 75,
				"velocity": 64
			},
			{
				"deltaTime": 0,
				"channel": 0,
				"type": "noteOn",
				"noteNumber": 74,
				"velocity": 64
			},
			{
				"deltaTime": 120,
				"channel": 0,
				"type": "noteOff",
				"noteNumber": 74,
				"velocity": 64
			},
			{
				"deltaTime": 0,
				"channel": 0,
				"type": "noteOn",
				"noteNumber": 73,
				"velocity": 64
			},
			{
				"deltaTime": 120,
				"channel": 0,
				"type": "noteOff",
				"noteNumber": 73,
				"velocity": 64
			},
			{
				"deltaTime": 0,
				"channel": 0,
				"type": "noteOn",
				"noteNumber": 71,
				"velocity": 64
			},
			{
				"deltaTime": 120,
				"channel": 0,
				"type": "noteOff",
				"noteNumber": 71,
				"velocity": 64
			},
			{
				"deltaTime": 0,
				"channel": 0,
				"type": "noteOn",
				"noteNumber": 69,
				"velocity": 64
			},
			{
				"deltaTime": 120,
				"channel": 0,
				"type": "noteOff",
				"noteNumber": 69,
				"velocity": 64
			},
			{
				"deltaTime": 0,
				"channel": 0,
				"type": "noteOn",
				"noteNumber": 68,
				"velocity": 64
			},
			{
				"deltaTime": 120,
				"channel": 0,
				"type": "noteOff",
				"noteNumber": 68,
				"velocity": 64
			},
			{
				"deltaTime": 0,
				"channel": 0,
				"type": "noteOn",
				"noteNumber": 66,
				"velocity": 64
			},
			{
				"deltaTime": 120,
				"channel": 0,
				"type": "noteOff",
				"noteNumber": 66,
				"velocity": 64
			},
			{
				"deltaTime": 0,
				"channel": 0,
				"type": "noteOn",
				"noteNumber": 68,
				"velocity": 64
			},
			{
				"deltaTime": 30,
				"channel": 0,
				"type": "noteOff",
				"noteNumber": 68,
				"velocity": 64
			},
			{
				"deltaTime": 0,
				"channel": 0,
				"type": "noteOn",
				"noteNumber": 69,
				"velocity": 64
			},
			{
				"deltaTime": 30,
				"channel": 0,
				"type": "noteOff",
				"noteNumber": 69,
				"velocity": 64
			},
			{
				"deltaTime": 0,
				"channel": 0,
				"type": "noteOn",
				"noteNumber": 68,
				"velocity": 64
			},
			{
				"deltaTime": 60,
				"channel": 0,
				"type": "noteOff",
				"noteNumber": 68,
				"velocity": 64
			},
			{
				"deltaTime": 0,
				"channel": 0,
				"type": "noteOn",
				"noteNumber": 71,
				"velocity": 64
			},
			{
				"deltaTime": 30,
				"channel": 0,
				"type": "noteOff",
				"noteNumber": 71,
				"velocity": 64
			},
			{
				"deltaTime": 0,
				"channel": 0,
				"type": "noteOn",
				"noteNumber": 69,
				"velocity": 64
			},
			{
				"deltaTime": 30,
				"channel": 0,
				"type": "noteOff",
				"noteNumber": 69,
				"velocity": 64
			},
			{
				"deltaTime": 0,
				"channel": 0,
				"type": "noteOn",
				"noteNumber": 71,
				"velocity": 64
			},
			{
				"deltaTime": 60,
				"channel": 0,
				"type": "noteOff",
				"noteNumber": 71,
				"velocity": 64
			},
			{
				"deltaTime": 0,
				"channel": 0,
				"type": "noteOn",
				"noteNumber": 68,
				"velocity": 64
			},
			{
				"deltaTime": 30,
				"channel": 0,
				"type": "noteOff",
				"noteNumber": 68,
				"velocity": 64
			},
			{
				"deltaTime": 0,
				"channel": 0,
				"type": "noteOn",
				"noteNumber": 66,
				"velocity": 64
			},
			{
				"deltaTime": 30,
				"channel": 0,
				"type": "noteOff",
				"noteNumber": 66,
				"velocity": 64
			},
			{
				"deltaTime": 0,
				"channel": 0,
				"type": "noteOn",
				"noteNumber": 68,
				"velocity": 64
			},
			{
				"deltaTime": 60,
				"channel": 0,
				"type": "noteOff",
				"noteNumber": 68,
				"velocity": 64
			},
			{
				"deltaTime": 0,
				"channel": 0,
				"type": "noteOn",
				"noteNumber": 64,
				"velocity": 64
			},
			{
				"deltaTime": 30,
				"channel": 0,
				"type": "noteOff",
				"noteNumber": 64,
				"velocity": 64
			},
			{
				"deltaTime": 0,
				"channel": 0,
				"type": "noteOn",
				"noteNumber": 63,
				"velocity": 64
			},
			{
				"deltaTime": 30,
				"channel": 0,
				"type": "noteOff",
				"noteNumber": 63,
				"velocity": 64
			},
			{
				"deltaTime": 0,
				"channel": 0,
				"type": "noteOn",
				"noteNumber": 64,
				"velocity": 64
			},
			{
				"deltaTime": 120,
				"channel": 0,
				"type": "noteOff",
				"noteNumber": 64,
				"velocity": 64
			},
			{
				"deltaTime": 0,
				"channel": 0,
				"type": "noteOn",
				"noteNumber": 66,
				"velocity": 64
			},
			{
				"deltaTime": 120,
				"channel": 0,
				"type": "noteOff",
				"noteNumber": 66,
				"velocity": 64
			},
			{
				"deltaTime": 0,
				"channel": 0,
				"type": "noteOn",
				"noteNumber": 69,
				"velocity": 64
			},
			{
				"deltaTime": 120,
				"channel": 0,
				"type": "noteOff",
				"noteNumber": 69,
				"velocity": 64
			},
			{
				"deltaTime": 0,
				"channel": 0,
				"type": "noteOn",
				"noteNumber": 71,
				"velocity": 64
			},
			{
				"deltaTime": 120,
				"channel": 0,
				"type": "noteOff",
				"noteNumber": 71,
				"velocity": 64
			},
			{
				"deltaTime": 0,
				"channel": 0,
				"type": "noteOn",
				"noteNumber": 75,
				"velocity": 64
			},
			{
				"deltaTime": 120,
				"channel": 0,
				"type": "noteOff",
				"noteNumber": 75,
				"velocity": 64
			},
			{
				"deltaTime": 0,
				"channel": 0,
				"type": "noteOn",
				"noteNumber": 78,
				"velocity": 64
			},
			{
				"deltaTime": 120,
				"channel": 0,
				"type": "noteOff",
				"noteNumber": 78,
				"velocity": 64
			},
			{
				"deltaTime": 0,
				"channel": 0,
				"type": "noteOn",
				"noteNumber": 63,
				"velocity": 64
			},
			{
				"deltaTime": 120,
				"channel": 0,
				"type": "noteOff",
				"noteNumber": 63,
				"velocity": 64
			},
			{
				"deltaTime": 0,
				"channel": 0,
				"type": "noteOn",
				"noteNumber": 64,
				"velocity": 64
			},
			{
				"deltaTime": 120,
				"channel": 0,
				"type": "noteOff",
				"noteNumber": 64,
				"velocity": 64
			},
			{
				"deltaTime": 0,
				"channel": 0,
				"type": "noteOn",
				"noteNumber": 68,
				"velocity": 64
			},
			{
				"deltaTime": 120,
				"channel": 0,
				"type": "noteOff",
				"noteNumber": 68,
				"velocity": 64
			},
			{
				"deltaTime": 0,
				"channel": 0,
				"type": "noteOn",
				"noteNumber": 69,
				"velocity": 64
			},
			{
				"deltaTime": 120,
				"channel": 0,
				"type": "noteOff",
				"noteNumber": 69,
				"velocity": 64
			},
			{
				"deltaTime": 0,
				"channel": 0,
				"type": "noteOn",
				"noteNumber": 73,
				"velocity": 64
			},
			{
				"deltaTime": 120,
				"channel": 0,
				"type": "noteOff",
				"noteNumber": 73,
				"velocity": 64
			},
			{
				"deltaTime": 0,
				"channel": 0,
				"type": "noteOn",
				"noteNumber": 76,
				"velocity": 64
			},
			{
				"deltaTime": 120,
				"channel": 0,
				"type": "noteOff",
				"noteNumber": 76,
				"velocity": 64
			},
			{
				"deltaTime": 0,
				"channel": 0,
				"type": "noteOn",
				"noteNumber": 61,
				"velocity": 64
			},
			{
				"deltaTime": 120,
				"channel": 0,
				"type": "noteOff",
				"noteNumber": 61,
				"velocity": 64
			},
			{
				"deltaTime": 0,
				"channel": 0,
				"type": "noteOn",
				"noteNumber": 66,
				"velocity": 64
			},
			{
				"deltaTime": 120,
				"channel": 0,
				"type": "noteOff",
				"noteNumber": 66,
				"velocity": 64
			},
			{
				"deltaTime": 0,
				"channel": 0,
				"type": "noteOn",
				"noteNumber": 69,
				"velocity": 64
			},
			{
				"deltaTime": 120,
				"channel": 0,
				"type": "noteOff",
				"noteNumber": 69,
				"velocity": 64
			},
			{
				"deltaTime": 0,
				"channel": 0,
				"type": "noteOn",
				"noteNumber": 71,
				"velocity": 64
			},
			{
				"deltaTime": 120,
				"channel": 0,
				"type": "noteOff",
				"noteNumber": 71,
				"velocity": 64
			},
			{
				"deltaTime": 0,
				"channel": 0,
				"type": "noteOn",
				"noteNumber": 73,
				"velocity": 64
			},
			{
				"deltaTime": 120,
				"channel": 0,
				"type": "noteOff",
				"noteNumber": 73,
				"velocity": 64
			},
			{
				"deltaTime": 0,
				"channel": 0,
				"type": "noteOn",
				"noteNumber": 75,
				"velocity": 64
			},
			{
				"deltaTime": 120,
				"channel": 0,
				"type": "noteOff",
				"noteNumber": 75,
				"velocity": 64
			},
			{
				"deltaTime": 0,
				"channel": 0,
				"type": "noteOn",
				"noteNumber": 76,
				"velocity": 64
			},
			{
				"deltaTime": 120,
				"channel": 0,
				"type": "noteOff",
				"noteNumber": 76,
				"velocity": 64
			},
			{
				"deltaTime": 0,
				"channel": 0,
				"type": "noteOn",
				"noteNumber": 73,
				"velocity": 64
			},
			{
				"deltaTime": 120,
				"channel": 0,
				"type": "noteOff",
				"noteNumber": 73,
				"velocity": 64
			},
			{
				"deltaTime": 0,
				"channel": 0,
				"type": "noteOn",
				"noteNumber": 69,
				"velocity": 64
			},
			{
				"deltaTime": 120,
				"channel": 0,
				"type": "noteOff",
				"noteNumber": 69,
				"velocity": 64
			},
			{
				"deltaTime": 0,
				"channel": 0,
				"type": "noteOn",
				"noteNumber": 78,
				"velocity": 64
			},
			{
				"deltaTime": 410,
				"channel": 0,
				"type": "noteOff",
				"noteNumber": 78,
				"velocity": 64
			},
			{
				"deltaTime": 10,
				"channel": 0,
				"type": "noteOn",
				"noteNumber": 76,
				"velocity": 64
			},
			{
				"deltaTime": 60,
				"channel": 0,
				"type": "noteOff",
				"noteNumber": 76,
				"velocity": 64
			},
			{
				"deltaTime": 0,
				"channel": 0,
				"type": "noteOn",
				"noteNumber": 75,
				"velocity": 64
			},
			{
				"deltaTime": 60,
				"channel": 0,
				"type": "noteOff",
				"noteNumber": 75,
				"velocity": 64
			},
			{
				"deltaTime": 0,
				"channel": 0,
				"type": "noteOn",
				"noteNumber": 73,
				"velocity": 64
			},
			{
				"deltaTime": 60,
				"channel": 0,
				"type": "noteOff",
				"noteNumber": 73,
				"velocity": 64
			},
			{
				"deltaTime": 0,
				"channel": 0,
				"type": "noteOn",
				"noteNumber": 71,
				"velocity": 64
			},
			{
				"deltaTime": 60,
				"channel": 0,
				"type": "noteOff",
				"noteNumber": 71,
				"velocity": 64
			},
			{
				"deltaTime": 0,
				"channel": 0,
				"type": "noteOn",
				"noteNumber": 69,
				"velocity": 64
			},
			{
				"deltaTime": 60,
				"channel": 0,
				"type": "noteOff",
				"noteNumber": 69,
				"velocity": 64
			},
			{
				"deltaTime": 0,
				"channel": 0,
				"type": "noteOn",
				"noteNumber": 68,
				"velocity": 64
			},
			{
				"deltaTime": 60,
				"channel": 0,
				"type": "noteOff",
				"noteNumber": 68,
				"velocity": 64
			},
			{
				"deltaTime": 0,
				"channel": 0,
				"type": "noteOn",
				"noteNumber": 64,
				"velocity": 64
			},
			{
				"deltaTime": 30,
				"channel": 0,
				"type": "noteOff",
				"noteNumber": 64,
				"velocity": 64
			},
			{
				"deltaTime": 0,
				"channel": 0,
				"type": "noteOn",
				"noteNumber": 63,
				"velocity": 64
			},
			{
				"deltaTime": 30,
				"channel": 0,
				"type": "noteOff",
				"noteNumber": 63,
				"velocity": 64
			},
			{
				"deltaTime": 0,
				"channel": 0,
				"type": "noteOn",
				"noteNumber": 64,
				"velocity": 64
			},
			{
				"deltaTime": 60,
				"channel": 0,
				"type": "noteOff",
				"noteNumber": 64,
				"velocity": 64
			},
			{
				"deltaTime": 0,
				"channel": 0,
				"type": "noteOn",
				"noteNumber": 68,
				"velocity": 64
			},
			{
				"deltaTime": 30,
				"channel": 0,
				"type": "noteOff",
				"noteNumber": 68,
				"velocity": 64
			},
			{
				"deltaTime": 0,
				"channel": 0,
				"type": "noteOn",
				"noteNumber": 66,
				"velocity": 64
			},
			{
				"deltaTime": 30,
				"channel": 0,
				"type": "noteOff",
				"noteNumber": 66,
				"velocity": 64
			},
			{
				"deltaTime": 0,
				"channel": 0,
				"type": "noteOn",
				"noteNumber": 68,
				"velocity": 64
			},
			{
				"deltaTime": 60,
				"channel": 0,
				"type": "noteOff",
				"noteNumber": 68,
				"velocity": 64
			},
			{
				"deltaTime": 0,
				"channel": 0,
				"type": "noteOn",
				"noteNumber": 71,
				"velocity": 64
			},
			{
				"deltaTime": 30,
				"channel": 0,
				"type": "noteOff",
				"noteNumber": 71,
				"velocity": 64
			},
			{
				"deltaTime": 0,
				"channel": 0,
				"type": "noteOn",
				"noteNumber": 69,
				"velocity": 64
			},
			{
				"deltaTime": 30,
				"channel": 0,
				"type": "noteOff",
				"noteNumber": 69,
				"velocity": 64
			},
			{
				"deltaTime": 0,
				"channel": 0,
				"type": "noteOn",
				"noteNumber": 71,
				"velocity": 64
			},
			{
				"deltaTime": 60,
				"channel": 0,
				"type": "noteOff",
				"noteNumber": 71,
				"velocity": 64
			},
			{
				"deltaTime": 0,
				"channel": 0,
				"type": "noteOn",
				"noteNumber": 68,
				"velocity": 64
			},
			{
				"deltaTime": 30,
				"channel": 0,
				"type": "noteOff",
				"noteNumber": 68,
				"velocity": 64
			},
			{
				"deltaTime": 0,
				"channel": 0,
				"type": "noteOn",
				"noteNumber": 66,
				"velocity": 64
			},
			{
				"deltaTime": 30,
				"channel": 0,
				"type": "noteOff",
				"noteNumber": 66,
				"velocity": 64
			},
			{
				"deltaTime": 0,
				"channel": 0,
				"type": "noteOn",
				"noteNumber": 68,
				"velocity": 64
			},
			{
				"deltaTime": 60,
				"channel": 0,
				"type": "noteOff",
				"noteNumber": 68,
				"velocity": 64
			},
			{
				"deltaTime": 0,
				"channel": 0,
				"type": "noteOn",
				"noteNumber": 71,
				"velocity": 64
			},
			{
				"deltaTime": 30,
				"channel": 0,
				"type": "noteOff",
				"noteNumber": 71,
				"velocity": 64
			},
			{
				"deltaTime": 0,
				"channel": 0,
				"type": "noteOn",
				"noteNumber": 69,
				"velocity": 64
			},
			{
				"deltaTime": 30,
				"channel": 0,
				"type": "noteOff",
				"noteNumber": 69,
				"velocity": 64
			},
			{
				"deltaTime": 0,
				"channel": 0,
				"type": "noteOn",
				"noteNumber": 71,
				"velocity": 64
			},
			{
				"deltaTime": 60,
				"channel": 0,
				"type": "noteOff",
				"noteNumber": 71,
				"velocity": 64
			},
			{
				"deltaTime": 0,
				"channel": 0,
				"type": "noteOn",
				"noteNumber": 76,
				"velocity": 64
			},
			{
				"deltaTime": 30,
				"channel": 0,
				"type": "noteOff",
				"noteNumber": 76,
				"velocity": 64
			},
			{
				"deltaTime": 0,
				"channel": 0,
				"type": "noteOn",
				"noteNumber": 75,
				"velocity": 64
			},
			{
				"deltaTime": 30,
				"channel": 0,
				"type": "noteOff",
				"noteNumber": 75,
				"velocity": 64
			},
			{
				"deltaTime": 0,
				"channel": 0,
				"type": "noteOn",
				"noteNumber": 76,
				"velocity": 64
			},
			{
				"deltaTime": 60,
				"channel": 0,
				"type": "noteOff",
				"noteNumber": 76,
				"velocity": 64
			},
			{
				"deltaTime": 0,
				"channel": 0,
				"type": "noteOn",
				"noteNumber": 71,
				"velocity": 64
			},
			{
				"deltaTime": 60,
				"channel": 0,
				"type": "noteOff",
				"noteNumber": 71,
				"velocity": 64
			},
			{
				"deltaTime": 0,
				"channel": 0,
				"type": "noteOn",
				"noteNumber": 68,
				"velocity": 64
			},
			{
				"deltaTime": 60,
				"channel": 0,
				"type": "noteOff",
				"noteNumber": 68,
				"velocity": 64
			},
			{
				"deltaTime": 0,
				"channel": 0,
				"type": "noteOn",
				"noteNumber": 64,
				"velocity": 64
			},
			{
				"deltaTime": 60,
				"channel": 0,
				"type": "noteOff",
				"noteNumber": 64,
				"velocity": 64
			},
			{
				"deltaTime": 120,
				"channel": 0,
				"type": "noteOn",
				"noteNumber": 59,
				"velocity": 64
			},
			{
				"deltaTime": 60,
				"channel": 0,
				"type": "noteOff",
				"noteNumber": 59,
				"velocity": 64
			},
			{
				"deltaTime": 60,
				"channel": 0,
				"type": "noteOn",
				"noteNumber": 61,
				"velocity": 64
			},
			{
				"deltaTime": 120,
				"channel": 0,
				"type": "noteOff",
				"noteNumber": 61,
				"velocity": 64
			},
			{
				"deltaTime": 0,
				"channel": 0,
				"type": "noteOn",
				"noteNumber": 63,
				"velocity": 64
			},
			{
				"deltaTime": 120,
				"channel": 0,
				"type": "noteOff",
				"noteNumber": 63,
				"velocity": 64
			},
			{
				"deltaTime": 0,
				"channel": 0,
				"type": "noteOn",
				"noteNumber": 64,
				"velocity": 64
			},
			{
				"deltaTime": 120,
				"channel": 0,
				"type": "noteOff",
				"noteNumber": 64,
				"velocity": 64
			},
			{
				"deltaTime": 0,
				"channel": 0,
				"type": "noteOn",
				"noteNumber": 66,
				"velocity": 64
			},
			{
				"deltaTime": 120,
				"channel": 0,
				"type": "noteOff",
				"noteNumber": 66,
				"velocity": 64
			},
			{
				"deltaTime": 0,
				"channel": 0,
				"type": "noteOn",
				"noteNumber": 68,
				"velocity": 64
			},
			{
				"deltaTime": 120,
				"channel": 0,
				"type": "noteOff",
				"noteNumber": 68,
				"velocity": 64
			},
			{
				"deltaTime": 0,
				"channel": 0,
				"type": "noteOn",
				"noteNumber": 70,
				"velocity": 64
			},
			{
				"deltaTime": 120,
				"channel": 0,
				"type": "noteOff",
				"noteNumber": 70,
				"velocity": 64
			},
			{
				"deltaTime": 0,
				"channel": 0,
				"type": "noteOn",
				"noteNumber": 71,
				"velocity": 64
			},
			{
				"deltaTime": 60,
				"channel": 0,
				"type": "noteOff",
				"noteNumber": 71,
				"velocity": 64
			},
			{
				"deltaTime": 0,
				"channel": 0,
				"type": "noteOn",
				"noteNumber": 70,
				"velocity": 64
			},
			{
				"deltaTime": 60,
				"channel": 0,
				"type": "noteOff",
				"noteNumber": 70,
				"velocity": 64
			},
			{
				"deltaTime": 0,
				"channel": 0,
				"type": "noteOn",
				"noteNumber": 68,
				"velocity": 64
			},
			{
				"deltaTime": 60,
				"channel": 0,
				"type": "noteOff",
				"noteNumber": 68,
				"velocity": 64
			},
			{
				"deltaTime": 0,
				"channel": 0,
				"type": "noteOn",
				"noteNumber": 66,
				"velocity": 64
			},
			{
				"deltaTime": 60,
				"channel": 0,
				"type": "noteOff",
				"noteNumber": 66,
				"velocity": 64
			},
			{
				"deltaTime": 0,
				"channel": 0,
				"type": "noteOn",
				"noteNumber": 71,
				"velocity": 64
			},
			{
				"deltaTime": 120,
				"channel": 0,
				"type": "noteOff",
				"noteNumber": 71,
				"velocity": 64
			},
			{
				"deltaTime": 0,
				"channel": 0,
				"type": "noteOn",
				"noteNumber": 59,
				"velocity": 64
			},
			{
				"deltaTime": 120,
				"channel": 0,
				"type": "noteOff",
				"noteNumber": 59,
				"velocity": 64
			},
			{
				"deltaTime": 180,
				"channel": 0,
				"type": "noteOn",
				"noteNumber": 83,
				"velocity": 64
			},
			{
				"deltaTime": 120,
				"channel": 0,
				"type": "noteOff",
				"noteNumber": 83,
				"velocity": 64
			},
			{
				"deltaTime": 0,
				"channel": 0,
				"type": "noteOn",
				"noteNumber": 82,
				"velocity": 64
			},
			{
				"deltaTime": 120,
				"channel": 0,
				"type": "noteOff",
				"noteNumber": 82,
				"velocity": 64
			},
			{
				"deltaTime": 0,
				"channel": 0,
				"type": "noteOn",
				"noteNumber": 81,
				"velocity": 64
			},
			{
				"deltaTime": 120,
				"channel": 0,
				"type": "noteOff",
				"noteNumber": 81,
				"velocity": 64
			},
			{
				"deltaTime": 0,
				"channel": 0,
				"type": "noteOn",
				"noteNumber": 80,
				"velocity": 64
			},
			{
				"deltaTime": 120,
				"channel": 0,
				"type": "noteOff",
				"noteNumber": 80,
				"velocity": 64
			},
			{
				"deltaTime": 0,
				"channel": 0,
				"type": "noteOn",
				"noteNumber": 78,
				"velocity": 64
			},
			{
				"deltaTime": 120,
				"channel": 0,
				"type": "noteOff",
				"noteNumber": 78,
				"velocity": 64
			},
			{
				"deltaTime": 0,
				"channel": 0,
				"type": "noteOn",
				"noteNumber": 76,
				"velocity": 64
			},
			{
				"deltaTime": 120,
				"channel": 0,
				"type": "noteOff",
				"noteNumber": 76,
				"velocity": 64
			},
			{
				"deltaTime": 0,
				"channel": 0,
				"type": "noteOn",
				"noteNumber": 75,
				"velocity": 64
			},
			{
				"deltaTime": 120,
				"channel": 0,
				"type": "noteOff",
				"noteNumber": 75,
				"velocity": 64
			},
			{
				"deltaTime": 0,
				"channel": 0,
				"type": "noteOn",
				"noteNumber": 73,
				"velocity": 64
			},
			{
				"deltaTime": 120,
				"channel": 0,
				"type": "noteOff",
				"noteNumber": 73,
				"velocity": 64
			},
			{
				"deltaTime": 0,
				"channel": 0,
				"type": "noteOn",
				"noteNumber": 75,
				"velocity": 64
			},
			{
				"deltaTime": 30,
				"channel": 0,
				"type": "noteOff",
				"noteNumber": 75,
				"velocity": 64
			},
			{
				"deltaTime": 0,
				"channel": 0,
				"type": "noteOn",
				"noteNumber": 76,
				"velocity": 64
			},
			{
				"deltaTime": 30,
				"channel": 0,
				"type": "noteOff",
				"noteNumber": 76,
				"velocity": 64
			},
			{
				"deltaTime": 0,
				"channel": 0,
				"type": "noteOn",
				"noteNumber": 75,
				"velocity": 64
			},
			{
				"deltaTime": 60,
				"channel": 0,
				"type": "noteOff",
				"noteNumber": 75,
				"velocity": 64
			},
			{
				"deltaTime": 0,
				"channel": 0,
				"type": "noteOn",
				"noteNumber": 78,
				"velocity": 64
			},
			{
				"deltaTime": 30,
				"channel": 0,
				"type": "noteOff",
				"noteNumber": 78,
				"velocity": 64
			},
			{
				"deltaTime": 0,
				"channel": 0,
				"type": "noteOn",
				"noteNumber": 76,
				"velocity": 64
			},
			{
				"deltaTime": 30,
				"channel": 0,
				"type": "noteOff",
				"noteNumber": 76,
				"velocity": 64
			},
			{
				"deltaTime": 0,
				"channel": 0,
				"type": "noteOn",
				"noteNumber": 78,
				"velocity": 64
			},
			{
				"deltaTime": 60,
				"channel": 0,
				"type": "noteOff",
				"noteNumber": 78,
				"velocity": 64
			},
			{
				"deltaTime": 0,
				"channel": 0,
				"type": "noteOn",
				"noteNumber": 75,
				"velocity": 64
			},
			{
				"deltaTime": 30,
				"channel": 0,
				"type": "noteOff",
				"noteNumber": 75,
				"velocity": 64
			},
			{
				"deltaTime": 0,
				"channel": 0,
				"type": "noteOn",
				"noteNumber": 73,
				"velocity": 64
			},
			{
				"deltaTime": 30,
				"channel": 0,
				"type": "noteOff",
				"noteNumber": 73,
				"velocity": 64
			},
			{
				"deltaTime": 0,
				"channel": 0,
				"type": "noteOn",
				"noteNumber": 75,
				"velocity": 64
			},
			{
				"deltaTime": 60,
				"channel": 0,
				"type": "noteOff",
				"noteNumber": 75,
				"velocity": 64
			},
			{
				"deltaTime": 0,
				"channel": 0,
				"type": "noteOn",
				"noteNumber": 71,
				"velocity": 64
			},
			{
				"deltaTime": 30,
				"channel": 0,
				"type": "noteOff",
				"noteNumber": 71,
				"velocity": 64
			},
			{
				"deltaTime": 0,
				"channel": 0,
				"type": "noteOn",
				"noteNumber": 70,
				"velocity": 64
			},
			{
				"deltaTime": 30,
				"channel": 0,
				"type": "noteOff",
				"noteNumber": 70,
				"velocity": 64
			},
			{
				"deltaTime": 0,
				"channel": 0,
				"type": "noteOn",
				"noteNumber": 71,
				"velocity": 64
			},
			{
				"deltaTime": 60,
				"channel": 0,
				"type": "noteOff",
				"noteNumber": 71,
				"velocity": 64
			},
			{
				"deltaTime": 0,
				"channel": 0,
				"type": "noteOn",
				"noteNumber": 75,
				"velocity": 64
			},
			{
				"deltaTime": 30,
				"channel": 0,
				"type": "noteOff",
				"noteNumber": 75,
				"velocity": 64
			},
			{
				"deltaTime": 0,
				"channel": 0,
				"type": "noteOn",
				"noteNumber": 73,
				"velocity": 64
			},
			{
				"deltaTime": 30,
				"channel": 0,
				"type": "noteOff",
				"noteNumber": 73,
				"velocity": 64
			},
			{
				"deltaTime": 0,
				"channel": 0,
				"type": "noteOn",
				"noteNumber": 75,
				"velocity": 64
			},
			{
				"deltaTime": 60,
				"channel": 0,
				"type": "noteOff",
				"noteNumber": 75,
				"velocity": 64
			},
			{
				"deltaTime": 0,
				"channel": 0,
				"type": "noteOn",
				"noteNumber": 80,
				"velocity": 64
			},
			{
				"deltaTime": 30,
				"channel": 0,
				"type": "noteOff",
				"noteNumber": 80,
				"velocity": 64
			},
			{
				"deltaTime": 0,
				"channel": 0,
				"type": "noteOn",
				"noteNumber": 79,
				"velocity": 64
			},
			{
				"deltaTime": 30,
				"channel": 0,
				"type": "noteOff",
				"noteNumber": 79,
				"velocity": 64
			},
			{
				"deltaTime": 0,
				"channel": 0,
				"type": "noteOn",
				"noteNumber": 80,
				"velocity": 64
			},
			{
				"deltaTime": 60,
				"channel": 0,
				"type": "noteOff",
				"noteNumber": 80,
				"velocity": 64
			},
			{
				"deltaTime": 0,
				"channel": 0,
				"type": "noteOn",
				"noteNumber": 73,
				"velocity": 64
			},
			{
				"deltaTime": 30,
				"channel": 0,
				"type": "noteOff",
				"noteNumber": 73,
				"velocity": 64
			},
			{
				"deltaTime": 0,
				"channel": 0,
				"type": "noteOn",
				"noteNumber": 71,
				"velocity": 64
			},
			{
				"deltaTime": 30,
				"channel": 0,
				"type": "noteOff",
				"noteNumber": 71,
				"velocity": 64
			},
			{
				"deltaTime": 0,
				"channel": 0,
				"type": "noteOn",
				"noteNumber": 73,
				"velocity": 64
			},
			{
				"deltaTime": 60,
				"channel": 0,
				"type": "noteOff",
				"noteNumber": 73,
				"velocity": 64
			},
			{
				"deltaTime": 0,
				"channel": 0,
				"type": "noteOn",
				"noteNumber": 76,
				"velocity": 64
			},
			{
				"deltaTime": 30,
				"channel": 0,
				"type": "noteOff",
				"noteNumber": 76,
				"velocity": 64
			},
			{
				"deltaTime": 0,
				"channel": 0,
				"type": "noteOn",
				"noteNumber": 75,
				"velocity": 64
			},
			{
				"deltaTime": 30,
				"channel": 0,
				"type": "noteOff",
				"noteNumber": 75,
				"velocity": 64
			},
			{
				"deltaTime": 0,
				"channel": 0,
				"type": "noteOn",
				"noteNumber": 76,
				"velocity": 64
			},
			{
				"deltaTime": 60,
				"channel": 0,
				"type": "noteOff",
				"noteNumber": 76,
				"velocity": 64
			},
			{
				"deltaTime": 0,
				"channel": 0,
				"type": "noteOn",
				"noteNumber": 82,
				"velocity": 64
			},
			{
				"deltaTime": 30,
				"channel": 0,
				"type": "noteOff",
				"noteNumber": 82,
				"velocity": 64
			},
			{
				"deltaTime": 0,
				"channel": 0,
				"type": "noteOn",
				"noteNumber": 80,
				"velocity": 64
			},
			{
				"deltaTime": 30,
				"channel": 0,
				"type": "noteOff",
				"noteNumber": 80,
				"velocity": 64
			},
			{
				"deltaTime": 0,
				"channel": 0,
				"type": "noteOn",
				"noteNumber": 82,
				"velocity": 64
			},
			{
				"deltaTime": 60,
				"channel": 0,
				"type": "noteOff",
				"noteNumber": 82,
				"velocity": 64
			},
			{
				"deltaTime": 0,
				"channel": 0,
				"type": "noteOn",
				"noteNumber": 75,
				"velocity": 64
			},
			{
				"deltaTime": 30,
				"channel": 0,
				"type": "noteOff",
				"noteNumber": 75,
				"velocity": 64
			},
			{
				"deltaTime": 0,
				"channel": 0,
				"type": "noteOn",
				"noteNumber": 73,
				"velocity": 64
			},
			{
				"deltaTime": 30,
				"channel": 0,
				"type": "noteOff",
				"noteNumber": 73,
				"velocity": 64
			},
			{
				"deltaTime": 0,
				"channel": 0,
				"type": "noteOn",
				"noteNumber": 75,
				"velocity": 64
			},
			{
				"deltaTime": 60,
				"channel": 0,
				"type": "noteOff",
				"noteNumber": 75,
				"velocity": 64
			},
			{
				"deltaTime": 0,
				"channel": 0,
				"type": "noteOn",
				"noteNumber": 80,
				"velocity": 64
			},
			{
				"deltaTime": 30,
				"channel": 0,
				"type": "noteOff",
				"noteNumber": 80,
				"velocity": 64
			},
			{
				"deltaTime": 0,
				"channel": 0,
				"type": "noteOn",
				"noteNumber": 79,
				"velocity": 64
			},
			{
				"deltaTime": 30,
				"channel": 0,
				"type": "noteOff",
				"noteNumber": 79,
				"velocity": 64
			},
			{
				"deltaTime": 0,
				"channel": 0,
				"type": "noteOn",
				"noteNumber": 80,
				"velocity": 64
			},
			{
				"deltaTime": 60,
				"channel": 0,
				"type": "noteOff",
				"noteNumber": 80,
				"velocity": 64
			},
			{
				"deltaTime": 0,
				"channel": 0,
				"type": "noteOn",
				"noteNumber": 83,
				"velocity": 64
			},
			{
				"deltaTime": 30,
				"channel": 0,
				"type": "noteOff",
				"noteNumber": 83,
				"velocity": 64
			},
			{
				"deltaTime": 0,
				"channel": 0,
				"type": "noteOn",
				"noteNumber": 82,
				"velocity": 64
			},
			{
				"deltaTime": 30,
				"channel": 0,
				"type": "noteOff",
				"noteNumber": 82,
				"velocity": 64
			},
			{
				"deltaTime": 0,
				"channel": 0,
				"type": "noteOn",
				"noteNumber": 83,
				"velocity": 64
			},
			{
				"deltaTime": 60,
				"channel": 0,
				"type": "noteOff",
				"noteNumber": 83,
				"velocity": 64
			},
			{
				"deltaTime": 0,
				"channel": 0,
				"type": "noteOn",
				"noteNumber": 75,
				"velocity": 64
			},
			{
				"deltaTime": 30,
				"channel": 0,
				"type": "noteOff",
				"noteNumber": 75,
				"velocity": 64
			},
			{
				"deltaTime": 0,
				"channel": 0,
				"type": "noteOn",
				"noteNumber": 74,
				"velocity": 64
			},
			{
				"deltaTime": 30,
				"channel": 0,
				"type": "noteOff",
				"noteNumber": 74,
				"velocity": 64
			},
			{
				"deltaTime": 0,
				"channel": 0,
				"type": "noteOn",
				"noteNumber": 75,
				"velocity": 64
			},
			{
				"deltaTime": 60,
				"channel": 0,
				"type": "noteOff",
				"noteNumber": 75,
				"velocity": 64
			},
			{
				"deltaTime": 0,
				"channel": 0,
				"type": "noteOn",
				"noteNumber": 82,
				"velocity": 64
			},
			{
				"deltaTime": 30,
				"channel": 0,
				"type": "noteOff",
				"noteNumber": 82,
				"velocity": 64
			},
			{
				"deltaTime": 0,
				"channel": 0,
				"type": "noteOn",
				"noteNumber": 80,
				"velocity": 64
			},
			{
				"deltaTime": 30,
				"channel": 0,
				"type": "noteOff",
				"noteNumber": 80,
				"velocity": 64
			},
			{
				"deltaTime": 0,
				"channel": 0,
				"type": "noteOn",
				"noteNumber": 82,
				"velocity": 64
			},
			{
				"deltaTime": 60,
				"channel": 0,
				"type": "noteOff",
				"noteNumber": 82,
				"velocity": 64
			},
			{
				"deltaTime": 0,
				"channel": 0,
				"type": "noteOn",
				"noteNumber": 79,
				"velocity": 64
			},
			{
				"deltaTime": 30,
				"channel": 0,
				"type": "noteOff",
				"noteNumber": 79,
				"velocity": 64
			},
			{
				"deltaTime": 0,
				"channel": 0,
				"type": "noteOn",
				"noteNumber": 77,
				"velocity": 64
			},
			{
				"deltaTime": 30,
				"channel": 0,
				"type": "noteOff",
				"noteNumber": 77,
				"velocity": 64
			},
			{
				"deltaTime": 0,
				"channel": 0,
				"type": "noteOn",
				"noteNumber": 79,
				"velocity": 64
			},
			{
				"deltaTime": 60,
				"channel": 0,
				"type": "noteOff",
				"noteNumber": 79,
				"velocity": 64
			},
			{
				"deltaTime": 0,
				"channel": 0,
				"type": "noteOn",
				"noteNumber": 75,
				"velocity": 64
			},
			{
				"deltaTime": 30,
				"channel": 0,
				"type": "noteOff",
				"noteNumber": 75,
				"velocity": 64
			},
			{
				"deltaTime": 0,
				"channel": 0,
				"type": "noteOn",
				"noteNumber": 74,
				"velocity": 64
			},
			{
				"deltaTime": 30,
				"channel": 0,
				"type": "noteOff",
				"noteNumber": 74,
				"velocity": 64
			},
			{
				"deltaTime": 0,
				"channel": 0,
				"type": "noteOn",
				"noteNumber": 74,
				"velocity": 64
			},
			{
				"deltaTime": 60,
				"channel": 0,
				"type": "noteOff",
				"noteNumber": 74,
				"velocity": 64
			},
			{
				"deltaTime": 0,
				"channel": 0,
				"type": "noteOn",
				"noteNumber": 81,
				"velocity": 64
			},
			{
				"deltaTime": 120,
				"channel": 0,
				"type": "noteOff",
				"noteNumber": 81,
				"velocity": 64
			},
			{
				"deltaTime": 0,
				"channel": 0,
				"type": "noteOn",
				"noteNumber": 80,
				"velocity": 64
			},
			{
				"deltaTime": 120,
				"channel": 0,
				"type": "noteOff",
				"noteNumber": 80,
				"velocity": 64
			},
			{
				"deltaTime": 0,
				"channel": 0,
				"type": "noteOn",
				"noteNumber": 78,
				"velocity": 64
			},
			{
				"deltaTime": 120,
				"channel": 0,
				"type": "noteOff",
				"noteNumber": 78,
				"velocity": 64
			},
			{
				"deltaTime": 0,
				"channel": 0,
				"type": "noteOn",
				"noteNumber": 76,
				"velocity": 64
			},
			{
				"deltaTime": 30,
				"channel": 0,
				"type": "noteOff",
				"noteNumber": 76,
				"velocity": 64
			},
			{
				"deltaTime": 0,
				"channel": 0,
				"type": "noteOn",
				"noteNumber": 75,
				"velocity": 64
			},
			{
				"deltaTime": 30,
				"channel": 0,
				"type": "noteOff",
				"noteNumber": 75,
				"velocity": 64
			},
			{
				"deltaTime": 0,
				"channel": 0,
				"type": "noteOn",
				"noteNumber": 76,
				"velocity": 64
			},
			{
				"deltaTime": 60,
				"channel": 0,
				"type": "noteOff",
				"noteNumber": 76,
				"velocity": 64
			},
			{
				"deltaTime": 0,
				"channel": 0,
				"type": "noteOn",
				"noteNumber": 73,
				"velocity": 64
			},
			{
				"deltaTime": 30,
				"channel": 0,
				"type": "noteOff",
				"noteNumber": 73,
				"velocity": 64
			},
			{
				"deltaTime": 0,
				"channel": 0,
				"type": "noteOn",
				"noteNumber": 72,
				"velocity": 64
			},
			{
				"deltaTime": 30,
				"channel": 0,
				"type": "noteOff",
				"noteNumber": 72,
				"velocity": 64
			},
			{
				"deltaTime": 0,
				"channel": 0,
				"type": "noteOn",
				"noteNumber": 73,
				"velocity": 64
			},
			{
				"deltaTime": 60,
				"channel": 0,
				"type": "noteOff",
				"noteNumber": 73,
				"velocity": 64
			},
			{
				"deltaTime": 0,
				"channel": 0,
				"type": "noteOn",
				"noteNumber": 76,
				"velocity": 64
			},
			{
				"deltaTime": 30,
				"channel": 0,
				"type": "noteOff",
				"noteNumber": 76,
				"velocity": 64
			},
			{
				"deltaTime": 0,
				"channel": 0,
				"type": "noteOn",
				"noteNumber": 75,
				"velocity": 64
			},
			{
				"deltaTime": 30,
				"channel": 0,
				"type": "noteOff",
				"noteNumber": 75,
				"velocity": 64
			},
			{
				"deltaTime": 0,
				"channel": 0,
				"type": "noteOn",
				"noteNumber": 76,
				"velocity": 64
			},
			{
				"deltaTime": 60,
				"channel": 0,
				"type": "noteOff",
				"noteNumber": 76,
				"velocity": 64
			},
			{
				"deltaTime": 0,
				"channel": 0,
				"type": "noteOn",
				"noteNumber": 80,
				"velocity": 64
			},
			{
				"deltaTime": 120,
				"channel": 0,
				"type": "noteOff",
				"noteNumber": 80,
				"velocity": 64
			},
			{
				"deltaTime": 0,
				"channel": 0,
				"type": "noteOn",
				"noteNumber": 78,
				"velocity": 64
			},
			{
				"deltaTime": 120,
				"channel": 0,
				"type": "noteOff",
				"noteNumber": 78,
				"velocity": 64
			},
			{
				"deltaTime": 0,
				"channel": 0,
				"type": "noteOn",
				"noteNumber": 76,
				"velocity": 64
			},
			{
				"deltaTime": 120,
				"channel": 0,
				"type": "noteOff",
				"noteNumber": 76,
				"velocity": 64
			},
			{
				"deltaTime": 0,
				"channel": 0,
				"type": "noteOn",
				"noteNumber": 75,
				"velocity": 64
			},
			{
				"deltaTime": 30,
				"channel": 0,
				"type": "noteOff",
				"noteNumber": 75,
				"velocity": 64
			},
			{
				"deltaTime": 0,
				"channel": 0,
				"type": "noteOn",
				"noteNumber": 73,
				"velocity": 64
			},
			{
				"deltaTime": 30,
				"channel": 0,
				"type": "noteOff",
				"noteNumber": 73,
				"velocity": 64
			},
			{
				"deltaTime": 0,
				"channel": 0,
				"type": "noteOn",
				"noteNumber": 75,
				"velocity": 64
			},
			{
				"deltaTime": 60,
				"channel": 0,
				"type": "noteOff",
				"noteNumber": 75,
				"velocity": 64
			},
			{
				"deltaTime": 0,
				"channel": 0,
				"type": "noteOn",
				"noteNumber": 71,
				"velocity": 64
			},
			{
				"deltaTime": 30,
				"channel": 0,
				"type": "noteOff",
				"noteNumber": 71,
				"velocity": 64
			},
			{
				"deltaTime": 0,
				"channel": 0,
				"type": "noteOn",
				"noteNumber": 70,
				"velocity": 64
			},
			{
				"deltaTime": 30,
				"channel": 0,
				"type": "noteOff",
				"noteNumber": 70,
				"velocity": 64
			},
			{
				"deltaTime": 0,
				"channel": 0,
				"type": "noteOn",
				"noteNumber": 71,
				"velocity": 64
			},
			{
				"deltaTime": 60,
				"channel": 0,
				"type": "noteOff",
				"noteNumber": 71,
				"velocity": 64
			},
			{
				"deltaTime": 0,
				"channel": 0,
				"type": "noteOn",
				"noteNumber": 73,
				"velocity": 64
			},
			{
				"deltaTime": 30,
				"channel": 0,
				"type": "noteOff",
				"noteNumber": 73,
				"velocity": 64
			},
			{
				"deltaTime": 0,
				"channel": 0,
				"type": "noteOn",
				"noteNumber": 71,
				"velocity": 64
			},
			{
				"deltaTime": 30,
				"channel": 0,
				"type": "noteOff",
				"noteNumber": 71,
				"velocity": 64
			},
			{
				"deltaTime": 0,
				"channel": 0,
				"type": "noteOn",
				"noteNumber": 73,
				"velocity": 64
			},
			{
				"deltaTime": 60,
				"channel": 0,
				"type": "noteOff",
				"noteNumber": 73,
				"velocity": 64
			},
			{
				"deltaTime": 0,
				"channel": 0,
				"type": "noteOn",
				"noteNumber": 76,
				"velocity": 64
			},
			{
				"deltaTime": 120,
				"channel": 0,
				"type": "noteOff",
				"noteNumber": 76,
				"velocity": 64
			},
			{
				"deltaTime": 0,
				"channel": 0,
				"type": "noteOn",
				"noteNumber": 75,
				"velocity": 64
			},
			{
				"deltaTime": 120,
				"channel": 0,
				"type": "noteOff",
				"noteNumber": 75,
				"velocity": 64
			},
			{
				"deltaTime": 0,
				"channel": 0,
				"type": "noteOn",
				"noteNumber": 73,
				"velocity": 64
			},
			{
				"deltaTime": 120,
				"channel": 0,
				"type": "noteOff",
				"noteNumber": 73,
				"velocity": 64
			},
			{
				"deltaTime": 0,
				"channel": 0,
				"type": "noteOn",
				"noteNumber": 71,
				"velocity": 64
			},
			{
				"deltaTime": 30,
				"channel": 0,
				"type": "noteOff",
				"noteNumber": 71,
				"velocity": 64
			},
			{
				"deltaTime": 0,
				"channel": 0,
				"type": "noteOn",
				"noteNumber": 70,
				"velocity": 64
			},
			{
				"deltaTime": 30,
				"channel": 0,
				"type": "noteOff",
				"noteNumber": 70,
				"velocity": 64
			},
			{
				"deltaTime": 0,
				"channel": 0,
				"type": "noteOn",
				"noteNumber": 71,
				"velocity": 64
			},
			{
				"deltaTime": 60,
				"channel": 0,
				"type": "noteOff",
				"noteNumber": 71,
				"velocity": 64
			},
			{
				"deltaTime": 0,
				"channel": 0,
				"type": "noteOn",
				"noteNumber": 68,
				"velocity": 64
			},
			{
				"deltaTime": 30,
				"channel": 0,
				"type": "noteOff",
				"noteNumber": 68,
				"velocity": 64
			},
			{
				"deltaTime": 0,
				"channel": 0,
				"type": "noteOn",
				"noteNumber": 67,
				"velocity": 64
			},
			{
				"deltaTime": 30,
				"channel": 0,
				"type": "noteOff",
				"noteNumber": 67,
				"velocity": 64
			},
			{
				"deltaTime": 0,
				"channel": 0,
				"type": "noteOn",
				"noteNumber": 68,
				"velocity": 64
			},
			{
				"deltaTime": 60,
				"channel": 0,
				"type": "noteOff",
				"noteNumber": 68,
				"velocity": 64
			},
			{
				"deltaTime": 0,
				"channel": 0,
				"type": "noteOn",
				"noteNumber": 69,
				"velocity": 64
			},
			{
				"deltaTime": 30,
				"channel": 0,
				"type": "noteOff",
				"noteNumber": 69,
				"velocity": 64
			},
			{
				"deltaTime": 0,
				"channel": 0,
				"type": "noteOn",
				"noteNumber": 68,
				"velocity": 64
			},
			{
				"deltaTime": 30,
				"channel": 0,
				"type": "noteOff",
				"noteNumber": 68,
				"velocity": 64
			},
			{
				"deltaTime": 0,
				"channel": 0,
				"type": "noteOn",
				"noteNumber": 69,
				"velocity": 64
			},
			{
				"deltaTime": 60,
				"channel": 0,
				"type": "noteOff",
				"noteNumber": 69,
				"velocity": 64
			},
			{
				"deltaTime": 0,
				"channel": 0,
				"type": "noteOn",
				"noteNumber": 73,
				"velocity": 64
			},
			{
				"deltaTime": 30,
				"channel": 0,
				"type": "noteOff",
				"noteNumber": 73,
				"velocity": 64
			},
			{
				"deltaTime": 0,
				"channel": 0,
				"type": "noteOn",
				"noteNumber": 71,
				"velocity": 64
			},
			{
				"deltaTime": 30,
				"channel": 0,
				"type": "noteOff",
				"noteNumber": 71,
				"velocity": 64
			},
			{
				"deltaTime": 0,
				"channel": 0,
				"type": "noteOn",
				"noteNumber": 73,
				"velocity": 64
			},
			{
				"deltaTime": 60,
				"channel": 0,
				"type": "noteOff",
				"noteNumber": 73,
				"velocity": 64
			},
			{
				"deltaTime": 0,
				"channel": 0,
				"type": "noteOn",
				"noteNumber": 69,
				"velocity": 64
			},
			{
				"deltaTime": 30,
				"channel": 0,
				"type": "noteOff",
				"noteNumber": 69,
				"velocity": 64
			},
			{
				"deltaTime": 0,
				"channel": 0,
				"type": "noteOn",
				"noteNumber": 68,
				"velocity": 64
			},
			{
				"deltaTime": 30,
				"channel": 0,
				"type": "noteOff",
				"noteNumber": 68,
				"velocity": 64
			},
			{
				"deltaTime": 0,
				"channel": 0,
				"type": "noteOn",
				"noteNumber": 69,
				"velocity": 64
			},
			{
				"deltaTime": 60,
				"channel": 0,
				"type": "noteOff",
				"noteNumber": 69,
				"velocity": 64
			},
			{
				"deltaTime": 0,
				"channel": 0,
				"type": "noteOn",
				"noteNumber": 76,
				"velocity": 64
			},
			{
				"deltaTime": 30,
				"channel": 0,
				"type": "noteOff",
				"noteNumber": 76,
				"velocity": 64
			},
			{
				"deltaTime": 0,
				"channel": 0,
				"type": "noteOn",
				"noteNumber": 75,
				"velocity": 64
			},
			{
				"deltaTime": 30,
				"channel": 0,
				"type": "noteOff",
				"noteNumber": 75,
				"velocity": 64
			},
			{
				"deltaTime": 0,
				"channel": 0,
				"type": "noteOn",
				"noteNumber": 76,
				"velocity": 64
			},
			{
				"deltaTime": 60,
				"channel": 0,
				"type": "noteOff",
				"noteNumber": 76,
				"velocity": 64
			},
			{
				"deltaTime": 0,
				"channel": 0,
				"type": "noteOn",
				"noteNumber": 67,
				"velocity": 64
			},
			{
				"deltaTime": 30,
				"channel": 0,
				"type": "noteOff",
				"noteNumber": 67,
				"velocity": 64
			},
			{
				"deltaTime": 0,
				"channel": 0,
				"type": "noteOn",
				"noteNumber": 65,
				"velocity": 64
			},
			{
				"deltaTime": 30,
				"channel": 0,
				"type": "noteOff",
				"noteNumber": 65,
				"velocity": 64
			},
			{
				"deltaTime": 0,
				"channel": 0,
				"type": "noteOn",
				"noteNumber": 67,
				"velocity": 64
			},
			{
				"deltaTime": 60,
				"channel": 0,
				"type": "noteOff",
				"noteNumber": 67,
				"velocity": 64
			},
			{
				"deltaTime": 0,
				"channel": 0,
				"type": "noteOn",
				"noteNumber": 70,
				"velocity": 64
			},
			{
				"deltaTime": 30,
				"channel": 0,
				"type": "noteOff",
				"noteNumber": 70,
				"velocity": 64
			},
			{
				"deltaTime": 0,
				"channel": 0,
				"type": "noteOn",
				"noteNumber": 68,
				"velocity": 64
			},
			{
				"deltaTime": 30,
				"channel": 0,
				"type": "noteOff",
				"noteNumber": 68,
				"velocity": 64
			},
			{
				"deltaTime": 0,
				"channel": 0,
				"type": "noteOn",
				"noteNumber": 70,
				"velocity": 64
			},
			{
				"deltaTime": 60,
				"channel": 0,
				"type": "noteOff",
				"noteNumber": 70,
				"velocity": 64
			},
			{
				"deltaTime": 0,
				"channel": 0,
				"type": "noteOn",
				"noteNumber": 59,
				"velocity": 64
			},
			{
				"deltaTime": 30,
				"channel": 0,
				"type": "noteOff",
				"noteNumber": 59,
				"velocity": 64
			},
			{
				"deltaTime": 0,
				"channel": 0,
				"type": "noteOn",
				"noteNumber": 58,
				"velocity": 64
			},
			{
				"deltaTime": 30,
				"channel": 0,
				"type": "noteOff",
				"noteNumber": 58,
				"velocity": 64
			},
			{
				"deltaTime": 0,
				"channel": 0,
				"type": "noteOn",
				"noteNumber": 59,
				"velocity": 64
			},
			{
				"deltaTime": 60,
				"channel": 0,
				"type": "noteOff",
				"noteNumber": 59,
				"velocity": 64
			},
			{
				"deltaTime": 0,
				"channel": 0,
				"type": "noteOn",
				"noteNumber": 68,
				"velocity": 64
			},
			{
				"deltaTime": 60,
				"channel": 0,
				"type": "noteOff",
				"noteNumber": 68,
				"velocity": 64
			},
			{
				"deltaTime": 0,
				"channel": 0,
				"type": "noteOn",
				"noteNumber": 64,
				"velocity": 64
			},
			{
				"deltaTime": 60,
				"channel": 0,
				"type": "noteOff",
				"noteNumber": 64,
				"velocity": 64
			},
			{
				"deltaTime": 0,
				"channel": 0,
				"type": "noteOn",
				"noteNumber": 61,
				"velocity": 64
			},
			{
				"deltaTime": 60,
				"channel": 0,
				"type": "noteOff",
				"noteNumber": 61,
				"velocity": 64
			},
			{
				"deltaTime": 0,
				"channel": 0,
				"type": "noteOn",
				"noteNumber": 58,
				"velocity": 64
			},
			{
				"deltaTime": 60,
				"channel": 0,
				"type": "noteOff",
				"noteNumber": 58,
				"velocity": 64
			},
			{
				"deltaTime": 0,
				"channel": 0,
				"type": "noteOn",
				"noteNumber": 67,
				"velocity": 64
			},
			{
				"deltaTime": 60,
				"channel": 0,
				"type": "noteOff",
				"noteNumber": 67,
				"velocity": 64
			},
			{
				"deltaTime": 0,
				"channel": 0,
				"type": "noteOn",
				"noteNumber": 68,
				"velocity": 64
			},
			{
				"deltaTime": 60,
				"channel": 0,
				"type": "noteOff",
				"noteNumber": 68,
				"velocity": 64
			},
			{
				"deltaTime": 0,
				"channel": 0,
				"type": "noteOn",
				"noteNumber": 63,
				"velocity": 64
			},
			{
				"deltaTime": 60,
				"channel": 0,
				"type": "noteOff",
				"noteNumber": 63,
				"velocity": 64
			},
			{
				"deltaTime": 0,
				"channel": 0,
				"type": "noteOn",
				"noteNumber": 59,
				"velocity": 64
			},
			{
				"deltaTime": 60,
				"channel": 0,
				"type": "noteOff",
				"noteNumber": 59,
				"velocity": 64
			},
			{
				"deltaTime": 0,
				"channel": 0,
				"type": "noteOn",
				"noteNumber": 56,
				"velocity": 64
			},
			{
				"deltaTime": 60,
				"channel": 0,
				"type": "noteOff",
				"noteNumber": 56,
				"velocity": 64
			},
			{
				"deltaTime": 120,
				"channel": 0,
				"type": "noteOn",
				"noteNumber": 64,
				"velocity": 64
			},
			{
				"deltaTime": 120,
				"channel": 0,
				"type": "noteOff",
				"noteNumber": 64,
				"velocity": 64
			},
			{
				"deltaTime": 0,
				"channel": 0,
				"type": "noteOn",
				"noteNumber": 66,
				"velocity": 64
			},
			{
				"deltaTime": 120,
				"channel": 0,
				"type": "noteOff",
				"noteNumber": 66,
				"velocity": 64
			},
			{
				"deltaTime": 0,
				"channel": 0,
				"type": "noteOn",
				"noteNumber": 68,
				"velocity": 64
			},
			{
				"deltaTime": 120,
				"channel": 0,
				"type": "noteOff",
				"noteNumber": 68,
				"velocity": 64
			},
			{
				"deltaTime": 0,
				"channel": 0,
				"type": "noteOn",
				"noteNumber": 69,
				"velocity": 64
			},
			{
				"deltaTime": 120,
				"channel": 0,
				"type": "noteOff",
				"noteNumber": 69,
				"velocity": 64
			},
			{
				"deltaTime": 0,
				"channel": 0,
				"type": "noteOn",
				"noteNumber": 71,
				"velocity": 64
			},
			{
				"deltaTime": 120,
				"channel": 0,
				"type": "noteOff",
				"noteNumber": 71,
				"velocity": 64
			},
			{
				"deltaTime": 0,
				"channel": 0,
				"type": "noteOn",
				"noteNumber": 73,
				"velocity": 64
			},
			{
				"deltaTime": 120,
				"channel": 0,
				"type": "noteOff",
				"noteNumber": 73,
				"velocity": 64
			},
			{
				"deltaTime": 0,
				"channel": 0,
				"type": "noteOn",
				"noteNumber": 75,
				"velocity": 64
			},
			{
				"deltaTime": 120,
				"channel": 0,
				"type": "noteOff",
				"noteNumber": 75,
				"velocity": 64
			},
			{
				"deltaTime": 0,
				"channel": 0,
				"type": "noteOn",
				"noteNumber": 76,
				"velocity": 64
			},
			{
				"deltaTime": 60,
				"channel": 0,
				"type": "noteOff",
				"noteNumber": 76,
				"velocity": 64
			},
			{
				"deltaTime": 0,
				"channel": 0,
				"type": "noteOn",
				"noteNumber": 75,
				"velocity": 64
			},
			{
				"deltaTime": 60,
				"channel": 0,
				"type": "noteOff",
				"noteNumber": 75,
				"velocity": 64
			},
			{
				"deltaTime": 0,
				"channel": 0,
				"type": "noteOn",
				"noteNumber": 73,
				"velocity": 64
			},
			{
				"deltaTime": 60,
				"channel": 0,
				"type": "noteOff",
				"noteNumber": 73,
				"velocity": 64
			},
			{
				"deltaTime": 0,
				"channel": 0,
				"type": "noteOn",
				"noteNumber": 71,
				"velocity": 64
			},
			{
				"deltaTime": 60,
				"channel": 0,
				"type": "noteOff",
				"noteNumber": 71,
				"velocity": 64
			},
			{
				"deltaTime": 0,
				"channel": 0,
				"type": "noteOn",
				"noteNumber": 76,
				"velocity": 64
			},
			{
				"deltaTime": 180,
				"channel": 0,
				"type": "noteOff",
				"noteNumber": 76,
				"velocity": 64
			},
			{
				"deltaTime": 0,
				"channel": 0,
				"type": "noteOn",
				"noteNumber": 71,
				"velocity": 64
			},
			{
				"deltaTime": 30,
				"channel": 0,
				"type": "noteOff",
				"noteNumber": 71,
				"velocity": 64
			},
			{
				"deltaTime": 0,
				"channel": 0,
				"type": "noteOn",
				"noteNumber": 69,
				"velocity": 64
			},
			{
				"deltaTime": 30,
				"channel": 0,
				"type": "noteOff",
				"noteNumber": 69,
				"velocity": 64
			},
			{
				"deltaTime": 0,
				"channel": 0,
				"type": "noteOn",
				"noteNumber": 71,
				"velocity": 64
			},
			{
				"deltaTime": 60,
				"channel": 0,
				"type": "noteOff",
				"noteNumber": 71,
				"velocity": 64
			},
			{
				"deltaTime": 0,
				"channel": 0,
				"type": "noteOn",
				"noteNumber": 68,
				"velocity": 64
			},
			{
				"deltaTime": 30,
				"channel": 0,
				"type": "noteOff",
				"noteNumber": 68,
				"velocity": 64
			},
			{
				"deltaTime": 0,
				"channel": 0,
				"type": "noteOn",
				"noteNumber": 66,
				"velocity": 64
			},
			{
				"deltaTime": 30,
				"channel": 0,
				"type": "noteOff",
				"noteNumber": 66,
				"velocity": 64
			},
			{
				"deltaTime": 0,
				"channel": 0,
				"type": "noteOn",
				"noteNumber": 68,
				"velocity": 64
			},
			{
				"deltaTime": 60,
				"channel": 0,
				"type": "noteOff",
				"noteNumber": 68,
				"velocity": 64
			},
			{
				"deltaTime": 0,
				"channel": 0,
				"type": "noteOn",
				"noteNumber": 76,
				"velocity": 64
			},
			{
				"deltaTime": 120,
				"channel": 0,
				"type": "noteOff",
				"noteNumber": 76,
				"velocity": 64
			},
			{
				"deltaTime": 0,
				"channel": 0,
				"type": "noteOn",
				"noteNumber": 75,
				"velocity": 64
			},
			{
				"deltaTime": 120,
				"channel": 0,
				"type": "noteOff",
				"noteNumber": 75,
				"velocity": 64
			},
			{
				"deltaTime": 0,
				"channel": 0,
				"type": "noteOn",
				"noteNumber": 74,
				"velocity": 64
			},
			{
				"deltaTime": 120,
				"channel": 0,
				"type": "noteOff",
				"noteNumber": 74,
				"velocity": 64
			},
			{
				"deltaTime": 0,
				"channel": 0,
				"type": "noteOn",
				"noteNumber": 73,
				"velocity": 64
			},
			{
				"deltaTime": 120,
				"channel": 0,
				"type": "noteOff",
				"noteNumber": 73,
				"velocity": 64
			},
			{
				"deltaTime": 0,
				"channel": 0,
				"type": "noteOn",
				"noteNumber": 71,
				"velocity": 64
			},
			{
				"deltaTime": 120,
				"channel": 0,
				"type": "noteOff",
				"noteNumber": 71,
				"velocity": 64
			},
			{
				"deltaTime": 0,
				"channel": 0,
				"type": "noteOn",
				"noteNumber": 69,
				"velocity": 64
			},
			{
				"deltaTime": 120,
				"channel": 0,
				"type": "noteOff",
				"noteNumber": 69,
				"velocity": 64
			},
			{
				"deltaTime": 0,
				"channel": 0,
				"type": "noteOn",
				"noteNumber": 68,
				"velocity": 64
			},
			{
				"deltaTime": 120,
				"channel": 0,
				"type": "noteOff",
				"noteNumber": 68,
				"velocity": 64
			},
			{
				"deltaTime": 0,
				"channel": 0,
				"type": "noteOn",
				"noteNumber": 66,
				"velocity": 64
			},
			{
				"deltaTime": 120,
				"channel": 0,
				"type": "noteOff",
				"noteNumber": 66,
				"velocity": 64
			},
			{
				"deltaTime": 0,
				"channel": 0,
				"type": "noteOn",
				"noteNumber": 68,
				"velocity": 64
			},
			{
				"deltaTime": 30,
				"channel": 0,
				"type": "noteOff",
				"noteNumber": 68,
				"velocity": 64
			},
			{
				"deltaTime": 0,
				"channel": 0,
				"type": "noteOn",
				"noteNumber": 69,
				"velocity": 64
			},
			{
				"deltaTime": 30,
				"channel": 0,
				"type": "noteOff",
				"noteNumber": 69,
				"velocity": 64
			},
			{
				"deltaTime": 0,
				"channel": 0,
				"type": "noteOn",
				"noteNumber": 68,
				"velocity": 64
			},
			{
				"deltaTime": 60,
				"channel": 0,
				"type": "noteOff",
				"noteNumber": 68,
				"velocity": 64
			},
			{
				"deltaTime": 0,
				"channel": 0,
				"type": "noteOn",
				"noteNumber": 71,
				"velocity": 64
			},
			{
				"deltaTime": 30,
				"channel": 0,
				"type": "noteOff",
				"noteNumber": 71,
				"velocity": 64
			},
			{
				"deltaTime": 0,
				"channel": 0,
				"type": "noteOn",
				"noteNumber": 69,
				"velocity": 64
			},
			{
				"deltaTime": 30,
				"channel": 0,
				"type": "noteOff",
				"noteNumber": 69,
				"velocity": 64
			},
			{
				"deltaTime": 0,
				"channel": 0,
				"type": "noteOn",
				"noteNumber": 71,
				"velocity": 64
			},
			{
				"deltaTime": 60,
				"channel": 0,
				"type": "noteOff",
				"noteNumber": 71,
				"velocity": 64
			},
			{
				"deltaTime": 0,
				"channel": 0,
				"type": "noteOn",
				"noteNumber": 68,
				"velocity": 64
			},
			{
				"deltaTime": 30,
				"channel": 0,
				"type": "noteOff",
				"noteNumber": 68,
				"velocity": 64
			},
			{
				"deltaTime": 0,
				"channel": 0,
				"type": "noteOn",
				"noteNumber": 66,
				"velocity": 64
			},
			{
				"deltaTime": 30,
				"channel": 0,
				"type": "noteOff",
				"noteNumber": 66,
				"velocity": 64
			},
			{
				"deltaTime": 0,
				"channel": 0,
				"type": "noteOn",
				"noteNumber": 68,
				"velocity": 64
			},
			{
				"deltaTime": 60,
				"channel": 0,
				"type": "noteOff",
				"noteNumber": 68,
				"velocity": 64
			},
			{
				"deltaTime": 0,
				"channel": 0,
				"type": "noteOn",
				"noteNumber": 64,
				"velocity": 64
			},
			{
				"deltaTime": 30,
				"channel": 0,
				"type": "noteOff",
				"noteNumber": 64,
				"velocity": 64
			},
			{
				"deltaTime": 0,
				"channel": 0,
				"type": "noteOn",
				"noteNumber": 63,
				"velocity": 64
			},
			{
				"deltaTime": 30,
				"channel": 0,
				"type": "noteOff",
				"noteNumber": 63,
				"velocity": 64
			},
			{
				"deltaTime": 0,
				"channel": 0,
				"type": "noteOn",
				"noteNumber": 64,
				"velocity": 64
			},
			{
				"deltaTime": 120,
				"channel": 0,
				"type": "noteOff",
				"noteNumber": 64,
				"velocity": 64
			},
			{
				"deltaTime": 0,
				"channel": 0,
				"type": "noteOn",
				"noteNumber": 66,
				"velocity": 64
			},
			{
				"deltaTime": 120,
				"channel": 0,
				"type": "noteOff",
				"noteNumber": 66,
				"velocity": 64
			},
			{
				"deltaTime": 0,
				"channel": 0,
				"type": "noteOn",
				"noteNumber": 69,
				"velocity": 64
			},
			{
				"deltaTime": 120,
				"channel": 0,
				"type": "noteOff",
				"noteNumber": 69,
				"velocity": 64
			},
			{
				"deltaTime": 0,
				"channel": 0,
				"type": "noteOn",
				"noteNumber": 71,
				"velocity": 64
			},
			{
				"deltaTime": 120,
				"channel": 0,
				"type": "noteOff",
				"noteNumber": 71,
				"velocity": 64
			},
			{
				"deltaTime": 0,
				"channel": 0,
				"type": "noteOn",
				"noteNumber": 75,
				"velocity": 64
			},
			{
				"deltaTime": 120,
				"channel": 0,
				"type": "noteOff",
				"noteNumber": 75,
				"velocity": 64
			},
			{
				"deltaTime": 0,
				"channel": 0,
				"type": "noteOn",
				"noteNumber": 78,
				"velocity": 64
			},
			{
				"deltaTime": 120,
				"channel": 0,
				"type": "noteOff",
				"noteNumber": 78,
				"velocity": 64
			},
			{
				"deltaTime": 0,
				"channel": 0,
				"type": "noteOn",
				"noteNumber": 63,
				"velocity": 64
			},
			{
				"deltaTime": 120,
				"channel": 0,
				"type": "noteOff",
				"noteNumber": 63,
				"velocity": 64
			},
			{
				"deltaTime": 0,
				"channel": 0,
				"type": "noteOn",
				"noteNumber": 64,
				"velocity": 64
			},
			{
				"deltaTime": 120,
				"channel": 0,
				"type": "noteOff",
				"noteNumber": 64,
				"velocity": 64
			},
			{
				"deltaTime": 0,
				"channel": 0,
				"type": "noteOn",
				"noteNumber": 68,
				"velocity": 64
			},
			{
				"deltaTime": 120,
				"channel": 0,
				"type": "noteOff",
				"noteNumber": 68,
				"velocity": 64
			},
			{
				"deltaTime": 0,
				"channel": 0,
				"type": "noteOn",
				"noteNumber": 69,
				"velocity": 64
			},
			{
				"deltaTime": 120,
				"channel": 0,
				"type": "noteOff",
				"noteNumber": 69,
				"velocity": 64
			},
			{
				"deltaTime": 0,
				"channel": 0,
				"type": "noteOn",
				"noteNumber": 73,
				"velocity": 64
			},
			{
				"deltaTime": 120,
				"channel": 0,
				"type": "noteOff",
				"noteNumber": 73,
				"velocity": 64
			},
			{
				"deltaTime": 0,
				"channel": 0,
				"type": "noteOn",
				"noteNumber": 76,
				"velocity": 64
			},
			{
				"deltaTime": 120,
				"channel": 0,
				"type": "noteOff",
				"noteNumber": 76,
				"velocity": 64
			},
			{
				"deltaTime": 0,
				"channel": 0,
				"type": "noteOn",
				"noteNumber": 61,
				"velocity": 64
			},
			{
				"deltaTime": 120,
				"channel": 0,
				"type": "noteOff",
				"noteNumber": 61,
				"velocity": 64
			},
			{
				"deltaTime": 0,
				"channel": 0,
				"type": "noteOn",
				"noteNumber": 66,
				"velocity": 64
			},
			{
				"deltaTime": 120,
				"channel": 0,
				"type": "noteOff",
				"noteNumber": 66,
				"velocity": 64
			},
			{
				"deltaTime": 0,
				"channel": 0,
				"type": "noteOn",
				"noteNumber": 69,
				"velocity": 64
			},
			{
				"deltaTime": 120,
				"channel": 0,
				"type": "noteOff",
				"noteNumber": 69,
				"velocity": 64
			},
			{
				"deltaTime": 0,
				"channel": 0,
				"type": "noteOn",
				"noteNumber": 71,
				"velocity": 64
			},
			{
				"deltaTime": 120,
				"channel": 0,
				"type": "noteOff",
				"noteNumber": 71,
				"velocity": 64
			},
			{
				"deltaTime": 0,
				"channel": 0,
				"type": "noteOn",
				"noteNumber": 73,
				"velocity": 64
			},
			{
				"deltaTime": 120,
				"channel": 0,
				"type": "noteOff",
				"noteNumber": 73,
				"velocity": 64
			},
			{
				"deltaTime": 0,
				"channel": 0,
				"type": "noteOn",
				"noteNumber": 75,
				"velocity": 64
			},
			{
				"deltaTime": 120,
				"channel": 0,
				"type": "noteOff",
				"noteNumber": 75,
				"velocity": 64
			},
			{
				"deltaTime": 0,
				"channel": 0,
				"type": "noteOn",
				"noteNumber": 76,
				"velocity": 64
			},
			{
				"deltaTime": 120,
				"channel": 0,
				"type": "noteOff",
				"noteNumber": 76,
				"velocity": 64
			},
			{
				"deltaTime": 0,
				"channel": 0,
				"type": "noteOn",
				"noteNumber": 73,
				"velocity": 64
			},
			{
				"deltaTime": 120,
				"channel": 0,
				"type": "noteOff",
				"noteNumber": 73,
				"velocity": 64
			},
			{
				"deltaTime": 0,
				"channel": 0,
				"type": "noteOn",
				"noteNumber": 69,
				"velocity": 64
			},
			{
				"deltaTime": 120,
				"channel": 0,
				"type": "noteOff",
				"noteNumber": 69,
				"velocity": 64
			},
			{
				"deltaTime": 0,
				"channel": 0,
				"type": "noteOn",
				"noteNumber": 78,
				"velocity": 64
			},
			{
				"deltaTime": 360,
				"channel": 0,
				"type": "noteOff",
				"noteNumber": 78,
				"velocity": 64
			},
			{
				"deltaTime": 60,
				"channel": 0,
				"type": "noteOn",
				"noteNumber": 76,
				"velocity": 64
			},
			{
				"deltaTime": 60,
				"channel": 0,
				"type": "noteOff",
				"noteNumber": 76,
				"velocity": 64
			},
			{
				"deltaTime": 0,
				"channel": 0,
				"type": "noteOn",
				"noteNumber": 75,
				"velocity": 64
			},
			{
				"deltaTime": 60,
				"channel": 0,
				"type": "noteOff",
				"noteNumber": 75,
				"velocity": 64
			},
			{
				"deltaTime": 0,
				"channel": 0,
				"type": "noteOn",
				"noteNumber": 73,
				"velocity": 64
			},
			{
				"deltaTime": 60,
				"channel": 0,
				"type": "noteOff",
				"noteNumber": 73,
				"velocity": 64
			},
			{
				"deltaTime": 0,
				"channel": 0,
				"type": "noteOn",
				"noteNumber": 71,
				"velocity": 64
			},
			{
				"deltaTime": 60,
				"channel": 0,
				"type": "noteOff",
				"noteNumber": 71,
				"velocity": 64
			},
			{
				"deltaTime": 0,
				"channel": 0,
				"type": "noteOn",
				"noteNumber": 69,
				"velocity": 64
			},
			{
				"deltaTime": 60,
				"channel": 0,
				"type": "noteOff",
				"noteNumber": 69,
				"velocity": 64
			},
			{
				"deltaTime": 0,
				"channel": 0,
				"type": "noteOn",
				"noteNumber": 68,
				"velocity": 64
			},
			{
				"deltaTime": 60,
				"channel": 0,
				"type": "noteOff",
				"noteNumber": 68,
				"velocity": 64
			},
			{
				"deltaTime": 0,
				"channel": 0,
				"type": "noteOn",
				"noteNumber": 64,
				"velocity": 64
			},
			{
				"deltaTime": 30,
				"channel": 0,
				"type": "noteOff",
				"noteNumber": 64,
				"velocity": 64
			},
			{
				"deltaTime": 0,
				"channel": 0,
				"type": "noteOn",
				"noteNumber": 63,
				"velocity": 64
			},
			{
				"deltaTime": 30,
				"channel": 0,
				"type": "noteOff",
				"noteNumber": 63,
				"velocity": 64
			},
			{
				"deltaTime": 0,
				"channel": 0,
				"type": "noteOn",
				"noteNumber": 64,
				"velocity": 64
			},
			{
				"deltaTime": 60,
				"channel": 0,
				"type": "noteOff",
				"noteNumber": 64,
				"velocity": 64
			},
			{
				"deltaTime": 0,
				"channel": 0,
				"type": "noteOn",
				"noteNumber": 68,
				"velocity": 64
			},
			{
				"deltaTime": 30,
				"channel": 0,
				"type": "noteOff",
				"noteNumber": 68,
				"velocity": 64
			},
			{
				"deltaTime": 0,
				"channel": 0,
				"type": "noteOn",
				"noteNumber": 66,
				"velocity": 64
			},
			{
				"deltaTime": 30,
				"channel": 0,
				"type": "noteOff",
				"noteNumber": 66,
				"velocity": 64
			},
			{
				"deltaTime": 0,
				"channel": 0,
				"type": "noteOn",
				"noteNumber": 68,
				"velocity": 64
			},
			{
				"deltaTime": 60,
				"channel": 0,
				"type": "noteOff",
				"noteNumber": 68,
				"velocity": 64
			},
			{
				"deltaTime": 0,
				"channel": 0,
				"type": "noteOn",
				"noteNumber": 71,
				"velocity": 64
			},
			{
				"deltaTime": 30,
				"channel": 0,
				"type": "noteOff",
				"noteNumber": 71,
				"velocity": 64
			},
			{
				"deltaTime": 0,
				"channel": 0,
				"type": "noteOn",
				"noteNumber": 69,
				"velocity": 64
			},
			{
				"deltaTime": 30,
				"channel": 0,
				"type": "noteOff",
				"noteNumber": 69,
				"velocity": 64
			},
			{
				"deltaTime": 0,
				"channel": 0,
				"type": "noteOn",
				"noteNumber": 71,
				"velocity": 64
			},
			{
				"deltaTime": 60,
				"channel": 0,
				"type": "noteOff",
				"noteNumber": 71,
				"velocity": 64
			},
			{
				"deltaTime": 0,
				"channel": 0,
				"type": "noteOn",
				"noteNumber": 68,
				"velocity": 64
			},
			{
				"deltaTime": 30,
				"channel": 0,
				"type": "noteOff",
				"noteNumber": 68,
				"velocity": 64
			},
			{
				"deltaTime": 0,
				"channel": 0,
				"type": "noteOn",
				"noteNumber": 66,
				"velocity": 64
			},
			{
				"deltaTime": 30,
				"channel": 0,
				"type": "noteOff",
				"noteNumber": 66,
				"velocity": 64
			},
			{
				"deltaTime": 0,
				"channel": 0,
				"type": "noteOn",
				"noteNumber": 68,
				"velocity": 64
			},
			{
				"deltaTime": 60,
				"channel": 0,
				"type": "noteOff",
				"noteNumber": 68,
				"velocity": 64
			},
			{
				"deltaTime": 0,
				"channel": 0,
				"type": "noteOn",
				"noteNumber": 71,
				"velocity": 64
			},
			{
				"deltaTime": 30,
				"channel": 0,
				"type": "noteOff",
				"noteNumber": 71,
				"velocity": 64
			},
			{
				"deltaTime": 0,
				"channel": 0,
				"type": "noteOn",
				"noteNumber": 69,
				"velocity": 64
			},
			{
				"deltaTime": 30,
				"channel": 0,
				"type": "noteOff",
				"noteNumber": 69,
				"velocity": 64
			},
			{
				"deltaTime": 0,
				"channel": 0,
				"type": "noteOn",
				"noteNumber": 71,
				"velocity": 64
			},
			{
				"deltaTime": 60,
				"channel": 0,
				"type": "noteOff",
				"noteNumber": 71,
				"velocity": 64
			},
			{
				"deltaTime": 0,
				"channel": 0,
				"type": "noteOn",
				"noteNumber": 76,
				"velocity": 64
			},
			{
				"deltaTime": 30,
				"channel": 0,
				"type": "noteOff",
				"noteNumber": 76,
				"velocity": 64
			},
			{
				"deltaTime": 0,
				"channel": 0,
				"type": "noteOn",
				"noteNumber": 75,
				"velocity": 64
			},
			{
				"deltaTime": 30,
				"channel": 0,
				"type": "noteOff",
				"noteNumber": 75,
				"velocity": 64
			},
			{
				"deltaTime": 0,
				"channel": 0,
				"type": "noteOn",
				"noteNumber": 76,
				"velocity": 64
			},
			{
				"deltaTime": 60,
				"channel": 0,
				"type": "noteOff",
				"noteNumber": 76,
				"velocity": 64
			},
			{
				"deltaTime": 0,
				"channel": 0,
				"type": "noteOn",
				"noteNumber": 71,
				"velocity": 64
			},
			{
				"deltaTime": 60,
				"channel": 0,
				"type": "noteOff",
				"noteNumber": 71,
				"velocity": 64
			},
			{
				"deltaTime": 0,
				"channel": 0,
				"type": "noteOn",
				"noteNumber": 68,
				"velocity": 64
			},
			{
				"deltaTime": 60,
				"channel": 0,
				"type": "noteOff",
				"noteNumber": 68,
				"velocity": 64
			},
			{
				"deltaTime": 0,
				"channel": 0,
				"type": "noteOn",
				"noteNumber": 64,
				"velocity": 64
			},
			{
				"deltaTime": 60,
				"channel": 0,
				"type": "noteOff",
				"noteNumber": 64,
				"velocity": 64
			},
			{
				"deltaTime": 0,
				"meta": true,
				"type": "endOfTrack"
			}
		],
		[
			{
				"deltaTime": 0,
				"meta": true,
				"type": "text",
				"text": "LH"
			},
			{
				"deltaTime": 0,
				"channel": 1,
				"type": "noteOn",
				"noteNumber": 52,
				"velocity": 64
			},
			{
				"deltaTime": 120,
				"channel": 1,
				"type": "noteOff",
				"noteNumber": 52,
				"velocity": 64
			},
			{
				"deltaTime": 0,
				"channel": 1,
				"type": "noteOn",
				"noteNumber": 54,
				"velocity": 64
			},
			{
				"deltaTime": 120,
				"channel": 1,
				"type": "noteOff",
				"noteNumber": 54,
				"velocity": 64
			},
			{
				"deltaTime": 0,
				"channel": 1,
				"type": "noteOn",
				"noteNumber": 56,
				"velocity": 64
			},
			{
				"deltaTime": 120,
				"channel": 1,
				"type": "noteOff",
				"noteNumber": 56,
				"velocity": 64
			},
			{
				"deltaTime": 0,
				"channel": 1,
				"type": "noteOn",
				"noteNumber": 57,
				"velocity": 64
			},
			{
				"deltaTime": 120,
				"channel": 1,
				"type": "noteOff",
				"noteNumber": 57,
				"velocity": 64
			},
			{
				"deltaTime": 0,
				"channel": 1,
				"type": "noteOn",
				"noteNumber": 59,
				"velocity": 64
			},
			{
				"deltaTime": 120,
				"channel": 1,
				"type": "noteOff",
				"noteNumber": 59,
				"velocity": 64
			},
			{
				"deltaTime": 0,
				"channel": 1,
				"type": "noteOn",
				"noteNumber": 61,
				"velocity": 64
			},
			{
				"deltaTime": 120,
				"channel": 1,
				"type": "noteOff",
				"noteNumber": 61,
				"velocity": 64
			},
			{
				"deltaTime": 0,
				"channel": 1,
				"type": "noteOn",
				"noteNumber": 63,
				"velocity": 64
			},
			{
				"deltaTime": 120,
				"channel": 1,
				"type": "noteOff",
				"noteNumber": 63,
				"velocity": 64
			},
			{
				"deltaTime": 0,
				"channel": 1,
				"type": "noteOn",
				"noteNumber": 64,
				"velocity": 64
			},
			{
				"deltaTime": 60,
				"channel": 1,
				"type": "noteOff",
				"noteNumber": 64,
				"velocity": 64
			},
			{
				"deltaTime": 0,
				"channel": 1,
				"type": "noteOn",
				"noteNumber": 63,
				"velocity": 64
			},
			{
				"deltaTime": 60,
				"channel": 1,
				"type": "noteOff",
				"noteNumber": 63,
				"velocity": 64
			},
			{
				"deltaTime": 0,
				"channel": 1,
				"type": "noteOn",
				"noteNumber": 61,
				"velocity": 64
			},
			{
				"deltaTime": 60,
				"channel": 1,
				"type": "noteOff",
				"noteNumber": 61,
				"velocity": 64
			},
			{
				"deltaTime": 0,
				"channel": 1,
				"type": "noteOn",
				"noteNumber": 59,
				"velocity": 64
			},
			{
				"deltaTime": 60,
				"channel": 1,
				"type": "noteOff",
				"noteNumber": 59,
				"velocity": 64
			},
			{
				"deltaTime": 0,
				"channel": 1,
				"type": "noteOn",
				"noteNumber": 64,
				"velocity": 64
			},
			{
				"deltaTime": 120,
				"channel": 1,
				"type": "noteOff",
				"noteNumber": 64,
				"velocity": 64
			},
			{
				"deltaTime": 0,
				"channel": 1,
				"type": "noteOn",
				"noteNumber": 52,
				"velocity": 64
			},
			{
				"deltaTime": 120,
				"channel": 1,
				"type": "noteOff",
				"noteNumber": 52,
				"velocity": 64
			},
			{
				"deltaTime": 180,
				"channel": 1,
				"type": "noteOn",
				"noteNumber": 52,
				"velocity": 64
			},
			{
				"deltaTime": 120,
				"channel": 1,
				"type": "noteOff",
				"noteNumber": 52,
				"velocity": 64
			},
			{
				"deltaTime": 0,
				"channel": 1,
				"type": "noteOn",
				"noteNumber": 51,
				"velocity": 64
			},
			{
				"deltaTime": 120,
				"channel": 1,
				"type": "noteOff",
				"noteNumber": 51,
				"velocity": 64
			},
			{
				"deltaTime": 0,
				"channel": 1,
				"type": "noteOn",
				"noteNumber": 50,
				"velocity": 64
			},
			{
				"deltaTime": 120,
				"channel": 1,
				"type": "noteOff",
				"noteNumber": 50,
				"velocity": 64
			},
			{
				"deltaTime": 0,
				"channel": 1,
				"type": "noteOn",
				"noteNumber": 49,
				"velocity": 64
			},
			{
				"deltaTime": 120,
				"channel": 1,
				"type": "noteOff",
				"noteNumber": 49,
				"velocity": 64
			},
			{
				"deltaTime": 0,
				"channel": 1,
				"type": "noteOn",
				"noteNumber": 47,
				"velocity": 64
			},
			{
				"deltaTime": 120,
				"channel": 1,
				"type": "noteOff",
				"noteNumber": 47,
				"velocity": 64
			},
			{
				"deltaTime": 0,
				"channel": 1,
				"type": "noteOn",
				"noteNumber": 45,
				"velocity": 64
			},
			{
				"deltaTime": 120,
				"channel": 1,
				"type": "noteOff",
				"noteNumber": 45,
				"velocity": 64
			},
			{
				"deltaTime": 0,
				"channel": 1,
				"type": "noteOn",
				"noteNumber": 44,
				"velocity": 64
			},
			{
				"deltaTime": 120,
				"channel": 1,
				"type": "noteOff",
				"noteNumber": 44,
				"velocity": 64
			},
			{
				"deltaTime": 0,
				"channel": 1,
				"type": "noteOn",
				"noteNumber": 42,
				"velocity": 64
			},
			{
				"deltaTime": 120,
				"channel": 1,
				"type": "noteOff",
				"noteNumber": 42,
				"velocity": 64
			},
			{
				"deltaTime": 0,
				"channel": 1,
				"type": "noteOn",
				"noteNumber": 44,
				"velocity": 64
			},
			{
				"deltaTime": 30,
				"channel": 1,
				"type": "noteOff",
				"noteNumber": 44,
				"velocity": 64
			},
			{
				"deltaTime": 0,
				"channel": 1,
				"type": "noteOn",
				"noteNumber": 45,
				"velocity": 64
			},
			{
				"deltaTime": 30,
				"channel": 1,
				"type": "noteOff",
				"noteNumber": 45,
				"velocity": 64
			},
			{
				"deltaTime": 0,
				"channel": 1,
				"type": "noteOn",
				"noteNumber": 44,
				"velocity": 64
			},
			{
				"deltaTime": 60,
				"channel": 1,
				"type": "noteOff",
				"noteNumber": 44,
				"velocity": 64
			},
			{
				"deltaTime": 0,
				"channel": 1,
				"type": "noteOn",
				"noteNumber": 47,
				"velocity": 64
			},
			{
				"deltaTime": 30,
				"channel": 1,
				"type": "noteOff",
				"noteNumber": 47,
				"velocity": 64
			},
			{
				"deltaTime": 0,
				"channel": 1,
				"type": "noteOn",
				"noteNumber": 45,
				"velocity": 64
			},
			{
				"deltaTime": 30,
				"channel": 1,
				"type": "noteOff",
				"noteNumber": 45,
				"velocity": 64
			},
			{
				"deltaTime": 0,
				"channel": 1,
				"type": "noteOn",
				"noteNumber": 47,
				"velocity": 64
			},
			{
				"deltaTime": 60,
				"channel": 1,
				"type": "noteOff",
				"noteNumber": 47,
				"velocity": 64
			},
			{
				"deltaTime": 0,
				"channel": 1,
				"type": "noteOn",
				"noteNumber": 44,
				"velocity": 64
			},
			{
				"deltaTime": 30,
				"channel": 1,
				"type": "noteOff",
				"noteNumber": 44,
				"velocity": 64
			},
			{
				"deltaTime": 0,
				"channel": 1,
				"type": "noteOn",
				"noteNumber": 42,
				"velocity": 64
			},
			{
				"deltaTime": 30,
				"channel": 1,
				"type": "noteOff",
				"noteNumber": 42,
				"velocity": 64
			},
			{
				"deltaTime": 0,
				"channel": 1,
				"type": "noteOn",
				"noteNumber": 44,
				"velocity": 64
			},
			{
				"deltaTime": 60,
				"channel": 1,
				"type": "noteOff",
				"noteNumber": 44,
				"velocity": 64
			},
			{
				"deltaTime": 0,
				"channel": 1,
				"type": "noteOn",
				"noteNumber": 40,
				"velocity": 64
			},
			{
				"deltaTime": 30,
				"channel": 1,
				"type": "noteOff",
				"noteNumber": 40,
				"velocity": 64
			},
			{
				"deltaTime": 0,
				"channel": 1,
				"type": "noteOn",
				"noteNumber": 39,
				"velocity": 64
			},
			{
				"deltaTime": 30,
				"channel": 1,
				"type": "noteOff",
				"noteNumber": 39,
				"velocity": 64
			},
			{
				"deltaTime": 0,
				"channel": 1,
				"type": "noteOn",
				"noteNumber": 40,
				"velocity": 64
			},
			{
				"deltaTime": 120,
				"channel": 1,
				"type": "noteOff",
				"noteNumber": 40,
				"velocity": 64
			},
			{
				"deltaTime": 0,
				"channel": 1,
				"type": "noteOn",
				"noteNumber": 49,
				"velocity": 64
			},
			{
				"deltaTime": 120,
				"channel": 1,
				"type": "noteOff",
				"noteNumber": 49,
				"velocity": 64
			},
			{
				"deltaTime": 0,
				"channel": 1,
				"type": "noteOn",
				"noteNumber": 52,
				"velocity": 64
			},
			{
				"deltaTime": 120,
				"channel": 1,
				"type": "noteOff",
				"noteNumber": 52,
				"velocity": 64
			},
			{
				"deltaTime": 0,
				"channel": 1,
				"type": "noteOn",
				"noteNumber": 54,
				"velocity": 64
			},
			{
				"deltaTime": 120,
				"channel": 1,
				"type": "noteOff",
				"noteNumber": 54,
				"velocity": 64
			},
			{
				"deltaTime": 0,
				"channel": 1,
				"type": "noteOn",
				"noteNumber": 58,
				"velocity": 64
			},
			{
				"deltaTime": 120,
				"channel": 1,
				"type": "noteOff",
				"noteNumber": 58,
				"velocity": 64
			},
			{
				"deltaTime": 0,
				"channel": 1,
				"type": "noteOn",
				"noteNumber": 61,
				"velocity": 64
			},
			{
				"deltaTime": 120,
				"channel": 1,
				"type": "noteOff",
				"noteNumber": 61,
				"velocity": 64
			},
			{
				"deltaTime": 0,
				"channel": 1,
				"type": "noteOn",
				"noteNumber": 39,
				"velocity": 64
			},
			{
				"deltaTime": 120,
				"channel": 1,
				"type": "noteOff",
				"noteNumber": 39,
				"velocity": 64
			},
			{
				"deltaTime": 0,
				"channel": 1,
				"type": "noteOn",
				"noteNumber": 47,
				"velocity": 64
			},
			{
				"deltaTime": 120,
				"channel": 1,
				"type": "noteOff",
				"noteNumber": 47,
				"velocity": 64
			},
			{
				"deltaTime": 0,
				"channel": 1,
				"type": "noteOn",
				"noteNumber": 51,
				"velocity": 64
			},
			{
				"deltaTime": 120,
				"channel": 1,
				"type": "noteOff",
				"noteNumber": 51,
				"velocity": 64
			},
			{
				"deltaTime": 0,
				"channel": 1,
				"type": "noteOn",
				"noteNumber": 52,
				"velocity": 64
			},
			{
				"deltaTime": 120,
				"channel": 1,
				"type": "noteOff",
				"noteNumber": 52,
				"velocity": 64
			},
			{
				"deltaTime": 0,
				"channel": 1,
				"type": "noteOn",
				"noteNumber": 56,
				"velocity": 64
			},
			{
				"deltaTime": 120,
				"channel": 1,
				"type": "noteOff",
				"noteNumber": 56,
				"velocity": 64
			},
			{
				"deltaTime": 0,
				"channel": 1,
				"type": "noteOn",
				"noteNumber": 59,
				"velocity": 64
			},
			{
				"deltaTime": 120,
				"channel": 1,
				"type": "noteOff",
				"noteNumber": 59,
				"velocity": 64
			},
			{
				"deltaTime": 0,
				"channel": 1,
				"type": "noteOn",
				"noteNumber": 37,
				"velocity": 64
			},
			{
				"deltaTime": 120,
				"channel": 1,
				"type": "noteOff",
				"noteNumber": 37,
				"velocity": 64
			},
			{
				"deltaTime": 0,
				"channel": 1,
				"type": "noteOn",
				"noteNumber": 49,
				"velocity": 64
			},
			{
				"deltaTime": 120,
				"channel": 1,
				"type": "noteOff",
				"noteNumber": 49,
				"velocity": 64
			},
			{
				"deltaTime": 0,
				"channel": 1,
				"type": "noteOn",
				"noteNumber": 52,
				"velocity": 64
			},
			{
				"deltaTime": 120,
				"channel": 1,
				"type": "noteOff",
				"noteNumber": 52,
				"velocity": 64
			},
			{
				"deltaTime": 0,
				"channel": 1,
				"type": "noteOn",
				"noteNumber": 54,
				"velocity": 64
			},
			{
				"deltaTime": 120,
				"channel": 1,
				"type": "noteOff",
				"noteNumber": 54,
				"velocity": 64
			},
			{
				"deltaTime": 0,
				"channel": 1,
				"type": "noteOn",
				"noteNumber": 56,
				"velocity": 64
			},
			{
				"deltaTime": 120,
				"channel": 1,
				"type": "noteOff",
				"noteNumber": 56,
				"velocity": 64
			},
			{
				"deltaTime": 0,
				"channel": 1,
				"type": "noteOn",
				"noteNumber": 58,
				"velocity": 64
			},
			{
				"deltaTime": 120,
				"channel": 1,
				"type": "noteOff",
				"noteNumber": 58,
				"velocity": 64
			},
			{
				"deltaTime": 0,
				"channel": 1,
				"type": "noteOn",
				"noteNumber": 59,
				"velocity": 64
			},
			{
				"deltaTime": 120,
				"channel": 1,
				"type": "noteOff",
				"noteNumber": 59,
				"velocity": 64
			},
			{
				"deltaTime": 0,
				"channel": 1,
				"type": "noteOn",
				"noteNumber": 52,
				"velocity": 64
			},
			{
				"deltaTime": 120,
				"channel": 1,
				"type": "noteOff",
				"noteNumber": 52,
				"velocity": 64
			},
			{
				"deltaTime": 0,
				"channel": 1,
				"type": "noteOn",
				"noteNumber": 56,
				"velocity": 64
			},
			{
				"deltaTime": 120,
				"channel": 1,
				"type": "noteOff",
				"noteNumber": 56,
				"velocity": 64
			},
			{
				"deltaTime": 0,
				"channel": 1,
				"type": "noteOn",
				"noteNumber": 54,
				"velocity": 64
			},
			{
				"deltaTime": 60,
				"channel": 1,
				"type": "noteOff",
				"noteNumber": 54,
				"velocity": 64
			},
			{
				"deltaTime": 0,
				"channel": 1,
				"type": "noteOn",
				"noteNumber": 61,
				"velocity": 64
			},
			{
				"deltaTime": 60,
				"channel": 1,
				"type": "noteOff",
				"noteNumber": 61,
				"velocity": 64
			},
			{
				"deltaTime": 0,
				"channel": 1,
				"type": "noteOn",
				"noteNumber": 58,
				"velocity": 64
			},
			{
				"deltaTime": 60,
				"channel": 1,
				"type": "noteOff",
				"noteNumber": 58,
				"velocity": 64
			},
			{
				"deltaTime": 0,
				"channel": 1,
				"type": "noteOn",
				"noteNumber": 61,
				"velocity": 64
			},
			{
				"deltaTime": 60,
				"channel": 1,
				"type": "noteOff",
				"noteNumber": 61,
				"velocity": 64
			},
			{
				"deltaTime": 0,
				"channel": 1,
				"type": "noteOn",
				"noteNumber": 52,
				"velocity": 64
			},
			{
				"deltaTime": 60,
				"channel": 1,
				"type": "noteOff",
				"noteNumber": 52,
				"velocity": 64
			},
			{
				"deltaTime": 0,
				"channel": 1,
				"type": "noteOn",
				"noteNumber": 61,
				"velocity": 64
			},
			{
				"deltaTime": 60,
				"channel": 1,
				"type": "noteOff",
				"noteNumber": 61,
				"velocity": 64
			},
			{
				"deltaTime": 0,
				"channel": 1,
				"type": "noteOn",
				"noteNumber": 51,
				"velocity": 64
			},
			{
				"deltaTime": 120,
				"channel": 1,
				"type": "noteOff",
				"noteNumber": 51,
				"velocity": 64
			},
			{
				"deltaTime": 0,
				"channel": 1,
				"type": "noteOn",
				"noteNumber": 52,
				"velocity": 64
			},
			{
				"deltaTime": 120,
				"channel": 1,
				"type": "noteOff",
				"noteNumber": 52,
				"velocity": 64
			},
			{
				"deltaTime": 0,
				"channel": 1,
				"type": "noteOn",
				"noteNumber": 54,
				"velocity": 64
			},
			{
				"deltaTime": 120,
				"channel": 1,
				"type": "noteOff",
				"noteNumber": 54,
				"velocity": 64
			},
			{
				"deltaTime": 0,
				"channel": 1,
				"type": "noteOn",
				"noteNumber": 47,
				"velocity": 64
			},
			{
				"deltaTime": 60,
				"channel": 1,
				"type": "noteOff",
				"noteNumber": 47,
				"velocity": 64
			},
			{
				"deltaTime": 0,
				"channel": 1,
				"type": "noteOn",
				"noteNumber": 59,
				"velocity": 64
			},
			{
				"deltaTime": 30,
				"channel": 1,
				"type": "noteOff",
				"noteNumber": 59,
				"velocity": 64
			},
			{
				"deltaTime": 0,
				"channel": 1,
				"type": "noteOn",
				"noteNumber": 58,
				"velocity": 64
			},
			{
				"deltaTime": 30,
				"channel": 1,
				"type": "noteOff",
				"noteNumber": 58,
				"velocity": 64
			},
			{
				"deltaTime": 0,
				"channel": 1,
				"type": "noteOn",
				"noteNumber": 59,
				"velocity": 64
			},
			{
				"deltaTime": 60,
				"channel": 1,
				"type": "noteOff",
				"noteNumber": 59,
				"velocity": 64
			},
			{
				"deltaTime": 0,
				"channel": 1,
				"type": "noteOn",
				"noteNumber": 54,
				"velocity": 64
			},
			{
				"deltaTime": 30,
				"channel": 1,
				"type": "noteOff",
				"noteNumber": 54,
				"velocity": 64
			},
			{
				"deltaTime": 0,
				"channel": 1,
				"type": "noteOn",
				"noteNumber": 52,
				"velocity": 64
			},
			{
				"deltaTime": 30,
				"channel": 1,
				"type": "noteOff",
				"noteNumber": 52,
				"velocity": 64
			},
			{
				"deltaTime": 0,
				"channel": 1,
				"type": "noteOn",
				"noteNumber": 54,
				"velocity": 64
			},
			{
				"deltaTime": 60,
				"channel": 1,
				"type": "noteOff",
				"noteNumber": 54,
				"velocity": 64
			},
			{
				"deltaTime": 0,
				"channel": 1,
				"type": "noteOn",
				"noteNumber": 51,
				"velocity": 64
			},
			{
				"deltaTime": 30,
				"channel": 1,
				"type": "noteOff",
				"noteNumber": 51,
				"velocity": 64
			},
			{
				"deltaTime": 0,
				"channel": 1,
				"type": "noteOn",
				"noteNumber": 49,
				"velocity": 64
			},
			{
				"deltaTime": 30,
				"channel": 1,
				"type": "noteOff",
				"noteNumber": 49,
				"velocity": 64
			},
			{
				"deltaTime": 0,
				"channel": 1,
				"type": "noteOn",
				"noteNumber": 51,
				"velocity": 64
			},
			{
				"deltaTime": 60,
				"channel": 1,
				"type": "noteOff",
				"noteNumber": 51,
				"velocity": 64
			},
			{
				"deltaTime": 0,
				"channel": 1,
				"type": "noteOn",
				"noteNumber": 54,
				"velocity": 64
			},
			{
				"deltaTime": 30,
				"channel": 1,
				"type": "noteOff",
				"noteNumber": 54,
				"velocity": 64
			},
			{
				"deltaTime": 0,
				"channel": 1,
				"type": "noteOn",
				"noteNumber": 52,
				"velocity": 64
			},
			{
				"deltaTime": 30,
				"channel": 1,
				"type": "noteOff",
				"noteNumber": 52,
				"velocity": 64
			},
			{
				"deltaTime": 0,
				"channel": 1,
				"type": "noteOn",
				"noteNumber": 54,
				"velocity": 64
			},
			{
				"deltaTime": 60,
				"channel": 1,
				"type": "noteOff",
				"noteNumber": 54,
				"velocity": 64
			},
			{
				"deltaTime": 0,
				"channel": 1,
				"type": "noteOn",
				"noteNumber": 51,
				"velocity": 64
			},
			{
				"deltaTime": 30,
				"channel": 1,
				"type": "noteOff",
				"noteNumber": 51,
				"velocity": 64
			},
			{
				"deltaTime": 0,
				"channel": 1,
				"type": "noteOn",
				"noteNumber": 49,
				"velocity": 64
			},
			{
				"deltaTime": 30,
				"channel": 1,
				"type": "noteOff",
				"noteNumber": 49,
				"velocity": 64
			},
			{
				"deltaTime": 0,
				"channel": 1,
				"type": "noteOn",
				"noteNumber": 51,
				"velocity": 64
			},
			{
				"deltaTime": 60,
				"channel": 1,
				"type": "noteOff",
				"noteNumber": 51,
				"velocity": 64
			},
			{
				"deltaTime": 0,
				"channel": 1,
				"type": "noteOn",
				"noteNumber": 47,
				"velocity": 64
			},
			{
				"deltaTime": 30,
				"channel": 1,
				"type": "noteOff",
				"noteNumber": 47,
				"velocity": 64
			},
			{
				"deltaTime": 0,
				"channel": 1,
				"type": "noteOn",
				"noteNumber": 46,
				"velocity": 64
			},
			{
				"deltaTime": 30,
				"channel": 1,
				"type": "noteOff",
				"noteNumber": 46,
				"velocity": 64
			},
			{
				"deltaTime": 0,
				"channel": 1,
				"type": "noteOn",
				"noteNumber": 47,
				"velocity": 64
			},
			{
				"deltaTime": 240,
				"channel": 1,
				"type": "noteOff",
				"noteNumber": 47,
				"velocity": 64
			},
			{
				"deltaTime": 0,
				"channel": 1,
				"type": "noteOn",
				"noteNumber": 35,
				"velocity": 64
			},
			{
				"deltaTime": 120,
				"channel": 1,
				"type": "noteOff",
				"noteNumber": 35,
				"velocity": 64
			},
			{
				"deltaTime": 0,
				"channel": 1,
				"type": "noteOn",
				"noteNumber": 52,
				"velocity": 64
			},
			{
				"deltaTime": 120,
				"channel": 1,
				"type": "noteOff",
				"noteNumber": 52,
				"velocity": 64
			},
			{
				"deltaTime": 0,
				"channel": 1,
				"type": "noteOn",
				"noteNumber": 54,
				"velocity": 64
			},
			{
				"deltaTime": 120,
				"channel": 1,
				"type": "noteOff",
				"noteNumber": 54,
				"velocity": 64
			},
			{
				"deltaTime": 0,
				"channel": 1,
				"type": "noteOn",
				"noteNumber": 56,
				"velocity": 64
			},
			{
				"deltaTime": 120,
				"channel": 1,
				"type": "noteOff",
				"noteNumber": 56,
				"velocity": 64
			},
			{
				"deltaTime": 0,
				"channel": 1,
				"type": "noteOn",
				"noteNumber": 57,
				"velocity": 64
			},
			{
				"deltaTime": 120,
				"channel": 1,
				"type": "noteOff",
				"noteNumber": 57,
				"velocity": 64
			},
			{
				"deltaTime": 0,
				"channel": 1,
				"type": "noteOn",
				"noteNumber": 59,
				"velocity": 64
			},
			{
				"deltaTime": 120,
				"channel": 1,
				"type": "noteOff",
				"noteNumber": 59,
				"velocity": 64
			},
			{
				"deltaTime": 0,
				"channel": 1,
				"type": "noteOn",
				"noteNumber": 61,
				"velocity": 64
			},
			{
				"deltaTime": 120,
				"channel": 1,
				"type": "noteOff",
				"noteNumber": 61,
				"velocity": 64
			},
			{
				"deltaTime": 0,
				"channel": 1,
				"type": "noteOn",
				"noteNumber": 63,
				"velocity": 64
			},
			{
				"deltaTime": 120,
				"channel": 1,
				"type": "noteOff",
				"noteNumber": 63,
				"velocity": 64
			},
			{
				"deltaTime": 0,
				"channel": 1,
				"type": "noteOn",
				"noteNumber": 64,
				"velocity": 64
			},
			{
				"deltaTime": 60,
				"channel": 1,
				"type": "noteOff",
				"noteNumber": 64,
				"velocity": 64
			},
			{
				"deltaTime": 0,
				"channel": 1,
				"type": "noteOn",
				"noteNumber": 63,
				"velocity": 64
			},
			{
				"deltaTime": 60,
				"channel": 1,
				"type": "noteOff",
				"noteNumber": 63,
				"velocity": 64
			},
			{
				"deltaTime": 0,
				"channel": 1,
				"type": "noteOn",
				"noteNumber": 61,
				"velocity": 64
			},
			{
				"deltaTime": 60,
				"channel": 1,
				"type": "noteOff",
				"noteNumber": 61,
				"velocity": 64
			},
			{
				"deltaTime": 0,
				"channel": 1,
				"type": "noteOn",
				"noteNumber": 59,
				"velocity": 64
			},
			{
				"deltaTime": 60,
				"channel": 1,
				"type": "noteOff",
				"noteNumber": 59,
				"velocity": 64
			},
			{
				"deltaTime": 0,
				"channel": 1,
				"type": "noteOn",
				"noteNumber": 64,
				"velocity": 64
			},
			{
				"deltaTime": 120,
				"channel": 1,
				"type": "noteOff",
				"noteNumber": 64,
				"velocity": 64
			},
			{
				"deltaTime": 0,
				"channel": 1,
				"type": "noteOn",
				"noteNumber": 52,
				"velocity": 64
			},
			{
				"deltaTime": 120,
				"channel": 1,
				"type": "noteOff",
				"noteNumber": 52,
				"velocity": 64
			},
			{
				"deltaTime": 180,
				"channel": 1,
				"type": "noteOn",
				"noteNumber": 52,
				"velocity": 64
			},
			{
				"deltaTime": 120,
				"channel": 1,
				"type": "noteOff",
				"noteNumber": 52,
				"velocity": 64
			},
			{
				"deltaTime": 0,
				"channel": 1,
				"type": "noteOn",
				"noteNumber": 51,
				"velocity": 64
			},
			{
				"deltaTime": 120,
				"channel": 1,
				"type": "noteOff",
				"noteNumber": 51,
				"velocity": 64
			},
			{
				"deltaTime": 0,
				"channel": 1,
				"type": "noteOn",
				"noteNumber": 50,
				"velocity": 64
			},
			{
				"deltaTime": 120,
				"channel": 1,
				"type": "noteOff",
				"noteNumber": 50,
				"velocity": 64
			},
			{
				"deltaTime": 0,
				"channel": 1,
				"type": "noteOn",
				"noteNumber": 49,
				"velocity": 64
			},
			{
				"deltaTime": 120,
				"channel": 1,
				"type": "noteOff",
				"noteNumber": 49,
				"velocity": 64
			},
			{
				"deltaTime": 0,
				"channel": 1,
				"type": "noteOn",
				"noteNumber": 47,
				"velocity": 64
			},
			{
				"deltaTime": 120,
				"channel": 1,
				"type": "noteOff",
				"noteNumber": 47,
				"velocity": 64
			},
			{
				"deltaTime": 0,
				"channel": 1,
				"type": "noteOn",
				"noteNumber": 45,
				"velocity": 64
			},
			{
				"deltaTime": 120,
				"channel": 1,
				"type": "noteOff",
				"noteNumber": 45,
				"velocity": 64
			},
			{
				"deltaTime": 0,
				"channel": 1,
				"type": "noteOn",
				"noteNumber": 44,
				"velocity": 64
			},
			{
				"deltaTime": 120,
				"channel": 1,
				"type": "noteOff",
				"noteNumber": 44,
				"velocity": 64
			},
			{
				"deltaTime": 0,
				"channel": 1,
				"type": "noteOn",
				"noteNumber": 42,
				"velocity": 64
			},
			{
				"deltaTime": 120,
				"channel": 1,
				"type": "noteOff",
				"noteNumber": 42,
				"velocity": 64
			},
			{
				"deltaTime": 0,
				"channel": 1,
				"type": "noteOn",
				"noteNumber": 44,
				"velocity": 64
			},
			{
				"deltaTime": 30,
				"channel": 1,
				"type": "noteOff",
				"noteNumber": 44,
				"velocity": 64
			},
			{
				"deltaTime": 0,
				"channel": 1,
				"type": "noteOn",
				"noteNumber": 45,
				"velocity": 64
			},
			{
				"deltaTime": 30,
				"channel": 1,
				"type": "noteOff",
				"noteNumber": 45,
				"velocity": 64
			},
			{
				"deltaTime": 0,
				"channel": 1,
				"type": "noteOn",
				"noteNumber": 44,
				"velocity": 64
			},
			{
				"deltaTime": 60,
				"channel": 1,
				"type": "noteOff",
				"noteNumber": 44,
				"velocity": 64
			},
			{
				"deltaTime": 0,
				"channel": 1,
				"type": "noteOn",
				"noteNumber": 47,
				"velocity": 64
			},
			{
				"deltaTime": 30,
				"channel": 1,
				"type": "noteOff",
				"noteNumber": 47,
				"velocity": 64
			},
			{
				"deltaTime": 0,
				"channel": 1,
				"type": "noteOn",
				"noteNumber": 45,
				"velocity": 64
			},
			{
				"deltaTime": 30,
				"channel": 1,
				"type": "noteOff",
				"noteNumber": 45,
				"velocity": 64
			},
			{
				"deltaTime": 0,
				"channel": 1,
				"type": "noteOn",
				"noteNumber": 47,
				"velocity": 64
			},
			{
				"deltaTime": 60,
				"channel": 1,
				"type": "noteOff",
				"noteNumber": 47,
				"velocity": 64
			},
			{
				"deltaTime": 0,
				"channel": 1,
				"type": "noteOn",
				"noteNumber": 44,
				"velocity": 64
			},
			{
				"deltaTime": 30,
				"channel": 1,
				"type": "noteOff",
				"noteNumber": 44,
				"velocity": 64
			},
			{
				"deltaTime": 0,
				"channel": 1,
				"type": "noteOn",
				"noteNumber": 42,
				"velocity": 64
			},
			{
				"deltaTime": 30,
				"channel": 1,
				"type": "noteOff",
				"noteNumber": 42,
				"velocity": 64
			},
			{
				"deltaTime": 0,
				"channel": 1,
				"type": "noteOn",
				"noteNumber": 44,
				"velocity": 64
			},
			{
				"deltaTime": 60,
				"channel": 1,
				"type": "noteOff",
				"noteNumber": 44,
				"velocity": 64
			},
			{
				"deltaTime": 0,
				"channel": 1,
				"type": "noteOn",
				"noteNumber": 40,
				"velocity": 64
			},
			{
				"deltaTime": 30,
				"channel": 1,
				"type": "noteOff",
				"noteNumber": 40,
				"velocity": 64
			},
			{
				"deltaTime": 0,
				"channel": 1,
				"type": "noteOn",
				"noteNumber": 39,
				"velocity": 64
			},
			{
				"deltaTime": 30,
				"channel": 1,
				"type": "noteOff",
				"noteNumber": 39,
				"velocity": 64
			},
			{
				"deltaTime": 0,
				"channel": 1,
				"type": "noteOn",
				"noteNumber": 40,
				"velocity": 64
			},
			{
				"deltaTime": 120,
				"channel": 1,
				"type": "noteOff",
				"noteNumber": 40,
				"velocity": 64
			},
			{
				"deltaTime": 0,
				"channel": 1,
				"type": "noteOn",
				"noteNumber": 49,
				"velocity": 64
			},
			{
				"deltaTime": 120,
				"channel": 1,
				"type": "noteOff",
				"noteNumber": 49,
				"velocity": 64
			},
			{
				"deltaTime": 0,
				"channel": 1,
				"type": "noteOn",
				"noteNumber": 52,
				"velocity": 64
			},
			{
				"deltaTime": 120,
				"channel": 1,
				"type": "noteOff",
				"noteNumber": 52,
				"velocity": 64
			},
			{
				"deltaTime": 0,
				"channel": 1,
				"type": "noteOn",
				"noteNumber": 54,
				"velocity": 64
			},
			{
				"deltaTime": 120,
				"channel": 1,
				"type": "noteOff",
				"noteNumber": 54,
				"velocity": 64
			},
			{
				"deltaTime": 0,
				"channel": 1,
				"type": "noteOn",
				"noteNumber": 58,
				"velocity": 64
			},
			{
				"deltaTime": 120,
				"channel": 1,
				"type": "noteOff",
				"noteNumber": 58,
				"velocity": 64
			},
			{
				"deltaTime": 0,
				"channel": 1,
				"type": "noteOn",
				"noteNumber": 61,
				"velocity": 64
			},
			{
				"deltaTime": 120,
				"channel": 1,
				"type": "noteOff",
				"noteNumber": 61,
				"velocity": 64
			},
			{
				"deltaTime": 0,
				"channel": 1,
				"type": "noteOn",
				"noteNumber": 39,
				"velocity": 64
			},
			{
				"deltaTime": 120,
				"channel": 1,
				"type": "noteOff",
				"noteNumber": 39,
				"velocity": 64
			},
			{
				"deltaTime": 0,
				"channel": 1,
				"type": "noteOn",
				"noteNumber": 47,
				"velocity": 64
			},
			{
				"deltaTime": 120,
				"channel": 1,
				"type": "noteOff",
				"noteNumber": 47,
				"velocity": 64
			},
			{
				"deltaTime": 0,
				"channel": 1,
				"type": "noteOn",
				"noteNumber": 51,
				"velocity": 64
			},
			{
				"deltaTime": 120,
				"channel": 1,
				"type": "noteOff",
				"noteNumber": 51,
				"velocity": 64
			},
			{
				"deltaTime": 0,
				"channel": 1,
				"type": "noteOn",
				"noteNumber": 52,
				"velocity": 64
			},
			{
				"deltaTime": 120,
				"channel": 1,
				"type": "noteOff",
				"noteNumber": 52,
				"velocity": 64
			},
			{
				"deltaTime": 0,
				"channel": 1,
				"type": "noteOn",
				"noteNumber": 56,
				"velocity": 64
			},
			{
				"deltaTime": 120,
				"channel": 1,
				"type": "noteOff",
				"noteNumber": 56,
				"velocity": 64
			},
			{
				"deltaTime": 0,
				"channel": 1,
				"type": "noteOn",
				"noteNumber": 59,
				"velocity": 64
			},
			{
				"deltaTime": 120,
				"channel": 1,
				"type": "noteOff",
				"noteNumber": 59,
				"velocity": 64
			},
			{
				"deltaTime": 0,
				"channel": 1,
				"type": "noteOn",
				"noteNumber": 37,
				"velocity": 64
			},
			{
				"deltaTime": 120,
				"channel": 1,
				"type": "noteOff",
				"noteNumber": 37,
				"velocity": 64
			},
			{
				"deltaTime": 0,
				"channel": 1,
				"type": "noteOn",
				"noteNumber": 49,
				"velocity": 64
			},
			{
				"deltaTime": 120,
				"channel": 1,
				"type": "noteOff",
				"noteNumber": 49,
				"velocity": 64
			},
			{
				"deltaTime": 0,
				"channel": 1,
				"type": "noteOn",
				"noteNumber": 52,
				"velocity": 64
			},
			{
				"deltaTime": 120,
				"channel": 1,
				"type": "noteOff",
				"noteNumber": 52,
				"velocity": 64
			},
			{
				"deltaTime": 0,
				"channel": 1,
				"type": "noteOn",
				"noteNumber": 54,
				"velocity": 64
			},
			{
				"deltaTime": 120,
				"channel": 1,
				"type": "noteOff",
				"noteNumber": 54,
				"velocity": 64
			},
			{
				"deltaTime": 0,
				"channel": 1,
				"type": "noteOn",
				"noteNumber": 56,
				"velocity": 64
			},
			{
				"deltaTime": 120,
				"channel": 1,
				"type": "noteOff",
				"noteNumber": 56,
				"velocity": 64
			},
			{
				"deltaTime": 0,
				"channel": 1,
				"type": "noteOn",
				"noteNumber": 58,
				"velocity": 64
			},
			{
				"deltaTime": 120,
				"channel": 1,
				"type": "noteOff",
				"noteNumber": 58,
				"velocity": 64
			},
			{
				"deltaTime": 0,
				"channel": 1,
				"type": "noteOn",
				"noteNumber": 59,
				"velocity": 64
			},
			{
				"deltaTime": 120,
				"channel": 1,
				"type": "noteOff",
				"noteNumber": 59,
				"velocity": 64
			},
			{
				"deltaTime": 0,
				"channel": 1,
				"type": "noteOn",
				"noteNumber": 52,
				"velocity": 64
			},
			{
				"deltaTime": 120,
				"channel": 1,
				"type": "noteOff",
				"noteNumber": 52,
				"velocity": 64
			},
			{
				"deltaTime": 0,
				"channel": 1,
				"type": "noteOn",
				"noteNumber": 56,
				"velocity": 64
			},
			{
				"deltaTime": 120,
				"channel": 1,
				"type": "noteOff",
				"noteNumber": 56,
				"velocity": 64
			},
			{
				"deltaTime": 0,
				"channel": 1,
				"type": "noteOn",
				"noteNumber": 54,
				"velocity": 64
			},
			{
				"deltaTime": 60,
				"channel": 1,
				"type": "noteOff",
				"noteNumber": 54,
				"velocity": 64
			},
			{
				"deltaTime": 0,
				"channel": 1,
				"type": "noteOn",
				"noteNumber": 61,
				"velocity": 64
			},
			{
				"deltaTime": 60,
				"channel": 1,
				"type": "noteOff",
				"noteNumber": 61,
				"velocity": 64
			},
			{
				"deltaTime": 0,
				"channel": 1,
				"type": "noteOn",
				"noteNumber": 58,
				"velocity": 64
			},
			{
				"deltaTime": 60,
				"channel": 1,
				"type": "noteOff",
				"noteNumber": 58,
				"velocity": 64
			},
			{
				"deltaTime": 0,
				"channel": 1,
				"type": "noteOn",
				"noteNumber": 61,
				"velocity": 64
			},
			{
				"deltaTime": 60,
				"channel": 1,
				"type": "noteOff",
				"noteNumber": 61,
				"velocity": 64
			},
			{
				"deltaTime": 0,
				"channel": 1,
				"type": "noteOn",
				"noteNumber": 52,
				"velocity": 64
			},
			{
				"deltaTime": 60,
				"channel": 1,
				"type": "noteOff",
				"noteNumber": 52,
				"velocity": 64
			},
			{
				"deltaTime": 0,
				"channel": 1,
				"type": "noteOn",
				"noteNumber": 61,
				"velocity": 64
			},
			{
				"deltaTime": 60,
				"channel": 1,
				"type": "noteOff",
				"noteNumber": 61,
				"velocity": 64
			},
			{
				"deltaTime": 0,
				"channel": 1,
				"type": "noteOn",
				"noteNumber": 51,
				"velocity": 64
			},
			{
				"deltaTime": 120,
				"channel": 1,
				"type": "noteOff",
				"noteNumber": 51,
				"velocity": 64
			},
			{
				"deltaTime": 0,
				"channel": 1,
				"type": "noteOn",
				"noteNumber": 52,
				"velocity": 64
			},
			{
				"deltaTime": 120,
				"channel": 1,
				"type": "noteOff",
				"noteNumber": 52,
				"velocity": 64
			},
			{
				"deltaTime": 0,
				"channel": 1,
				"type": "noteOn",
				"noteNumber": 54,
				"velocity": 64
			},
			{
				"deltaTime": 120,
				"channel": 1,
				"type": "noteOff",
				"noteNumber": 54,
				"velocity": 64
			},
			{
				"deltaTime": 0,
				"channel": 1,
				"type": "noteOn",
				"noteNumber": 47,
				"velocity": 64
			},
			{
				"deltaTime": 60,
				"channel": 1,
				"type": "noteOff",
				"noteNumber": 47,
				"velocity": 64
			},
			{
				"deltaTime": 0,
				"channel": 1,
				"type": "noteOn",
				"noteNumber": 59,
				"velocity": 64
			},
			{
				"deltaTime": 30,
				"channel": 1,
				"type": "noteOff",
				"noteNumber": 59,
				"velocity": 64
			},
			{
				"deltaTime": 0,
				"channel": 1,
				"type": "noteOn",
				"noteNumber": 58,
				"velocity": 64
			},
			{
				"deltaTime": 30,
				"channel": 1,
				"type": "noteOff",
				"noteNumber": 58,
				"velocity": 64
			},
			{
				"deltaTime": 0,
				"channel": 1,
				"type": "noteOn",
				"noteNumber": 59,
				"velocity": 64
			},
			{
				"deltaTime": 60,
				"channel": 1,
				"type": "noteOff",
				"noteNumber": 59,
				"velocity": 64
			},
			{
				"deltaTime": 0,
				"channel": 1,
				"type": "noteOn",
				"noteNumber": 54,
				"velocity": 64
			},
			{
				"deltaTime": 30,
				"channel": 1,
				"type": "noteOff",
				"noteNumber": 54,
				"velocity": 64
			},
			{
				"deltaTime": 0,
				"channel": 1,
				"type": "noteOn",
				"noteNumber": 52,
				"velocity": 64
			},
			{
				"deltaTime": 30,
				"channel": 1,
				"type": "noteOff",
				"noteNumber": 52,
				"velocity": 64
			},
			{
				"deltaTime": 0,
				"channel": 1,
				"type": "noteOn",
				"noteNumber": 54,
				"velocity": 64
			},
			{
				"deltaTime": 60,
				"channel": 1,
				"type": "noteOff",
				"noteNumber": 54,
				"velocity": 64
			},
			{
				"deltaTime": 0,
				"channel": 1,
				"type": "noteOn",
				"noteNumber": 51,
				"velocity": 64
			},
			{
				"deltaTime": 30,
				"channel": 1,
				"type": "noteOff",
				"noteNumber": 51,
				"velocity": 64
			},
			{
				"deltaTime": 0,
				"channel": 1,
				"type": "noteOn",
				"noteNumber": 49,
				"velocity": 64
			},
			{
				"deltaTime": 30,
				"channel": 1,
				"type": "noteOff",
				"noteNumber": 49,
				"velocity": 64
			},
			{
				"deltaTime": 0,
				"channel": 1,
				"type": "noteOn",
				"noteNumber": 51,
				"velocity": 64
			},
			{
				"deltaTime": 60,
				"channel": 1,
				"type": "noteOff",
				"noteNumber": 51,
				"velocity": 64
			},
			{
				"deltaTime": 0,
				"channel": 1,
				"type": "noteOn",
				"noteNumber": 54,
				"velocity": 64
			},
			{
				"deltaTime": 30,
				"channel": 1,
				"type": "noteOff",
				"noteNumber": 54,
				"velocity": 64
			},
			{
				"deltaTime": 0,
				"channel": 1,
				"type": "noteOn",
				"noteNumber": 52,
				"velocity": 64
			},
			{
				"deltaTime": 30,
				"channel": 1,
				"type": "noteOff",
				"noteNumber": 52,
				"velocity": 64
			},
			{
				"deltaTime": 0,
				"channel": 1,
				"type": "noteOn",
				"noteNumber": 54,
				"velocity": 64
			},
			{
				"deltaTime": 60,
				"channel": 1,
				"type": "noteOff",
				"noteNumber": 54,
				"velocity": 64
			},
			{
				"deltaTime": 0,
				"channel": 1,
				"type": "noteOn",
				"noteNumber": 51,
				"velocity": 64
			},
			{
				"deltaTime": 30,
				"channel": 1,
				"type": "noteOff",
				"noteNumber": 51,
				"velocity": 64
			},
			{
				"deltaTime": 0,
				"channel": 1,
				"type": "noteOn",
				"noteNumber": 49,
				"velocity": 64
			},
			{
				"deltaTime": 30,
				"channel": 1,
				"type": "noteOff",
				"noteNumber": 49,
				"velocity": 64
			},
			{
				"deltaTime": 0,
				"channel": 1,
				"type": "noteOn",
				"noteNumber": 51,
				"velocity": 64
			},
			{
				"deltaTime": 60,
				"channel": 1,
				"type": "noteOff",
				"noteNumber": 51,
				"velocity": 64
			},
			{
				"deltaTime": 0,
				"channel": 1,
				"type": "noteOn",
				"noteNumber": 47,
				"velocity": 64
			},
			{
				"deltaTime": 30,
				"channel": 1,
				"type": "noteOff",
				"noteNumber": 47,
				"velocity": 64
			},
			{
				"deltaTime": 0,
				"channel": 1,
				"type": "noteOn",
				"noteNumber": 46,
				"velocity": 64
			},
			{
				"deltaTime": 30,
				"channel": 1,
				"type": "noteOff",
				"noteNumber": 46,
				"velocity": 64
			},
			{
				"deltaTime": 0,
				"channel": 1,
				"type": "noteOn",
				"noteNumber": 47,
				"velocity": 64
			},
			{
				"deltaTime": 240,
				"channel": 1,
				"type": "noteOff",
				"noteNumber": 47,
				"velocity": 64
			},
			{
				"deltaTime": 0,
				"channel": 1,
				"type": "noteOn",
				"noteNumber": 35,
				"velocity": 64
			},
			{
				"deltaTime": 120,
				"channel": 1,
				"type": "noteOff",
				"noteNumber": 35,
				"velocity": 64
			},
			{
				"deltaTime": 60,
				"channel": 1,
				"type": "noteOn",
				"noteNumber": 59,
				"velocity": 64
			},
			{
				"deltaTime": 120,
				"channel": 1,
				"type": "noteOff",
				"noteNumber": 59,
				"velocity": 64
			},
			{
				"deltaTime": 0,
				"channel": 1,
				"type": "noteOn",
				"noteNumber": 58,
				"velocity": 64
			},
			{
				"deltaTime": 120,
				"channel": 1,
				"type": "noteOff",
				"noteNumber": 58,
				"velocity": 64
			},
			{
				"deltaTime": 0,
				"channel": 1,
				"type": "noteOn",
				"noteNumber": 57,
				"velocity": 64
			},
			{
				"deltaTime": 120,
				"channel": 1,
				"type": "noteOff",
				"noteNumber": 57,
				"velocity": 64
			},
			{
				"deltaTime": 0,
				"channel": 1,
				"type": "noteOn",
				"noteNumber": 56,
				"velocity": 64
			},
			{
				"deltaTime": 120,
				"channel": 1,
				"type": "noteOff",
				"noteNumber": 56,
				"velocity": 64
			},
			{
				"deltaTime": 0,
				"channel": 1,
				"type": "noteOn",
				"noteNumber": 54,
				"velocity": 64
			},
			{
				"deltaTime": 120,
				"channel": 1,
				"type": "noteOff",
				"noteNumber": 54,
				"velocity": 64
			},
			{
				"deltaTime": 0,
				"channel": 1,
				"type": "noteOn",
				"noteNumber": 52,
				"velocity": 64
			},
			{
				"deltaTime": 120,
				"channel": 1,
				"type": "noteOff",
				"noteNumber": 52,
				"velocity": 64
			},
			{
				"deltaTime": 0,
				"channel": 1,
				"type": "noteOn",
				"noteNumber": 51,
				"velocity": 64
			},
			{
				"deltaTime": 120,
				"channel": 1,
				"type": "noteOff",
				"noteNumber": 51,
				"velocity": 64
			},
			{
				"deltaTime": 0,
				"channel": 1,
				"type": "noteOn",
				"noteNumber": 49,
				"velocity": 64
			},
			{
				"deltaTime": 120,
				"channel": 1,
				"type": "noteOff",
				"noteNumber": 49,
				"velocity": 64
			},
			{
				"deltaTime": 0,
				"channel": 1,
				"type": "noteOn",
				"noteNumber": 51,
				"velocity": 64
			},
			{
				"deltaTime": 30,
				"channel": 1,
				"type": "noteOff",
				"noteNumber": 51,
				"velocity": 64
			},
			{
				"deltaTime": 0,
				"channel": 1,
				"type": "noteOn",
				"noteNumber": 52,
				"velocity": 64
			},
			{
				"deltaTime": 30,
				"channel": 1,
				"type": "noteOff",
				"noteNumber": 52,
				"velocity": 64
			},
			{
				"deltaTime": 0,
				"channel": 1,
				"type": "noteOn",
				"noteNumber": 51,
				"velocity": 64
			},
			{
				"deltaTime": 60,
				"channel": 1,
				"type": "noteOff",
				"noteNumber": 51,
				"velocity": 64
			},
			{
				"deltaTime": 0,
				"channel": 1,
				"type": "noteOn",
				"noteNumber": 54,
				"velocity": 64
			},
			{
				"deltaTime": 30,
				"channel": 1,
				"type": "noteOff",
				"noteNumber": 54,
				"velocity": 64
			},
			{
				"deltaTime": 0,
				"channel": 1,
				"type": "noteOn",
				"noteNumber": 52,
				"velocity": 64
			},
			{
				"deltaTime": 30,
				"channel": 1,
				"type": "noteOff",
				"noteNumber": 52,
				"velocity": 64
			},
			{
				"deltaTime": 0,
				"channel": 1,
				"type": "noteOn",
				"noteNumber": 54,
				"velocity": 64
			},
			{
				"deltaTime": 60,
				"channel": 1,
				"type": "noteOff",
				"noteNumber": 54,
				"velocity": 64
			},
			{
				"deltaTime": 0,
				"channel": 1,
				"type": "noteOn",
				"noteNumber": 51,
				"velocity": 64
			},
			{
				"deltaTime": 30,
				"channel": 1,
				"type": "noteOff",
				"noteNumber": 51,
				"velocity": 64
			},
			{
				"deltaTime": 0,
				"channel": 1,
				"type": "noteOn",
				"noteNumber": 49,
				"velocity": 64
			},
			{
				"deltaTime": 30,
				"channel": 1,
				"type": "noteOff",
				"noteNumber": 49,
				"velocity": 64
			},
			{
				"deltaTime": 0,
				"channel": 1,
				"type": "noteOn",
				"noteNumber": 51,
				"velocity": 64
			},
			{
				"deltaTime": 60,
				"channel": 1,
				"type": "noteOff",
				"noteNumber": 51,
				"velocity": 64
			},
			{
				"deltaTime": 0,
				"channel": 1,
				"type": "noteOn",
				"noteNumber": 47,
				"velocity": 64
			},
			{
				"deltaTime": 30,
				"channel": 1,
				"type": "noteOff",
				"noteNumber": 47,
				"velocity": 64
			},
			{
				"deltaTime": 0,
				"channel": 1,
				"type": "noteOn",
				"noteNumber": 46,
				"velocity": 64
			},
			{
				"deltaTime": 30,
				"channel": 1,
				"type": "noteOff",
				"noteNumber": 46,
				"velocity": 64
			},
			{
				"deltaTime": 0,
				"channel": 1,
				"type": "noteOn",
				"noteNumber": 47,
				"velocity": 64
			},
			{
				"deltaTime": 120,
				"channel": 1,
				"type": "noteOff",
				"noteNumber": 47,
				"velocity": 64
			},
			{
				"deltaTime": 0,
				"channel": 1,
				"type": "noteOn",
				"noteNumber": 49,
				"velocity": 64
			},
			{
				"deltaTime": 120,
				"channel": 1,
				"type": "noteOff",
				"noteNumber": 49,
				"velocity": 64
			},
			{
				"deltaTime": 0,
				"channel": 1,
				"type": "noteOn",
				"noteNumber": 51,
				"velocity": 64
			},
			{
				"deltaTime": 120,
				"channel": 1,
				"type": "noteOff",
				"noteNumber": 51,
				"velocity": 64
			},
			{
				"deltaTime": 0,
				"channel": 1,
				"type": "noteOn",
				"noteNumber": 52,
				"velocity": 64
			},
			{
				"deltaTime": 120,
				"channel": 1,
				"type": "noteOff",
				"noteNumber": 52,
				"velocity": 64
			},
			{
				"deltaTime": 0,
				"channel": 1,
				"type": "noteOn",
				"noteNumber": 54,
				"velocity": 64
			},
			{
				"deltaTime": 120,
				"channel": 1,
				"type": "noteOff",
				"noteNumber": 54,
				"velocity": 64
			},
			{
				"deltaTime": 0,
				"channel": 1,
				"type": "noteOn",
				"noteNumber": 56,
				"velocity": 64
			},
			{
				"deltaTime": 120,
				"channel": 1,
				"type": "noteOff",
				"noteNumber": 56,
				"velocity": 64
			},
			{
				"deltaTime": 0,
				"channel": 1,
				"type": "noteOn",
				"noteNumber": 58,
				"velocity": 64
			},
			{
				"deltaTime": 120,
				"channel": 1,
				"type": "noteOff",
				"noteNumber": 58,
				"velocity": 64
			},
			{
				"deltaTime": 0,
				"channel": 1,
				"type": "noteOn",
				"noteNumber": 59,
				"velocity": 64
			},
			{
				"deltaTime": 60,
				"channel": 1,
				"type": "noteOff",
				"noteNumber": 59,
				"velocity": 64
			},
			{
				"deltaTime": 0,
				"channel": 1,
				"type": "noteOn",
				"noteNumber": 58,
				"velocity": 64
			},
			{
				"deltaTime": 60,
				"channel": 1,
				"type": "noteOff",
				"noteNumber": 58,
				"velocity": 64
			},
			{
				"deltaTime": 0,
				"channel": 1,
				"type": "noteOn",
				"noteNumber": 56,
				"velocity": 64
			},
			{
				"deltaTime": 60,
				"channel": 1,
				"type": "noteOff",
				"noteNumber": 56,
				"velocity": 64
			},
			{
				"deltaTime": 0,
				"channel": 1,
				"type": "noteOn",
				"noteNumber": 54,
				"velocity": 64
			},
			{
				"deltaTime": 60,
				"channel": 1,
				"type": "noteOff",
				"noteNumber": 54,
				"velocity": 64
			},
			{
				"deltaTime": 0,
				"channel": 1,
				"type": "noteOn",
				"noteNumber": 59,
				"velocity": 64
			},
			{
				"deltaTime": 120,
				"channel": 1,
				"type": "noteOff",
				"noteNumber": 59,
				"velocity": 64
			},
			{
				"deltaTime": 0,
				"channel": 1,
				"type": "noteOn",
				"noteNumber": 47,
				"velocity": 64
			},
			{
				"deltaTime": 120,
				"channel": 1,
				"type": "noteOff",
				"noteNumber": 47,
				"velocity": 64
			},
			{
				"deltaTime": 120,
				"channel": 1,
				"type": "noteOn",
				"noteNumber": 56,
				"velocity": 64
			},
			{
				"deltaTime": 120,
				"channel": 1,
				"type": "noteOff",
				"noteNumber": 56,
				"velocity": 64
			},
			{
				"deltaTime": 0,
				"channel": 1,
				"type": "noteOn",
				"noteNumber": 59,
				"velocity": 64
			},
			{
				"deltaTime": 120,
				"channel": 1,
				"type": "noteOff",
				"noteNumber": 59,
				"velocity": 64
			},
			{
				"deltaTime": 0,
				"channel": 1,
				"type": "noteOn",
				"noteNumber": 63,
				"velocity": 64
			},
			{
				"deltaTime": 120,
				"channel": 1,
				"type": "noteOff",
				"noteNumber": 63,
				"velocity": 64
			},
			{
				"deltaTime": 0,
				"channel": 1,
				"type": "noteOn",
				"noteNumber": 55,
				"velocity": 64
			},
			{
				"deltaTime": 120,
				"channel": 1,
				"type": "noteOff",
				"noteNumber": 55,
				"velocity": 64
			},
			{
				"deltaTime": 0,
				"channel": 1,
				"type": "noteOn",
				"noteNumber": 58,
				"velocity": 64
			},
			{
				"deltaTime": 120,
				"channel": 1,
				"type": "noteOff",
				"noteNumber": 58,
				"velocity": 64
			},
			{
				"deltaTime": 0,
				"channel": 1,
				"type": "noteOn",
				"noteNumber": 63,
				"velocity": 64
			},
			{
				"deltaTime": 120,
				"channel": 1,
				"type": "noteOff",
				"noteNumber": 63,
				"velocity": 64
			},
			{
				"deltaTime": 0,
				"channel": 1,
				"type": "noteOn",
				"noteNumber": 56,
				"velocity": 64
			},
			{
				"deltaTime": 120,
				"channel": 1,
				"type": "noteOff",
				"noteNumber": 56,
				"velocity": 64
			},
			{
				"deltaTime": 0,
				"channel": 1,
				"type": "noteOn",
				"noteNumber": 59,
				"velocity": 64
			},
			{
				"deltaTime": 120,
				"channel": 1,
				"type": "noteOff",
				"noteNumber": 59,
				"velocity": 64
			},
			{
				"deltaTime": 0,
				"channel": 1,
				"type": "noteOn",
				"noteNumber": 63,
				"velocity": 64
			},
			{
				"deltaTime": 120,
				"channel": 1,
				"type": "noteOff",
				"noteNumber": 63,
				"velocity": 64
			},
			{
				"deltaTime": 0,
				"channel": 1,
				"type": "noteOn",
				"noteNumber": 51,
				"velocity": 64
			},
			{
				"deltaTime": 120,
				"channel": 1,
				"type": "noteOff",
				"noteNumber": 51,
				"velocity": 64
			},
			{
				"deltaTime": 0,
				"channel": 1,
				"type": "noteOn",
				"noteNumber": 63,
				"velocity": 64
			},
			{
				"deltaTime": 120,
				"channel": 1,
				"type": "noteOff",
				"noteNumber": 63,
				"velocity": 64
			},
			{
				"deltaTime": 0,
				"channel": 1,
				"type": "noteOn",
				"noteNumber": 61,
				"velocity": 64
			},
			{
				"deltaTime": 120,
				"channel": 1,
				"type": "noteOff",
				"noteNumber": 61,
				"velocity": 64
			},
			{
				"deltaTime": 0,
				"channel": 1,
				"type": "noteOn",
				"noteNumber": 60,
				"velocity": 64
			},
			{
				"deltaTime": 120,
				"channel": 1,
				"type": "noteOff",
				"noteNumber": 60,
				"velocity": 64
			},
			{
				"deltaTime": 0,
				"channel": 1,
				"type": "noteOn",
				"noteNumber": 61,
				"velocity": 64
			},
			{
				"deltaTime": 120,
				"channel": 1,
				"type": "noteOff",
				"noteNumber": 61,
				"velocity": 64
			},
			{
				"deltaTime": 0,
				"channel": 1,
				"type": "noteOn",
				"noteNumber": 63,
				"velocity": 64
			},
			{
				"deltaTime": 120,
				"channel": 1,
				"type": "noteOff",
				"noteNumber": 63,
				"velocity": 64
			},
			{
				"deltaTime": 0,
				"channel": 1,
				"type": "noteOn",
				"noteNumber": 56,
				"velocity": 64
			},
			{
				"deltaTime": 120,
				"channel": 1,
				"type": "noteOff",
				"noteNumber": 56,
				"velocity": 64
			},
			{
				"deltaTime": 0,
				"channel": 1,
				"type": "noteOn",
				"noteNumber": 61,
				"velocity": 64
			},
			{
				"deltaTime": 120,
				"channel": 1,
				"type": "noteOff",
				"noteNumber": 61,
				"velocity": 64
			},
			{
				"deltaTime": 0,
				"channel": 1,
				"type": "noteOn",
				"noteNumber": 59,
				"velocity": 64
			},
			{
				"deltaTime": 120,
				"channel": 1,
				"type": "noteOff",
				"noteNumber": 59,
				"velocity": 64
			},
			{
				"deltaTime": 0,
				"channel": 1,
				"type": "noteOn",
				"noteNumber": 58,
				"velocity": 64
			},
			{
				"deltaTime": 120,
				"channel": 1,
				"type": "noteOff",
				"noteNumber": 58,
				"velocity": 64
			},
			{
				"deltaTime": 0,
				"channel": 1,
				"type": "noteOn",
				"noteNumber": 59,
				"velocity": 64
			},
			{
				"deltaTime": 120,
				"channel": 1,
				"type": "noteOff",
				"noteNumber": 59,
				"velocity": 64
			},
			{
				"deltaTime": 0,
				"channel": 1,
				"type": "noteOn",
				"noteNumber": 61,
				"velocity": 64
			},
			{
				"deltaTime": 120,
				"channel": 1,
				"type": "noteOff",
				"noteNumber": 61,
				"velocity": 64
			},
			{
				"deltaTime": 0,
				"channel": 1,
				"type": "noteOn",
				"noteNumber": 54,
				"velocity": 64
			},
			{
				"deltaTime": 120,
				"channel": 1,
				"type": "noteOff",
				"noteNumber": 54,
				"velocity": 64
			},
			{
				"deltaTime": 0,
				"channel": 1,
				"type": "noteOn",
				"noteNumber": 59,
				"velocity": 64
			},
			{
				"deltaTime": 120,
				"channel": 1,
				"type": "noteOff",
				"noteNumber": 59,
				"velocity": 64
			},
			{
				"deltaTime": 0,
				"channel": 1,
				"type": "noteOn",
				"noteNumber": 63,
				"velocity": 64
			},
			{
				"deltaTime": 120,
				"channel": 1,
				"type": "noteOff",
				"noteNumber": 63,
				"velocity": 64
			},
			{
				"deltaTime": 0,
				"channel": 1,
				"type": "noteOn",
				"noteNumber": 55,
				"velocity": 64
			},
			{
				"deltaTime": 120,
				"channel": 1,
				"type": "noteOff",
				"noteNumber": 55,
				"velocity": 64
			},
			{
				"deltaTime": 0,
				"channel": 1,
				"type": "noteOn",
				"noteNumber": 56,
				"velocity": 64
			},
			{
				"deltaTime": 120,
				"channel": 1,
				"type": "noteOff",
				"noteNumber": 56,
				"velocity": 64
			},
			{
				"deltaTime": 0,
				"channel": 1,
				"type": "noteOn",
				"noteNumber": 58,
				"velocity": 64
			},
			{
				"deltaTime": 120,
				"channel": 1,
				"type": "noteOff",
				"noteNumber": 58,
				"velocity": 64
			},
			{
				"deltaTime": 0,
				"channel": 1,
				"type": "noteOn",
				"noteNumber": 51,
				"velocity": 64
			},
			{
				"deltaTime": 120,
				"channel": 1,
				"type": "noteOff",
				"noteNumber": 51,
				"velocity": 64
			},
			{
				"deltaTime": 0,
				"channel": 1,
				"type": "noteOn",
				"noteNumber": 56,
				"velocity": 64
			},
			{
				"deltaTime": 120,
				"channel": 1,
				"type": "noteOff",
				"noteNumber": 56,
				"velocity": 64
			},
			{
				"deltaTime": 0,
				"channel": 1,
				"type": "noteOn",
				"noteNumber": 59,
				"velocity": 64
			},
			{
				"deltaTime": 120,
				"channel": 1,
				"type": "noteOff",
				"noteNumber": 59,
				"velocity": 64
			},
			{
				"deltaTime": 0,
				"channel": 1,
				"type": "noteOn",
				"noteNumber": 49,
				"velocity": 64
			},
			{
				"deltaTime": 120,
				"channel": 1,
				"type": "noteOff",
				"noteNumber": 49,
				"velocity": 64
			},
			{
				"deltaTime": 120,
				"channel": 1,
				"type": "noteOn",
				"noteNumber": 61,
				"velocity": 64
			},
			{
				"deltaTime": 240,
				"channel": 1,
				"type": "noteOff",
				"noteNumber": 61,
				"velocity": 64
			},
			{
				"deltaTime": 0,
				"channel": 1,
				"type": "noteOn",
				"noteNumber": 58,
				"velocity": 64
			},
			{
				"deltaTime": 120,
				"channel": 1,
				"type": "noteOff",
				"noteNumber": 58,
				"velocity": 64
			},
			{
				"deltaTime": 0,
				"channel": 1,
				"type": "noteOn",
				"noteNumber": 55,
				"velocity": 64
			},
			{
				"deltaTime": 120,
				"channel": 1,
				"type": "noteOff",
				"noteNumber": 55,
				"velocity": 64
			},
			{
				"deltaTime": 0,
				"channel": 1,
				"type": "noteOn",
				"noteNumber": 56,
				"velocity": 64
			},
			{
				"deltaTime": 120,
				"channel": 1,
				"type": "noteOff",
				"noteNumber": 56,
				"velocity": 64
			},
			{
				"deltaTime": 0,
				"channel": 1,
				"type": "noteOn",
				"noteNumber": 49,
				"velocity": 64
			},
			{
				"deltaTime": 120,
				"channel": 1,
				"type": "noteOff",
				"noteNumber": 49,
				"velocity": 64
			},
			{
				"deltaTime": 0,
				"channel": 1,
				"type": "noteOn",
				"noteNumber": 51,
				"velocity": 64
			},
			{
				"deltaTime": 120,
				"channel": 1,
				"type": "noteOff",
				"noteNumber": 51,
				"velocity": 64
			},
			{
				"deltaTime": 0,
				"channel": 1,
				"type": "noteOn",
				"noteNumber": 44,
				"velocity": 64
			},
			{
				"deltaTime": 120,
				"channel": 1,
				"type": "noteOff",
				"noteNumber": 44,
				"velocity": 64
			},
			{
				"deltaTime": 60,
				"channel": 1,
				"type": "noteOn",
				"noteNumber": 44,
				"velocity": 64
			},
			{
				"deltaTime": 60,
				"channel": 1,
				"type": "noteOff",
				"noteNumber": 44,
				"velocity": 64
			},
			{
				"deltaTime": 0,
				"channel": 1,
				"type": "noteOn",
				"noteNumber": 56,
				"velocity": 64
			},
			{
				"deltaTime": 60,
				"channel": 1,
				"type": "noteOff",
				"noteNumber": 56,
				"velocity": 64
			},
			{
				"deltaTime": 0,
				"channel": 1,
				"type": "noteOn",
				"noteNumber": 54,
				"velocity": 64
			},
			{
				"deltaTime": 120,
				"channel": 1,
				"type": "noteOff",
				"noteNumber": 54,
				"velocity": 64
			},
			{
				"deltaTime": 0,
				"channel": 1,
				"type": "noteOn",
				"noteNumber": 52,
				"velocity": 64
			},
			{
				"deltaTime": 120,
				"channel": 1,
				"type": "noteOff",
				"noteNumber": 52,
				"velocity": 64
			},
			{
				"deltaTime": 0,
				"channel": 1,
				"type": "noteOn",
				"noteNumber": 51,
				"velocity": 64
			},
			{
				"deltaTime": 120,
				"channel": 1,
				"type": "noteOff",
				"noteNumber": 51,
				"velocity": 64
			},
			{
				"deltaTime": 0,
				"channel": 1,
				"type": "noteOn",
				"noteNumber": 50,
				"velocity": 64
			},
			{
				"deltaTime": 120,
				"channel": 1,
				"type": "noteOff",
				"noteNumber": 50,
				"velocity": 64
			},
			{
				"deltaTime": 0,
				"channel": 1,
				"type": "noteOn",
				"noteNumber": 49,
				"velocity": 64
			},
			{
				"deltaTime": 120,
				"channel": 1,
				"type": "noteOff",
				"noteNumber": 49,
				"velocity": 64
			},
			{
				"deltaTime": 0,
				"channel": 1,
				"type": "noteOn",
				"noteNumber": 47,
				"velocity": 64
			},
			{
				"deltaTime": 120,
				"channel": 1,
				"type": "noteOff",
				"noteNumber": 47,
				"velocity": 64
			},
			{
				"deltaTime": 0,
				"channel": 1,
				"type": "noteOn",
				"noteNumber": 45,
				"velocity": 64
			},
			{
				"deltaTime": 120,
				"channel": 1,
				"type": "noteOff",
				"noteNumber": 45,
				"velocity": 64
			},
			{
				"deltaTime": 0,
				"channel": 1,
				"type": "noteOn",
				"noteNumber": 44,
				"velocity": 64
			},
			{
				"deltaTime": 120,
				"channel": 1,
				"type": "noteOff",
				"noteNumber": 44,
				"velocity": 64
			},
			{
				"deltaTime": 0,
				"channel": 1,
				"type": "noteOn",
				"noteNumber": 42,
				"velocity": 64
			},
			{
				"deltaTime": 120,
				"channel": 1,
				"type": "noteOff",
				"noteNumber": 42,
				"velocity": 64
			},
			{
				"deltaTime": 0,
				"channel": 1,
				"type": "noteOn",
				"noteNumber": 44,
				"velocity": 64
			},
			{
				"deltaTime": 30,
				"channel": 1,
				"type": "noteOff",
				"noteNumber": 44,
				"velocity": 64
			},
			{
				"deltaTime": 0,
				"channel": 1,
				"type": "noteOn",
				"noteNumber": 45,
				"velocity": 64
			},
			{
				"deltaTime": 30,
				"channel": 1,
				"type": "noteOff",
				"noteNumber": 45,
				"velocity": 64
			},
			{
				"deltaTime": 0,
				"channel": 1,
				"type": "noteOn",
				"noteNumber": 44,
				"velocity": 64
			},
			{
				"deltaTime": 60,
				"channel": 1,
				"type": "noteOff",
				"noteNumber": 44,
				"velocity": 64
			},
			{
				"deltaTime": 0,
				"channel": 1,
				"type": "noteOn",
				"noteNumber": 47,
				"velocity": 64
			},
			{
				"deltaTime": 30,
				"channel": 1,
				"type": "noteOff",
				"noteNumber": 47,
				"velocity": 64
			},
			{
				"deltaTime": 0,
				"channel": 1,
				"type": "noteOn",
				"noteNumber": 45,
				"velocity": 64
			},
			{
				"deltaTime": 30,
				"channel": 1,
				"type": "noteOff",
				"noteNumber": 45,
				"velocity": 64
			},
			{
				"deltaTime": 0,
				"channel": 1,
				"type": "noteOn",
				"noteNumber": 47,
				"velocity": 64
			},
			{
				"deltaTime": 60,
				"channel": 1,
				"type": "noteOff",
				"noteNumber": 47,
				"velocity": 64
			},
			{
				"deltaTime": 0,
				"channel": 1,
				"type": "noteOn",
				"noteNumber": 44,
				"velocity": 64
			},
			{
				"deltaTime": 30,
				"channel": 1,
				"type": "noteOff",
				"noteNumber": 44,
				"velocity": 64
			},
			{
				"deltaTime": 0,
				"channel": 1,
				"type": "noteOn",
				"noteNumber": 42,
				"velocity": 64
			},
			{
				"deltaTime": 30,
				"channel": 1,
				"type": "noteOff",
				"noteNumber": 42,
				"velocity": 64
			},
			{
				"deltaTime": 0,
				"channel": 1,
				"type": "noteOn",
				"noteNumber": 44,
				"velocity": 64
			},
			{
				"deltaTime": 60,
				"channel": 1,
				"type": "noteOff",
				"noteNumber": 44,
				"velocity": 64
			},
			{
				"deltaTime": 0,
				"channel": 1,
				"type": "noteOn",
				"noteNumber": 40,
				"velocity": 64
			},
			{
				"deltaTime": 30,
				"channel": 1,
				"type": "noteOff",
				"noteNumber": 40,
				"velocity": 64
			},
			{
				"deltaTime": 0,
				"channel": 1,
				"type": "noteOn",
				"noteNumber": 39,
				"velocity": 64
			},
			{
				"deltaTime": 30,
				"channel": 1,
				"type": "noteOff",
				"noteNumber": 39,
				"velocity": 64
			},
			{
				"deltaTime": 0,
				"channel": 1,
				"type": "noteOn",
				"noteNumber": 40,
				"velocity": 64
			},
			{
				"deltaTime": 120,
				"channel": 1,
				"type": "noteOff",
				"noteNumber": 40,
				"velocity": 64
			},
			{
				"deltaTime": 0,
				"channel": 1,
				"type": "noteOn",
				"noteNumber": 42,
				"velocity": 64
			},
			{
				"deltaTime": 120,
				"channel": 1,
				"type": "noteOff",
				"noteNumber": 42,
				"velocity": 64
			},
			{
				"deltaTime": 0,
				"channel": 1,
				"type": "noteOn",
				"noteNumber": 44,
				"velocity": 64
			},
			{
				"deltaTime": 120,
				"channel": 1,
				"type": "noteOff",
				"noteNumber": 44,
				"velocity": 64
			},
			{
				"deltaTime": 0,
				"channel": 1,
				"type": "noteOn",
				"noteNumber": 45,
				"velocity": 64
			},
			{
				"deltaTime": 120,
				"channel": 1,
				"type": "noteOff",
				"noteNumber": 45,
				"velocity": 64
			},
			{
				"deltaTime": 0,
				"channel": 1,
				"type": "noteOn",
				"noteNumber": 47,
				"velocity": 64
			},
			{
				"deltaTime": 120,
				"channel": 1,
				"type": "noteOff",
				"noteNumber": 47,
				"velocity": 64
			},
			{
				"deltaTime": 0,
				"channel": 1,
				"type": "noteOn",
				"noteNumber": 49,
				"velocity": 64
			},
			{
				"deltaTime": 120,
				"channel": 1,
				"type": "noteOff",
				"noteNumber": 49,
				"velocity": 64
			},
			{
				"deltaTime": 0,
				"channel": 1,
				"type": "noteOn",
				"noteNumber": 51,
				"velocity": 64
			},
			{
				"deltaTime": 120,
				"channel": 1,
				"type": "noteOff",
				"noteNumber": 51,
				"velocity": 64
			},
			{
				"deltaTime": 0,
				"channel": 1,
				"type": "noteOn",
				"noteNumber": 52,
				"velocity": 64
			},
			{
				"deltaTime": 60,
				"channel": 1,
				"type": "noteOff",
				"noteNumber": 52,
				"velocity": 64
			},
			{
				"deltaTime": 0,
				"channel": 1,
				"type": "noteOn",
				"noteNumber": 51,
				"velocity": 64
			},
			{
				"deltaTime": 60,
				"channel": 1,
				"type": "noteOff",
				"noteNumber": 51,
				"velocity": 64
			},
			{
				"deltaTime": 0,
				"channel": 1,
				"type": "noteOn",
				"noteNumber": 49,
				"velocity": 64
			},
			{
				"deltaTime": 60,
				"channel": 1,
				"type": "noteOff",
				"noteNumber": 49,
				"velocity": 64
			},
			{
				"deltaTime": 0,
				"channel": 1,
				"type": "noteOn",
				"noteNumber": 47,
				"velocity": 64
			},
			{
				"deltaTime": 60,
				"channel": 1,
				"type": "noteOff",
				"noteNumber": 47,
				"velocity": 64
			},
			{
				"deltaTime": 0,
				"channel": 1,
				"type": "noteOn",
				"noteNumber": 52,
				"velocity": 64
			},
			{
				"deltaTime": 180,
				"channel": 1,
				"type": "noteOff",
				"noteNumber": 52,
				"velocity": 64
			},
			{
				"deltaTime": 0,
				"channel": 1,
				"type": "noteOn",
				"noteNumber": 59,
				"velocity": 64
			},
			{
				"deltaTime": 30,
				"channel": 1,
				"type": "noteOff",
				"noteNumber": 59,
				"velocity": 64
			},
			{
				"deltaTime": 0,
				"channel": 1,
				"type": "noteOn",
				"noteNumber": 57,
				"velocity": 64
			},
			{
				"deltaTime": 30,
				"channel": 1,
				"type": "noteOff",
				"noteNumber": 57,
				"velocity": 64
			},
			{
				"deltaTime": 0,
				"channel": 1,
				"type": "noteOn",
				"noteNumber": 59,
				"velocity": 64
			},
			{
				"deltaTime": 60,
				"channel": 1,
				"type": "noteOff",
				"noteNumber": 59,
				"velocity": 64
			},
			{
				"deltaTime": 0,
				"channel": 1,
				"type": "noteOn",
				"noteNumber": 56,
				"velocity": 64
			},
			{
				"deltaTime": 30,
				"channel": 1,
				"type": "noteOff",
				"noteNumber": 56,
				"velocity": 64
			},
			{
				"deltaTime": 0,
				"channel": 1,
				"type": "noteOn",
				"noteNumber": 54,
				"velocity": 64
			},
			{
				"deltaTime": 30,
				"channel": 1,
				"type": "noteOff",
				"noteNumber": 54,
				"velocity": 64
			},
			{
				"deltaTime": 0,
				"channel": 1,
				"type": "noteOn",
				"noteNumber": 56,
				"velocity": 64
			},
			{
				"deltaTime": 60,
				"channel": 1,
				"type": "noteOff",
				"noteNumber": 56,
				"velocity": 64
			},
			{
				"deltaTime": 0,
				"channel": 1,
				"type": "noteOn",
				"noteNumber": 61,
				"velocity": 64
			},
			{
				"deltaTime": 120,
				"channel": 1,
				"type": "noteOff",
				"noteNumber": 61,
				"velocity": 64
			},
			{
				"deltaTime": 0,
				"channel": 1,
				"type": "noteOn",
				"noteNumber": 57,
				"velocity": 64
			},
			{
				"deltaTime": 120,
				"channel": 1,
				"type": "noteOff",
				"noteNumber": 57,
				"velocity": 64
			},
			{
				"deltaTime": 0,
				"channel": 1,
				"type": "noteOn",
				"noteNumber": 54,
				"velocity": 64
			},
			{
				"deltaTime": 120,
				"channel": 1,
				"type": "noteOff",
				"noteNumber": 54,
				"velocity": 64
			},
			{
				"deltaTime": 0,
				"channel": 1,
				"type": "noteOn",
				"noteNumber": 57,
				"velocity": 64
			},
			{
				"deltaTime": 30,
				"channel": 1,
				"type": "noteOff",
				"noteNumber": 57,
				"velocity": 64
			},
			{
				"deltaTime": 0,
				"channel": 1,
				"type": "noteOn",
				"noteNumber": 56,
				"velocity": 64
			},
			{
				"deltaTime": 30,
				"channel": 1,
				"type": "noteOff",
				"noteNumber": 56,
				"velocity": 64
			},
			{
				"deltaTime": 0,
				"channel": 1,
				"type": "noteOn",
				"noteNumber": 57,
				"velocity": 64
			},
			{
				"deltaTime": 60,
				"channel": 1,
				"type": "noteOff",
				"noteNumber": 57,
				"velocity": 64
			},
			{
				"deltaTime": 0,
				"channel": 1,
				"type": "noteOn",
				"noteNumber": 54,
				"velocity": 64
			},
			{
				"deltaTime": 60,
				"channel": 1,
				"type": "noteOff",
				"noteNumber": 54,
				"velocity": 64
			},
			{
				"deltaTime": 0,
				"channel": 1,
				"type": "noteOn",
				"noteNumber": 51,
				"velocity": 64
			},
			{
				"deltaTime": 60,
				"channel": 1,
				"type": "noteOff",
				"noteNumber": 51,
				"velocity": 64
			},
			{
				"deltaTime": 0,
				"channel": 1,
				"type": "noteOn",
				"noteNumber": 47,
				"velocity": 64
			},
			{
				"deltaTime": 120,
				"channel": 1,
				"type": "noteOff",
				"noteNumber": 47,
				"velocity": 64
			},
			{
				"deltaTime": 0,
				"channel": 1,
				"type": "noteOn",
				"noteNumber": 59,
				"velocity": 64
			},
			{
				"deltaTime": 120,
				"channel": 1,
				"type": "noteOff",
				"noteNumber": 59,
				"velocity": 64
			},
			{
				"deltaTime": 0,
				"channel": 1,
				"type": "noteOn",
				"noteNumber": 56,
				"velocity": 64
			},
			{
				"deltaTime": 120,
				"channel": 1,
				"type": "noteOff",
				"noteNumber": 56,
				"velocity": 64
			},
			{
				"deltaTime": 0,
				"channel": 1,
				"type": "noteOn",
				"noteNumber": 52,
				"velocity": 64
			},
			{
				"deltaTime": 120,
				"channel": 1,
				"type": "noteOff",
				"noteNumber": 52,
				"velocity": 64
			},
			{
				"deltaTime": 0,
				"channel": 1,
				"type": "noteOn",
				"noteNumber": 56,
				"velocity": 64
			},
			{
				"deltaTime": 30,
				"channel": 1,
				"type": "noteOff",
				"noteNumber": 56,
				"velocity": 64
			},
			{
				"deltaTime": 0,
				"channel": 1,
				"type": "noteOn",
				"noteNumber": 54,
				"velocity": 64
			},
			{
				"deltaTime": 30,
				"channel": 1,
				"type": "noteOff",
				"noteNumber": 54,
				"velocity": 64
			},
			{
				"deltaTime": 0,
				"channel": 1,
				"type": "noteOn",
				"noteNumber": 56,
				"velocity": 64
			},
			{
				"deltaTime": 60,
				"channel": 1,
				"type": "noteOff",
				"noteNumber": 56,
				"velocity": 64
			},
			{
				"deltaTime": 0,
				"channel": 1,
				"type": "noteOn",
				"noteNumber": 52,
				"velocity": 64
			},
			{
				"deltaTime": 60,
				"channel": 1,
				"type": "noteOff",
				"noteNumber": 52,
				"velocity": 64
			},
			{
				"deltaTime": 0,
				"channel": 1,
				"type": "noteOn",
				"noteNumber": 49,
				"velocity": 64
			},
			{
				"deltaTime": 60,
				"channel": 1,
				"type": "noteOff",
				"noteNumber": 49,
				"velocity": 64
			},
			{
				"deltaTime": 0,
				"channel": 1,
				"type": "noteOn",
				"noteNumber": 45,
				"velocity": 64
			},
			{
				"deltaTime": 120,
				"channel": 1,
				"type": "noteOff",
				"noteNumber": 45,
				"velocity": 64
			},
			{
				"deltaTime": 0,
				"channel": 1,
				"type": "noteOn",
				"noteNumber": 57,
				"velocity": 64
			},
			{
				"deltaTime": 120,
				"channel": 1,
				"type": "noteOff",
				"noteNumber": 57,
				"velocity": 64
			},
			{
				"deltaTime": 0,
				"channel": 1,
				"type": "noteOn",
				"noteNumber": 54,
				"velocity": 64
			},
			{
				"deltaTime": 120,
				"channel": 1,
				"type": "noteOff",
				"noteNumber": 54,
				"velocity": 64
			},
			{
				"deltaTime": 0,
				"channel": 1,
				"type": "noteOn",
				"noteNumber": 51,
				"velocity": 64
			},
			{
				"deltaTime": 120,
				"channel": 1,
				"type": "noteOff",
				"noteNumber": 51,
				"velocity": 64
			},
			{
				"deltaTime": 0,
				"channel": 1,
				"type": "noteOn",
				"noteNumber": 61,
				"velocity": 64
			},
			{
				"deltaTime": 120,
				"channel": 1,
				"type": "noteOff",
				"noteNumber": 61,
				"velocity": 64
			},
			{
				"deltaTime": 0,
				"channel": 1,
				"type": "noteOn",
				"noteNumber": 59,
				"velocity": 64
			},
			{
				"deltaTime": 120,
				"channel": 1,
				"type": "noteOff",
				"noteNumber": 59,
				"velocity": 64
			},
			{
				"deltaTime": 0,
				"channel": 1,
				"type": "noteOn",
				"noteNumber": 57,
				"velocity": 64
			},
			{
				"deltaTime": 120,
				"channel": 1,
				"type": "noteOff",
				"noteNumber": 57,
				"velocity": 64
			},
			{
				"deltaTime": 0,
				"channel": 1,
				"type": "noteOn",
				"noteNumber": 56,
				"velocity": 64
			},
			{
				"deltaTime": 120,
				"channel": 1,
				"type": "noteOff",
				"noteNumber": 56,
				"velocity": 64
			},
			{
				"deltaTime": 0,
				"channel": 1,
				"type": "noteOn",
				"noteNumber": 54,
				"velocity": 64
			},
			{
				"deltaTime": 120,
				"channel": 1,
				"type": "noteOff",
				"noteNumber": 54,
				"velocity": 64
			},
			{
				"deltaTime": 0,
				"channel": 1,
				"type": "noteOn",
				"noteNumber": 52,
				"velocity": 64
			},
			{
				"deltaTime": 60,
				"channel": 1,
				"type": "noteOff",
				"noteNumber": 52,
				"velocity": 64
			},
			{
				"deltaTime": 0,
				"channel": 1,
				"type": "noteOn",
				"noteNumber": 51,
				"velocity": 64
			},
			{
				"deltaTime": 60,
				"channel": 1,
				"type": "noteOff",
				"noteNumber": 51,
				"velocity": 64
			},
			{
				"deltaTime": 0,
				"channel": 1,
				"type": "noteOn",
				"noteNumber": 57,
				"velocity": 64
			},
			{
				"deltaTime": 30,
				"channel": 1,
				"type": "noteOff",
				"noteNumber": 57,
				"velocity": 64
			},
			{
				"deltaTime": 0,
				"channel": 1,
				"type": "noteOn",
				"noteNumber": 56,
				"velocity": 64
			},
			{
				"deltaTime": 30,
				"channel": 1,
				"type": "noteOff",
				"noteNumber": 56,
				"velocity": 64
			},
			{
				"deltaTime": 0,
				"channel": 1,
				"type": "noteOn",
				"noteNumber": 57,
				"velocity": 64
			},
			{
				"deltaTime": 60,
				"channel": 1,
				"type": "noteOff",
				"noteNumber": 57,
				"velocity": 64
			},
			{
				"deltaTime": 0,
				"channel": 1,
				"type": "noteOn",
				"noteNumber": 51,
				"velocity": 64
			},
			{
				"deltaTime": 30,
				"channel": 1,
				"type": "noteOff",
				"noteNumber": 51,
				"velocity": 64
			},
			{
				"deltaTime": 0,
				"channel": 1,
				"type": "noteOn",
				"noteNumber": 50,
				"velocity": 64
			},
			{
				"deltaTime": 30,
				"channel": 1,
				"type": "noteOff",
				"noteNumber": 50,
				"velocity": 64
			},
			{
				"deltaTime": 0,
				"channel": 1,
				"type": "noteOn",
				"noteNumber": 51,
				"velocity": 64
			},
			{
				"deltaTime": 60,
				"channel": 1,
				"type": "noteOff",
				"noteNumber": 51,
				"velocity": 64
			},
			{
				"deltaTime": 0,
				"channel": 1,
				"type": "noteOn",
				"noteNumber": 56,
				"velocity": 64
			},
			{
				"deltaTime": 30,
				"channel": 1,
				"type": "noteOff",
				"noteNumber": 56,
				"velocity": 64
			},
			{
				"deltaTime": 0,
				"channel": 1,
				"type": "noteOn",
				"noteNumber": 54,
				"velocity": 64
			},
			{
				"deltaTime": 30,
				"channel": 1,
				"type": "noteOff",
				"noteNumber": 54,
				"velocity": 64
			},
			{
				"deltaTime": 0,
				"channel": 1,
				"type": "noteOn",
				"noteNumber": 56,
				"velocity": 64
			},
			{
				"deltaTime": 120,
				"channel": 1,
				"type": "noteOff",
				"noteNumber": 56,
				"velocity": 64
			},
			{
				"deltaTime": 0,
				"channel": 1,
				"type": "noteOn",
				"noteNumber": 57,
				"velocity": 64
			},
			{
				"deltaTime": 120,
				"channel": 1,
				"type": "noteOff",
				"noteNumber": 57,
				"velocity": 64
			},
			{
				"deltaTime": 0,
				"channel": 1,
				"type": "noteOn",
				"noteNumber": 59,
				"velocity": 64
			},
			{
				"deltaTime": 120,
				"channel": 1,
				"type": "noteOff",
				"noteNumber": 59,
				"velocity": 64
			},
			{
				"deltaTime": 0,
				"channel": 1,
				"type": "noteOn",
				"noteNumber": 52,
				"velocity": 64
			},
			{
				"deltaTime": 120,
				"channel": 1,
				"type": "noteOff",
				"noteNumber": 52,
				"velocity": 64
			},
			{
				"deltaTime": 60,
				"channel": 1,
				"type": "noteOn",
				"noteNumber": 64,
				"velocity": 64
			},
			{
				"deltaTime": 60,
				"channel": 1,
				"type": "noteOff",
				"noteNumber": 64,
				"velocity": 64
			},
			{
				"deltaTime": 0,
				"channel": 1,
				"type": "noteOn",
				"noteNumber": 59,
				"velocity": 64
			},
			{
				"deltaTime": 60,
				"channel": 1,
				"type": "noteOff",
				"noteNumber": 59,
				"velocity": 64
			},
			{
				"deltaTime": 0,
				"channel": 1,
				"type": "noteOn",
				"noteNumber": 56,
				"velocity": 64
			},
			{
				"deltaTime": 60,
				"channel": 1,
				"type": "noteOff",
				"noteNumber": 56,
				"velocity": 64
			},
			{
				"deltaTime": 0,
				"channel": 1,
				"type": "noteOn",
				"noteNumber": 52,
				"velocity": 64
			},
			{
				"deltaTime": 60,
				"channel": 1,
				"type": "noteOff",
				"noteNumber": 52,
				"velocity": 64
			},
			{
				"deltaTime": 0,
				"channel": 1,
				"type": "noteOn",
				"noteNumber": 59,
				"velocity": 64
			},
			{
				"deltaTime": 60,
				"channel": 1,
				"type": "noteOff",
				"noteNumber": 59,
				"velocity": 64
			},
			{
				"deltaTime": 0,
				"channel": 1,
				"type": "noteOn",
				"noteNumber": 56,
				"velocity": 64
			},
			{
				"deltaTime": 60,
				"channel": 1,
				"type": "noteOff",
				"noteNumber": 56,
				"velocity": 64
			},
			{
				"deltaTime": 0,
				"channel": 1,
				"type": "noteOn",
				"noteNumber": 52,
				"velocity": 64
			},
			{
				"deltaTime": 60,
				"channel": 1,
				"type": "noteOff",
				"noteNumber": 52,
				"velocity": 64
			},
			{
				"deltaTime": 0,
				"channel": 1,
				"type": "noteOn",
				"noteNumber": 47,
				"velocity": 64
			},
			{
				"deltaTime": 60,
				"channel": 1,
				"type": "noteOff",
				"noteNumber": 47,
				"velocity": 64
			},
			{
				"deltaTime": 0,
				"channel": 1,
				"type": "noteOn",
				"noteNumber": 44,
				"velocity": 64
			},
			{
				"deltaTime": 60,
				"channel": 1,
				"type": "noteOff",
				"noteNumber": 44,
				"velocity": 64
			},
			{
				"deltaTime": 0,
				"channel": 1,
				"type": "noteOn",
				"noteNumber": 40,
				"velocity": 64
			},
			{
				"deltaTime": 240,
				"channel": 1,
				"type": "noteOff",
				"noteNumber": 40,
				"velocity": 64
			},
			{
				"deltaTime": 0,
				"channel": 1,
				"type": "noteOn",
				"noteNumber": 52,
				"velocity": 64
			},
			{
				"deltaTime": 120,
				"channel": 1,
				"type": "noteOff",
				"noteNumber": 52,
				"velocity": 64
			},
			{
				"deltaTime": 60,
				"channel": 1,
				"type": "noteOn",
				"noteNumber": 59,
				"velocity": 64
			},
			{
				"deltaTime": 120,
				"channel": 1,
				"type": "noteOff",
				"noteNumber": 59,
				"velocity": 64
			},
			{
				"deltaTime": 0,
				"channel": 1,
				"type": "noteOn",
				"noteNumber": 58,
				"velocity": 64
			},
			{
				"deltaTime": 120,
				"channel": 1,
				"type": "noteOff",
				"noteNumber": 58,
				"velocity": 64
			},
			{
				"deltaTime": 0,
				"channel": 1,
				"type": "noteOn",
				"noteNumber": 57,
				"velocity": 64
			},
			{
				"deltaTime": 120,
				"channel": 1,
				"type": "noteOff",
				"noteNumber": 57,
				"velocity": 64
			},
			{
				"deltaTime": 0,
				"channel": 1,
				"type": "noteOn",
				"noteNumber": 56,
				"velocity": 64
			},
			{
				"deltaTime": 120,
				"channel": 1,
				"type": "noteOff",
				"noteNumber": 56,
				"velocity": 64
			},
			{
				"deltaTime": 0,
				"channel": 1,
				"type": "noteOn",
				"noteNumber": 54,
				"velocity": 64
			},
			{
				"deltaTime": 120,
				"channel": 1,
				"type": "noteOff",
				"noteNumber": 54,
				"velocity": 64
			},
			{
				"deltaTime": 0,
				"channel": 1,
				"type": "noteOn",
				"noteNumber": 52,
				"velocity": 64
			},
			{
				"deltaTime": 120,
				"channel": 1,
				"type": "noteOff",
				"noteNumber": 52,
				"velocity": 64
			},
			{
				"deltaTime": 0,
				"channel": 1,
				"type": "noteOn",
				"noteNumber": 51,
				"velocity": 64
			},
			{
				"deltaTime": 120,
				"channel": 1,
				"type": "noteOff",
				"noteNumber": 51,
				"velocity": 64
			},
			{
				"deltaTime": 0,
				"channel": 1,
				"type": "noteOn",
				"noteNumber": 49,
				"velocity": 64
			},
			{
				"deltaTime": 120,
				"channel": 1,
				"type": "noteOff",
				"noteNumber": 49,
				"velocity": 64
			},
			{
				"deltaTime": 0,
				"channel": 1,
				"type": "noteOn",
				"noteNumber": 51,
				"velocity": 64
			},
			{
				"deltaTime": 30,
				"channel": 1,
				"type": "noteOff",
				"noteNumber": 51,
				"velocity": 64
			},
			{
				"deltaTime": 0,
				"channel": 1,
				"type": "noteOn",
				"noteNumber": 52,
				"velocity": 64
			},
			{
				"deltaTime": 30,
				"channel": 1,
				"type": "noteOff",
				"noteNumber": 52,
				"velocity": 64
			},
			{
				"deltaTime": 0,
				"channel": 1,
				"type": "noteOn",
				"noteNumber": 51,
				"velocity": 64
			},
			{
				"deltaTime": 60,
				"channel": 1,
				"type": "noteOff",
				"noteNumber": 51,
				"velocity": 64
			},
			{
				"deltaTime": 0,
				"channel": 1,
				"type": "noteOn",
				"noteNumber": 54,
				"velocity": 64
			},
			{
				"deltaTime": 30,
				"channel": 1,
				"type": "noteOff",
				"noteNumber": 54,
				"velocity": 64
			},
			{
				"deltaTime": 0,
				"channel": 1,
				"type": "noteOn",
				"noteNumber": 52,
				"velocity": 64
			},
			{
				"deltaTime": 30,
				"channel": 1,
				"type": "noteOff",
				"noteNumber": 52,
				"velocity": 64
			},
			{
				"deltaTime": 0,
				"channel": 1,
				"type": "noteOn",
				"noteNumber": 54,
				"velocity": 64
			},
			{
				"deltaTime": 60,
				"channel": 1,
				"type": "noteOff",
				"noteNumber": 54,
				"velocity": 64
			},
			{
				"deltaTime": 0,
				"channel": 1,
				"type": "noteOn",
				"noteNumber": 51,
				"velocity": 64
			},
			{
				"deltaTime": 30,
				"channel": 1,
				"type": "noteOff",
				"noteNumber": 51,
				"velocity": 64
			},
			{
				"deltaTime": 0,
				"channel": 1,
				"type": "noteOn",
				"noteNumber": 49,
				"velocity": 64
			},
			{
				"deltaTime": 30,
				"channel": 1,
				"type": "noteOff",
				"noteNumber": 49,
				"velocity": 64
			},
			{
				"deltaTime": 0,
				"channel": 1,
				"type": "noteOn",
				"noteNumber": 51,
				"velocity": 64
			},
			{
				"deltaTime": 60,
				"channel": 1,
				"type": "noteOff",
				"noteNumber": 51,
				"velocity": 64
			},
			{
				"deltaTime": 0,
				"channel": 1,
				"type": "noteOn",
				"noteNumber": 47,
				"velocity": 64
			},
			{
				"deltaTime": 30,
				"channel": 1,
				"type": "noteOff",
				"noteNumber": 47,
				"velocity": 64
			},
			{
				"deltaTime": 0,
				"channel": 1,
				"type": "noteOn",
				"noteNumber": 46,
				"velocity": 64
			},
			{
				"deltaTime": 30,
				"channel": 1,
				"type": "noteOff",
				"noteNumber": 46,
				"velocity": 64
			},
			{
				"deltaTime": 0,
				"channel": 1,
				"type": "noteOn",
				"noteNumber": 47,
				"velocity": 64
			},
			{
				"deltaTime": 120,
				"channel": 1,
				"type": "noteOff",
				"noteNumber": 47,
				"velocity": 64
			},
			{
				"deltaTime": 0,
				"channel": 1,
				"type": "noteOn",
				"noteNumber": 49,
				"velocity": 64
			},
			{
				"deltaTime": 120,
				"channel": 1,
				"type": "noteOff",
				"noteNumber": 49,
				"velocity": 64
			},
			{
				"deltaTime": 0,
				"channel": 1,
				"type": "noteOn",
				"noteNumber": 51,
				"velocity": 64
			},
			{
				"deltaTime": 120,
				"channel": 1,
				"type": "noteOff",
				"noteNumber": 51,
				"velocity": 64
			},
			{
				"deltaTime": 0,
				"channel": 1,
				"type": "noteOn",
				"noteNumber": 52,
				"velocity": 64
			},
			{
				"deltaTime": 120,
				"channel": 1,
				"type": "noteOff",
				"noteNumber": 52,
				"velocity": 64
			},
			{
				"deltaTime": 0,
				"channel": 1,
				"type": "noteOn",
				"noteNumber": 54,
				"velocity": 64
			},
			{
				"deltaTime": 120,
				"channel": 1,
				"type": "noteOff",
				"noteNumber": 54,
				"velocity": 64
			},
			{
				"deltaTime": 0,
				"channel": 1,
				"type": "noteOn",
				"noteNumber": 56,
				"velocity": 64
			},
			{
				"deltaTime": 120,
				"channel": 1,
				"type": "noteOff",
				"noteNumber": 56,
				"velocity": 64
			},
			{
				"deltaTime": 0,
				"channel": 1,
				"type": "noteOn",
				"noteNumber": 58,
				"velocity": 64
			},
			{
				"deltaTime": 120,
				"channel": 1,
				"type": "noteOff",
				"noteNumber": 58,
				"velocity": 64
			},
			{
				"deltaTime": 0,
				"channel": 1,
				"type": "noteOn",
				"noteNumber": 59,
				"velocity": 64
			},
			{
				"deltaTime": 60,
				"channel": 1,
				"type": "noteOff",
				"noteNumber": 59,
				"velocity": 64
			},
			{
				"deltaTime": 0,
				"channel": 1,
				"type": "noteOn",
				"noteNumber": 58,
				"velocity": 64
			},
			{
				"deltaTime": 60,
				"channel": 1,
				"type": "noteOff",
				"noteNumber": 58,
				"velocity": 64
			},
			{
				"deltaTime": 0,
				"channel": 1,
				"type": "noteOn",
				"noteNumber": 56,
				"velocity": 64
			},
			{
				"deltaTime": 60,
				"channel": 1,
				"type": "noteOff",
				"noteNumber": 56,
				"velocity": 64
			},
			{
				"deltaTime": 0,
				"channel": 1,
				"type": "noteOn",
				"noteNumber": 54,
				"velocity": 64
			},
			{
				"deltaTime": 60,
				"channel": 1,
				"type": "noteOff",
				"noteNumber": 54,
				"velocity": 64
			},
			{
				"deltaTime": 0,
				"channel": 1,
				"type": "noteOn",
				"noteNumber": 59,
				"velocity": 64
			},
			{
				"deltaTime": 120,
				"channel": 1,
				"type": "noteOff",
				"noteNumber": 59,
				"velocity": 64
			},
			{
				"deltaTime": 0,
				"channel": 1,
				"type": "noteOn",
				"noteNumber": 47,
				"velocity": 64
			},
			{
				"deltaTime": 120,
				"channel": 1,
				"type": "noteOff",
				"noteNumber": 47,
				"velocity": 64
			},
			{
				"deltaTime": 120,
				"channel": 1,
				"type": "noteOn",
				"noteNumber": 56,
				"velocity": 64
			},
			{
				"deltaTime": 120,
				"channel": 1,
				"type": "noteOff",
				"noteNumber": 56,
				"velocity": 64
			},
			{
				"deltaTime": 0,
				"channel": 1,
				"type": "noteOn",
				"noteNumber": 59,
				"velocity": 64
			},
			{
				"deltaTime": 120,
				"channel": 1,
				"type": "noteOff",
				"noteNumber": 59,
				"velocity": 64
			},
			{
				"deltaTime": 0,
				"channel": 1,
				"type": "noteOn",
				"noteNumber": 63,
				"velocity": 64
			},
			{
				"deltaTime": 120,
				"channel": 1,
				"type": "noteOff",
				"noteNumber": 63,
				"velocity": 64
			},
			{
				"deltaTime": 0,
				"channel": 1,
				"type": "noteOn",
				"noteNumber": 55,
				"velocity": 64
			},
			{
				"deltaTime": 120,
				"channel": 1,
				"type": "noteOff",
				"noteNumber": 55,
				"velocity": 64
			},
			{
				"deltaTime": 0,
				"channel": 1,
				"type": "noteOn",
				"noteNumber": 58,
				"velocity": 64
			},
			{
				"deltaTime": 120,
				"channel": 1,
				"type": "noteOff",
				"noteNumber": 58,
				"velocity": 64
			},
			{
				"deltaTime": 0,
				"channel": 1,
				"type": "noteOn",
				"noteNumber": 63,
				"velocity": 64
			},
			{
				"deltaTime": 120,
				"channel": 1,
				"type": "noteOff",
				"noteNumber": 63,
				"velocity": 64
			},
			{
				"deltaTime": 0,
				"channel": 1,
				"type": "noteOn",
				"noteNumber": 56,
				"velocity": 64
			},
			{
				"deltaTime": 120,
				"channel": 1,
				"type": "noteOff",
				"noteNumber": 56,
				"velocity": 64
			},
			{
				"deltaTime": 0,
				"channel": 1,
				"type": "noteOn",
				"noteNumber": 59,
				"velocity": 64
			},
			{
				"deltaTime": 120,
				"channel": 1,
				"type": "noteOff",
				"noteNumber": 59,
				"velocity": 64
			},
			{
				"deltaTime": 0,
				"channel": 1,
				"type": "noteOn",
				"noteNumber": 63,
				"velocity": 64
			},
			{
				"deltaTime": 120,
				"channel": 1,
				"type": "noteOff",
				"noteNumber": 63,
				"velocity": 64
			},
			{
				"deltaTime": 0,
				"channel": 1,
				"type": "noteOn",
				"noteNumber": 51,
				"velocity": 64
			},
			{
				"deltaTime": 120,
				"channel": 1,
				"type": "noteOff",
				"noteNumber": 51,
				"velocity": 64
			},
			{
				"deltaTime": 0,
				"channel": 1,
				"type": "noteOn",
				"noteNumber": 63,
				"velocity": 64
			},
			{
				"deltaTime": 120,
				"channel": 1,
				"type": "noteOff",
				"noteNumber": 63,
				"velocity": 64
			},
			{
				"deltaTime": 0,
				"channel": 1,
				"type": "noteOn",
				"noteNumber": 61,
				"velocity": 64
			},
			{
				"deltaTime": 120,
				"channel": 1,
				"type": "noteOff",
				"noteNumber": 61,
				"velocity": 64
			},
			{
				"deltaTime": 0,
				"channel": 1,
				"type": "noteOn",
				"noteNumber": 60,
				"velocity": 64
			},
			{
				"deltaTime": 120,
				"channel": 1,
				"type": "noteOff",
				"noteNumber": 60,
				"velocity": 64
			},
			{
				"deltaTime": 0,
				"channel": 1,
				"type": "noteOn",
				"noteNumber": 61,
				"velocity": 64
			},
			{
				"deltaTime": 120,
				"channel": 1,
				"type": "noteOff",
				"noteNumber": 61,
				"velocity": 64
			},
			{
				"deltaTime": 0,
				"channel": 1,
				"type": "noteOn",
				"noteNumber": 63,
				"velocity": 64
			},
			{
				"deltaTime": 120,
				"channel": 1,
				"type": "noteOff",
				"noteNumber": 63,
				"velocity": 64
			},
			{
				"deltaTime": 0,
				"channel": 1,
				"type": "noteOn",
				"noteNumber": 56,
				"velocity": 64
			},
			{
				"deltaTime": 120,
				"channel": 1,
				"type": "noteOff",
				"noteNumber": 56,
				"velocity": 64
			},
			{
				"deltaTime": 0,
				"channel": 1,
				"type": "noteOn",
				"noteNumber": 61,
				"velocity": 64
			},
			{
				"deltaTime": 120,
				"channel": 1,
				"type": "noteOff",
				"noteNumber": 61,
				"velocity": 64
			},
			{
				"deltaTime": 0,
				"channel": 1,
				"type": "noteOn",
				"noteNumber": 59,
				"velocity": 64
			},
			{
				"deltaTime": 120,
				"channel": 1,
				"type": "noteOff",
				"noteNumber": 59,
				"velocity": 64
			},
			{
				"deltaTime": 0,
				"channel": 1,
				"type": "noteOn",
				"noteNumber": 58,
				"velocity": 64
			},
			{
				"deltaTime": 120,
				"channel": 1,
				"type": "noteOff",
				"noteNumber": 58,
				"velocity": 64
			},
			{
				"deltaTime": 0,
				"channel": 1,
				"type": "noteOn",
				"noteNumber": 59,
				"velocity": 64
			},
			{
				"deltaTime": 120,
				"channel": 1,
				"type": "noteOff",
				"noteNumber": 59,
				"velocity": 64
			},
			{
				"deltaTime": 0,
				"channel": 1,
				"type": "noteOn",
				"noteNumber": 61,
				"velocity": 64
			},
			{
				"deltaTime": 120,
				"channel": 1,
				"type": "noteOff",
				"noteNumber": 61,
				"velocity": 64
			},
			{
				"deltaTime": 0,
				"channel": 1,
				"type": "noteOn",
				"noteNumber": 54,
				"velocity": 64
			},
			{
				"deltaTime": 120,
				"channel": 1,
				"type": "noteOff",
				"noteNumber": 54,
				"velocity": 64
			},
			{
				"deltaTime": 0,
				"channel": 1,
				"type": "noteOn",
				"noteNumber": 59,
				"velocity": 64
			},
			{
				"deltaTime": 120,
				"channel": 1,
				"type": "noteOff",
				"noteNumber": 59,
				"velocity": 64
			},
			{
				"deltaTime": 0,
				"channel": 1,
				"type": "noteOn",
				"noteNumber": 63,
				"velocity": 64
			},
			{
				"deltaTime": 120,
				"channel": 1,
				"type": "noteOff",
				"noteNumber": 63,
				"velocity": 64
			},
			{
				"deltaTime": 0,
				"channel": 1,
				"type": "noteOn",
				"noteNumber": 55,
				"velocity": 64
			},
			{
				"deltaTime": 120,
				"channel": 1,
				"type": "noteOff",
				"noteNumber": 55,
				"velocity": 64
			},
			{
				"deltaTime": 0,
				"channel": 1,
				"type": "noteOn",
				"noteNumber": 56,
				"velocity": 64
			},
			{
				"deltaTime": 120,
				"channel": 1,
				"type": "noteOff",
				"noteNumber": 56,
				"velocity": 64
			},
			{
				"deltaTime": 0,
				"channel": 1,
				"type": "noteOn",
				"noteNumber": 58,
				"velocity": 64
			},
			{
				"deltaTime": 120,
				"channel": 1,
				"type": "noteOff",
				"noteNumber": 58,
				"velocity": 64
			},
			{
				"deltaTime": 0,
				"channel": 1,
				"type": "noteOn",
				"noteNumber": 51,
				"velocity": 64
			},
			{
				"deltaTime": 120,
				"channel": 1,
				"type": "noteOff",
				"noteNumber": 51,
				"velocity": 64
			},
			{
				"deltaTime": 0,
				"channel": 1,
				"type": "noteOn",
				"noteNumber": 56,
				"velocity": 64
			},
			{
				"deltaTime": 120,
				"channel": 1,
				"type": "noteOff",
				"noteNumber": 56,
				"velocity": 64
			},
			{
				"deltaTime": 0,
				"channel": 1,
				"type": "noteOn",
				"noteNumber": 59,
				"velocity": 64
			},
			{
				"deltaTime": 120,
				"channel": 1,
				"type": "noteOff",
				"noteNumber": 59,
				"velocity": 64
			},
			{
				"deltaTime": 0,
				"channel": 1,
				"type": "noteOn",
				"noteNumber": 49,
				"velocity": 64
			},
			{
				"deltaTime": 120,
				"channel": 1,
				"type": "noteOff",
				"noteNumber": 49,
				"velocity": 64
			},
			{
				"deltaTime": 120,
				"channel": 1,
				"type": "noteOn",
				"noteNumber": 61,
				"velocity": 64
			},
			{
				"deltaTime": 240,
				"channel": 1,
				"type": "noteOff",
				"noteNumber": 61,
				"velocity": 64
			},
			{
				"deltaTime": 0,
				"channel": 1,
				"type": "noteOn",
				"noteNumber": 58,
				"velocity": 64
			},
			{
				"deltaTime": 120,
				"channel": 1,
				"type": "noteOff",
				"noteNumber": 58,
				"velocity": 64
			},
			{
				"deltaTime": 0,
				"channel": 1,
				"type": "noteOn",
				"noteNumber": 55,
				"velocity": 64
			},
			{
				"deltaTime": 120,
				"channel": 1,
				"type": "noteOff",
				"noteNumber": 55,
				"velocity": 64
			},
			{
				"deltaTime": 0,
				"channel": 1,
				"type": "noteOn",
				"noteNumber": 56,
				"velocity": 64
			},
			{
				"deltaTime": 120,
				"channel": 1,
				"type": "noteOff",
				"noteNumber": 56,
				"velocity": 64
			},
			{
				"deltaTime": 0,
				"channel": 1,
				"type": "noteOn",
				"noteNumber": 49,
				"velocity": 64
			},
			{
				"deltaTime": 120,
				"channel": 1,
				"type": "noteOff",
				"noteNumber": 49,
				"velocity": 64
			},
			{
				"deltaTime": 0,
				"channel": 1,
				"type": "noteOn",
				"noteNumber": 51,
				"velocity": 64
			},
			{
				"deltaTime": 120,
				"channel": 1,
				"type": "noteOff",
				"noteNumber": 51,
				"velocity": 64
			},
			{
				"deltaTime": 0,
				"channel": 1,
				"type": "noteOn",
				"noteNumber": 44,
				"velocity": 64
			},
			{
				"deltaTime": 120,
				"channel": 1,
				"type": "noteOff",
				"noteNumber": 44,
				"velocity": 64
			},
			{
				"deltaTime": 60,
				"channel": 1,
				"type": "noteOn",
				"noteNumber": 44,
				"velocity": 64
			},
			{
				"deltaTime": 60,
				"channel": 1,
				"type": "noteOff",
				"noteNumber": 44,
				"velocity": 64
			},
			{
				"deltaTime": 0,
				"channel": 1,
				"type": "noteOn",
				"noteNumber": 56,
				"velocity": 64
			},
			{
				"deltaTime": 60,
				"channel": 1,
				"type": "noteOff",
				"noteNumber": 56,
				"velocity": 64
			},
			{
				"deltaTime": 0,
				"channel": 1,
				"type": "noteOn",
				"noteNumber": 54,
				"velocity": 64
			},
			{
				"deltaTime": 120,
				"channel": 1,
				"type": "noteOff",
				"noteNumber": 54,
				"velocity": 64
			},
			{
				"deltaTime": 0,
				"channel": 1,
				"type": "noteOn",
				"noteNumber": 52,
				"velocity": 64
			},
			{
				"deltaTime": 120,
				"channel": 1,
				"type": "noteOff",
				"noteNumber": 52,
				"velocity": 64
			},
			{
				"deltaTime": 0,
				"channel": 1,
				"type": "noteOn",
				"noteNumber": 51,
				"velocity": 64
			},
			{
				"deltaTime": 120,
				"channel": 1,
				"type": "noteOff",
				"noteNumber": 51,
				"velocity": 64
			},
			{
				"deltaTime": 0,
				"channel": 1,
				"type": "noteOn",
				"noteNumber": 50,
				"velocity": 64
			},
			{
				"deltaTime": 120,
				"channel": 1,
				"type": "noteOff",
				"noteNumber": 50,
				"velocity": 64
			},
			{
				"deltaTime": 0,
				"channel": 1,
				"type": "noteOn",
				"noteNumber": 49,
				"velocity": 64
			},
			{
				"deltaTime": 120,
				"channel": 1,
				"type": "noteOff",
				"noteNumber": 49,
				"velocity": 64
			},
			{
				"deltaTime": 0,
				"channel": 1,
				"type": "noteOn",
				"noteNumber": 47,
				"velocity": 64
			},
			{
				"deltaTime": 120,
				"channel": 1,
				"type": "noteOff",
				"noteNumber": 47,
				"velocity": 64
			},
			{
				"deltaTime": 0,
				"channel": 1,
				"type": "noteOn",
				"noteNumber": 45,
				"velocity": 64
			},
			{
				"deltaTime": 120,
				"channel": 1,
				"type": "noteOff",
				"noteNumber": 45,
				"velocity": 64
			},
			{
				"deltaTime": 0,
				"channel": 1,
				"type": "noteOn",
				"noteNumber": 44,
				"velocity": 64
			},
			{
				"deltaTime": 120,
				"channel": 1,
				"type": "noteOff",
				"noteNumber": 44,
				"velocity": 64
			},
			{
				"deltaTime": 0,
				"channel": 1,
				"type": "noteOn",
				"noteNumber": 42,
				"velocity": 64
			},
			{
				"deltaTime": 120,
				"channel": 1,
				"type": "noteOff",
				"noteNumber": 42,
				"velocity": 64
			},
			{
				"deltaTime": 0,
				"channel": 1,
				"type": "noteOn",
				"noteNumber": 44,
				"velocity": 64
			},
			{
				"deltaTime": 30,
				"channel": 1,
				"type": "noteOff",
				"noteNumber": 44,
				"velocity": 64
			},
			{
				"deltaTime": 0,
				"channel": 1,
				"type": "noteOn",
				"noteNumber": 45,
				"velocity": 64
			},
			{
				"deltaTime": 30,
				"channel": 1,
				"type": "noteOff",
				"noteNumber": 45,
				"velocity": 64
			},
			{
				"deltaTime": 0,
				"channel": 1,
				"type": "noteOn",
				"noteNumber": 44,
				"velocity": 64
			},
			{
				"deltaTime": 60,
				"channel": 1,
				"type": "noteOff",
				"noteNumber": 44,
				"velocity": 64
			},
			{
				"deltaTime": 0,
				"channel": 1,
				"type": "noteOn",
				"noteNumber": 47,
				"velocity": 64
			},
			{
				"deltaTime": 30,
				"channel": 1,
				"type": "noteOff",
				"noteNumber": 47,
				"velocity": 64
			},
			{
				"deltaTime": 0,
				"channel": 1,
				"type": "noteOn",
				"noteNumber": 45,
				"velocity": 64
			},
			{
				"deltaTime": 30,
				"channel": 1,
				"type": "noteOff",
				"noteNumber": 45,
				"velocity": 64
			},
			{
				"deltaTime": 0,
				"channel": 1,
				"type": "noteOn",
				"noteNumber": 47,
				"velocity": 64
			},
			{
				"deltaTime": 60,
				"channel": 1,
				"type": "noteOff",
				"noteNumber": 47,
				"velocity": 64
			},
			{
				"deltaTime": 0,
				"channel": 1,
				"type": "noteOn",
				"noteNumber": 44,
				"velocity": 64
			},
			{
				"deltaTime": 30,
				"channel": 1,
				"type": "noteOff",
				"noteNumber": 44,
				"velocity": 64
			},
			{
				"deltaTime": 0,
				"channel": 1,
				"type": "noteOn",
				"noteNumber": 42,
				"velocity": 64
			},
			{
				"deltaTime": 30,
				"channel": 1,
				"type": "noteOff",
				"noteNumber": 42,
				"velocity": 64
			},
			{
				"deltaTime": 0,
				"channel": 1,
				"type": "noteOn",
				"noteNumber": 44,
				"velocity": 64
			},
			{
				"deltaTime": 60,
				"channel": 1,
				"type": "noteOff",
				"noteNumber": 44,
				"velocity": 64
			},
			{
				"deltaTime": 0,
				"channel": 1,
				"type": "noteOn",
				"noteNumber": 40,
				"velocity": 64
			},
			{
				"deltaTime": 30,
				"channel": 1,
				"type": "noteOff",
				"noteNumber": 40,
				"velocity": 64
			},
			{
				"deltaTime": 0,
				"channel": 1,
				"type": "noteOn",
				"noteNumber": 39,
				"velocity": 64
			},
			{
				"deltaTime": 30,
				"channel": 1,
				"type": "noteOff",
				"noteNumber": 39,
				"velocity": 64
			},
			{
				"deltaTime": 0,
				"channel": 1,
				"type": "noteOn",
				"noteNumber": 40,
				"velocity": 64
			},
			{
				"deltaTime": 120,
				"channel": 1,
				"type": "noteOff",
				"noteNumber": 40,
				"velocity": 64
			},
			{
				"deltaTime": 0,
				"channel": 1,
				"type": "noteOn",
				"noteNumber": 42,
				"velocity": 64
			},
			{
				"deltaTime": 120,
				"channel": 1,
				"type": "noteOff",
				"noteNumber": 42,
				"velocity": 64
			},
			{
				"deltaTime": 0,
				"channel": 1,
				"type": "noteOn",
				"noteNumber": 44,
				"velocity": 64
			},
			{
				"deltaTime": 120,
				"channel": 1,
				"type": "noteOff",
				"noteNumber": 44,
				"velocity": 64
			},
			{
				"deltaTime": 0,
				"channel": 1,
				"type": "noteOn",
				"noteNumber": 45,
				"velocity": 64
			},
			{
				"deltaTime": 120,
				"channel": 1,
				"type": "noteOff",
				"noteNumber": 45,
				"velocity": 64
			},
			{
				"deltaTime": 0,
				"channel": 1,
				"type": "noteOn",
				"noteNumber": 47,
				"velocity": 64
			},
			{
				"deltaTime": 120,
				"channel": 1,
				"type": "noteOff",
				"noteNumber": 47,
				"velocity": 64
			},
			{
				"deltaTime": 0,
				"channel": 1,
				"type": "noteOn",
				"noteNumber": 49,
				"velocity": 64
			},
			{
				"deltaTime": 120,
				"channel": 1,
				"type": "noteOff",
				"noteNumber": 49,
				"velocity": 64
			},
			{
				"deltaTime": 0,
				"channel": 1,
				"type": "noteOn",
				"noteNumber": 51,
				"velocity": 64
			},
			{
				"deltaTime": 120,
				"channel": 1,
				"type": "noteOff",
				"noteNumber": 51,
				"velocity": 64
			},
			{
				"deltaTime": 0,
				"channel": 1,
				"type": "noteOn",
				"noteNumber": 52,
				"velocity": 64
			},
			{
				"deltaTime": 60,
				"channel": 1,
				"type": "noteOff",
				"noteNumber": 52,
				"velocity": 64
			},
			{
				"deltaTime": 0,
				"channel": 1,
				"type": "noteOn",
				"noteNumber": 51,
				"velocity": 64
			},
			{
				"deltaTime": 60,
				"channel": 1,
				"type": "noteOff",
				"noteNumber": 51,
				"velocity": 64
			},
			{
				"deltaTime": 0,
				"channel": 1,
				"type": "noteOn",
				"noteNumber": 49,
				"velocity": 64
			},
			{
				"deltaTime": 60,
				"channel": 1,
				"type": "noteOff",
				"noteNumber": 49,
				"velocity": 64
			},
			{
				"deltaTime": 0,
				"channel": 1,
				"type": "noteOn",
				"noteNumber": 47,
				"velocity": 64
			},
			{
				"deltaTime": 60,
				"channel": 1,
				"type": "noteOff",
				"noteNumber": 47,
				"velocity": 64
			},
			{
				"deltaTime": 0,
				"channel": 1,
				"type": "noteOn",
				"noteNumber": 52,
				"velocity": 64
			},
			{
				"deltaTime": 180,
				"channel": 1,
				"type": "noteOff",
				"noteNumber": 52,
				"velocity": 64
			},
			{
				"deltaTime": 0,
				"channel": 1,
				"type": "noteOn",
				"noteNumber": 59,
				"velocity": 64
			},
			{
				"deltaTime": 30,
				"channel": 1,
				"type": "noteOff",
				"noteNumber": 59,
				"velocity": 64
			},
			{
				"deltaTime": 0,
				"channel": 1,
				"type": "noteOn",
				"noteNumber": 57,
				"velocity": 64
			},
			{
				"deltaTime": 30,
				"channel": 1,
				"type": "noteOff",
				"noteNumber": 57,
				"velocity": 64
			},
			{
				"deltaTime": 0,
				"channel": 1,
				"type": "noteOn",
				"noteNumber": 59,
				"velocity": 64
			},
			{
				"deltaTime": 60,
				"channel": 1,
				"type": "noteOff",
				"noteNumber": 59,
				"velocity": 64
			},
			{
				"deltaTime": 0,
				"channel": 1,
				"type": "noteOn",
				"noteNumber": 56,
				"velocity": 64
			},
			{
				"deltaTime": 30,
				"channel": 1,
				"type": "noteOff",
				"noteNumber": 56,
				"velocity": 64
			},
			{
				"deltaTime": 0,
				"channel": 1,
				"type": "noteOn",
				"noteNumber": 54,
				"velocity": 64
			},
			{
				"deltaTime": 30,
				"channel": 1,
				"type": "noteOff",
				"noteNumber": 54,
				"velocity": 64
			},
			{
				"deltaTime": 0,
				"channel": 1,
				"type": "noteOn",
				"noteNumber": 56,
				"velocity": 64
			},
			{
				"deltaTime": 60,
				"channel": 1,
				"type": "noteOff",
				"noteNumber": 56,
				"velocity": 64
			},
			{
				"deltaTime": 0,
				"channel": 1,
				"type": "noteOn",
				"noteNumber": 61,
				"velocity": 64
			},
			{
				"deltaTime": 120,
				"channel": 1,
				"type": "noteOff",
				"noteNumber": 61,
				"velocity": 64
			},
			{
				"deltaTime": 0,
				"channel": 1,
				"type": "noteOn",
				"noteNumber": 57,
				"velocity": 64
			},
			{
				"deltaTime": 120,
				"channel": 1,
				"type": "noteOff",
				"noteNumber": 57,
				"velocity": 64
			},
			{
				"deltaTime": 0,
				"channel": 1,
				"type": "noteOn",
				"noteNumber": 54,
				"velocity": 64
			},
			{
				"deltaTime": 120,
				"channel": 1,
				"type": "noteOff",
				"noteNumber": 54,
				"velocity": 64
			},
			{
				"deltaTime": 0,
				"channel": 1,
				"type": "noteOn",
				"noteNumber": 57,
				"velocity": 64
			},
			{
				"deltaTime": 30,
				"channel": 1,
				"type": "noteOff",
				"noteNumber": 57,
				"velocity": 64
			},
			{
				"deltaTime": 0,
				"channel": 1,
				"type": "noteOn",
				"noteNumber": 56,
				"velocity": 64
			},
			{
				"deltaTime": 30,
				"channel": 1,
				"type": "noteOff",
				"noteNumber": 56,
				"velocity": 64
			},
			{
				"deltaTime": 0,
				"channel": 1,
				"type": "noteOn",
				"noteNumber": 57,
				"velocity": 64
			},
			{
				"deltaTime": 60,
				"channel": 1,
				"type": "noteOff",
				"noteNumber": 57,
				"velocity": 64
			},
			{
				"deltaTime": 0,
				"channel": 1,
				"type": "noteOn",
				"noteNumber": 54,
				"velocity": 64
			},
			{
				"deltaTime": 60,
				"channel": 1,
				"type": "noteOff",
				"noteNumber": 54,
				"velocity": 64
			},
			{
				"deltaTime": 0,
				"channel": 1,
				"type": "noteOn",
				"noteNumber": 51,
				"velocity": 64
			},
			{
				"deltaTime": 60,
				"channel": 1,
				"type": "noteOff",
				"noteNumber": 51,
				"velocity": 64
			},
			{
				"deltaTime": 0,
				"channel": 1,
				"type": "noteOn",
				"noteNumber": 47,
				"velocity": 64
			},
			{
				"deltaTime": 120,
				"channel": 1,
				"type": "noteOff",
				"noteNumber": 47,
				"velocity": 64
			},
			{
				"deltaTime": 0,
				"channel": 1,
				"type": "noteOn",
				"noteNumber": 59,
				"velocity": 64
			},
			{
				"deltaTime": 120,
				"channel": 1,
				"type": "noteOff",
				"noteNumber": 59,
				"velocity": 64
			},
			{
				"deltaTime": 0,
				"channel": 1,
				"type": "noteOn",
				"noteNumber": 56,
				"velocity": 64
			},
			{
				"deltaTime": 120,
				"channel": 1,
				"type": "noteOff",
				"noteNumber": 56,
				"velocity": 64
			},
			{
				"deltaTime": 0,
				"channel": 1,
				"type": "noteOn",
				"noteNumber": 52,
				"velocity": 64
			},
			{
				"deltaTime": 120,
				"channel": 1,
				"type": "noteOff",
				"noteNumber": 52,
				"velocity": 64
			},
			{
				"deltaTime": 0,
				"channel": 1,
				"type": "noteOn",
				"noteNumber": 56,
				"velocity": 64
			},
			{
				"deltaTime": 30,
				"channel": 1,
				"type": "noteOff",
				"noteNumber": 56,
				"velocity": 64
			},
			{
				"deltaTime": 0,
				"channel": 1,
				"type": "noteOn",
				"noteNumber": 54,
				"velocity": 64
			},
			{
				"deltaTime": 30,
				"channel": 1,
				"type": "noteOff",
				"noteNumber": 54,
				"velocity": 64
			},
			{
				"deltaTime": 0,
				"channel": 1,
				"type": "noteOn",
				"noteNumber": 56,
				"velocity": 64
			},
			{
				"deltaTime": 60,
				"channel": 1,
				"type": "noteOff",
				"noteNumber": 56,
				"velocity": 64
			},
			{
				"deltaTime": 0,
				"channel": 1,
				"type": "noteOn",
				"noteNumber": 52,
				"velocity": 64
			},
			{
				"deltaTime": 60,
				"channel": 1,
				"type": "noteOff",
				"noteNumber": 52,
				"velocity": 64
			},
			{
				"deltaTime": 0,
				"channel": 1,
				"type": "noteOn",
				"noteNumber": 49,
				"velocity": 64
			},
			{
				"deltaTime": 60,
				"channel": 1,
				"type": "noteOff",
				"noteNumber": 49,
				"velocity": 64
			},
			{
				"deltaTime": 0,
				"channel": 1,
				"type": "noteOn",
				"noteNumber": 45,
				"velocity": 64
			},
			{
				"deltaTime": 120,
				"channel": 1,
				"type": "noteOff",
				"noteNumber": 45,
				"velocity": 64
			},
			{
				"deltaTime": 0,
				"channel": 1,
				"type": "noteOn",
				"noteNumber": 57,
				"velocity": 64
			},
			{
				"deltaTime": 120,
				"channel": 1,
				"type": "noteOff",
				"noteNumber": 57,
				"velocity": 64
			},
			{
				"deltaTime": 0,
				"channel": 1,
				"type": "noteOn",
				"noteNumber": 54,
				"velocity": 64
			},
			{
				"deltaTime": 120,
				"channel": 1,
				"type": "noteOff",
				"noteNumber": 54,
				"velocity": 64
			},
			{
				"deltaTime": 0,
				"channel": 1,
				"type": "noteOn",
				"noteNumber": 51,
				"velocity": 64
			},
			{
				"deltaTime": 120,
				"channel": 1,
				"type": "noteOff",
				"noteNumber": 51,
				"velocity": 64
			},
			{
				"deltaTime": 0,
				"channel": 1,
				"type": "noteOn",
				"noteNumber": 61,
				"velocity": 64
			},
			{
				"deltaTime": 120,
				"channel": 1,
				"type": "noteOff",
				"noteNumber": 61,
				"velocity": 64
			},
			{
				"deltaTime": 0,
				"channel": 1,
				"type": "noteOn",
				"noteNumber": 59,
				"velocity": 64
			},
			{
				"deltaTime": 120,
				"channel": 1,
				"type": "noteOff",
				"noteNumber": 59,
				"velocity": 64
			},
			{
				"deltaTime": 0,
				"channel": 1,
				"type": "noteOn",
				"noteNumber": 57,
				"velocity": 64
			},
			{
				"deltaTime": 120,
				"channel": 1,
				"type": "noteOff",
				"noteNumber": 57,
				"velocity": 64
			},
			{
				"deltaTime": 0,
				"channel": 1,
				"type": "noteOn",
				"noteNumber": 56,
				"velocity": 64
			},
			{
				"deltaTime": 120,
				"channel": 1,
				"type": "noteOff",
				"noteNumber": 56,
				"velocity": 64
			},
			{
				"deltaTime": 0,
				"channel": 1,
				"type": "noteOn",
				"noteNumber": 54,
				"velocity": 64
			},
			{
				"deltaTime": 120,
				"channel": 1,
				"type": "noteOff",
				"noteNumber": 54,
				"velocity": 64
			},
			{
				"deltaTime": 0,
				"channel": 1,
				"type": "noteOn",
				"noteNumber": 52,
				"velocity": 64
			},
			{
				"deltaTime": 60,
				"channel": 1,
				"type": "noteOff",
				"noteNumber": 52,
				"velocity": 64
			},
			{
				"deltaTime": 0,
				"channel": 1,
				"type": "noteOn",
				"noteNumber": 51,
				"velocity": 64
			},
			{
				"deltaTime": 60,
				"channel": 1,
				"type": "noteOff",
				"noteNumber": 51,
				"velocity": 64
			},
			{
				"deltaTime": 0,
				"channel": 1,
				"type": "noteOn",
				"noteNumber": 57,
				"velocity": 64
			},
			{
				"deltaTime": 30,
				"channel": 1,
				"type": "noteOff",
				"noteNumber": 57,
				"velocity": 64
			},
			{
				"deltaTime": 0,
				"channel": 1,
				"type": "noteOn",
				"noteNumber": 56,
				"velocity": 64
			},
			{
				"deltaTime": 30,
				"channel": 1,
				"type": "noteOff",
				"noteNumber": 56,
				"velocity": 64
			},
			{
				"deltaTime": 0,
				"channel": 1,
				"type": "noteOn",
				"noteNumber": 57,
				"velocity": 64
			},
			{
				"deltaTime": 60,
				"channel": 1,
				"type": "noteOff",
				"noteNumber": 57,
				"velocity": 64
			},
			{
				"deltaTime": 0,
				"channel": 1,
				"type": "noteOn",
				"noteNumber": 51,
				"velocity": 64
			},
			{
				"deltaTime": 30,
				"channel": 1,
				"type": "noteOff",
				"noteNumber": 51,
				"velocity": 64
			},
			{
				"deltaTime": 0,
				"channel": 1,
				"type": "noteOn",
				"noteNumber": 50,
				"velocity": 64
			},
			{
				"deltaTime": 30,
				"channel": 1,
				"type": "noteOff",
				"noteNumber": 50,
				"velocity": 64
			},
			{
				"deltaTime": 0,
				"channel": 1,
				"type": "noteOn",
				"noteNumber": 51,
				"velocity": 64
			},
			{
				"deltaTime": 60,
				"channel": 1,
				"type": "noteOff",
				"noteNumber": 51,
				"velocity": 64
			},
			{
				"deltaTime": 0,
				"channel": 1,
				"type": "noteOn",
				"noteNumber": 56,
				"velocity": 64
			},
			{
				"deltaTime": 30,
				"channel": 1,
				"type": "noteOff",
				"noteNumber": 56,
				"velocity": 64
			},
			{
				"deltaTime": 0,
				"channel": 1,
				"type": "noteOn",
				"noteNumber": 54,
				"velocity": 64
			},
			{
				"deltaTime": 30,
				"channel": 1,
				"type": "noteOff",
				"noteNumber": 54,
				"velocity": 64
			},
			{
				"deltaTime": 0,
				"channel": 1,
				"type": "noteOn",
				"noteNumber": 56,
				"velocity": 64
			},
			{
				"deltaTime": 120,
				"channel": 1,
				"type": "noteOff",
				"noteNumber": 56,
				"velocity": 64
			},
			{
				"deltaTime": 0,
				"channel": 1,
				"type": "noteOn",
				"noteNumber": 57,
				"velocity": 64
			},
			{
				"deltaTime": 120,
				"channel": 1,
				"type": "noteOff",
				"noteNumber": 57,
				"velocity": 64
			},
			{
				"deltaTime": 0,
				"channel": 1,
				"type": "noteOn",
				"noteNumber": 59,
				"velocity": 64
			},
			{
				"deltaTime": 120,
				"channel": 1,
				"type": "noteOff",
				"noteNumber": 59,
				"velocity": 64
			},
			{
				"deltaTime": 0,
				"channel": 1,
				"type": "noteOn",
				"noteNumber": 52,
				"velocity": 64
			},
			{
				"deltaTime": 120,
				"channel": 1,
				"type": "noteOff",
				"noteNumber": 52,
				"velocity": 64
			},
			{
				"deltaTime": 60,
				"channel": 1,
				"type": "noteOn",
				"noteNumber": 64,
				"velocity": 64
			},
			{
				"deltaTime": 60,
				"channel": 1,
				"type": "noteOff",
				"noteNumber": 64,
				"velocity": 64
			},
			{
				"deltaTime": 0,
				"channel": 1,
				"type": "noteOn",
				"noteNumber": 59,
				"velocity": 64
			},
			{
				"deltaTime": 60,
				"channel": 1,
				"type": "noteOff",
				"noteNumber": 59,
				"velocity": 64
			},
			{
				"deltaTime": 0,
				"channel": 1,
				"type": "noteOn",
				"noteNumber": 56,
				"velocity": 64
			},
			{
				"deltaTime": 60,
				"channel": 1,
				"type": "noteOff",
				"noteNumber": 56,
				"velocity": 64
			},
			{
				"deltaTime": 0,
				"channel": 1,
				"type": "noteOn",
				"noteNumber": 52,
				"velocity": 64
			},
			{
				"deltaTime": 60,
				"channel": 1,
				"type": "noteOff",
				"noteNumber": 52,
				"velocity": 64
			},
			{
				"deltaTime": 0,
				"channel": 1,
				"type": "noteOn",
				"noteNumber": 59,
				"velocity": 64
			},
			{
				"deltaTime": 60,
				"channel": 1,
				"type": "noteOff",
				"noteNumber": 59,
				"velocity": 64
			},
			{
				"deltaTime": 0,
				"channel": 1,
				"type": "noteOn",
				"noteNumber": 56,
				"velocity": 64
			},
			{
				"deltaTime": 60,
				"channel": 1,
				"type": "noteOff",
				"noteNumber": 56,
				"velocity": 64
			},
			{
				"deltaTime": 0,
				"channel": 1,
				"type": "noteOn",
				"noteNumber": 52,
				"velocity": 64
			},
			{
				"deltaTime": 60,
				"channel": 1,
				"type": "noteOff",
				"noteNumber": 52,
				"velocity": 64
			},
			{
				"deltaTime": 0,
				"channel": 1,
				"type": "noteOn",
				"noteNumber": 47,
				"velocity": 64
			},
			{
				"deltaTime": 60,
				"channel": 1,
				"type": "noteOff",
				"noteNumber": 47,
				"velocity": 64
			},
			{
				"deltaTime": 0,
				"channel": 1,
				"type": "noteOn",
				"noteNumber": 44,
				"velocity": 64
			},
			{
				"deltaTime": 60,
				"channel": 1,
				"type": "noteOff",
				"noteNumber": 44,
				"velocity": 64
			},
			{
				"deltaTime": 0,
				"channel": 1,
				"type": "noteOn",
				"noteNumber": 40,
				"velocity": 64
			},
			{
				"deltaTime": 240,
				"channel": 1,
				"type": "noteOff",
				"noteNumber": 40,
				"velocity": 64
			},
			{
				"deltaTime": 0,
				"channel": 1,
				"type": "noteOn",
				"noteNumber": 52,
				"velocity": 64
			},
			{
				"deltaTime": 240,
				"channel": 1,
				"type": "noteOff",
				"noteNumber": 52,
				"velocity": 64
			},
			{
				"deltaTime": 0,
				"meta": true,
				"type": "endOfTrack"
			}
		]
	]
}